<?xml version="1.0" encoding="utf-8"?>
<!-- Generator: Adobe Illustrator 23.0.4, SVG Export Plug-In . SVG Version: 6.00 Build 0)  -->
<svg version="1.1" id="Layer_1" xmlns="http://www.w3.org/2000/svg" xmlns:xlink="http://www.w3.org/1999/xlink" x="0px" y="0px"
	 viewBox="0 0 413.5 105.8" style="enable-background:new 0 0 413.5 105.8;" xml:space="preserve">
<style type="text/css">
	.st0{fill:#55535A;}
	.st1{fill:#7D98CE;}
	.st2{fill:#AE4A3D;}
	.st3{fill:#55535A;stroke:#55535A;stroke-width:0.8554;stroke-miterlimit:10;}
	.st4{fill:#F89532;}
	.st5{opacity:0;fill:#55535A;stroke:#000000;stroke-width:5.970305e-07;stroke-miterlimit:10;}
	.st6{opacity:0;clip-path:url(#SVGID_2_);fill:none;stroke:#000000;stroke-width:5.970305e-07;stroke-miterlimit:10;}
	.st7{clip-path:url(#SVGID_2_);}
	.st8{fill:#F2C691;stroke:#000000;stroke-width:0.26;stroke-miterlimit:10;}
	.st9{fill:#EAA954;}
	.st10{fill:#FFFFFF;}
	.st11{clip-path:url(#SVGID_4_);}
	.st12{fill:#A9BFE3;stroke:#4F76BA;stroke-width:0.2971;stroke-miterlimit:10;}
	.st13{fill:#DEC8E2;stroke:#000000;stroke-width:0.25;stroke-miterlimit:10;}
	.st14{fill:#B193C4;}
	.st15{fill:#A9BFE3;stroke:#4F76BA;stroke-width:0.278;stroke-miterlimit:10;}
	.st16{fill:#EAADAD;stroke:#000000;stroke-width:0.25;stroke-miterlimit:10;}
	.st17{fill:#D37F7D;}
	.st18{clip-path:url(#SVGID_6_);}
	.st19{fill:none;stroke:#55535A;stroke-width:6.657;stroke-miterlimit:10;}
	.st20{fill:none;stroke:#D1D3D4;stroke-width:6.0329;stroke-miterlimit:10;}
	.st21{fill:none;stroke:#D77A52;stroke-width:6.657;stroke-miterlimit:10;}
	.st22{fill:none;stroke:#F3C999;stroke-width:6.0329;stroke-miterlimit:10;}
	.st23{fill:none;stroke:#000000;stroke-width:0.25;stroke-miterlimit:10;}
	.st24{fill:#DAE4F1;stroke:#4F76BA;stroke-width:0.2437;stroke-miterlimit:10;}
	.st25{fill:#4F76BA;}
	.st26{fill:#EDCCCC;stroke:#AE4A3D;stroke-width:0.2433;stroke-miterlimit:10;}
	.st27{fill:#F2D4B7;stroke:#F89532;stroke-width:0.2501;stroke-miterlimit:10;}
	.st28{fill:#D77A52;}
	.st29{fill:none;stroke:#4F76BA;stroke-width:0.5201;stroke-miterlimit:10;}
	.st30{fill:none;stroke:#D37F7D;stroke-width:0.5;stroke-miterlimit:10;}
	.st31{fill:none;stroke:#F89532;stroke-width:0.5;stroke-miterlimit:10;}
</style>
<g>
	<polyline class="st0" points="3.5,78.3 11,78.3 11.3,76.6 3.9,76.6 5,71.6 13.4,71.6 13.8,69.8 3.3,69.8 0,85.5 2,85.5 3.5,78.3 	
		"/>
	<path class="st0" d="M31.2,81.6H20.8v1.5h10.4V81.6 M31.2,77.9H20.8v1.5h10.4V77.9z"/>
	<polyline class="st0" points="44.6,69.8 42.8,69.8 39.4,85.5 41.2,85.5 42.2,81.1 44.5,79.2 46.9,85.5 49,85.5 46,78.1 50.7,74.2 
		48.4,74.2 42.6,78.9 44.6,69.8 	"/>
	<path class="st0" d="M51.8,87.7l0.8-3.8H56c1,0,1.6,0.5,1.6,1.4c0,0.6-0.2,1.1-0.5,1.5c-0.5,0.6-1,0.9-1.9,0.9H51.8 M52.8,82.7
		l0.7-3.5h2.7c1.3,0,1.9,0.4,1.9,1.3c0,0.6-0.2,1.1-0.6,1.5c-0.4,0.5-1,0.7-2,0.7H52.8z M50.1,88.9h4.9c1.2,0,2.2-0.4,3-1.3
		c0.6-0.7,1-1.6,1-2.6c0-0.9-0.4-1.4-1.5-1.9c1.3-0.6,2-1.7,2-3c0-0.6-0.2-1-0.5-1.4c-0.5-0.5-1.1-0.8-2.2-0.8h-4.4L50.1,88.9z"/>
	<polyline class="st0" points="71.2,71.6 76.3,71.6 76.7,69.8 64.4,69.8 64,71.6 69.2,71.6 66.2,85.5 68.3,85.5 71.2,71.6 	"/>
	<polyline class="st0" points="82.1,105.8 87.7,105.8 87.7,104.7 83.2,104.7 83.2,55.6 87.7,55.6 87.7,54.4 82.1,54.4 82.1,105.8 	
		"/>
	<path class="st0" d="M102.2,80.5c0.4,0,0.8,0,0.8-0.4c0-0.4-0.4-0.4-0.8-0.4H90.6c-0.4,0-0.8,0-0.8,0.4c0,0.4,0.4,0.4,0.8,0.4
		H102.2"/>
	<rect x="109.7" y="69.8" class="st0" width="1.8" height="15.6"/>
	<path class="st0" d="M118.9,75.6c2,0,3.2,1.7,3.2,4.4c0,2.6-1.2,4.3-3.2,4.3c-2,0-3.2-1.7-3.2-4.4
		C115.6,77.2,116.9,75.6,118.9,75.6 M118.8,73.9c-3.2,0-5.1,2.3-5.1,6c0,3.8,1.9,6,5.1,6c3.2,0,5.1-2.3,5.1-5.9
		C123.9,76.1,122.1,73.9,118.8,73.9z"/>
	<path class="st0" d="M130.5,75.6c1.9,0,3.1,1.6,3.1,4.4c0,2.7-1.2,4.3-3,4.3c-2,0-3.1-1.7-3.1-4.4
		C127.4,77.2,128.6,75.6,130.5,75.6 M133.7,74.2v1.6c-0.9-1.3-2-2-3.4-2c-2.9,0-4.8,2.5-4.8,6.1c0,1.8,0.5,3.3,1.4,4.4
		c0.8,0.9,2,1.5,3.2,1.5c1.4,0,2.4-0.6,3.4-2v0.6c0,1.5-0.2,2.4-0.6,3.1c-0.5,0.7-1.4,1.1-2.5,1.1c-0.8,0-1.5-0.2-2-0.6
		c-0.4-0.3-0.6-0.6-0.7-1.3h-1.8c0.2,2.1,1.8,3.4,4.5,3.4c1.7,0,3.1-0.5,3.8-1.4c0.9-1,1.2-2.4,1.2-5.1v-9.4H133.7z"/>
	<path class="st0" d="M148.5,75.6c1.6,0,2.6,1.1,2.6,3c0,1.2-0.4,2.6-0.9,3.6c-0.8,1.5-1.9,2.2-3.3,2.2c-1.6,0-2.6-1.1-2.6-2.8
		c0-1.3,0.4-2.7,1-3.8C146.1,76.3,147.1,75.6,148.5,75.6 M140.5,90h1.8l1.3-6c0.7,1.4,1.5,2,3.1,2c1.7,0,3.3-0.8,4.4-2.1
		c1.2-1.4,1.9-3.6,1.9-5.7c0-2.6-1.4-4.2-3.7-4.2c-0.9,0-1.9,0.3-2.7,0.8c-0.7,0.4-0.9,0.7-1.2,1.3l0.4-1.8h-1.7L140.5,90z"/>
	<path class="st0" d="M158.1,86.5c0,0.4-0.1,0.7-0.5,1c-0.5,0.5-1.1,0.7-1.9,0.7c-1,0-1.5-0.5-1.5-1.3c0-0.8,0.6-1.2,1.9-1.4
		c1.3-0.2,1.6-0.2,2-0.4V86.5 M160.3,88.2c-0.1,0-0.2,0-0.3,0c-0.4,0-0.7-0.2-0.7-0.6V83c0-1.4-1-2.1-2.9-2.1
		c-1.1,0-2.1,0.3-2.6,0.9c-0.4,0.4-0.5,0.9-0.5,1.6h1.3c0.1-1,0.7-1.4,1.8-1.4c1.1,0,1.8,0.4,1.8,1.2v0.3c0,0.5-0.3,0.7-1.3,0.9
		c-1.8,0.2-2,0.3-2.5,0.5c-0.9,0.4-1.4,1.1-1.4,2.1c0,1.4,1,2.3,2.6,2.3c1,0,1.8-0.3,2.7-1.2c0.1,0.8,0.5,1.2,1.3,1.2
		c0.3,0,0.4,0,0.9-0.1V88.2z"/>
	<path class="st0" d="M167.6,83.7c-0.1-0.8-0.2-1.3-0.5-1.7c-0.5-0.7-1.5-1.2-2.6-1.2c-2.1,0-3.5,1.7-3.5,4.3c0,2.5,1.3,4.1,3.5,4.1
		c1.9,0,3.1-1.1,3.2-3h-1.3c-0.2,1.3-0.9,1.9-1.9,1.9c-1.4,0-2.2-1.1-2.2-3c0-2,0.8-3.1,2.2-3.1c1,0,1.7,0.6,1.9,1.7H167.6"/>
	<path class="st0" d="M171.9,81.1h-1.3v-2.2h-1.2v2.2h-1.1v1h1.1V88c0,0.8,0.5,1.2,1.5,1.2c0.3,0,0.6,0,1-0.1v-1
		c-0.2,0-0.4,0.1-0.6,0.1c-0.5,0-0.7-0.1-0.7-0.7v-5.4h1.3V81.1"/>
	<path class="st0" d="M174.5,78h-1.3v1.6h1.3V78 M174.5,81.1h-1.2v7.8h1.2V81.1z"/>
	<polyline class="st0" points="179.8,88.9 182.8,81.1 181.4,81.1 179.2,87.4 177.1,81.1 175.7,81.1 178.5,88.9 179.8,88.9 	"/>
	<path class="st0" d="M184.7,84.4c0.1-1.5,1-2.4,2.2-2.4c1.2,0,2.2,1,2.2,2.3c0,0,0,0.1,0,0.1H184.7 M190.4,85.4
		c0-1.2-0.1-1.9-0.3-2.5c-0.5-1.3-1.7-2.1-3.2-2.1c-2.2,0-3.6,1.7-3.6,4.3c0,2.6,1.4,4.2,3.6,4.2c1.8,0,3-1,3.4-2.7H189
		c-0.3,1-1,1.6-2.1,1.6c-0.8,0-1.5-0.4-1.9-1c-0.3-0.4-0.4-0.9-0.4-1.7H190.4z"/>
	<path class="st0" d="M197.2,69.8c-2.1,2.8-3.5,6.7-3.5,10.1c0,3.4,1.4,7.3,3.5,10.1h1.2c-1.9-3.1-2.9-6.7-2.9-10.1
		c0-3.4,1.1-7,2.9-10.1H197.2"/>
	<path class="st1" d="M211.1,78l0-0.3c0-0.3,0-0.6,0-0.6c0-0.7-0.4-1.6-0.9-2.1c-0.7-0.7-1.5-1-2.8-1c-1.9,0-3.7,0.8-4.8,2.3
		c-1,1.3-1.7,3.6-1.7,5.6c0,1,0.3,2.1,0.9,2.8c0.7,0.9,1.7,1.3,3.1,1.3c1.8,0,3.2-0.6,4.2-1.8c0.6-0.6,0.9-1.4,1.2-2.6h-1.8
		c-0.6,1.8-1.8,2.7-3.4,2.7c-1.5,0-2.4-1.1-2.4-2.7c0-1.4,0.4-3,1.2-4.1c0.8-1.3,1.9-1.9,3.2-1.9c1.4,0,2.2,0.8,2.2,2
		c0,0.1,0,0.3,0,0.5H211.1"/>
	<path class="st0" d="M213.1,90c2.1-2.8,3.5-6.7,3.5-10.1c0-3.4-1.4-7.3-3.5-10.1h-1.2c1.9,3.1,2.9,6.7,2.9,10.1
		c0,3.4-1.1,7-2.9,10.1H213.1"/>
	<path class="st0" d="M237.1,80.5c0.4,0,0.8,0,0.8-0.4c0-0.4-0.4-0.4-0.8-0.4h-11.6c-0.4,0-0.8,0-0.8,0.4c0,0.4,0.4,0.4,0.8,0.4
		H237.1"/>
	<rect x="245.9" y="69.8" class="st0" width="1.8" height="15.6"/>
	<path class="st0" d="M255,75.6c2,0,3.2,1.7,3.2,4.4c0,2.6-1.2,4.3-3.2,4.3c-2,0-3.2-1.7-3.2-4.4C251.8,77.2,253,75.6,255,75.6
		 M255,73.9c-3.2,0-5.1,2.3-5.1,6c0,3.8,1.9,6,5.1,6c3.2,0,5.1-2.3,5.1-5.9C260.1,76.1,258.2,73.9,255,73.9z"/>
	<path class="st0" d="M266.7,75.6c1.9,0,3.1,1.6,3.1,4.4c0,2.7-1.2,4.3-3,4.3c-2,0-3.1-1.7-3.1-4.4
		C263.5,77.2,264.7,75.6,266.7,75.6 M269.9,74.2v1.6c-0.9-1.3-2-2-3.4-2c-2.9,0-4.8,2.5-4.8,6.1c0,1.8,0.5,3.3,1.4,4.4
		c0.8,0.9,2,1.5,3.2,1.5c1.4,0,2.4-0.6,3.4-2v0.6c0,1.5-0.2,2.4-0.6,3.1c-0.5,0.7-1.4,1.1-2.5,1.1c-0.8,0-1.5-0.2-2-0.6
		c-0.4-0.3-0.6-0.6-0.7-1.3H262c0.2,2.1,1.8,3.4,4.5,3.4c1.7,0,3.1-0.5,3.8-1.4c0.9-1,1.2-2.4,1.2-5.1v-9.4H269.9z"/>
	<path class="st2" d="M295.6,62.5l1.2-5.4h4.9c1.1,0,1.7,0.2,2.1,0.6c0.3,0.3,0.5,0.8,0.5,1.3c0,0.8-0.3,1.7-0.8,2.3
		c-0.6,0.8-1.5,1.1-2.9,1.1H295.6 M295.3,64.2h5.1c1.4,0,2.2,0.6,2.2,1.6c0,0.4-0.1,0.8-0.2,1.3c-0.5,2.1-0.5,2.1-0.5,2.8
		c0,0.3,0,0.6,0.1,1h2.4l0.1-0.5c-0.3-0.3-0.5-0.7-0.5-1.1c0-0.3,0-0.6,0.1-1.1c0.3-1.5,0.5-2.6,0.5-3c0-0.9-0.3-1.4-1.3-2.1
		c0.8-0.5,1.2-0.7,1.6-1.1c0.9-0.8,1.4-2.2,1.4-3.6c0-2.3-1.2-3.3-4-3.3h-7.2L291.8,71h2L295.3,64.2z"/>
	<line class="st3" x1="279.1" y1="80.1" x2="317.1" y2="80.1"/>
	<polyline class="st0" points="296.3,84.5 294.4,84.5 291.6,97.3 286.3,84.5 284,84.5 280.7,100.1 282.6,100.1 285.3,87.5 
		290.7,100.1 292.9,100.1 296.3,84.5 	"/>
	<polyline class="st0" points="306.5,92.9 305.2,92.9 303.3,101.9 299.6,92.9 298,92.9 295.7,103.8 297,103.8 298.9,95 302.6,103.8 
		304.2,103.8 306.5,92.9 	"/>
	<path class="st0" d="M315.9,96.1c0.1-0.4,0.1-0.6,0.1-0.8c0-0.6-0.3-1.3-0.8-1.8c-0.6-0.5-1.4-0.8-2.6-0.8c-1.5,0-2.8,0.4-3.6,1.3
		c-0.6,0.6-1.1,1.7-1.1,2.5c0,0.9,0.7,1.7,1.7,2l2.6,0.7c1.2,0.3,1.7,0.8,1.7,1.5c0,0.5-0.3,1-0.7,1.4c-0.6,0.6-1.5,0.8-2.7,0.8
		c-1.7,0-2.5-0.6-2.5-2c0-0.2,0-0.3,0.1-0.6h-1.3c-0.1,0.4-0.1,0.6-0.1,0.9c0,1.8,1.3,2.9,3.6,2.9c1.6,0,2.9-0.4,3.8-1.3
		c0.8-0.7,1.3-1.8,1.3-2.6c0-0.4-0.1-0.8-0.4-1.2c-0.3-0.5-0.8-0.8-1.5-1l-2.6-0.7c-1.2-0.3-1.5-0.6-1.5-1.3c0-0.5,0.2-1,0.7-1.4
		c0.6-0.5,1.3-0.7,2.3-0.7c0.8,0,1.5,0.2,1.8,0.5c0.3,0.3,0.5,0.7,0.5,1.2c0,0.1,0,0.2-0.1,0.5H315.9"/>
	<polyline class="st0" points="339.9,79.7 335.5,79.7 335.5,75.3 334,75.3 334,79.7 329.5,79.7 329.5,81.2 334,81.2 334,85.7 
		335.5,85.7 335.5,81.2 339.9,81.2 339.9,79.7 	"/>
	<path class="st4" d="M361.7,62.6c1.2-2.6,2-4.2,2.2-5.1c0.1,0.3,0.2,0.7,1.4,3.2l3.9,8.4h-10.6L361.7,62.6 M365.2,56.1h-1.9
		L356.2,71h16L365.2,56.1z"/>
	<path class="st4" d="M376.9,65.8c0.5-0.2,0.9-0.2,1.3-0.2c0.5,0,0.6,0,1,0.1c-0.3,0.2-0.4,0.2-1.2,0.2
		C377.5,65.9,377.3,65.9,376.9,65.8 M376.2,66.1c0.7,0.3,1.3,0.3,1.8,0.3c0.6,0,1.7,0,1.7-0.7c0-0.5-0.7-0.6-1.6-0.6
		c-0.4,0-1.2,0-2,0.4c-0.5-0.3-0.9-0.7-0.9-1.2c0-1.3,2.1-2.1,4-2.1c0.3,0,1.1,0,2,0.6c0.2,0.2,0.3,0.2,0.4,0.2
		c0.3,0,0.6-0.3,0.6-0.6c0-0.4-1.3-1.2-2.8-1.2c-2.5,0-4.8,1.4-4.8,3.1c0,0.9,0.8,1.5,0.9,1.5c-1.3,0.7-2,1.9-2,2.9
		c0,1.4,1.2,2.7,3.5,2.7c2.8,0,4-1.9,4-2.2c0-0.1-0.1-0.2-0.2-0.2c-0.1,0-0.2,0.1-0.2,0.2c-0.3,0.5-0.8,1.3-3.4,1.3
		c-1.3,0-3.1-0.3-3.1-1.8C374.3,67.9,374.9,66.7,376.2,66.1z"/>
	<path class="st4" d="M387.2,68.5l0.8-3.8h3.4c0.8,0,1.2,0.1,1.5,0.4c0.2,0.2,0.3,0.6,0.3,0.9c0,0.6-0.2,1.2-0.6,1.6
		c-0.4,0.5-1.1,0.8-2,0.8H387.2 M386.9,69.7h3.6c1,0,1.5,0.4,1.5,1.1c0,0.3,0,0.6-0.1,0.9c-0.4,1.5-0.4,1.5-0.4,2
		c0,0.2,0,0.4,0.1,0.7h1.7l0.1-0.3c-0.2-0.2-0.3-0.5-0.3-0.8c0-0.2,0-0.4,0.1-0.7c0.2-1,0.3-1.8,0.3-2.1c0-0.7-0.2-1-0.9-1.4
		c0.6-0.3,0.8-0.5,1.1-0.7c0.6-0.6,1-1.6,1-2.5c0-1.6-0.9-2.3-2.8-2.3h-5l-2.3,10.9h1.4L386.9,69.7z"/>
	<path class="st4" d="M401.6,70h-3.5l2.9-5L401.6,70z M401.8,71.1l0.4,3.3h1.5l-1.5-10.9h-1.8l-6.2,10.9h1.5l1.8-3.3H401.8z"/>
	<line class="st3" x1="355.3" y1="80.1" x2="405" y2="80.1"/>
	<polyline class="st0" points="367.3,84.5 365.5,84.5 362.1,100.1 363.9,100.1 364.9,95.8 367.2,93.9 369.6,100.1 371.7,100.1 
		368.7,92.8 373.4,88.9 371.1,88.9 365.3,93.6 367.3,84.5 	"/>
	<path class="st0" d="M374.4,102.4l0.8-3.8h3.4c1,0,1.6,0.5,1.6,1.4c0,0.6-0.2,1.1-0.5,1.5c-0.5,0.6-1,0.9-1.9,0.9H374.4
		 M375.5,97.4l0.7-3.5h2.7c1.3,0,1.9,0.4,1.9,1.3c0,0.6-0.2,1.1-0.6,1.5c-0.4,0.5-1,0.7-2,0.7H375.5z M372.8,103.6h4.9
		c1.2,0,2.2-0.4,3-1.3c0.6-0.7,1-1.6,1-2.6c0-0.9-0.4-1.4-1.5-1.9c1.3-0.6,2-1.7,2-3c0-0.6-0.2-1-0.5-1.4c-0.5-0.5-1.1-0.8-2.2-0.8
		h-4.4L372.8,103.6z"/>
	<polyline class="st0" points="393.9,86.3 399,86.3 399.4,84.5 387.1,84.5 386.7,86.3 391.9,86.3 388.9,100.1 391,100.1 393.9,86.3 
			"/>
	<polyline class="st0" points="412.3,104.7 407.9,104.7 407.9,105.8 413.5,105.8 413.5,54.4 407.9,54.4 407.9,55.6 412.3,55.6 
		412.3,104.7 	"/>
	<path class="st5" d="M201.1,80L201.1,80z"/>
</g>
<g>
	<defs>
		<path id="SVGID_1_" d="M177.5,62.6h-9c-5.8,0-10.5-4.7-10.5-10.5V30.7c0-5.8,4.7-10.5,10.5-10.5h33c5.8,0,10.5,4.7,10.5,10.5v21.4
			c0,3-1.2,5.7-3.2,7.6c-0.8,0.8-2.4,9.5-2.4,9.5s-3.3-6.5-4.9-6.5h-18.1H177.5z"/>
	</defs>
	<clipPath id="SVGID_2_">
		<use xlink:href="#SVGID_1_"  style="overflow:visible;"/>
	</clipPath>
	<polygon class="st6" points="175,35.9 175,35.9 175,35.9 175,35.9 175,35.9 175,35.9 175,35.9 175,35.9 175,35.9 175,35.9 
		175,35.9 175,35.9 175,35.9 175,35.9 175,35.9 175,35.9 175,35.9 175,35.9 175,35.9 175,35.9 175,35.9 175,35.9 175,35.9 175,35.9 
		175,35.9 175,35.9 175,35.9 175,35.9 175,35.9 175,35.9 175,35.9 175,35.9 175,35.9 175,35.9 175,35.9 175,35.9 175,35.9 175,35.9 
		175,35.9 175,35.9 175,35.9 175,35.9 175,35.9 175,35.9 175,35.9 175,35.9 175,35.9 175,35.9 175,35.9 175,35.9 175,35.9 175,35.9 
		175,35.9 175,35.9 175,35.9 175,35.9 175,35.9 175,35.9 175,35.9 175,35.9 175,35.9 175,35.9 175,35.9 175,35.9 175,35.9 175,35.9 
		175,35.9 175,35.9 175,35.9 175,35.9 175,35.9 175,35.9 175,35.9 175,35.9 175,35.9 175,35.9 175,35.9 175,35.9 175,35.9 175,35.9 
		175,35.9 175,35.9 175,35.9 175,35.9 175,35.9 175,35.9 175,35.9 175,35.9 175,35.9 175,35.9 175,35.9 175,35.9 175,35.9 175,35.9 
		175,35.9 175,35.9 175,35.9 175,35.9 175,35.9 175,35.9 175,35.9 175,35.9 175,35.9 175,35.9 175,35.9 175,35.9 175,35.9 175,35.9 
		175,35.9 175,35.9 175,35.9 175,35.9 175,35.9 175,35.9 175,35.9 175,35.9 175,35.9 175,35.9 175,35.9 175,35.9 175,35.9 175,35.9 
		175,35.9 175,35.9 175,35.9 175,35.9 175,35.9 175,35.9 	"/>
	<g class="st7">
		<circle class="st8" cx="158.5" cy="28.9" r="3.2"/>
		<g>
			<path class="st9" d="M161,27.2c0.5,0.6,0.7,1.6,0.5,2.4c-0.2,0.9-0.8,1.7-1.7,2.1c-0.8,0.4-1.9,0.4-2.7,0c-0.8-0.4-1.4-1.2-1.5-2
				c0.5,0.6,1.1,1.1,1.8,1.3c0.7,0.2,1.3,0.1,1.9-0.1C160.6,30.2,161.3,28.7,161,27.2z"/>
		</g>
		<g>
			<path class="st10" d="M158,26.7c-0.5,0.2-1.1,0.5-1.4,0.9c-0.2,0.2-0.3,0.5-0.4,0.7c-0.1,0.3-0.1,0.6-0.1,0.9
				c0-0.3-0.1-0.6,0-0.9c0.1-0.3,0.2-0.6,0.4-0.9c0.4-0.5,0.9-0.9,1.5-1.2c0.1-0.1,0.3,0,0.3,0.1C158.2,26.4,158.1,26.6,158,26.7
				C158,26.6,158,26.6,158,26.7L158,26.7z"/>
		</g>
	</g>
	<g class="st7">
		<circle class="st8" cx="172.7" cy="23.1" r="3.2"/>
		<g>
			<path class="st9" d="M175.1,21.3c0.5,0.6,0.7,1.6,0.5,2.4c-0.2,0.9-0.8,1.7-1.7,2.1c-0.8,0.4-1.9,0.4-2.7,0
				c-0.8-0.4-1.4-1.2-1.5-2c0.5,0.6,1.1,1.1,1.8,1.3c0.7,0.2,1.3,0.1,1.9-0.1C174.8,24.4,175.4,22.9,175.1,21.3z"/>
		</g>
		<g>
			<path class="st10" d="M172.2,20.8c-0.5,0.2-1.1,0.5-1.4,0.9c-0.2,0.2-0.3,0.5-0.4,0.7c-0.1,0.3-0.1,0.6-0.1,0.9
				c0-0.3-0.1-0.6,0-0.9c0.1-0.3,0.2-0.6,0.4-0.9c0.4-0.5,0.9-0.9,1.5-1.2c0.1-0.1,0.3,0,0.3,0.1C172.4,20.6,172.3,20.7,172.2,20.8
				C172.2,20.8,172.2,20.8,172.2,20.8L172.2,20.8z"/>
		</g>
	</g>
	<g class="st7">
		<circle class="st8" cx="183.1" cy="23.1" r="3.2"/>
		<g>
			<path class="st9" d="M185.5,21.3c0.5,0.6,0.7,1.6,0.5,2.4c-0.2,0.9-0.8,1.7-1.7,2.1c-0.8,0.4-1.9,0.4-2.7,0
				c-0.8-0.4-1.4-1.2-1.5-2c0.5,0.6,1.1,1.1,1.8,1.3c0.7,0.2,1.3,0.1,1.9-0.1C185.2,24.4,185.8,22.9,185.5,21.3z"/>
		</g>
		<g>
			<path class="st10" d="M182.6,20.8c-0.5,0.2-1.1,0.5-1.4,0.9c-0.2,0.2-0.3,0.5-0.4,0.7c-0.1,0.3-0.1,0.6-0.1,0.9
				c0-0.3-0.1-0.6,0-0.9c0.1-0.3,0.2-0.6,0.4-0.9c0.4-0.5,0.9-0.9,1.5-1.2c0.1-0.1,0.3,0,0.3,0.1C182.8,20.6,182.7,20.7,182.6,20.8
				C182.6,20.8,182.6,20.8,182.6,20.8L182.6,20.8z"/>
		</g>
	</g>
	<g class="st7">
		<circle class="st8" cx="193.5" cy="23.1" r="3.2"/>
		<g>
			<path class="st9" d="M196,21.3c0.5,0.6,0.7,1.6,0.5,2.4c-0.2,0.9-0.8,1.7-1.7,2.1c-0.8,0.4-1.9,0.4-2.7,0c-0.8-0.4-1.4-1.2-1.5-2
				c0.5,0.6,1.1,1.1,1.8,1.3c0.7,0.2,1.3,0.1,1.9-0.1C195.6,24.4,196.2,22.9,196,21.3z"/>
		</g>
		<g>
			<path class="st10" d="M193,20.8c-0.5,0.2-1.1,0.5-1.4,0.9c-0.2,0.2-0.3,0.5-0.4,0.7c-0.1,0.3-0.1,0.6-0.1,0.9
				c0-0.3-0.1-0.6,0-0.9c0.1-0.3,0.2-0.6,0.4-0.9c0.4-0.5,0.9-0.9,1.5-1.2c0.1-0.1,0.3,0,0.3,0.1C193.2,20.6,193.1,20.7,193,20.8
				C193,20.8,193,20.8,193,20.8L193,20.8z"/>
		</g>
	</g>
	<g class="st7">
		<circle class="st8" cx="205" cy="23.1" r="3.2"/>
		<g>
			<path class="st9" d="M207.4,21.3c0.5,0.6,0.7,1.6,0.5,2.4c-0.2,0.9-0.8,1.7-1.7,2.1c-0.8,0.4-1.9,0.4-2.7,0
				c-0.8-0.4-1.4-1.2-1.5-2c0.5,0.6,1.1,1.1,1.8,1.3c0.7,0.2,1.3,0.1,1.9-0.1C207,24.4,207.7,22.9,207.4,21.3z"/>
		</g>
		<g>
			<path class="st10" d="M204.4,20.8c-0.5,0.2-1.1,0.5-1.4,0.9c-0.2,0.2-0.3,0.5-0.4,0.7c-0.1,0.3-0.1,0.6-0.1,0.9
				c0-0.3-0.1-0.6,0-0.9c0.1-0.3,0.2-0.6,0.4-0.9c0.4-0.5,0.9-0.9,1.5-1.2c0.1-0.1,0.3,0,0.3,0.1C204.6,20.6,204.6,20.7,204.4,20.8
				C204.4,20.8,204.4,20.8,204.4,20.8L204.4,20.8z"/>
		</g>
	</g>
	<g class="st7">
		<circle class="st8" cx="163.7" cy="43.6" r="3.2"/>
		<g>
			<path class="st9" d="M166.1,41.9c0.5,0.6,0.7,1.6,0.5,2.4c-0.2,0.9-0.8,1.7-1.7,2.1c-0.8,0.4-1.9,0.4-2.7,0
				c-0.8-0.4-1.4-1.2-1.5-2c0.5,0.6,1.1,1.1,1.8,1.3c0.7,0.2,1.3,0.1,1.9-0.1C165.8,44.9,166.4,43.5,166.1,41.9z"/>
		</g>
		<g>
			<path class="st10" d="M163.2,41.4c-0.5,0.2-1.1,0.5-1.4,0.9c-0.2,0.2-0.3,0.5-0.4,0.7c-0.1,0.3-0.1,0.6-0.1,0.9
				c0-0.3-0.1-0.6,0-0.9c0.1-0.3,0.2-0.6,0.4-0.9c0.4-0.5,0.9-0.9,1.5-1.2c0.1-0.1,0.3,0,0.3,0.1C163.4,41.2,163.3,41.3,163.2,41.4
				C163.2,41.4,163.2,41.4,163.2,41.4L163.2,41.4z"/>
		</g>
	</g>
	<g class="st7">
		<circle class="st8" cx="207.8" cy="31.5" r="3.2"/>
		<g>
			<path class="st9" d="M210.2,29.8c0.5,0.6,0.7,1.6,0.5,2.4c-0.2,0.9-0.8,1.7-1.7,2.1c-0.8,0.4-1.9,0.4-2.7,0
				c-0.8-0.4-1.4-1.2-1.5-2c0.5,0.6,1.1,1.1,1.8,1.3c0.7,0.2,1.3,0.1,1.9-0.1C209.8,32.9,210.5,31.4,210.2,29.8z"/>
		</g>
		<g>
			<path class="st10" d="M207.3,29.3c-0.5,0.2-1.1,0.5-1.4,0.9c-0.2,0.2-0.3,0.5-0.4,0.7c-0.1,0.3-0.1,0.6-0.1,0.9
				c0-0.3-0.1-0.6,0-0.9c0.1-0.3,0.2-0.6,0.4-0.9c0.4-0.5,0.9-0.9,1.5-1.2c0.1-0.1,0.3,0,0.3,0.1C207.5,29.1,207.4,29.2,207.3,29.3
				C207.3,29.3,207.3,29.3,207.3,29.3L207.3,29.3z"/>
		</g>
	</g>
	<g class="st7">
		<circle class="st8" cx="163.9" cy="33.4" r="3.2"/>
		<g>
			<path class="st9" d="M166.4,31.6c0.5,0.6,0.7,1.6,0.5,2.4c-0.2,0.9-0.8,1.7-1.7,2.1c-0.8,0.4-1.9,0.4-2.7,0
				c-0.8-0.4-1.4-1.2-1.5-2c0.5,0.6,1.1,1.1,1.8,1.3c0.7,0.2,1.3,0.1,1.9-0.1C166,34.7,166.7,33.2,166.4,31.6z"/>
		</g>
		<g>
			<path class="st10" d="M163.4,31.1c-0.5,0.2-1.1,0.5-1.4,0.9c-0.2,0.2-0.3,0.5-0.4,0.7c-0.1,0.3-0.1,0.6-0.1,0.9
				c0-0.3-0.1-0.6,0-0.9c0.1-0.3,0.2-0.6,0.4-0.9c0.4-0.5,0.9-0.9,1.5-1.2c0.1-0.1,0.3,0,0.3,0.1C163.6,30.9,163.5,31.1,163.4,31.1
				C163.4,31.1,163.4,31.1,163.4,31.1L163.4,31.1z"/>
		</g>
	</g>
	<g class="st7">
		<circle class="st8" cx="177.7" cy="44.4" r="3.2"/>
		<g>
			<path class="st9" d="M180.1,42.7c0.5,0.6,0.7,1.6,0.5,2.4c-0.2,0.9-0.8,1.7-1.7,2.1c-0.8,0.4-1.9,0.4-2.7,0
				c-0.8-0.4-1.4-1.2-1.5-2c0.5,0.6,1.1,1.1,1.8,1.3c0.7,0.2,1.3,0.1,1.9-0.1C179.7,45.8,180.4,44.3,180.1,42.7z"/>
		</g>
		<g>
			<path class="st10" d="M177.1,42.2c-0.5,0.2-1.1,0.5-1.4,0.9c-0.2,0.2-0.3,0.5-0.4,0.7c-0.1,0.3-0.1,0.6-0.1,0.9
				c0-0.3-0.1-0.6,0-0.9c0.1-0.3,0.2-0.6,0.4-0.9c0.4-0.5,0.9-0.9,1.5-1.2c0.1-0.1,0.3,0,0.3,0.1C177.3,42,177.3,42.1,177.1,42.2
				C177.2,42.2,177.1,42.2,177.1,42.2L177.1,42.2z"/>
		</g>
	</g>
	<g class="st7">
		<circle class="st8" cx="170" cy="51.2" r="3.2"/>
		<g>
			<path class="st9" d="M172.4,49.4c0.5,0.6,0.7,1.6,0.5,2.4c-0.2,0.9-0.8,1.7-1.7,2.1c-0.8,0.4-1.9,0.4-2.7,0
				c-0.8-0.4-1.4-1.2-1.5-2c0.5,0.6,1.1,1.1,1.8,1.3c0.7,0.2,1.3,0.1,1.9-0.1C172,52.5,172.7,51,172.4,49.4z"/>
		</g>
		<g>
			<path class="st10" d="M169.4,48.9c-0.5,0.2-1.1,0.5-1.4,0.9c-0.2,0.2-0.3,0.5-0.4,0.7c-0.1,0.3-0.1,0.6-0.1,0.9
				c0-0.3-0.1-0.6,0-0.9c0.1-0.3,0.2-0.6,0.4-0.9c0.4-0.5,0.9-0.9,1.5-1.2c0.1-0.1,0.3,0,0.3,0.1C169.6,48.7,169.6,48.8,169.4,48.9
				C169.4,48.9,169.4,48.9,169.4,48.9L169.4,48.9z"/>
		</g>
	</g>
	<g class="st7">
		<circle class="st8" cx="176" cy="58.3" r="3.2"/>
		<g>
			<path class="st9" d="M178.4,56.5c0.5,0.6,0.7,1.6,0.5,2.4c-0.2,0.9-0.8,1.7-1.7,2.1c-0.8,0.4-1.9,0.4-2.7,0
				c-0.8-0.4-1.4-1.2-1.5-2c0.5,0.6,1.1,1.1,1.8,1.3c0.7,0.2,1.3,0.1,1.9-0.1C178.1,59.6,178.7,58.1,178.4,56.5z"/>
		</g>
		<g>
			<path class="st10" d="M175.5,56c-0.5,0.2-1.1,0.5-1.4,0.9c-0.2,0.2-0.3,0.5-0.4,0.7c-0.1,0.3-0.1,0.6-0.1,0.9
				c0-0.3-0.1-0.6,0-0.9c0.1-0.3,0.2-0.6,0.4-0.9c0.4-0.5,0.9-0.9,1.5-1.2c0.1-0.1,0.3,0,0.3,0.1C175.7,55.8,175.6,56,175.5,56
				C175.5,56,175.5,56,175.5,56L175.5,56z"/>
		</g>
	</g>
	<g class="st7">
		<circle class="st8" cx="189.6" cy="57.1" r="3.2"/>
		<g>
			<path class="st9" d="M192,55.3c0.5,0.6,0.7,1.6,0.5,2.4c-0.2,0.9-0.8,1.7-1.7,2.1c-0.8,0.4-1.9,0.4-2.7,0c-0.8-0.4-1.4-1.2-1.5-2
				c0.5,0.6,1.1,1.1,1.8,1.3c0.7,0.2,1.3,0.1,1.9-0.1C191.6,58.4,192.3,56.9,192,55.3z"/>
		</g>
		<g>
			<path class="st10" d="M189,54.8c-0.5,0.2-1.1,0.5-1.4,0.9c-0.2,0.2-0.3,0.5-0.4,0.7c-0.1,0.3-0.1,0.6-0.1,0.9
				c0-0.3-0.1-0.6,0-0.9c0.1-0.3,0.2-0.6,0.4-0.9c0.4-0.5,0.9-0.9,1.5-1.2c0.1-0.1,0.3,0,0.3,0.1C189.3,54.6,189.2,54.8,189,54.8
				C189.1,54.8,189.1,54.8,189,54.8L189,54.8z"/>
		</g>
	</g>
	<g class="st7">
		<circle class="st8" cx="192" cy="47.8" r="3.2"/>
		<g>
			<path class="st9" d="M194.4,46.1c0.5,0.6,0.7,1.6,0.5,2.4c-0.2,0.9-0.8,1.7-1.7,2.1c-0.8,0.4-1.9,0.4-2.7,0
				c-0.8-0.4-1.4-1.2-1.5-2c0.5,0.6,1.1,1.1,1.8,1.3c0.7,0.2,1.3,0.1,1.9-0.1C194,49.1,194.7,47.7,194.4,46.1z"/>
		</g>
		<g>
			<path class="st10" d="M191.4,45.6c-0.5,0.2-1.1,0.5-1.4,0.9c-0.2,0.2-0.3,0.5-0.4,0.7c-0.1,0.3-0.1,0.6-0.1,0.9
				c0-0.3-0.1-0.6,0-0.9c0.1-0.3,0.2-0.6,0.4-0.9c0.4-0.5,0.9-0.9,1.5-1.2c0.1-0.1,0.3,0,0.3,0.1C191.7,45.3,191.6,45.5,191.4,45.6
				C191.5,45.5,191.5,45.6,191.4,45.6L191.4,45.6z"/>
		</g>
	</g>
	<g class="st7">
		<circle class="st8" cx="182.2" cy="52.3" r="3.2"/>
		<g>
			<path class="st9" d="M184.6,50.5c0.5,0.6,0.7,1.6,0.5,2.4c-0.2,0.9-0.8,1.7-1.7,2.1c-0.8,0.4-1.9,0.4-2.7,0
				c-0.8-0.4-1.4-1.2-1.5-2c0.5,0.6,1.1,1.1,1.8,1.3c0.7,0.2,1.3,0.1,1.9-0.1C184.2,53.6,184.9,52.1,184.6,50.5z"/>
		</g>
		<g>
			<path class="st10" d="M181.6,50c-0.5,0.2-1.1,0.5-1.4,0.9c-0.2,0.2-0.3,0.5-0.4,0.7c-0.1,0.3-0.1,0.6-0.1,0.9
				c0-0.3-0.1-0.6,0-0.9c0.1-0.3,0.2-0.6,0.4-0.9c0.4-0.5,0.9-0.9,1.5-1.2c0.1-0.1,0.3,0,0.3,0.1C181.9,49.8,181.8,50,181.6,50
				C181.7,50,181.7,50,181.6,50L181.6,50z"/>
		</g>
	</g>
	<g class="st7">
		<circle class="st8" cx="187" cy="39.6" r="3.2"/>
		<g>
			<path class="st9" d="M189.4,37.8c0.5,0.6,0.7,1.6,0.5,2.4c-0.2,0.9-0.8,1.7-1.7,2.1c-0.8,0.4-1.9,0.4-2.7,0
				c-0.8-0.4-1.4-1.2-1.5-2c0.5,0.6,1.1,1.1,1.8,1.3c0.7,0.2,1.3,0.1,1.9-0.1C189,40.9,189.7,39.4,189.4,37.8z"/>
		</g>
		<g>
			<path class="st10" d="M186.5,37.3c-0.5,0.2-1.1,0.5-1.4,0.9c-0.2,0.2-0.3,0.5-0.4,0.7c-0.1,0.3-0.1,0.6-0.1,0.9
				c0-0.3-0.1-0.6,0-0.9c0.1-0.3,0.2-0.6,0.4-0.9c0.4-0.5,0.9-0.9,1.5-1.2c0.1-0.1,0.3,0,0.3,0.1S186.6,37.2,186.5,37.3
				C186.5,37.3,186.5,37.3,186.5,37.3L186.5,37.3z"/>
		</g>
	</g>
	<g class="st7">
		<circle class="st8" cx="195.6" cy="38.9" r="3.2"/>
		<g>
			<path class="st9" d="M198,37.1c0.5,0.6,0.7,1.6,0.5,2.4c-0.2,0.9-0.8,1.7-1.7,2.1c-0.8,0.4-1.9,0.4-2.7,0c-0.8-0.4-1.4-1.2-1.5-2
				c0.5,0.6,1.1,1.1,1.8,1.3c0.7,0.2,1.3,0.1,1.9-0.1C197.6,40.2,198.3,38.7,198,37.1z"/>
		</g>
		<g>
			<path class="st10" d="M195,36.6c-0.5,0.2-1.1,0.5-1.4,0.9c-0.2,0.2-0.3,0.5-0.4,0.7c-0.1,0.3-0.1,0.6-0.1,0.9
				c0-0.3-0.1-0.6,0-0.9c0.1-0.3,0.2-0.6,0.4-0.9c0.4-0.5,0.9-0.9,1.5-1.2c0.1-0.1,0.3,0,0.3,0.1C195.3,36.4,195.2,36.6,195,36.6
				C195.1,36.6,195.1,36.6,195,36.6L195,36.6z"/>
		</g>
	</g>
	<g class="st7">
		<circle class="st8" cx="203.5" cy="42" r="3.2"/>
		<g>
			<path class="st9" d="M205.9,40.2c0.5,0.6,0.7,1.6,0.5,2.4c-0.2,0.9-0.8,1.7-1.7,2.1c-0.8,0.4-1.9,0.4-2.7,0
				c-0.8-0.4-1.4-1.2-1.5-2c0.5,0.6,1.1,1.1,1.8,1.3c0.7,0.2,1.3,0.1,1.9-0.1C205.5,43.3,206.2,41.8,205.9,40.2z"/>
		</g>
		<g>
			<path class="st10" d="M202.9,39.7c-0.5,0.2-1.1,0.5-1.4,0.9c-0.2,0.2-0.3,0.5-0.4,0.7c-0.1,0.3-0.1,0.6-0.1,0.9
				c0-0.3-0.1-0.6,0-0.9c0.1-0.3,0.2-0.6,0.4-0.9c0.4-0.5,0.9-0.9,1.5-1.2c0.1-0.1,0.3,0,0.3,0.1C203.2,39.5,203.1,39.6,202.9,39.7
				C203,39.7,203,39.7,202.9,39.7L202.9,39.7z"/>
		</g>
	</g>
	<g class="st7">
		<circle class="st8" cx="201.6" cy="49.9" r="3.2"/>
		<g>
			<path class="st9" d="M204,48.1c0.5,0.6,0.7,1.6,0.5,2.4c-0.2,0.9-0.8,1.7-1.7,2.1c-0.8,0.4-1.9,0.4-2.7,0c-0.8-0.4-1.4-1.2-1.5-2
				c0.5,0.6,1.1,1.1,1.8,1.3c0.7,0.2,1.3,0.1,1.9-0.1C203.6,51.2,204.3,49.7,204,48.1z"/>
		</g>
		<g>
			<path class="st10" d="M201.1,47.6c-0.5,0.2-1.1,0.5-1.4,0.9c-0.2,0.2-0.3,0.5-0.4,0.7c-0.1,0.3-0.1,0.6-0.1,0.9
				c0-0.3-0.1-0.6,0-0.9c0.1-0.3,0.2-0.6,0.4-0.9c0.4-0.5,0.9-0.9,1.5-1.2c0.1-0.1,0.3,0,0.3,0.1C201.3,47.4,201.2,47.5,201.1,47.6
				C201.1,47.6,201.1,47.6,201.1,47.6L201.1,47.6z"/>
		</g>
	</g>
	<g class="st7">
		<circle class="st8" cx="197.5" cy="56.7" r="3.2"/>
		<g>
			<path class="st9" d="M199.9,55c0.5,0.6,0.7,1.6,0.5,2.4c-0.2,0.9-0.8,1.7-1.7,2.1c-0.8,0.4-1.9,0.4-2.7,0c-0.8-0.4-1.4-1.2-1.5-2
				c0.5,0.6,1.1,1.1,1.8,1.3c0.7,0.2,1.3,0.1,1.9-0.1C199.5,58,200.2,56.6,199.9,55z"/>
		</g>
		<g>
			<path class="st10" d="M196.9,54.5c-0.5,0.2-1.1,0.5-1.4,0.9c-0.2,0.2-0.3,0.5-0.4,0.7c-0.1,0.3-0.1,0.6-0.1,0.9
				c0-0.3-0.1-0.6,0-0.9c0.1-0.3,0.2-0.6,0.4-0.9c0.4-0.5,0.9-0.9,1.5-1.2c0.1-0.1,0.3,0,0.3,0.1C197.2,54.3,197.1,54.4,196.9,54.5
				C197,54.5,197,54.5,196.9,54.5L196.9,54.5z"/>
		</g>
	</g>
	<g class="st7">
		<circle class="st8" cx="209.3" cy="49.2" r="3.2"/>
		<g>
			<path class="st9" d="M211.8,47.4c0.5,0.6,0.7,1.6,0.5,2.4c-0.2,0.9-0.8,1.7-1.7,2.1c-0.8,0.4-1.9,0.4-2.7,0
				c-0.8-0.4-1.4-1.2-1.5-2c0.5,0.6,1.1,1.1,1.8,1.3c0.7,0.2,1.3,0.1,1.9-0.1C211.4,50.5,212.1,49,211.8,47.4z"/>
		</g>
		<g>
			<path class="st10" d="M208.8,46.9c-0.5,0.2-1.1,0.5-1.4,0.9c-0.2,0.2-0.3,0.5-0.4,0.7c-0.1,0.3-0.1,0.6-0.1,0.9
				c0-0.3-0.1-0.6,0-0.9c0.1-0.3,0.2-0.6,0.4-0.9c0.4-0.5,0.9-0.9,1.5-1.2c0.1-0.1,0.3,0,0.3,0.1C209,46.7,209,46.9,208.8,46.9
				C208.8,46.9,208.8,46.9,208.8,46.9L208.8,46.9z"/>
		</g>
	</g>
	<g class="st7">
		<circle class="st8" cx="206.6" cy="56.6" r="3.2"/>
		<g>
			<path class="st9" d="M209,54.8c0.5,0.6,0.7,1.6,0.5,2.4c-0.2,0.9-0.8,1.7-1.7,2.1c-0.8,0.4-1.9,0.4-2.7,0c-0.8-0.4-1.4-1.2-1.5-2
				c0.5,0.6,1.1,1.1,1.8,1.3c0.7,0.2,1.3,0.1,1.9-0.1C208.6,57.9,209.3,56.4,209,54.8z"/>
		</g>
		<g>
			<path class="st10" d="M206,54.3c-0.5,0.2-1.1,0.5-1.4,0.9c-0.2,0.2-0.3,0.5-0.4,0.7c-0.1,0.3-0.1,0.6-0.1,0.9
				c0-0.3-0.1-0.6,0-0.9c0.1-0.3,0.2-0.6,0.4-0.9c0.4-0.5,0.9-0.9,1.5-1.2c0.1-0.1,0.3,0,0.3,0.1S206.2,54.2,206,54.3
				C206.1,54.3,206.1,54.3,206,54.3L206,54.3z"/>
		</g>
	</g>
	<g class="st7">
		<circle class="st8" cx="211.6" cy="40.2" r="3.2"/>
		<g>
			<path class="st9" d="M214,38.5c0.5,0.6,0.7,1.6,0.5,2.4c-0.2,0.9-0.8,1.7-1.7,2.1c-0.8,0.4-1.9,0.4-2.7,0c-0.8-0.4-1.4-1.2-1.5-2
				c0.5,0.6,1.1,1.1,1.8,1.3c0.7,0.2,1.3,0.1,1.9-0.1C213.6,41.6,214.3,40.1,214,38.5z"/>
		</g>
		<g>
			<path class="st10" d="M211,38c-0.5,0.2-1.1,0.5-1.4,0.9c-0.2,0.2-0.3,0.5-0.4,0.7c-0.1,0.3-0.1,0.6-0.1,0.9c0-0.3-0.1-0.6,0-0.9
				c0.1-0.3,0.2-0.6,0.4-0.9c0.4-0.5,0.9-0.9,1.5-1.2c0.1-0.1,0.3,0,0.3,0.1C211.2,37.8,211.2,37.9,211,38C211.1,38,211,38,211,38
				L211,38z"/>
		</g>
	</g>
	<g class="st7">
		<circle class="st8" cx="202.3" cy="62.9" r="3.2"/>
		<g>
			<path class="st9" d="M204.7,61.2c0.5,0.6,0.7,1.6,0.5,2.4c-0.2,0.9-0.8,1.7-1.7,2.1c-0.8,0.4-1.9,0.4-2.7,0
				c-0.8-0.4-1.4-1.2-1.5-2c0.5,0.6,1.1,1.1,1.8,1.3c0.7,0.2,1.3,0.1,1.9-0.1C204.3,64.2,205,62.8,204.7,61.2z"/>
		</g>
		<g>
			<path class="st10" d="M201.7,60.7c-0.5,0.2-1.1,0.5-1.4,0.9c-0.2,0.2-0.3,0.5-0.4,0.7c-0.1,0.3-0.1,0.6-0.1,0.9
				c0-0.3-0.1-0.6,0-0.9c0.1-0.3,0.2-0.6,0.4-0.9c0.4-0.5,0.9-0.9,1.5-1.2c0.1-0.1,0.3,0,0.3,0.1C202,60.5,201.9,60.6,201.7,60.7
				C201.8,60.7,201.8,60.7,201.7,60.7L201.7,60.7z"/>
		</g>
	</g>
	<g class="st7">
		<circle class="st8" cx="183.4" cy="64.3" r="3.2"/>
		<g>
			<path class="st9" d="M185.8,62.6c0.5,0.6,0.7,1.6,0.5,2.4c-0.2,0.9-0.8,1.7-1.7,2.1c-0.8,0.4-1.9,0.4-2.7,0
				c-0.8-0.4-1.4-1.2-1.5-2c0.5,0.6,1.1,1.1,1.8,1.3c0.7,0.2,1.3,0.1,1.9-0.1C185.4,65.6,186.1,64.1,185.8,62.6z"/>
		</g>
		<g>
			<path class="st10" d="M182.8,62.1c-0.5,0.2-1.1,0.5-1.4,0.9c-0.2,0.2-0.3,0.5-0.4,0.7c-0.1,0.3-0.1,0.6-0.1,0.9
				c0-0.3-0.1-0.6,0-0.9c0.1-0.3,0.2-0.6,0.4-0.9c0.4-0.5,0.9-0.9,1.5-1.2c0.1-0.1,0.3,0,0.3,0.1C183.1,61.8,183,62,182.8,62.1
				C182.9,62,182.9,62,182.8,62.1L182.8,62.1z"/>
		</g>
	</g>
	<g class="st7">
		<circle class="st8" cx="163.8" cy="61.4" r="3.2"/>
		<g>
			<path class="st9" d="M166.3,59.6c0.5,0.6,0.7,1.6,0.5,2.4c-0.2,0.9-0.8,1.7-1.7,2.1c-0.8,0.4-1.9,0.4-2.7,0
				c-0.8-0.4-1.4-1.2-1.5-2c0.5,0.6,1.1,1.1,1.8,1.3c0.7,0.2,1.3,0.1,1.9-0.1C165.9,62.7,166.6,61.2,166.3,59.6z"/>
		</g>
		<g>
			<path class="st10" d="M163.3,59.1c-0.5,0.2-1.1,0.5-1.4,0.9c-0.2,0.2-0.3,0.5-0.4,0.7c-0.1,0.3-0.1,0.6-0.1,0.9
				c0-0.3-0.1-0.6,0-0.9c0.1-0.3,0.2-0.6,0.4-0.9c0.4-0.5,0.9-0.9,1.5-1.2c0.1-0.1,0.3,0,0.3,0.1C163.5,58.9,163.4,59.1,163.3,59.1
				C163.3,59.1,163.3,59.1,163.3,59.1L163.3,59.1z"/>
		</g>
	</g>
	<g class="st7">
		<circle class="st8" cx="158.5" cy="51.9" r="3.2"/>
		<g>
			<path class="st9" d="M160.9,50.2c0.5,0.6,0.7,1.6,0.5,2.4c-0.2,0.9-0.8,1.7-1.7,2.1c-0.8,0.4-1.9,0.4-2.7,0
				c-0.8-0.4-1.4-1.2-1.5-2c0.5,0.6,1.1,1.1,1.8,1.3c0.7,0.2,1.3,0.1,1.9-0.1C160.5,53.2,161.2,51.8,160.9,50.2z"/>
		</g>
		<g>
			<path class="st10" d="M157.9,49.7c-0.5,0.2-1.1,0.5-1.4,0.9c-0.2,0.2-0.3,0.5-0.4,0.7c-0.1,0.3-0.1,0.6-0.1,0.9
				c0-0.3-0.1-0.6,0-0.9c0.1-0.3,0.2-0.6,0.4-0.9c0.4-0.5,0.9-0.9,1.5-1.2c0.1-0.1,0.3,0,0.3,0.1C158.2,49.5,158.1,49.6,157.9,49.7
				C158,49.7,158,49.7,157.9,49.7L157.9,49.7z"/>
		</g>
	</g>
	<g class="st7">
		<circle class="st8" cx="157.5" cy="39" r="3.2"/>
		<g>
			<path class="st9" d="M159.9,37.3c0.5,0.6,0.7,1.6,0.5,2.4c-0.2,0.9-0.8,1.7-1.7,2.1c-0.8,0.4-1.9,0.4-2.7,0
				c-0.8-0.4-1.4-1.2-1.5-2c0.5,0.6,1.1,1.1,1.8,1.3c0.7,0.2,1.3,0.1,1.9-0.1C159.5,40.4,160.2,38.9,159.9,37.3z"/>
		</g>
		<g>
			<path class="st10" d="M156.9,36.8c-0.5,0.2-1.1,0.5-1.4,0.9c-0.2,0.2-0.3,0.5-0.4,0.7c-0.1,0.3-0.1,0.6-0.1,0.9
				c0-0.3-0.1-0.6,0-0.9c0.1-0.3,0.2-0.6,0.4-0.9c0.4-0.5,0.9-0.9,1.5-1.2c0.1-0.1,0.3,0,0.3,0.1C157.1,36.6,157.1,36.7,156.9,36.8
				C156.9,36.8,156.9,36.8,156.9,36.8L156.9,36.8z"/>
		</g>
	</g>
	<g class="st7">
		<circle class="st8" cx="165" cy="22.9" r="3.2"/>
		<g>
			<path class="st9" d="M167.5,21.2c0.5,0.6,0.7,1.6,0.5,2.4c-0.2,0.9-0.8,1.7-1.7,2.1c-0.8,0.4-1.9,0.4-2.7,0
				c-0.8-0.4-1.4-1.2-1.5-2c0.5,0.6,1.1,1.1,1.8,1.3c0.7,0.2,1.3,0.1,1.9-0.1C167.1,24.2,167.8,22.8,167.5,21.2z"/>
		</g>
		<g>
			<path class="st10" d="M164.5,20.7c-0.5,0.2-1.1,0.5-1.4,0.9c-0.2,0.2-0.3,0.5-0.4,0.7c-0.1,0.3-0.1,0.6-0.1,0.9
				c0-0.3-0.1-0.6,0-0.9c0.1-0.3,0.2-0.6,0.4-0.9c0.4-0.5,0.9-0.9,1.5-1.2c0.1-0.1,0.3,0,0.3,0.1C164.7,20.4,164.6,20.6,164.5,20.7
				C164.5,20.6,164.5,20.6,164.5,20.7L164.5,20.7z"/>
		</g>
	</g>
	<g class="st7">
		<circle class="st8" cx="170.9" cy="40" r="3.2"/>
		<g>
			<path class="st9" d="M173.3,38.2c0.5,0.6,0.7,1.6,0.5,2.4c-0.2,0.9-0.8,1.7-1.7,2.1c-0.8,0.4-1.9,0.4-2.7,0
				c-0.8-0.4-1.4-1.2-1.5-2c0.5,0.6,1.1,1.1,1.8,1.3c0.7,0.2,1.3,0.1,1.9-0.1C172.9,41.3,173.6,39.8,173.3,38.2z"/>
		</g>
		<g>
			<path class="st10" d="M170.3,37.7c-0.5,0.2-1.1,0.5-1.4,0.9c-0.2,0.2-0.3,0.5-0.4,0.7c-0.1,0.3-0.1,0.6-0.1,0.9
				c0-0.3-0.1-0.6,0-0.9c0.1-0.3,0.2-0.6,0.4-0.9c0.4-0.5,0.9-0.9,1.5-1.2c0.1-0.1,0.3,0,0.3,0.1C170.5,37.5,170.5,37.6,170.3,37.7
				C170.3,37.7,170.3,37.7,170.3,37.7L170.3,37.7z"/>
		</g>
	</g>
	<g class="st7">
		<circle class="st8" cx="173.9" cy="31.9" r="3.2"/>
		<g>
			<path class="st9" d="M176.4,30.1c0.5,0.6,0.7,1.6,0.5,2.4c-0.2,0.9-0.8,1.7-1.7,2.1c-0.8,0.4-1.9,0.4-2.7,0
				c-0.8-0.4-1.4-1.2-1.5-2c0.5,0.6,1.1,1.1,1.8,1.3c0.7,0.2,1.3,0.1,1.9-0.1C176,33.2,176.7,31.7,176.4,30.1z"/>
		</g>
		<g>
			<path class="st10" d="M173.4,29.6c-0.5,0.2-1.1,0.5-1.4,0.9c-0.2,0.2-0.3,0.5-0.4,0.7c-0.1,0.3-0.1,0.6-0.1,0.9
				c0-0.3-0.1-0.6,0-0.9c0.1-0.3,0.2-0.6,0.4-0.9c0.4-0.5,0.9-0.9,1.5-1.2c0.1-0.1,0.3,0,0.3,0.1C173.6,29.4,173.6,29.6,173.4,29.6
				C173.4,29.6,173.4,29.6,173.4,29.6L173.4,29.6z"/>
		</g>
	</g>
	<g class="st7">
		<circle class="st8" cx="180" cy="36.9" r="3.2"/>
		<g>
			<path class="st9" d="M182.4,35.1c0.5,0.6,0.7,1.6,0.5,2.4c-0.2,0.9-0.8,1.7-1.7,2.1c-0.8,0.4-1.9,0.4-2.7,0
				c-0.8-0.4-1.4-1.2-1.5-2c0.5,0.6,1.1,1.1,1.8,1.3c0.7,0.2,1.3,0.1,1.9-0.1C182,38.2,182.7,36.7,182.4,35.1z"/>
		</g>
		<g>
			<path class="st10" d="M179.4,34.6c-0.5,0.2-1.1,0.5-1.4,0.9c-0.2,0.2-0.3,0.5-0.4,0.7c-0.1,0.3-0.1,0.6-0.1,0.9
				c0-0.3-0.1-0.6,0-0.9c0.1-0.3,0.2-0.6,0.4-0.9c0.4-0.5,0.9-0.9,1.5-1.2c0.1-0.1,0.3,0,0.3,0.1C179.6,34.4,179.6,34.6,179.4,34.6
				C179.4,34.6,179.4,34.6,179.4,34.6L179.4,34.6z"/>
		</g>
	</g>
	<g class="st7">
		<circle class="st8" cx="186.2" cy="31.4" r="3.2"/>
		<g>
			<path class="st9" d="M188.7,29.6c0.5,0.6,0.7,1.6,0.5,2.4c-0.2,0.9-0.8,1.7-1.7,2.1c-0.8,0.4-1.9,0.4-2.7,0
				c-0.8-0.4-1.4-1.2-1.5-2c0.5,0.6,1.1,1.1,1.8,1.3c0.7,0.2,1.3,0.1,1.9-0.1C188.3,32.7,189,31.2,188.7,29.6z"/>
		</g>
		<g>
			<path class="st10" d="M185.7,29.1c-0.5,0.2-1.1,0.5-1.4,0.9c-0.2,0.2-0.3,0.5-0.4,0.7c-0.1,0.3-0.1,0.6-0.1,0.9
				c0-0.3-0.1-0.6,0-0.9c0.1-0.3,0.2-0.6,0.4-0.9c0.4-0.5,0.9-0.9,1.5-1.2c0.1-0.1,0.3,0,0.3,0.1C185.9,28.9,185.9,29.1,185.7,29.1
				C185.7,29.1,185.7,29.1,185.7,29.1L185.7,29.1z"/>
		</g>
	</g>
	<g class="st7">
		<circle class="st8" cx="197.7" cy="31.4" r="3.2"/>
		<g>
			<path class="st9" d="M200.1,29.6c0.5,0.6,0.7,1.6,0.5,2.4c-0.2,0.9-0.8,1.7-1.7,2.1c-0.8,0.4-1.9,0.4-2.7,0
				c-0.8-0.4-1.4-1.2-1.5-2c0.5,0.6,1.1,1.1,1.8,1.3c0.7,0.2,1.3,0.1,1.9-0.1C199.7,32.7,200.4,31.2,200.1,29.6z"/>
		</g>
		<g>
			<path class="st10" d="M197.1,29.1c-0.5,0.2-1.1,0.5-1.4,0.9c-0.2,0.2-0.3,0.5-0.4,0.7c-0.1,0.3-0.1,0.6-0.1,0.9
				c0-0.3-0.1-0.6,0-0.9c0.1-0.3,0.2-0.6,0.4-0.9c0.4-0.5,0.9-0.9,1.5-1.2c0.1-0.1,0.3,0,0.3,0.1C197.3,28.9,197.3,29.1,197.1,29.1
				C197.2,29.1,197.2,29.1,197.1,29.1L197.1,29.1z"/>
		</g>
	</g>
</g>
<g>
	<defs>
		<path id="SVGID_3_" d="M242.1,59.7h-8.6c-5.6,0-10.1-4.6-10.1-10.1V29c0-5.6,4.6-10.1,10.1-10.1h31.8c5.6,0,10.1,4.6,10.1,10.1
			v20.6c0,1.7,5,7.9,5,7.9s-7.7-1-8.7-0.2c-1.8,1.5-4,2.4-6.5,2.4h-17.4H242.1z"/>
	</defs>
	<clipPath id="SVGID_4_">
		<use xlink:href="#SVGID_3_"  style="overflow:visible;"/>
	</clipPath>
	<g class="st11">
		<g>
			<g>
				<g>
					<g>
						<path class="st12" d="M252.3,25.6"/>
						<g>
							<g>
								<path class="st10" d="M254.2,27.3c-0.3,0.4-0.5,0.7-0.6,1.1c-0.1,0.4-0.1,0.8-0.2,1.2c-0.2-0.4-0.2-0.9-0.1-1.3
									C253.5,27.9,253.8,27.5,254.2,27.3z"/>
							</g>
							<path class="st13" d="M253.2,30.4l-0.8,0.2l-0.1-0.4c-0.1-0.3-0.4-0.4-0.6-0.3L251,30c-0.3,0.1-0.4,0.4-0.3,0.6l0.7,2.2
								c0.1,0.3,0.4,0.4,0.6,0.3l0.6-0.2c0.3-0.1,0.4-0.4,0.3-0.6l-0.1-0.4l1.5-0.4"/>
							<path class="st13" d="M260.8,30.4c0.2-0.5,0.4-1,0.4-1.4c0-1.5-1.4-2.2-3.2-2.4l0-0.3l0,0c1.2,0,2.2-0.9,2.2-2.1l0-1
								c-0.3,0.2-0.6,0.4-0.9,0.3c-0.8,0-1.4-0.7-1.4-1.5c0-0.4,0.2-0.7,0.4-1l-0.1,0l-1.1,0l-0.5,0l-0.9,0c0.3,0.3,0.4,0.6,0.4,1
								c0,0.8-0.7,1.4-1.5,1.4c-0.3,0-0.5-0.1-0.7-0.2l0,0.8c0,1.2,0.9,2.2,2.1,2.2l0,0l0,0.3c-1.9,0.1-3.3,0.7-3.3,2.3
								c0,0.4,0.2,1,0.3,1.3c0.3,0.7,1.1,1.4,1.1,1.4c0.1,0.1,0.2,0.2,0.3,0.3c0.4,0.3,1.3,0.8,1.8,1v0c0.7,0.2,1.4,0.1,2-0.1
								c0.2-0.1,0.4-0.2,0.6-0.3l0.8-0.6"/>
							<path class="st13" d="M259.7,31.7L259.7,31.7l1.5,0.4l-0.2,0.4c-0.1,0.3,0,0.5,0.3,0.6l0.6,0.2c0.3,0.1,0.5-0.1,0.6-0.3
								l0.8-2.2c0.1-0.3,0-0.6-0.3-0.6l-0.6-0.2c-0.3-0.1-0.5,0-0.6,0.3l-0.1,0.4l-0.9-0.3l0.1-0.2"/>
						</g>
						<g>
							<path class="st10" d="M253.3,29.6c-0.2-0.6-0.1-1.2,0.2-1.8c0.2-0.3,0.4-0.5,0.7-0.6c0.3-0.1,0.6-0.2,0.9-0.1
								c-0.3,0.2-0.5,0.3-0.7,0.4c-0.2,0.2-0.4,0.3-0.5,0.6C253.6,28.5,253.4,29,253.3,29.6z"/>
						</g>
						<path class="st14" d="M261.7,33.2l0.3,0.1c0,0,0.3,0,0.5-0.2s0.8-2.2,0.8-2.2s0.1-0.4-0.2-0.5l-0.3-0.1c0,0,0.3,0.4,0.2,0.6
							c-0.1,0.2-0.8,2.1-0.8,2.1S262.2,33.2,261.7,33.2z"/>
						<path class="st10" d="M251.2,30.1l-0.3,0.1c0,0-0.2,0.2-0.2,0.5s0.6,2,0.6,2s0,0.3,0.3,0.4c0.2,0.1,0.4,0,0.4,0
							s-0.4-0.3-0.4-0.5c-0.1-0.2-0.6-2-0.6-2S250.9,30.3,251.2,30.1z"/>
						<g>
							<path class="st10" d="M254.4,23.9c0.1,0.4,0.3,0.8,0.6,1.1c0.3,0.3,0.7,0.5,1.1,0.7c-0.4-0.1-0.9-0.3-1.2-0.6
								c-0.2-0.2-0.3-0.4-0.4-0.6C254.3,24.4,254.3,24.2,254.4,23.9z"/>
						</g>
						<path class="st14" d="M253.2,30.6c0,0,0.6,0.8,0.9,1l-1,0.3C253.1,31.8,252.9,31,253.2,30.6z"/>
					</g>
					<path class="st14" d="M257.8,26.1c0,0,0.3,0,0.5,0c0.1,0,0.3-0.1,0.4-0.1c0.1,0,0.2-0.1,0.3-0.1c0.1,0,0.2-0.1,0.3-0.2
						c0.1-0.1,0.2-0.2,0.3-0.3c0.1-0.1,0.1-0.2,0.2-0.3c0.1-0.1,0.1-0.3,0.2-0.4c0.1-0.3,0.1-0.8,0.1-0.8S260.1,25.2,257.8,26.1z"/>
					<path class="st14" d="M259.3,26.9c0,0,0.5,0.1,0.7,0.2c0.1,0.1,0.2,0.1,0.5,0.3c0.1,0.1,0.2,0.2,0.3,0.3
						c0.1,0.1,0.2,0.4,0.3,0.5c0,0.1,0.1,0.3,0.1,0.4c0,0.1,0,0.3,0,0.4c0,0.1,0,0.3,0,0.4c0,0.1-0.1,0.4-0.1,0.5
						c-0.1,0.2-0.3,0.5-0.3,0.5S261.2,28.1,259.3,26.9z"/>
				</g>
			</g>
		</g>
		<g>
			<g>
				<g>
					<g>
						<path class="st12" d="M245.4,40.8"/>
						<g>
							<g>
								<path class="st10" d="M247.9,40.8c0,0.4,0.1,0.8,0.3,1.2c0.1,0.4,0.4,0.7,0.7,1c-0.4-0.2-0.7-0.5-0.9-0.9
									C247.8,41.7,247.7,41.2,247.9,40.8z"/>
							</g>
							<path class="st13" d="M249.2,43.8l-0.5,0.7l-0.4-0.2c-0.2-0.1-0.5-0.1-0.7,0.2l-0.3,0.5c-0.2,0.2-0.1,0.5,0.1,0.7l2,1.3
								c0.2,0.2,0.6,0.1,0.7-0.1l0.3-0.5c0.2-0.2,0.1-0.5-0.1-0.7l-0.3-0.2l0.8-1.3"/>
							<path class="st13" d="M254.9,38.8c-0.1-0.5-0.3-1-0.6-1.4c-1-1.2-2.5-0.8-4,0.3l-0.2-0.3v0c0.9-0.8,1-2.1,0.3-3l-0.6-0.8
								c-0.1,0.3-0.2,0.6-0.5,0.9c-0.6,0.5-1.5,0.4-2-0.2c-0.2-0.3-0.3-0.7-0.3-1l-0.1,0.1l-0.8,0.7l-0.4,0.3l-0.7,0.6
								c0.4,0,0.7,0.2,1,0.5c0.5,0.6,0.4,1.5-0.2,2c-0.2,0.2-0.4,0.3-0.7,0.3l0.5,0.6c0.8,0.9,2.1,1,3,0.3l0,0l0.2,0.3
								c-1.3,1.3-2,2.7-1,3.9c0.2,0.3,0.8,0.6,1.1,0.8c0.7,0.3,1.7,0.4,1.7,0.4c0.1,0,0.3,0,0.4,0c0.5-0.1,1.5-0.2,2-0.4v0
								c0.6-0.3,1.1-0.8,1.5-1.4c0.1-0.2,0.2-0.4,0.2-0.6l0.2-1"/>
							<path class="st13" d="M255,40.6l0-0.1l1.4-0.6l0.2,0.4c0.1,0.3,0.4,0.4,0.6,0.3l0.6-0.2c0.3-0.1,0.4-0.4,0.3-0.7l-0.9-2.2
								c-0.1-0.3-0.4-0.4-0.7-0.3l-0.6,0.2c-0.3,0.1-0.4,0.4-0.3,0.7l0.1,0.3l-0.9,0.3l-0.1-0.2"/>
						</g>
						<g>
							<path class="st10" d="M248.7,43.2c-0.5-0.3-0.9-0.9-1-1.5c0-0.3,0-0.7,0.1-0.9c0.1-0.3,0.3-0.5,0.6-0.7
								c-0.1,0.3-0.2,0.5-0.3,0.8c0,0.3-0.1,0.5,0,0.8C248.2,42.1,248.5,42.6,248.7,43.2z"/>
						</g>
						<path class="st14" d="M257.5,40.4l0.3-0.1c0,0,0.3-0.2,0.2-0.5s-0.8-2.2-0.8-2.2s-0.2-0.4-0.5-0.3l-0.3,0.1
							c0,0,0.5,0.1,0.5,0.3s0.8,2.1,0.8,2.1S257.9,40.1,257.5,40.4z"/>
						<path class="st10" d="M247.4,44.9l-0.2,0.2c0,0,0,0.3,0.2,0.5c0.2,0.2,1.8,1.1,1.8,1.1s0.2,0.2,0.5,0.2c0.2,0,0.3-0.2,0.3-0.2
							s-0.5,0-0.7-0.1s-1.7-1.1-1.7-1.1S247.4,45.2,247.4,44.9z"/>
						<g>
							<path class="st10" d="M245.9,38.2c0.3,0.3,0.7,0.5,1.1,0.5c0.4,0,0.8-0.1,1.3-0.1c-0.4,0.2-0.8,0.4-1.3,0.3
								c-0.2,0-0.5-0.1-0.7-0.2C246.1,38.6,246,38.4,245.9,38.2z"/>
						</g>
						<path class="st14" d="M249.3,44c0,0,1,0.2,1.3,0.2L250,45C250,45,249.3,44.5,249.3,44z"/>
					</g>
					<path class="st14" d="M249.9,37.5c0,0,0.3-0.2,0.4-0.4c0.1-0.1,0.2-0.3,0.2-0.3c0-0.1,0.1-0.2,0.1-0.3c0-0.1,0.1-0.2,0.1-0.3
						c0-0.1,0-0.3,0-0.4c0-0.1,0-0.2,0-0.3c0-0.1-0.1-0.3-0.1-0.4c-0.1-0.3-0.5-0.6-0.5-0.6S251.1,35.4,249.9,37.5z"/>
					<path class="st14" d="M251.5,37.2c0,0,0.5-0.3,0.6-0.3c0.2,0,0.2,0,0.6-0.1c0.1,0,0.3,0,0.4,0c0.1,0,0.4,0.1,0.5,0.2
						c0.1,0,0.3,0.2,0.3,0.2c0.1,0.1,0.2,0.2,0.3,0.3c0.1,0.1,0.2,0.3,0.3,0.4c0.1,0.1,0.2,0.3,0.2,0.5c0.1,0.2,0.1,0.6,0.1,0.6
						S253.8,36.9,251.5,37.2z"/>
				</g>
			</g>
		</g>
		<g>
			<g>
				<g>
					<g>
						<path class="st12" d="M244.7,63.5"/>
						<g>
							<g>
								<path class="st10" d="M247.2,63.6c0,0.4,0.1,0.8,0.3,1.2c0.1,0.4,0.4,0.7,0.7,1c-0.4-0.2-0.7-0.5-0.9-0.9
									C247,64.5,247,64,247.2,63.6z"/>
							</g>
							<path class="st13" d="M248.4,66.6l-0.5,0.7l-0.4-0.2c-0.2-0.1-0.5-0.1-0.7,0.2l-0.3,0.5c-0.2,0.2-0.1,0.5,0.1,0.7l2,1.3
								c0.2,0.2,0.6,0.1,0.7-0.1l0.3-0.5c0.2-0.2,0.1-0.5-0.1-0.7l-0.3-0.2l0.8-1.3"/>
							<path class="st13" d="M254.2,61.6c-0.1-0.5-0.3-1-0.6-1.4c-1-1.2-2.5-0.8-4,0.3l-0.2-0.3l0,0c0.9-0.8,1-2.1,0.3-3l-0.6-0.8
								c-0.1,0.3-0.2,0.6-0.5,0.9c-0.6,0.5-1.5,0.4-2-0.2c-0.2-0.3-0.3-0.7-0.3-1l-0.1,0.1l-0.8,0.7l-0.4,0.3l-0.7,0.6
								c0.4,0,0.7,0.2,1,0.5c0.5,0.6,0.4,1.5-0.2,2c-0.2,0.2-0.4,0.3-0.7,0.3l0.5,0.6c0.8,0.9,2.1,1,3,0.3l0,0l0.2,0.3
								c-1.3,1.3-2,2.7-1,3.9c0.2,0.3,0.8,0.6,1.1,0.8c0.7,0.3,1.7,0.4,1.7,0.4c0.1,0,0.3,0,0.4,0c0.5-0.1,1.5-0.2,2-0.4l0,0
								c0.6-0.3,1.1-0.8,1.5-1.4c0.1-0.2,0.2-0.4,0.2-0.6l0.2-1"/>
							<path class="st13" d="M254.2,63.4l0-0.1l1.4-0.6l0.2,0.4c0.1,0.3,0.4,0.4,0.6,0.3l0.6-0.2c0.3-0.1,0.4-0.4,0.3-0.7l-0.9-2.2
								c-0.1-0.3-0.4-0.4-0.7-0.3l-0.6,0.2c-0.3,0.1-0.4,0.4-0.3,0.7l0.1,0.3l-0.9,0.3l-0.1-0.2"/>
						</g>
						<g>
							<path class="st10" d="M248,66c-0.5-0.3-0.9-0.9-1-1.5c0-0.3,0-0.7,0.1-0.9c0.1-0.3,0.3-0.5,0.6-0.7c-0.1,0.3-0.2,0.5-0.3,0.8
								c0,0.3-0.1,0.5,0,0.8C247.5,64.9,247.7,65.4,248,66z"/>
						</g>
						<path class="st14" d="M256.7,63.2l0.3-0.1c0,0,0.3-0.2,0.2-0.5s-0.8-2.2-0.8-2.2s-0.2-0.4-0.5-0.3l-0.3,0.1
							c0,0,0.5,0.1,0.5,0.3c0.1,0.2,0.8,2.1,0.8,2.1S257.1,62.9,256.7,63.2z"/>
						<path class="st10" d="M246.7,67.7l-0.2,0.2c0,0,0,0.3,0.2,0.5s1.8,1.1,1.8,1.1s0.2,0.2,0.5,0.2c0.2,0,0.3-0.2,0.3-0.2
							s-0.5,0-0.7-0.1s-1.7-1.1-1.7-1.1S246.6,68,246.7,67.7z"/>
						<g>
							<path class="st10" d="M245.1,61c0.3,0.3,0.7,0.5,1.1,0.5c0.4,0,0.8-0.1,1.3-0.1c-0.4,0.2-0.8,0.4-1.3,0.3
								c-0.2,0-0.5-0.1-0.7-0.2C245.4,61.3,245.2,61.2,245.1,61z"/>
						</g>
						<path class="st14" d="M248.6,66.7c0,0,1,0.2,1.3,0.2l-0.5,0.9C249.3,67.8,248.6,67.3,248.6,66.7z"/>
					</g>
					<path class="st14" d="M249.1,60.3c0,0,0.3-0.2,0.4-0.4c0.1-0.1,0.2-0.3,0.2-0.3c0-0.1,0.1-0.2,0.1-0.3c0-0.1,0.1-0.2,0.1-0.3
						c0-0.1,0-0.3,0-0.4c0-0.1,0-0.2,0-0.3c0-0.1-0.1-0.3-0.1-0.4c-0.1-0.3-0.5-0.6-0.5-0.6S250.3,58.2,249.1,60.3z"/>
					<path class="st14" d="M250.8,60c0,0,0.5-0.3,0.6-0.3c0.2,0,0.2,0,0.6-0.1c0.1,0,0.3,0,0.4,0c0.1,0,0.4,0.1,0.5,0.2
						c0.1,0,0.3,0.2,0.3,0.2c0.1,0.1,0.2,0.2,0.3,0.3c0.1,0.1,0.2,0.3,0.3,0.4c0.1,0.1,0.2,0.3,0.2,0.5c0.1,0.2,0.1,0.6,0.1,0.6
						S253,59.7,250.8,60z"/>
				</g>
			</g>
		</g>
		<g>
			<g>
				<g>
					<g>
						<path class="st12" d="M229.9,58.5"/>
						<g>
							<g>
								<path class="st10" d="M231.7,60.2c-0.3,0.4-0.5,0.7-0.6,1.1c-0.1,0.4-0.1,0.8-0.2,1.2c-0.2-0.4-0.2-0.9-0.1-1.3
									C231,60.7,231.3,60.3,231.7,60.2z"/>
							</g>
							<path class="st13" d="M230.7,63.2l-0.8,0.2l-0.1-0.4c-0.1-0.3-0.4-0.4-0.6-0.3l-0.6,0.2c-0.3,0.1-0.4,0.4-0.3,0.6l0.7,2.2
								c0.1,0.3,0.4,0.4,0.6,0.3l0.6-0.2c0.3-0.1,0.4-0.4,0.3-0.6l-0.1-0.4l1.5-0.4"/>
							<path class="st13" d="M238.4,63.2c0.2-0.5,0.4-1,0.4-1.4c0-1.5-1.4-2.2-3.2-2.4l0-0.3l0,0c1.2,0,2.2-0.9,2.2-2.1l0-1
								c-0.3,0.2-0.6,0.4-0.9,0.3c-0.8,0-1.4-0.7-1.4-1.5c0-0.4,0.2-0.7,0.4-1l-0.1,0l-1.1,0l-0.5,0l-0.9,0c0.3,0.3,0.4,0.6,0.4,1
								c0,0.8-0.7,1.4-1.5,1.4c-0.3,0-0.5-0.1-0.7-0.2l0,0.8c0,1.2,0.9,2.2,2.1,2.2l0,0l0,0.3c-1.9,0.1-3.3,0.7-3.3,2.3
								c0,0.4,0.2,1,0.3,1.3c0.3,0.7,1.1,1.4,1.1,1.4c0.1,0.1,0.2,0.2,0.3,0.3c0.4,0.3,1.3,0.8,1.8,1h0c0.7,0.2,1.4,0.1,2-0.1
								c0.2-0.1,0.4-0.2,0.6-0.3l0.8-0.6"/>
							<path class="st13" d="M237.2,64.6L237.2,64.6l1.5,0.4l-0.2,0.4c-0.1,0.3,0,0.5,0.3,0.6l0.6,0.2c0.3,0.1,0.5-0.1,0.6-0.3
								l0.8-2.2c0.1-0.3,0-0.6-0.3-0.6l-0.6-0.2c-0.3-0.1-0.5,0-0.6,0.3l-0.1,0.4l-0.9-0.3l0.1-0.2"/>
						</g>
						<g>
							<path class="st10" d="M230.8,62.5c-0.2-0.6-0.1-1.2,0.2-1.8c0.2-0.3,0.4-0.5,0.7-0.6c0.3-0.1,0.6-0.2,0.9-0.1
								c-0.3,0.2-0.5,0.3-0.7,0.4c-0.2,0.2-0.4,0.3-0.5,0.6C231.1,61.3,231,61.9,230.8,62.5z"/>
						</g>
						<path class="st14" d="M239.2,66.1l0.3,0.1c0,0,0.3,0,0.5-0.2c0.1-0.3,0.8-2.2,0.8-2.2s0.1-0.4-0.2-0.5l-0.3-0.1
							c0,0,0.3,0.4,0.2,0.6c-0.1,0.2-0.8,2.1-0.8,2.1S239.7,66.1,239.2,66.1z"/>
						<path class="st10" d="M228.7,62.9l-0.3,0.1c0,0-0.2,0.2-0.2,0.5c0.1,0.3,0.6,2,0.6,2s0,0.3,0.3,0.4c0.2,0.1,0.4,0,0.4,0
							s-0.4-0.3-0.4-0.5c-0.1-0.2-0.6-2-0.6-2S228.5,63.1,228.7,62.9z"/>
						<g>
							<path class="st10" d="M231.9,56.8c0.1,0.4,0.3,0.8,0.6,1.1c0.3,0.3,0.7,0.5,1.1,0.7c-0.4-0.1-0.9-0.3-1.2-0.6
								c-0.2-0.2-0.3-0.4-0.4-0.6C231.9,57.3,231.9,57,231.9,56.8z"/>
						</g>
						<path class="st14" d="M230.7,63.4c0,0,0.6,0.8,0.9,1l-1,0.3C230.6,64.7,230.4,63.8,230.7,63.4z"/>
					</g>
					<path class="st14" d="M235.4,58.9c0,0,0.3,0,0.5,0c0.1,0,0.3-0.1,0.4-0.1c0.1,0,0.2-0.1,0.3-0.1c0.1,0,0.2-0.1,0.3-0.2
						c0.1-0.1,0.2-0.2,0.3-0.3c0.1-0.1,0.1-0.2,0.2-0.3c0.1-0.1,0.1-0.3,0.2-0.4c0.1-0.3,0.1-0.8,0.1-0.8S237.6,58.1,235.4,58.9z"/>
					<path class="st14" d="M236.9,59.8c0,0,0.5,0.1,0.7,0.2c0.1,0.1,0.2,0.1,0.5,0.3c0.1,0.1,0.2,0.2,0.3,0.3
						c0.1,0.1,0.2,0.4,0.3,0.5c0,0.1,0.1,0.3,0.1,0.4c0,0.1,0,0.3,0,0.4c0,0.1,0,0.3,0,0.4c0,0.1-0.1,0.4-0.1,0.5
						c-0.1,0.2-0.3,0.5-0.3,0.5S238.8,61,236.9,59.8z"/>
				</g>
			</g>
		</g>
		<g>
			<g>
				<g>
					<path class="st15" d="M227.9,31.5"/>
					<g>
						<g>
							<path class="st10" d="M230.1,32.4c-0.1,0.2-0.1,0.4-0.1,0.6c0,0.2,0,0.4,0,0.6c0,0.4,0.1,0.7,0.3,1.1
								c-0.2-0.1-0.3-0.3-0.4-0.5c-0.1-0.2-0.1-0.4-0.2-0.6C229.7,33.1,229.8,32.6,230.1,32.4z"/>
						</g>
						<path class="st16" d="M231,35.9l0.9,2.4l-0.4,0.2c-0.2,0.1-0.4,0.4-0.3,0.6l0.2,0.5c0.1,0.2,0.4,0.4,0.6,0.3l2-0.8
							c0.2-0.1,0.4-0.4,0.3-0.6l-0.2-0.5c-0.1-0.2-0.4-0.4-0.6-0.3l-0.3,0.1l-0.5-1.3"/>
						<path class="st16" d="M233.8,36.3c0.8-0.2,1.5-0.4,2-1l0,0l0.5,1.4l-0.3,0.1c-0.2,0.1-0.4,0.4-0.3,0.6l0.2,0.5
							c0.1,0.2,0.4,0.4,0.6,0.3l2-0.7c0.2-0.1,0.4-0.4,0.3-0.6l-0.2-0.5c-0.1-0.2-0.4-0.4-0.6-0.3l-0.4,0.1l-0.9-2.4l0,0
							c0.3-0.9,0.3-1.8,0.1-2.5c-0.5-1.3-1.9-1.4-3.6-1l-0.1-0.3l1.4-0.5c0.3-0.1,0.4-0.4,0.3-0.7l-0.9-2.3
							c-0.1,0.3-0.4,0.5-0.7,0.6c-0.7,0.3-1.5-0.1-1.7-0.8c-0.1-0.3-0.1-0.7,0-1l-0.1,0l-1,0.4l-0.4,0.2l-0.8,0.3
							c0.3,0.1,0.6,0.4,0.7,0.8c0.3,0.7-0.1,1.5-0.8,1.7c-0.2,0.1-0.5,0.1-0.7,0.1l0.8,2.1c0.1,0.3,0.4,0.4,0.7,0.3l1.4-0.5l0.1,0.3
							c-1.6,0.7-2.6,1.8-2.1,3.1c0.2,0.7,1.1,1.5,1.8,1.9c0.1,0,0.6,0.2,0.9,0.4C232.7,36.5,233.8,36.3,233.8,36.3z"/>
					</g>
					<g>
						<path class="st10" d="M230.1,34.7c-0.4-0.4-0.5-1.1-0.4-1.6c0.1-0.3,0.2-0.6,0.4-0.8c0.2-0.2,0.5-0.4,0.7-0.4
							c-0.2,0.2-0.4,0.4-0.5,0.6c-0.1,0.2-0.2,0.4-0.3,0.7C230,33.6,230,34.1,230.1,34.7z"/>
					</g>
					<path class="st17" d="M235.9,37.7l0.1,0.3c0,0,0.1,0.3,0.4,0.2s2.1-0.8,2.1-0.8s0.3-0.1,0.2-0.5l-0.1-0.3c0,0,0.1,0.4-0.2,0.5
						c-0.2,0.1-2.1,0.7-2.1,0.7S236.2,38.1,235.9,37.7z"/>
					<path class="st17" d="M231.5,39.2l0.1,0.4c0,0,0.2,0.3,0.4,0.2c0.3-0.1,2-0.8,2-0.8s0.3-0.1,0.2-0.5l-0.1-0.4
						c0,0,0,0.5-0.2,0.6s-2,0.7-2,0.7S231.8,39.6,231.5,39.2z"/>
					<path class="st17" d="M236.6,33.7c0,0,0.5-1.3,0.2-2.3c-0.2-0.6-0.5-1-1.2-1.2c0,0,0.4,0.2,0.9,1.5
						C236.7,32.3,236.6,33.2,236.6,33.7z"/>
				</g>
				<path class="st17" d="M232.9,37.2l-0.2-0.7c-0.1,0-0.5,0-0.7-0.1c-0.4-0.1-0.7-0.3-0.7-0.3S232.3,37.2,232.9,37.2z"/>
				<path class="st17" d="M233.4,29.8c0,0,0.7-0.2,1-0.4c0.1-0.1,0.4-0.3,0.3-0.5c-0.1-0.3-0.3-0.8-0.3-0.8S234.6,29,233.4,29.8z"/>
			</g>
		</g>
		<g>
			<g>
				<g>
					<path class="st15" d="M221.9,35.3"/>
					<g>
						<g>
							<path class="st10" d="M223,37.4c-0.2,0.1-0.3,0.2-0.5,0.3c-0.1,0.1-0.3,0.2-0.4,0.4c-0.2,0.3-0.4,0.6-0.6,1
								c0-0.2,0-0.4,0-0.6c0-0.2,0.2-0.4,0.3-0.6C222.2,37.7,222.6,37.4,223,37.4z"/>
						</g>
						<path class="st16" d="M221.3,40.7l-1,2.4l-0.4-0.2c-0.2-0.1-0.5,0-0.6,0.3l-0.2,0.5c-0.1,0.2,0,0.5,0.3,0.6l2,0.8
							c0.2,0.1,0.5,0,0.6-0.3l0.2-0.5c0.1-0.2,0-0.5-0.3-0.6l-0.3-0.1l0.5-1.3"/>
						<path class="st16" d="M223.1,42.8c0.7,0.4,1.4,0.7,2.2,0.6l0,0l-0.5,1.4l-0.3-0.1c-0.2-0.1-0.5,0-0.6,0.3l-0.2,0.5
							c-0.1,0.2,0,0.5,0.3,0.6l2,0.8c0.2,0.1,0.5,0,0.6-0.3l0.2-0.5c0.1-0.2,0-0.5-0.3-0.6l-0.4-0.2l1-2.4l0,0
							c0.8-0.4,1.4-1.1,1.7-1.8c0.5-1.3-0.5-2.4-2-3.2l0.1-0.3l1.4,0.6c0.3,0.1,0.6,0,0.7-0.3l0.9-2.3c-0.3,0.1-0.6,0.1-0.9,0
							c-0.7-0.3-1-1-0.8-1.7c0.1-0.3,0.4-0.6,0.7-0.7l-0.1,0l-1-0.4l-0.4-0.2l-0.8-0.3c0.1,0.3,0.2,0.7,0,1c-0.3,0.7-1,1-1.7,0.8
							c-0.2-0.1-0.4-0.2-0.6-0.4l-0.8,2.1c-0.1,0.3,0,0.6,0.3,0.7l1.4,0.6l-0.1,0.3c-1.7-0.5-3.1-0.5-3.7,0.9
							c-0.3,0.6-0.2,1.8,0.1,2.6c0,0.1,0.3,0.6,0.4,0.9C222.1,42.2,223.1,42.8,223.1,42.8z"/>
					</g>
					<g>
						<path class="st10" d="M221.4,39.1c0-0.6,0.3-1.1,0.8-1.5c0.2-0.2,0.5-0.3,0.8-0.3c0.3,0,0.6,0,0.8,0.2c-0.3,0-0.5,0.1-0.8,0.1
							c-0.2,0.1-0.5,0.2-0.6,0.3C222.1,38.2,221.8,38.7,221.4,39.1z"/>
					</g>
					<path class="st17" d="M223.7,45.3l-0.1,0.3c0,0-0.1,0.3,0.1,0.4c0.2,0.1,2.1,0.8,2.1,0.8s0.3,0.1,0.5-0.2l0.1-0.3
						c0,0-0.2,0.3-0.5,0.3s-2-0.8-2-0.8S223.7,45.7,223.7,45.3z"/>
					<path class="st17" d="M219.4,43.4l-0.2,0.4c0,0,0,0.3,0.2,0.4c0.2,0.1,2,0.8,2,0.8s0.3,0.1,0.5-0.2l0.1-0.4
						c0,0-0.3,0.4-0.5,0.3c-0.2-0.1-1.9-0.8-1.9-0.8S219.4,43.9,219.4,43.4z"/>
					<path class="st17" d="M226.9,42.8c0,0,1.3-0.6,1.7-1.6c0.2-0.5,0.3-1-0.1-1.7c0,0,0.1,0.4-0.3,1.7
						C227.9,41.8,227.3,42.4,226.9,42.8z"/>
				</g>
				<path class="st17" d="M221.8,42.9l0.3-0.7c-0.1-0.1-0.3-0.3-0.4-0.5c-0.2-0.3-0.3-0.6-0.3-0.6S221.4,42.5,221.8,42.9z"/>
				<path class="st17" d="M227.2,37.7c0,0,0.7,0.3,1,0.4c0.1,0,0.5,0,0.5-0.2c0.1-0.3,0.3-0.8,0.3-0.8S228.5,38,227.2,37.7z"/>
			</g>
		</g>
		<g>
			<g>
				<g>
					<path class="st15" d="M272.6,36.5"/>
					<g>
						<g>
							<path class="st10" d="M270.6,35.3c0.1-0.2,0.2-0.4,0.2-0.5c0.1-0.2,0.1-0.4,0.1-0.5c0.1-0.4,0-0.7-0.1-1.1
								c0.1,0.2,0.2,0.3,0.3,0.5c0.1,0.2,0.1,0.4,0.1,0.6C271.1,34.7,270.9,35.1,270.6,35.3z"/>
						</g>
						<path class="st16" d="M270.3,31.7l-0.5-2.6l0.4-0.1c0.2-0.1,0.4-0.3,0.4-0.5l-0.1-0.6c0-0.3-0.3-0.4-0.6-0.4l-2.1,0.4
							c-0.3,0.1-0.4,0.3-0.4,0.6l0.1,0.5c0.1,0.3,0.3,0.4,0.6,0.4l0.3-0.1l0.3,1.4"/>
						<path class="st16" d="M267.6,30.8c-0.8,0-1.5,0.2-2.1,0.7l0,0l-0.3-1.5l0.3-0.1c0.3-0.1,0.4-0.3,0.4-0.6l-0.1-0.6
							c0-0.3-0.3-0.4-0.5-0.4l-2.1,0.4c-0.3,0.1-0.4,0.3-0.4,0.6l0.1,0.6c0,0.3,0.3,0.4,0.5,0.4l0.4-0.1l0.5,2.6l0,0
							c-0.4,0.8-0.6,1.7-0.5,2.4c0.3,1.4,1.7,1.8,3.4,1.6l0.1,0.3l-1.5,0.3c-0.3,0.1-0.5,0.3-0.4,0.6l0.4,2.4
							c0.2-0.2,0.5-0.4,0.8-0.5c0.7-0.1,1.4,0.3,1.6,1.1c0.1,0.4,0,0.7-0.2,1l0.1,0l1-0.2l0.4-0.1l0.8-0.2c-0.3-0.2-0.5-0.5-0.6-0.9
							c-0.1-0.7,0.3-1.4,1.1-1.6c0.2,0,0.5,0,0.7,0.1l-0.4-2.2c-0.1-0.3-0.3-0.5-0.6-0.4l-1.5,0.3l-0.1-0.3c1.7-0.5,2.9-1.3,2.6-2.7
							c-0.1-0.7-0.8-1.6-1.5-2.2c-0.1-0.1-0.5-0.3-0.8-0.5C268.8,30.8,267.6,30.8,267.6,30.8z"/>
					</g>
					<g>
						<path class="st10" d="M271,33.1c0.3,0.5,0.3,1.1,0.1,1.7c-0.1,0.3-0.3,0.5-0.5,0.7c-0.2,0.2-0.5,0.3-0.8,0.3
							c0.2-0.2,0.4-0.3,0.6-0.5c0.2-0.2,0.3-0.4,0.4-0.6C270.9,34.1,270.9,33.6,271,33.1z"/>
					</g>
					<path class="st17" d="M265.8,29.1l-0.1-0.3c0,0-0.1-0.3-0.3-0.3s-2.2,0.4-2.2,0.4s-0.4,0.1-0.3,0.4l0.1,0.3c0,0,0-0.4,0.3-0.5
						c0.2,0,2.2-0.4,2.2-0.4S265.5,28.6,265.8,29.1z"/>
					<path class="st17" d="M270.4,28.3l-0.1-0.4c0,0-0.1-0.3-0.4-0.3s-2.1,0.4-2.1,0.4s-0.3,0.1-0.3,0.4l0.1,0.4c0,0,0-0.5,0.3-0.5
						s2.1-0.4,2.1-0.4S270.2,27.9,270.4,28.3z"/>
					<path class="st17" d="M264.4,32.8c0,0-0.7,1.2-0.6,2.2c0.1,0.6,0.3,1,1,1.4c0,0-0.4-0.3-0.6-1.6
						C264.1,34.2,264.3,33.4,264.4,32.8z"/>
				</g>
				<path class="st17" d="M268.7,30.1l0.1,0.7c0.1,0,0.5,0.1,0.7,0.2c0.3,0.2,0.6,0.4,0.6,0.4S269.2,30.2,268.7,30.1z"/>
				<path class="st17" d="M266.9,37.3c0,0-0.8,0.1-1,0.2c-0.1,0-0.4,0.2-0.3,0.5c0.1,0.3,0.2,0.8,0.2,0.8S265.6,37.8,266.9,37.3z"/>
			</g>
		</g>
		<g>
			<g>
				<g>
					<path class="st15" d="M236.5,48.1"/>
					<g>
						<g>
							<path class="st10" d="M238.9,47.9c0,0.2,0.1,0.4,0.1,0.6c0.1,0.2,0.1,0.4,0.2,0.5c0.2,0.3,0.4,0.6,0.7,0.9
								c-0.2-0.1-0.4-0.1-0.6-0.3c-0.2-0.1-0.3-0.3-0.4-0.5C238.8,48.8,238.7,48.3,238.9,47.9z"/>
						</g>
						<path class="st16" d="M241.3,50.7l1.9,1.8l-0.3,0.3c-0.2,0.2-0.2,0.5,0,0.7l0.4,0.4c0.2,0.2,0.5,0.2,0.7,0l1.5-1.6
							c0.2-0.2,0.2-0.5,0-0.7l-0.4-0.4c-0.2-0.2-0.5-0.2-0.7,0l-0.2,0.3l-1.1-1"/>
						<path class="st16" d="M243.9,49.9c0.7-0.5,1.1-1,1.4-1.8l0,0l1.1,1l-0.2,0.2c-0.2,0.2-0.2,0.5,0,0.7l0.4,0.4
							c0.2,0.2,0.5,0.2,0.7,0l1.5-1.6c0.2-0.2,0.2-0.5,0-0.7l-0.4-0.4c-0.2-0.2-0.5-0.2-0.7,0l-0.3,0.3l-1.9-1.8l0,0
							c-0.1-0.9-0.5-1.7-1-2.2c-1-1-2.4-0.4-3.7,0.7l-0.2-0.2l1-1.1c0.2-0.2,0.2-0.5,0-0.7l-1.8-1.7c0,0.3-0.1,0.6-0.4,0.9
							c-0.5,0.5-1.4,0.6-1.9,0c-0.3-0.2-0.4-0.6-0.4-0.9l-0.1,0.1l-0.7,0.7l-0.3,0.3l-0.6,0.6c0.3,0,0.7,0.1,1,0.4
							c0.5,0.5,0.6,1.4,0,1.9c-0.2,0.2-0.4,0.3-0.6,0.4l1.6,1.5c0.2,0.2,0.5,0.2,0.7,0l1-1.1l0.2,0.2c-1.1,1.4-1.6,2.7-0.6,3.7
							c0.5,0.5,1.6,0.8,2.5,0.9c0.1,0,0.6,0,1-0.1C243,50.6,243.9,49.9,243.9,49.9z"/>
					</g>
					<g>
						<path class="st10" d="M239.9,50c-0.5-0.2-0.9-0.7-1.1-1.3c-0.1-0.3-0.1-0.6,0-0.9c0.1-0.3,0.3-0.5,0.5-0.7
							c-0.1,0.3-0.1,0.5-0.2,0.8c0,0.2,0,0.5,0.1,0.7C239.3,49.1,239.6,49.5,239.9,50z"/>
					</g>
					<path class="st17" d="M246.4,50.2l0.3,0.2c0,0,0.2,0.2,0.4,0c0.2-0.2,1.6-1.6,1.6-1.6s0.3-0.3,0-0.5l-0.2-0.2
						c0,0,0.2,0.4,0.1,0.5c-0.2,0.2-1.5,1.6-1.5,1.6S246.9,50.4,246.4,50.2z"/>
					<path class="st17" d="M243.1,53.5l0.3,0.3c0,0,0.3,0.2,0.5,0s1.5-1.6,1.5-1.6s0.2-0.3,0-0.5l-0.3-0.3c0,0,0.2,0.4,0.1,0.6
						s-1.5,1.5-1.5,1.5S243.5,53.7,243.1,53.5z"/>
					<path class="st17" d="M245.3,46.3c0,0-0.1-1.4-0.8-2.1c-0.4-0.4-0.9-0.7-1.6-0.5c0,0,0.5,0,1.4,0.9
						C244.8,45,245.1,45.8,245.3,46.3z"/>
				</g>
				<path class="st17" d="M243.5,51.1l-0.5-0.5c-0.1,0.1-0.4,0.2-0.7,0.2c-0.4,0-0.7,0.1-0.7,0.1S243,51.3,243.5,51.1z"/>
				<path class="st17" d="M240.7,44.1c0,0,0.6-0.5,0.7-0.7c0.1-0.1,0.2-0.4,0-0.6c-0.2-0.2-0.6-0.6-0.6-0.6S241.5,43,240.7,44.1z"/>
			</g>
		</g>
		<g>
			<g>
				<g>
					<path class="st15" d="M257.9,40.3"/>
					<g>
						<g>
							<path class="st10" d="M258.1,42.6c-0.2,0-0.4,0.1-0.6,0.2c-0.2,0.1-0.3,0.1-0.5,0.3c-0.3,0.2-0.6,0.5-0.9,0.8
								c0-0.2,0.1-0.4,0.3-0.6c0.1-0.2,0.3-0.3,0.5-0.4C257.3,42.6,257.7,42.4,258.1,42.6z"/>
						</g>
						<path class="st16" d="M255.5,45.1l-1.7,2l-0.3-0.3c-0.2-0.2-0.5-0.1-0.7,0.1l-0.4,0.4c-0.2,0.2-0.1,0.5,0,0.7l1.7,1.4
							c0.2,0.2,0.5,0.1,0.7,0l0.4-0.4c0.2-0.2,0.1-0.5,0-0.7l-0.3-0.2l0.9-1.1"/>
						<path class="st16" d="M256.4,47.7c0.5,0.6,1.1,1.1,1.8,1.3l0,0l-1,1.1l-0.3-0.2c-0.2-0.2-0.5-0.2-0.7,0l-0.4,0.4
							c-0.2,0.2-0.2,0.5,0,0.7l1.6,1.5c0.2,0.2,0.5,0.2,0.7,0l0.4-0.4c0.2-0.2,0.2-0.5,0-0.7l-0.3-0.3l1.7-2l0,0
							c0.9-0.1,1.7-0.5,2.2-1.1c0.9-1.1,0.4-2.4-0.9-3.7l0.2-0.2l1.1,1c0.2,0.2,0.5,0.2,0.7,0l1.6-1.8c-0.3,0-0.6-0.1-0.9-0.3
							c-0.6-0.5-0.6-1.3-0.1-1.9c0.2-0.3,0.6-0.4,0.9-0.4l-0.1-0.1l-0.8-0.7l-0.3-0.3l-0.6-0.6c0,0.3-0.1,0.7-0.3,1
							c-0.5,0.6-1.3,0.6-1.9,0.1c-0.2-0.2-0.3-0.4-0.4-0.6l-1.5,1.7c-0.2,0.2-0.2,0.5,0,0.7l1.1,1l-0.2,0.2
							c-1.4-1.1-2.8-1.5-3.7-0.4c-0.5,0.5-0.8,1.6-0.8,2.5c0,0.1,0.1,0.6,0.1,1C255.7,46.8,256.4,47.7,256.4,47.7z"/>
					</g>
					<g>
						<path class="st10" d="M256.1,43.7c0.2-0.5,0.7-0.9,1.3-1.1c0.3-0.1,0.6-0.1,0.9,0c0.3,0.1,0.5,0.2,0.7,0.5
							c-0.3-0.1-0.5-0.1-0.8-0.1c-0.2,0-0.5,0-0.7,0.1C257,43.1,256.6,43.4,256.1,43.7z"/>
					</g>
					<path class="st17" d="M256.2,50.2l-0.2,0.3c0,0-0.2,0.2,0,0.4c0.2,0.2,1.7,1.5,1.7,1.5s0.3,0.2,0.5,0l0.2-0.3
						c0,0-0.3,0.2-0.5,0.1s-1.6-1.5-1.6-1.5S256,50.7,256.2,50.2z"/>
					<path class="st17" d="M252.7,47.1l-0.3,0.3c0,0-0.1,0.3,0,0.5s1.6,1.4,1.6,1.4s0.3,0.2,0.5,0l0.3-0.3c0,0-0.4,0.3-0.6,0.1
						s-1.5-1.4-1.5-1.4S252.5,47.5,252.7,47.1z"/>
					<path class="st17" d="M260,49c0,0,1.4-0.2,2.1-0.9c0.4-0.4,0.6-0.9,0.5-1.6c0,0,0,0.5-0.9,1.4C261.3,48.4,260.5,48.7,260,49z"
						/>
				</g>
				<path class="st17" d="M255.2,47.3l0.5-0.5c-0.1-0.1-0.2-0.4-0.2-0.7c-0.1-0.4-0.1-0.7-0.1-0.7S254.9,46.8,255.2,47.3z"/>
				<path class="st17" d="M262,44.3c0,0,0.6,0.5,0.8,0.7c0.1,0.1,0.4,0.2,0.6,0c0.2-0.2,0.6-0.6,0.6-0.6S263.2,45,262,44.3z"/>
			</g>
		</g>
		<g>
			<g>
				<g>
					<path class="st15" d="M226.6,17.4"/>
					<g>
						<g>
							<path class="st10" d="M226.9,19.7c-0.2,0-0.4,0.1-0.6,0.2c-0.2,0.1-0.3,0.1-0.5,0.3c-0.3,0.2-0.6,0.5-0.9,0.8
								c0-0.2,0.1-0.4,0.3-0.6c0.1-0.2,0.3-0.3,0.5-0.4C226.1,19.7,226.5,19.6,226.9,19.7z"/>
						</g>
						<path class="st16" d="M224.3,22.2l-1.7,2l-0.3-0.3c-0.2-0.2-0.5-0.1-0.7,0.1l-0.4,0.4c-0.2,0.2-0.1,0.5,0,0.7l1.7,1.4
							c0.2,0.2,0.5,0.1,0.7,0l0.4-0.4c0.2-0.2,0.1-0.5,0-0.7l-0.3-0.2l0.9-1.1"/>
						<path class="st16" d="M225.2,24.9c0.5,0.6,1.1,1.1,1.8,1.3l0,0l-1,1.1l-0.3-0.2c-0.2-0.2-0.5-0.2-0.7,0l-0.4,0.4
							c-0.2,0.2-0.2,0.5,0,0.7l1.6,1.5c0.2,0.2,0.5,0.2,0.7,0l0.4-0.4c0.2-0.2,0.2-0.5,0-0.7l-0.3-0.3l1.7-2l0,0
							c0.9-0.1,1.7-0.5,2.2-1.1c0.9-1.1,0.4-2.4-0.9-3.7l0.2-0.2l1.1,1c0.2,0.2,0.5,0.2,0.7,0l1.6-1.8c-0.3,0-0.6-0.1-0.9-0.3
							c-0.6-0.5-0.6-1.3-0.1-1.9c0.2-0.3,0.6-0.4,0.9-0.4l-0.1-0.1l-0.8-0.7l-0.3-0.3l-0.6-0.6c0,0.3-0.1,0.7-0.3,1
							c-0.5,0.6-1.3,0.6-1.9,0.1c-0.2-0.2-0.3-0.4-0.4-0.6l-1.5,1.7c-0.2,0.2-0.2,0.5,0,0.7l1.1,1l-0.2,0.2
							c-1.4-1.1-2.8-1.5-3.7-0.4c-0.5,0.5-0.8,1.6-0.8,2.5c0,0.1,0.1,0.6,0.1,1C224.5,23.9,225.2,24.9,225.2,24.9z"/>
					</g>
					<g>
						<path class="st10" d="M224.9,20.8c0.2-0.5,0.7-0.9,1.3-1.1c0.3-0.1,0.6-0.1,0.9,0c0.3,0.1,0.5,0.2,0.7,0.5
							c-0.3-0.1-0.5-0.1-0.8-0.1c-0.2,0-0.5,0-0.7,0.1C225.8,20.2,225.4,20.5,224.9,20.8z"/>
					</g>
					<path class="st17" d="M225,27.4l-0.2,0.3c0,0-0.2,0.2,0,0.4s1.7,1.5,1.7,1.5s0.3,0.2,0.5,0l0.2-0.3c0,0-0.3,0.2-0.5,0.1
						s-1.6-1.5-1.6-1.5S224.8,27.8,225,27.4z"/>
					<path class="st17" d="M221.5,24.2l-0.3,0.3c0,0-0.1,0.3,0,0.5c0.2,0.2,1.6,1.4,1.6,1.4s0.3,0.2,0.5,0l0.3-0.3
						c0,0-0.4,0.3-0.6,0.1s-1.5-1.4-1.5-1.4S221.3,24.6,221.5,24.2z"/>
					<path class="st17" d="M228.8,26.1c0,0,1.4-0.2,2.1-0.9c0.4-0.4,0.6-0.9,0.5-1.6c0,0,0,0.5-0.9,1.4
						C230.1,25.5,229.3,25.9,228.8,26.1z"/>
				</g>
				<path class="st17" d="M224,24.5l0.5-0.5c-0.1-0.1-0.2-0.4-0.2-0.7c-0.1-0.4-0.1-0.7-0.1-0.7S223.7,24,224,24.5z"/>
				<path class="st17" d="M230.8,21.4c0,0,0.6,0.5,0.8,0.7c0.1,0.1,0.4,0.2,0.6,0c0.2-0.2,0.6-0.6,0.6-0.6S232,22.1,230.8,21.4z"/>
			</g>
		</g>
		<g>
			<g>
				<g>
					<path class="st15" d="M236.4,26.1"/>
					<g>
						<g>
							<path class="st10" d="M238.7,25.9c0,0.2,0.1,0.4,0.1,0.6c0.1,0.2,0.1,0.4,0.2,0.5c0.2,0.3,0.4,0.6,0.7,0.9
								c-0.2-0.1-0.4-0.1-0.6-0.3c-0.2-0.1-0.3-0.3-0.4-0.5C238.6,26.7,238.5,26.3,238.7,25.9z"/>
						</g>
						<path class="st16" d="M241.1,28.7l1.9,1.8l-0.3,0.3c-0.2,0.2-0.2,0.5,0,0.7l0.4,0.4c0.2,0.2,0.5,0.2,0.7,0l1.5-1.6
							c0.2-0.2,0.2-0.5,0-0.7l-0.4-0.4c-0.2-0.2-0.5-0.2-0.7,0l-0.2,0.3l-1.1-1"/>
						<path class="st16" d="M243.8,27.9c0.7-0.5,1.1-1,1.4-1.8v0l1.1,1l-0.2,0.2c-0.2,0.2-0.2,0.5,0,0.7l0.4,0.4
							c0.2,0.2,0.5,0.2,0.7,0l1.5-1.6c0.2-0.2,0.2-0.5,0-0.7l-0.4-0.4c-0.2-0.2-0.5-0.2-0.7,0l-0.3,0.3l-1.9-1.8l0,0
							c-0.1-0.9-0.5-1.7-1-2.2c-1-1-2.4-0.4-3.7,0.7l-0.2-0.2l1-1.1c0.2-0.2,0.2-0.5,0-0.7l-1.8-1.7c0,0.3-0.1,0.6-0.4,0.9
							c-0.5,0.5-1.4,0.6-1.9,0c-0.3-0.2-0.4-0.6-0.4-0.9l-0.1,0.1l-0.7,0.7l-0.3,0.3l-0.6,0.6c0.3,0,0.7,0.1,1,0.4
							c0.5,0.5,0.6,1.4,0,1.9c-0.2,0.2-0.4,0.3-0.6,0.4l1.6,1.5c0.2,0.2,0.5,0.2,0.7,0l1-1.1l0.2,0.2c-1.1,1.4-1.6,2.7-0.6,3.7
							c0.5,0.5,1.6,0.8,2.5,0.9c0.1,0,0.6,0,1-0.1C242.8,28.5,243.8,27.9,243.8,27.9z"/>
					</g>
					<g>
						<path class="st10" d="M239.7,28c-0.5-0.2-0.9-0.7-1.1-1.3c-0.1-0.3-0.1-0.6,0-0.9c0.1-0.3,0.3-0.5,0.5-0.7
							c-0.1,0.3-0.1,0.5-0.2,0.8c0,0.2,0,0.5,0.1,0.7C239.1,27.1,239.4,27.5,239.7,28z"/>
					</g>
					<path class="st17" d="M246.3,28.1l0.3,0.2c0,0,0.2,0.2,0.4,0c0.2-0.2,1.6-1.6,1.6-1.6s0.3-0.3,0-0.5l-0.2-0.2
						c0,0,0.2,0.4,0.1,0.5c-0.2,0.2-1.5,1.6-1.5,1.6S246.7,28.4,246.3,28.1z"/>
					<path class="st17" d="M243,31.5l0.3,0.3c0,0,0.3,0.2,0.5,0c0.2-0.2,1.5-1.6,1.5-1.6s0.2-0.3,0-0.5l-0.3-0.3
						c0,0,0.2,0.4,0.1,0.6c-0.2,0.2-1.5,1.5-1.5,1.5S243.4,31.7,243,31.5z"/>
					<path class="st17" d="M245.2,24.3c0,0-0.1-1.4-0.8-2.1c-0.4-0.4-0.9-0.7-1.6-0.5c0,0,0.5,0,1.4,0.9
						C244.6,23,244.9,23.8,245.2,24.3z"/>
				</g>
				<path class="st17" d="M243.3,29l-0.5-0.5c-0.1,0.1-0.4,0.2-0.7,0.2c-0.4,0-0.7,0.1-0.7,0.1S242.8,29.3,243.3,29z"/>
				<path class="st17" d="M240.6,22.1c0,0,0.6-0.5,0.7-0.7c0.1-0.1,0.2-0.4,0-0.6c-0.2-0.2-0.6-0.6-0.6-0.6S241.3,21,240.6,22.1z"/>
			</g>
		</g>
		<g>
			<g>
				<g>
					<path class="st15" d="M244.5,17"/>
					<g>
						<g>
							<path class="st10" d="M246.9,17.2c0,0.2,0,0.4,0.1,0.6c0,0.2,0.1,0.4,0.2,0.5c0.1,0.4,0.4,0.6,0.6,1
								c-0.2-0.1-0.4-0.2-0.5-0.4c-0.2-0.1-0.3-0.3-0.3-0.5C246.7,18,246.6,17.5,246.9,17.2z"/>
						</g>
						<path class="st16" d="M248.8,20.2l1.6,2l-0.3,0.3c-0.2,0.2-0.2,0.5-0.1,0.7l0.4,0.4c0.2,0.2,0.5,0.2,0.7,0.1l1.7-1.4
							c0.2-0.2,0.2-0.5,0.1-0.7l-0.3-0.4c-0.2-0.2-0.5-0.2-0.7-0.1l-0.3,0.2l-0.9-1.1"/>
						<path class="st16" d="M251.6,19.8c0.7-0.4,1.3-0.9,1.6-1.6l0,0l0.9,1.2l-0.3,0.2c-0.2,0.2-0.2,0.5-0.1,0.7l0.3,0.4
							c0.2,0.2,0.5,0.2,0.7,0.1l1.7-1.3c0.2-0.2,0.2-0.5,0.1-0.7l-0.4-0.4c-0.2-0.2-0.5-0.2-0.7-0.1l-0.3,0.3l-1.6-2l0,0
							c0-0.9-0.2-1.8-0.7-2.4c-0.9-1.1-2.3-0.8-3.8,0.2l-0.2-0.3l1.2-0.9c0.2-0.2,0.3-0.5,0.1-0.7l-1.5-1.9
							c-0.1,0.3-0.2,0.6-0.5,0.8c-0.6,0.5-1.4,0.4-1.9-0.2c-0.2-0.3-0.3-0.6-0.3-0.9l-0.1,0l-0.8,0.6l-0.3,0.3l-0.7,0.5
							c0.3,0,0.7,0.2,0.9,0.5c0.5,0.6,0.4,1.4-0.2,1.9c-0.2,0.2-0.4,0.2-0.7,0.3l1.4,1.8c0.2,0.2,0.5,0.3,0.7,0.1l1.2-0.9l0.2,0.3
							c-1.3,1.2-2,2.5-1.1,3.6c0.4,0.5,1.5,1,2.3,1.3c0.1,0,0.6,0,1,0.1C250.6,20.4,251.6,19.8,251.6,19.8z"/>
					</g>
					<g>
						<path class="st10" d="M247.5,19.4c-0.5-0.3-0.8-0.8-0.9-1.4c0-0.3,0-0.6,0.2-0.9c0.1-0.3,0.3-0.5,0.6-0.6
							c-0.1,0.3-0.2,0.5-0.3,0.8c-0.1,0.2-0.1,0.5,0,0.7C247.1,18.4,247.3,18.8,247.5,19.4z"/>
					</g>
					<path class="st17" d="M254,20.4l0.2,0.3c0,0,0.2,0.2,0.4,0.1s1.8-1.4,1.8-1.4s0.3-0.2,0.1-0.5l-0.2-0.3c0,0,0.2,0.4,0,0.5
						c-0.2,0.2-1.7,1.3-1.7,1.3S254.4,20.7,254,20.4z"/>
					<path class="st17" d="M250.3,23.3l0.3,0.3c0,0,0.3,0.2,0.5,0.1c0.2-0.1,1.7-1.3,1.7-1.3s0.3-0.2,0.1-0.5l-0.2-0.3
						c0,0,0.2,0.4,0,0.6c-0.2,0.1-1.7,1.3-1.7,1.3S250.7,23.6,250.3,23.3z"/>
					<path class="st17" d="M253.5,16.5c0,0,0.1-1.4-0.5-2.2c-0.4-0.5-0.8-0.8-1.5-0.8c0,0,0.5,0.1,1.3,1.1
						C253.1,15.1,253.3,16,253.5,16.5z"/>
				</g>
				<path class="st17" d="M251,20.9l-0.4-0.6c-0.1,0-0.5,0.1-0.7,0.1c-0.4,0-0.7,0-0.7,0S250.5,21.1,251,20.9z"/>
				<path class="st17" d="M249.2,13.7c0,0,0.6-0.4,0.8-0.6c0.1-0.1,0.3-0.4,0.1-0.6c-0.2-0.2-0.5-0.7-0.5-0.7S250.1,12.6,249.2,13.7
					z"/>
			</g>
		</g>
		<g>
			<g>
				<g>
					<path class="st15" d="M224.8,57.2"/>
					<g>
						<g>
							<path class="st10" d="M225.6,55c0.2,0.1,0.4,0.1,0.6,0.1c0.2,0,0.4,0,0.6,0c0.4,0,0.7-0.1,1.1-0.3c-0.1,0.2-0.3,0.3-0.5,0.4
								c-0.2,0.1-0.4,0.1-0.6,0.2C226.3,55.4,225.9,55.3,225.6,55z"/>
						</g>
						<path class="st16" d="M229.1,54l2.4-0.9l0.2,0.4c0.1,0.2,0.4,0.3,0.6,0.3l0.5-0.2c0.2-0.1,0.4-0.4,0.3-0.6l-0.8-2
							c-0.1-0.2-0.4-0.4-0.6-0.3l-0.5,0.2c-0.2,0.1-0.4,0.4-0.3,0.6l0.1,0.3l-1.3,0.5"/>
						<path class="st16" d="M229.6,51.2c-0.2-0.8-0.5-1.5-1-2l0,0l1.4-0.5l0.1,0.3c0.1,0.2,0.4,0.4,0.6,0.3l0.5-0.2
							c0.2-0.1,0.4-0.4,0.3-0.6l-0.8-2c-0.1-0.2-0.4-0.4-0.6-0.3l-0.5,0.2c-0.2,0.1-0.4,0.4-0.3,0.6l0.1,0.4l-2.4,0.9l0,0
							c-0.9-0.3-1.8-0.3-2.5-0.1c-1.3,0.5-1.4,1.9-0.9,3.6l-0.3,0.1l-0.5-1.4c-0.1-0.3-0.4-0.4-0.7-0.3l-2.3,0.9
							c0.3,0.1,0.5,0.4,0.6,0.7c0.3,0.7-0.1,1.5-0.8,1.7c-0.3,0.1-0.7,0.1-1,0l0,0.1l0.4,1l0.2,0.4l0.3,0.8c0.1-0.3,0.4-0.6,0.7-0.7
							c0.7-0.3,1.5,0.1,1.7,0.8c0.1,0.2,0.1,0.5,0.1,0.7l2.1-0.8c0.3-0.1,0.4-0.4,0.3-0.7l-0.5-1.4l0.3-0.1c0.8,1.6,1.8,2.6,3.1,2.1
							c0.6-0.3,1.4-1.1,1.9-1.8c0-0.1,0.2-0.6,0.3-0.9C229.8,52.4,229.6,51.2,229.6,51.2z"/>
					</g>
					<g>
						<path class="st10" d="M227.9,55c-0.4,0.4-1,0.5-1.6,0.4c-0.3-0.1-0.6-0.2-0.8-0.4c-0.2-0.2-0.4-0.5-0.4-0.7
							c0.2,0.2,0.4,0.4,0.6,0.5c0.2,0.1,0.4,0.2,0.7,0.3C226.8,55.1,227.3,55,227.9,55z"/>
					</g>
					<path class="st17" d="M230.9,49.1l0.3-0.1c0,0,0.3-0.1,0.2-0.4s-0.8-2.1-0.8-2.1s-0.1-0.3-0.5-0.2l-0.3,0.1
						c0,0,0.4-0.1,0.5,0.2c0.1,0.2,0.8,2.1,0.8,2.1S231.3,48.8,230.9,49.1z"/>
					<path class="st17" d="M232.5,53.5l0.4-0.1c0,0,0.3-0.2,0.2-0.4c-0.1-0.3-0.8-2-0.8-2s-0.1-0.3-0.5-0.2l-0.4,0.1
						c0,0,0.5,0,0.6,0.2c0.1,0.2,0.7,2,0.7,2S232.8,53.2,232.5,53.5z"/>
					<path class="st17" d="M226.9,48.5c0,0-1.3-0.5-2.3-0.2c-0.6,0.2-1,0.5-1.2,1.2c0,0,0.2-0.4,1.5-0.9
						C225.5,48.4,226.4,48.4,226.9,48.5z"/>
				</g>
				<path class="st17" d="M230.4,52.1l-0.7,0.3c0,0.1,0,0.5-0.1,0.7c-0.1,0.4-0.3,0.7-0.3,0.7S230.4,52.7,230.4,52.1z"/>
				<path class="st17" d="M223,51.7c0,0-0.2-0.7-0.4-1c-0.1-0.1-0.3-0.4-0.5-0.3c-0.3,0.1-0.8,0.3-0.8,0.3S222.3,50.5,223,51.7z"/>
			</g>
		</g>
		<g>
			<g>
				<g>
					<path class="st15" d="M265.4,57.5"/>
					<g>
						<g>
							<path class="st10" d="M263.2,58.4c-0.1-0.2-0.2-0.3-0.3-0.5c-0.1-0.1-0.2-0.3-0.4-0.4c-0.3-0.3-0.6-0.4-1-0.6
								c0.2,0,0.4,0,0.6,0.1c0.2,0.1,0.4,0.2,0.5,0.3C263,57.6,263.3,58,263.2,58.4z"/>
						</g>
						<path class="st16" d="M260.1,56.6l-2.4-1.1l0.2-0.4c0.1-0.2,0-0.5-0.2-0.6l-0.5-0.2c-0.2-0.1-0.5,0-0.6,0.2l-0.9,2
							c-0.1,0.2,0,0.5,0.2,0.6l0.5,0.2c0.2,0.1,0.5,0,0.6-0.2l0.1-0.3l1.3,0.6"/>
						<path class="st16" d="M257.8,58.2c-0.5,0.7-0.7,1.4-0.7,2.1v0l-1.3-0.6l0.2-0.3c0.1-0.2,0-0.5-0.2-0.6l-0.5-0.2
							c-0.2-0.1-0.5,0-0.6,0.2l-0.9,2c-0.1,0.2,0,0.5,0.2,0.6l0.5,0.2c0.2,0.1,0.5,0,0.6-0.2l0.2-0.4l2.4,1.1l0,0
							c0.4,0.8,1,1.5,1.7,1.8c1.3,0.6,2.4-0.3,3.3-1.9l0.3,0.1l-0.6,1.4c-0.1,0.3,0,0.6,0.3,0.7l2.2,1c-0.1-0.3-0.1-0.6,0.1-0.9
							c0.3-0.7,1.1-1,1.8-0.7c0.3,0.1,0.6,0.4,0.7,0.7l0-0.1l0.4-0.9l0.2-0.4l0.4-0.8c-0.3,0.1-0.7,0.1-1,0c-0.7-0.3-1-1.1-0.7-1.8
							c0.1-0.2,0.3-0.4,0.5-0.5l-2-0.9c-0.3-0.1-0.6,0-0.7,0.3l-0.6,1.4l-0.3-0.1c0.6-1.7,0.6-3.1-0.7-3.7c-0.6-0.3-1.8-0.3-2.6-0.1
							c-0.1,0-0.6,0.2-0.9,0.4C258.5,57.3,257.8,58.2,257.8,58.2z"/>
					</g>
					<g>
						<path class="st10" d="M261.6,56.8c0.6,0,1.1,0.4,1.5,0.9c0.2,0.3,0.3,0.6,0.3,0.9c0,0.3-0.1,0.6-0.2,0.8c0-0.3,0-0.5-0.1-0.8
							c-0.1-0.2-0.1-0.5-0.3-0.7C262.5,57.5,262.1,57.1,261.6,56.8z"/>
					</g>
					<path class="st17" d="M255.4,58.8l-0.3-0.1c0,0-0.3-0.1-0.4,0.1c-0.1,0.2-1,2-1,2s-0.2,0.3,0.2,0.5l0.3,0.2
						c0,0-0.3-0.3-0.2-0.5s0.9-2,0.9-2S254.9,58.7,255.4,58.8z"/>
					<path class="st17" d="M257.4,54.5l-0.4-0.2c0,0-0.3-0.1-0.5,0.2c-0.1,0.2-0.9,1.9-0.9,1.9s-0.1,0.3,0.1,0.5l0.4,0.2
						c0,0-0.4-0.3-0.3-0.5c0.1-0.2,0.9-1.9,0.9-1.9S257,54.5,257.4,54.5z"/>
					<path class="st17" d="M257.7,62c0,0,0.6,1.3,1.5,1.7c0.5,0.3,1,0.3,1.7,0c0,0-0.5,0.1-1.6-0.4C258.6,63.1,258,62.4,257.7,62z"
						/>
				</g>
				<path class="st17" d="M257.8,56.9l0.6,0.3c0.1-0.1,0.4-0.3,0.6-0.4c0.4-0.2,0.7-0.3,0.7-0.3S258.3,56.6,257.8,56.9z"/>
				<path class="st17" d="M262.7,62.6c0,0-0.4,0.7-0.4,0.9c0,0.1-0.1,0.5,0.2,0.6c0.3,0.1,0.8,0.4,0.8,0.4S262.4,63.9,262.7,62.6z"
					/>
			</g>
		</g>
		<g>
			<g>
				<g>
					<path class="st15" d="M265.5,53.2"/>
					<g>
						<g>
							<path class="st10" d="M267.9,53.5c0,0.2,0,0.4,0,0.6c0,0.2,0.1,0.4,0.1,0.5c0.1,0.4,0.3,0.7,0.5,1c-0.2-0.1-0.4-0.2-0.5-0.4
								c-0.1-0.2-0.2-0.3-0.3-0.5C267.6,54.3,267.6,53.8,267.9,53.5z"/>
						</g>
						<path class="st16" d="M269.7,56.6l1.5,2.1l-0.3,0.3c-0.2,0.2-0.2,0.4-0.1,0.6l0.3,0.5c0.2,0.2,0.5,0.3,0.7,0.1l1.8-1.3
							c0.2-0.2,0.3-0.5,0.1-0.7l-0.3-0.5c-0.2-0.2-0.5-0.3-0.7-0.1l-0.3,0.2l-0.9-1.2"/>
						<path class="st16" d="M272.5,56.3c0.7-0.4,1.3-0.8,1.7-1.5l0,0L275,56l-0.3,0.2c-0.2,0.2-0.3,0.5-0.1,0.7l0.3,0.5
							c0.2,0.2,0.4,0.3,0.7,0.1l1.8-1.3c0.2-0.2,0.3-0.4,0.1-0.7l-0.3-0.5c-0.2-0.2-0.4-0.3-0.7-0.1l-0.3,0.2l-1.5-2.1l0,0
							c0.1-0.9-0.1-1.8-0.6-2.4c-0.8-1.2-2.2-0.9-3.8,0l-0.2-0.3l1.2-0.9c0.2-0.2,0.3-0.5,0.1-0.7l-1.4-2c-0.1,0.3-0.2,0.6-0.5,0.8
							c-0.6,0.4-1.4,0.3-1.9-0.3c-0.2-0.3-0.3-0.6-0.2-1l-0.1,0l-0.8,0.6l-0.3,0.3l-0.7,0.5c0.3,0.1,0.7,0.2,0.9,0.5
							c0.4,0.6,0.3,1.4-0.3,1.9c-0.2,0.1-0.4,0.2-0.7,0.2l1.3,1.8c0.2,0.2,0.5,0.3,0.7,0.1l1.2-0.9l0.2,0.3
							c-1.3,1.1-2.1,2.4-1.2,3.6c0.4,0.6,1.4,1.1,2.3,1.4c0.1,0,0.6,0.1,1,0.1C271.4,56.8,272.5,56.3,272.5,56.3z"/>
					</g>
					<g>
						<path class="st10" d="M268.4,55.7c-0.5-0.3-0.8-0.9-0.8-1.5c0-0.3,0-0.6,0.2-0.9c0.1-0.3,0.4-0.5,0.6-0.6
							c-0.1,0.3-0.2,0.5-0.3,0.7c-0.1,0.2-0.1,0.5-0.1,0.7C268.1,54.7,268.2,55.2,268.4,55.7z"/>
					</g>
					<path class="st17" d="M274.9,57.1l0.2,0.3c0,0,0.2,0.2,0.4,0.1c0.2-0.1,1.8-1.3,1.8-1.3s0.3-0.2,0.1-0.5l-0.2-0.3
						c0,0,0.2,0.4,0,0.5c-0.2,0.1-1.8,1.3-1.8,1.3S275.3,57.4,274.9,57.1z"/>
					<path class="st17" d="M271,59.7l0.2,0.4c0,0,0.3,0.2,0.5,0.1c0.2-0.1,1.7-1.3,1.7-1.3s0.3-0.2,0.1-0.5l-0.2-0.3
						c0,0,0.2,0.5,0,0.6c-0.2,0.1-1.7,1.2-1.7,1.2S271.4,60,271,59.7z"/>
					<path class="st17" d="M274.5,53.1c0,0,0.2-1.4-0.4-2.2c-0.3-0.5-0.7-0.8-1.5-0.8c0,0,0.5,0.1,1.2,1.2
						C274.2,51.7,274.4,52.5,274.5,53.1z"/>
				</g>
				<path class="st17" d="M271.8,57.4l-0.4-0.6c-0.1,0-0.5,0.1-0.7,0.1c-0.4,0-0.7-0.1-0.7-0.1S271.3,57.5,271.8,57.4z"/>
				<path class="st17" d="M270.4,50.1c0,0,0.7-0.4,0.8-0.6c0.1-0.1,0.3-0.4,0.1-0.6c-0.2-0.2-0.5-0.7-0.5-0.7S271.3,49.1,270.4,50.1
					z"/>
			</g>
		</g>
		<g>
			<g>
				<g>
					<path class="st15" d="M273.2,41.6"/>
					<g>
						<g>
							<path class="st10" d="M275.5,41.8c0,0.2,0,0.4,0,0.6c0,0.2,0.1,0.4,0.1,0.5c0.1,0.4,0.3,0.7,0.5,1c-0.2-0.1-0.4-0.2-0.5-0.4
								c-0.1-0.2-0.2-0.3-0.3-0.5C275.3,42.6,275.3,42.2,275.5,41.8z"/>
						</g>
						<path class="st16" d="M277.4,45l1.5,2.1l-0.3,0.3c-0.2,0.2-0.2,0.4-0.1,0.6l0.3,0.5c0.2,0.2,0.5,0.3,0.7,0.1l1.8-1.3
							c0.2-0.2,0.3-0.5,0.1-0.7l-0.3-0.5c-0.2-0.2-0.5-0.3-0.7-0.1l-0.3,0.2l-0.9-1.2"/>
						<path class="st16" d="M280.2,44.7c0.7-0.4,1.3-0.8,1.7-1.5l0,0l0.9,1.2l-0.3,0.2c-0.2,0.2-0.3,0.5-0.1,0.7l0.3,0.5
							c0.2,0.2,0.4,0.3,0.7,0.1l1.8-1.3c0.2-0.2,0.3-0.4,0.1-0.7l-0.3-0.5c-0.2-0.2-0.4-0.3-0.7-0.1l-0.3,0.2l-1.5-2.1l0,0
							c0.1-0.9-0.1-1.8-0.6-2.4c-0.8-1.2-2.2-0.9-3.8,0l-0.2-0.3l1.2-0.9c0.2-0.2,0.3-0.5,0.1-0.7l-1.4-2c-0.1,0.3-0.2,0.6-0.5,0.8
							c-0.6,0.4-1.4,0.3-1.9-0.3c-0.2-0.3-0.3-0.6-0.2-1l-0.1,0l-0.8,0.6l-0.3,0.3l-0.7,0.5c0.3,0.1,0.7,0.2,0.9,0.5
							c0.4,0.6,0.3,1.4-0.3,1.9c-0.2,0.1-0.4,0.2-0.7,0.2l1.3,1.8c0.2,0.2,0.5,0.3,0.7,0.1l1.2-0.9l0.2,0.3
							c-1.3,1.1-2.1,2.4-1.2,3.6c0.4,0.6,1.4,1.1,2.3,1.4c0.1,0,0.6,0.1,1,0.1C279.1,45.2,280.2,44.7,280.2,44.7z"/>
					</g>
					<g>
						<path class="st10" d="M276.1,44.1c-0.5-0.3-0.8-0.9-0.8-1.5c0-0.3,0-0.6,0.2-0.9c0.1-0.3,0.4-0.5,0.6-0.6
							c-0.1,0.3-0.2,0.5-0.3,0.7c-0.1,0.2-0.1,0.5-0.1,0.7C275.7,43,275.9,43.5,276.1,44.1z"/>
					</g>
					<path class="st17" d="M282.5,45.4l0.2,0.3c0,0,0.2,0.2,0.4,0.1c0.2-0.1,1.8-1.3,1.8-1.3s0.3-0.2,0.1-0.5l-0.2-0.3
						c0,0,0.2,0.4,0,0.5s-1.8,1.3-1.8,1.3S282.9,45.7,282.5,45.4z"/>
					<path class="st17" d="M278.7,48.1l0.2,0.4c0,0,0.3,0.2,0.5,0.1c0.2-0.1,1.7-1.3,1.7-1.3s0.3-0.2,0.1-0.5l-0.2-0.3
						c0,0,0.2,0.5,0,0.6c-0.2,0.1-1.7,1.2-1.7,1.2S279.1,48.4,278.7,48.1z"/>
					<path class="st17" d="M282.2,41.5c0,0,0.2-1.4-0.4-2.2c-0.3-0.5-0.7-0.8-1.5-0.8c0,0,0.5,0.1,1.2,1.2
						C281.9,40.1,282.1,40.9,282.2,41.5z"/>
				</g>
				<path class="st17" d="M279.5,45.8l-0.4-0.6c-0.1,0-0.5,0.1-0.7,0.1c-0.4,0-0.7-0.1-0.7-0.1S279,45.9,279.5,45.8z"/>
				<path class="st17" d="M278.1,38.4c0,0,0.7-0.4,0.8-0.6c0.1-0.1,0.3-0.4,0.1-0.6c-0.2-0.2-0.5-0.7-0.5-0.7S279,37.5,278.1,38.4z"
					/>
			</g>
		</g>
		<g>
			<g>
				<g>
					<path class="st15" d="M262,19.8"/>
					<g>
						<g>
							<path class="st10" d="M264.3,20c0,0.2,0,0.4,0,0.6c0,0.2,0.1,0.4,0.1,0.5c0.1,0.4,0.3,0.7,0.5,1c-0.2-0.1-0.4-0.2-0.5-0.4
								c-0.1-0.2-0.2-0.3-0.3-0.5C264.1,20.8,264.1,20.4,264.3,20z"/>
						</g>
						<path class="st16" d="M266.1,23.2l1.5,2.1l-0.3,0.3c-0.2,0.2-0.2,0.4-0.1,0.6l0.3,0.5c0.2,0.2,0.5,0.3,0.7,0.1l1.8-1.3
							c0.2-0.2,0.3-0.5,0.1-0.7l-0.3-0.5c-0.2-0.2-0.5-0.3-0.7-0.1l-0.3,0.2l-0.9-1.2"/>
						<path class="st16" d="M268.9,22.9c0.7-0.4,1.3-0.8,1.7-1.5v0l0.9,1.2l-0.3,0.2c-0.2,0.2-0.3,0.5-0.1,0.7l0.3,0.5
							c0.2,0.2,0.4,0.3,0.7,0.1l1.8-1.3c0.2-0.2,0.3-0.4,0.1-0.7l-0.3-0.5c-0.2-0.2-0.4-0.3-0.7-0.1l-0.3,0.2l-1.5-2.1l0,0
							c0.1-0.9-0.1-1.8-0.6-2.4c-0.8-1.2-2.2-0.9-3.8,0l-0.2-0.3l1.2-0.9c0.2-0.2,0.3-0.5,0.1-0.7l-1.4-2c-0.1,0.3-0.2,0.6-0.5,0.8
							c-0.6,0.4-1.4,0.3-1.9-0.3c-0.2-0.3-0.3-0.6-0.2-1l-0.1,0l-0.8,0.6l-0.3,0.3l-0.7,0.5c0.3,0.1,0.7,0.2,0.9,0.5
							c0.4,0.6,0.3,1.4-0.3,1.9c-0.2,0.1-0.4,0.2-0.7,0.2l1.3,1.8c0.2,0.2,0.5,0.3,0.7,0.1l1.2-0.9l0.2,0.3
							c-1.3,1.1-2.1,2.4-1.2,3.6c0.4,0.6,1.4,1.1,2.3,1.4c0.1,0,0.6,0.1,1,0.1C267.9,23.4,268.9,22.9,268.9,22.9z"/>
					</g>
					<g>
						<path class="st10" d="M264.9,22.3c-0.5-0.3-0.8-0.9-0.8-1.5c0-0.3,0-0.6,0.2-0.9c0.1-0.3,0.4-0.5,0.6-0.6
							c-0.1,0.3-0.2,0.5-0.3,0.7c-0.1,0.2-0.1,0.5-0.1,0.7C264.5,21.2,264.7,21.7,264.9,22.3z"/>
					</g>
					<path class="st17" d="M271.3,23.6l0.2,0.3c0,0,0.2,0.2,0.4,0.1c0.2-0.1,1.8-1.3,1.8-1.3s0.3-0.2,0.1-0.5l-0.2-0.3
						c0,0,0.2,0.4,0,0.5s-1.8,1.3-1.8,1.3S271.7,23.9,271.3,23.6z"/>
					<path class="st17" d="M267.5,26.3l0.2,0.4c0,0,0.3,0.2,0.5,0.1c0.2-0.1,1.7-1.3,1.7-1.3s0.3-0.2,0.1-0.5l-0.2-0.3
						c0,0,0.2,0.5,0,0.6s-1.7,1.2-1.7,1.2S267.8,26.6,267.5,26.3z"/>
					<path class="st17" d="M270.9,19.7c0,0,0.2-1.4-0.4-2.2c-0.3-0.5-0.7-0.8-1.5-0.8c0,0,0.5,0.1,1.2,1.2
						C270.6,18.3,270.8,19.1,270.9,19.7z"/>
				</g>
				<path class="st17" d="M268.3,24l-0.4-0.6c-0.1,0-0.5,0.1-0.7,0.1c-0.4,0-0.7-0.1-0.7-0.1S267.7,24.1,268.3,24z"/>
				<path class="st17" d="M266.8,16.6c0,0,0.7-0.4,0.8-0.6c0.1-0.1,0.3-0.4,0.1-0.6c-0.2-0.2-0.5-0.7-0.5-0.7S267.8,15.7,266.8,16.6
					z"/>
			</g>
		</g>
	</g>
</g>
<g>
	<defs>
		<path id="SVGID_5_" d="M336.8,60.5l10.2-0.1c2.8,0,11.3,1.2,11.3,1.2s-1.2-8.5-1.2-11.3L357,29.7c0-5.6-4.6-10.1-10.2-10.1
			l-17.4,0.1l-5.7,0l-8.6,0c-5.6,0-10.1,4.6-10.1,10.2l0.1,20.6c0,5.6,4.6,10.1,10.2,10.1l9.6,0L336.8,60.5z"/>
	</defs>
	<clipPath id="SVGID_6_">
		<use xlink:href="#SVGID_5_"  style="overflow:visible;"/>
	</clipPath>
	<g class="st18">
		<g>
			<g>
				<g>
					<g>
						<line class="st0" x1="339.4" y1="54.8" x2="359.5" y2="54.7"/>
						<line class="st19" x1="339.4" y1="54.8" x2="359.5" y2="54.7"/>
						<line class="st20" x1="339.4" y1="54.8" x2="359.5" y2="54.7"/>
					</g>
					<g>
						<line class="st0" x1="311.6" y1="54.9" x2="339.4" y2="54.8"/>
						<line class="st21" x1="311.6" y1="54.9" x2="339.4" y2="54.8"/>
						<line class="st22" x1="311.6" y1="54.9" x2="339.4" y2="54.8"/>
					</g>
					<g>
						<line class="st0" x1="303.7" y1="54.9" x2="320.4" y2="54.9"/>
						<line class="st19" x1="303.7" y1="54.9" x2="320.4" y2="54.9"/>
						<line class="st20" x1="303.7" y1="54.9" x2="320.4" y2="54.9"/>
					</g>
				</g>
			</g>
		</g>
		<g>
			<g>
				<g>
					<path class="st15" d="M318.8,32.4"/>
					<g>
						<g>
							<path class="st10" d="M323,34.9c-0.2,0.3-0.4,0.7-0.6,1.1c-0.1,0.4-0.2,0.8-0.3,1.2c-0.1,0.8,0.1,1.6,0.3,2.4
								c-0.2-0.4-0.4-0.7-0.5-1.2c-0.1-0.4-0.1-0.9-0.1-1.3C322,36.3,322.4,35.4,323,34.9z"/>
						</g>
						<path class="st16" d="M323.7,42.5l1,5.4l-0.9,0.2c-0.5,0.1-0.9,0.6-0.7,1.2l0.2,1.2c0.1,0.5,0.6,0.9,1.2,0.8l4.5-0.9
							c0.5-0.1,0.9-0.6,0.8-1.2l-0.2-1.1c-0.1-0.5-0.6-0.9-1.2-0.8l-0.7,0.1l-0.6-3"/>
						<path class="st16" d="M329.3,44.4c1.7-0.1,3.2-0.4,4.5-1.4h0l0.6,3.1l-0.7,0.1c-0.5,0.1-0.9,0.6-0.8,1.2l0.2,1.2
							c0.1,0.5,0.6,0.9,1.2,0.8l4.5-0.8c0.5-0.1,0.9-0.6,0.8-1.2l-0.2-1.2c-0.1-0.5-0.6-0.9-1.1-0.8l-0.9,0.2l-1-5.4l0,0
							c0.9-1.7,1.3-3.5,1-5c-0.6-2.9-3.5-3.7-7.2-3.3l-0.1-0.7l3.1-0.6c0.6-0.1,1-0.7,0.9-1.3l-1-5c-0.4,0.5-1,0.9-1.7,1
							c-1.5,0.3-3-0.7-3.3-2.2c-0.1-0.7,0-1.5,0.4-2l-0.2,0l-2.1,0.4l-0.9,0.2l-1.7,0.3c0.6,0.4,1.1,1,1.2,1.8
							c0.3,1.5-0.7,3-2.2,3.3c-0.5,0.1-1,0-1.5-0.1l0.9,4.6c0.1,0.6,0.7,1,1.3,0.9l3.1-0.6l0.1,0.7c-3.6,1-6,2.7-5.5,5.7
							c0.3,1.4,1.7,3.4,3.1,4.6c0.2,0.1,1.1,0.7,1.8,1.1C326.8,44.4,329.3,44.4,329.3,44.4z"/>
					</g>
					<g>
						<path class="st10" d="M322.1,39.7c-0.4-1.1-0.5-2.3,0-3.5c0.2-0.6,0.6-1.1,1-1.4c0.5-0.4,1-0.6,1.6-0.8c-0.5,0.3-1,0.6-1.3,1
							c-0.4,0.4-0.7,0.8-0.9,1.4c-0.2,0.5-0.3,1-0.4,1.6C322.1,38.5,322.1,39.1,322.1,39.7z"/>
					</g>
					<path class="st17" d="M333.2,47.9l0.1,0.7c0,0,0.2,0.6,0.7,0.6c0.6-0.1,4.6-0.8,4.6-0.8s0.7-0.1,0.6-0.9l-0.1-0.7
						c0,0,0,0.9-0.6,1c-0.5,0.1-4.5,0.8-4.5,0.8S333.7,48.9,333.2,47.9z"/>
					<path class="st17" d="M323.5,49.6l0.2,0.9c0,0,0.3,0.6,0.8,0.6c0.5-0.1,4.4-0.9,4.4-0.9s0.7-0.2,0.7-0.9l-0.1-0.8
						c0,0-0.1,1-0.6,1.1c-0.5,0.1-4.3,0.8-4.3,0.8S323.9,50.5,323.5,49.6z"/>
					<path class="st17" d="M336.1,40c0,0,1.6-2.6,1.2-4.6c-0.2-1.2-0.7-2.2-2-2.9c0,0,0.8,0.6,1.3,3.3
						C336.7,37.1,336.3,38.9,336.1,40z"/>
				</g>
				<path class="st17" d="M327.2,45.8l-0.3-1.5c-0.3-0.1-1-0.2-1.4-0.5c-0.7-0.4-1.3-0.8-1.3-0.8S326,45.6,327.2,45.8z"/>
				<path class="st17" d="M330.9,30.8c0,0,1.6-0.2,2.1-0.4c0.3-0.1,0.9-0.5,0.7-1c-0.1-0.6-0.3-1.8-0.3-1.8S333.6,29.8,330.9,30.8z"
					/>
			</g>
		</g>
		<path class="st23" d="M340.3,48.7c0.5-0.9,0.4-2-0.2-2.8"/>
		<path class="st23" d="M340.3,50.4c1.1-0.6,1.8-1.8,1.8-3.1c0-1.2-0.8-2.5-1.9-3"/>
		<path class="st23" d="M341.2,51.1c1.1-0.6,2.4-2.5,2.4-3.8c0-1.2-0.8-3.6-1.9-4.1"/>
		<g>
			<path class="st23" d="M320,35.1c-0.7,0.7-1,1.7-0.7,2.7"/>
			<path class="st23" d="M320.5,33.5c-1.2,0.2-2.3,1.1-2.7,2.3c-0.4,1.2-0.1,2.6,0.8,3.5"/>
			<path class="st23" d="M319.9,32.5c-1.2,0.2-3.1,1.6-3.5,2.7c-0.4,1.2-0.4,3.6,0.4,4.5"/>
		</g>
	</g>
</g>
<g>
	<rect x="159.9" y="0.1" class="st24" width="49.6" height="16.7"/>
	<g>
		<path class="st25" d="M172.7,2.6c0,0.2-0.2,0.4-0.4,0.4c-0.3,0-0.4-0.2-0.4-0.4c0-0.2,0.2-0.4,0.4-0.4
			C172.5,2.2,172.7,2.4,172.7,2.6z M171.9,7.6V3.7h0.7v3.9H171.9z"/>
		<path class="st25" d="M173.8,4.7c0-0.4,0-0.7,0-1h0.6l0,0.6h0c0.2-0.4,0.6-0.7,1.3-0.7c0.5,0,1.4,0.3,1.4,1.6v2.3h-0.7V5.3
			c0-0.6-0.2-1.1-0.9-1.1c-0.5,0-0.8,0.3-0.9,0.7c0,0.1,0,0.2,0,0.3v2.3h-0.7V4.7z"/>
		<path class="st25" d="M181.6,1.9v4.7c0,0.3,0,0.7,0,1H181l0-0.7h0c-0.2,0.4-0.7,0.8-1.3,0.8c-0.9,0-1.7-0.8-1.7-2
			c0-1.3,0.8-2.1,1.7-2.1c0.6,0,1,0.3,1.2,0.6h0V1.9H181.6z M180.9,5.3c0-0.1,0-0.2,0-0.3c-0.1-0.4-0.5-0.8-1-0.8
			c-0.7,0-1.2,0.6-1.2,1.5c0,0.8,0.4,1.4,1.1,1.4c0.5,0,0.9-0.3,1-0.8c0-0.1,0-0.2,0-0.3V5.3z"/>
		<path class="st25" d="M186,6.5c0,0.4,0,0.8,0,1.1h-0.6l0-0.6h0c-0.2,0.3-0.6,0.7-1.3,0.7c-0.6,0-1.3-0.3-1.3-1.7V3.7h0.7v2.1
			c0,0.7,0.2,1.2,0.9,1.2c0.5,0,0.8-0.3,0.9-0.6c0-0.1,0.1-0.2,0.1-0.4V3.7h0.7V6.5z"/>
		<path class="st25" d="M189.9,7.4c-0.2,0.1-0.6,0.2-1.1,0.2c-1.2,0-1.9-0.8-1.9-2c0-1.2,0.8-2.1,2.1-2.1c0.4,0,0.8,0.1,1,0.2
			l-0.2,0.5c-0.2-0.1-0.4-0.2-0.8-0.2c-0.9,0-1.4,0.7-1.4,1.5c0,0.9,0.6,1.4,1.3,1.4c0.4,0,0.7-0.1,0.9-0.2L189.9,7.4z"/>
		<path class="st25" d="M191.1,5.8c0,1,0.6,1.3,1.3,1.3c0.5,0,0.8-0.1,1.1-0.2l0.1,0.5c-0.2,0.1-0.7,0.2-1.3,0.2
			c-1.2,0-1.9-0.8-1.9-2s0.7-2.1,1.8-2.1c1.3,0,1.6,1.1,1.6,1.8c0,0.1,0,0.2,0,0.3H191.1z M193.1,5.3c0-0.4-0.2-1.1-1-1.1
			c-0.7,0-1,0.6-1.1,1.1H193.1z"/>
		<path class="st25" d="M194.7,4.9c0-0.5,0-0.8,0-1.2h0.6l0,0.8h0c0.2-0.5,0.6-0.8,1.1-0.8c0.1,0,0.1,0,0.2,0v0.7
			c-0.1,0-0.1,0-0.2,0c-0.5,0-0.8,0.4-0.9,0.9c0,0.1,0,0.2,0,0.3v2.1h-0.7V4.9z"/>
		<path class="st25" d="M164.9,14.4c-0.2,0.1-0.6,0.2-1.1,0.2c-1.2,0-1.9-0.8-1.9-2c0-1.2,0.8-2.1,2.1-2.1c0.4,0,0.8,0.1,1,0.2
			l-0.2,0.5c-0.2-0.1-0.4-0.2-0.8-0.2c-0.9,0-1.4,0.7-1.4,1.5c0,0.9,0.6,1.4,1.3,1.4c0.4,0,0.7-0.1,0.9-0.2L164.9,14.4z"/>
		<path class="st25" d="M169.1,12.6c0,1.4-1,2.1-1.9,2.1c-1,0-1.9-0.8-1.9-2c0-1.3,0.9-2,1.9-2C168.4,10.6,169.1,11.4,169.1,12.6z
			 M166.1,12.6c0,0.8,0.5,1.5,1.2,1.5c0.7,0,1.2-0.6,1.2-1.5c0-0.7-0.3-1.5-1.2-1.5C166.4,11.1,166.1,11.9,166.1,12.6z"/>
		<path class="st25" d="M170,11.7c0-0.4,0-0.7,0-1h0.6l0,0.6h0c0.2-0.4,0.6-0.7,1.3-0.7c0.5,0,1.4,0.3,1.4,1.6v2.3h-0.7v-2.2
			c0-0.6-0.2-1.1-0.9-1.1c-0.5,0-0.8,0.3-0.9,0.7c0,0.1,0,0.2,0,0.3v2.3H170V11.7z"/>
		<path class="st25" d="M177.2,14.4c-0.2,0.1-0.6,0.2-1.1,0.2c-1.2,0-1.9-0.8-1.9-2c0-1.2,0.8-2.1,2.1-2.1c0.4,0,0.8,0.1,1,0.2
			l-0.2,0.5c-0.2-0.1-0.4-0.2-0.8-0.2c-0.9,0-1.4,0.7-1.4,1.5c0,0.9,0.6,1.4,1.3,1.4c0.4,0,0.7-0.1,0.9-0.2L177.2,14.4z"/>
		<path class="st25" d="M178.4,12.8c0,1,0.6,1.3,1.3,1.3c0.5,0,0.8-0.1,1.1-0.2l0.1,0.5c-0.2,0.1-0.7,0.2-1.3,0.2
			c-1.2,0-1.9-0.8-1.9-2s0.7-2.1,1.8-2.1c1.3,0,1.6,1.1,1.6,1.8c0,0.1,0,0.2,0,0.3H178.4z M180.5,12.3c0-0.4-0.2-1.1-1-1.1
			c-0.7,0-1,0.6-1.1,1.1H180.5z"/>
		<path class="st25" d="M182,11.7c0-0.4,0-0.7,0-1h0.6l0,0.6h0c0.2-0.4,0.6-0.7,1.3-0.7c0.5,0,1.4,0.3,1.4,1.6v2.3h-0.7v-2.2
			c0-0.6-0.2-1.1-0.9-1.1c-0.5,0-0.8,0.3-0.9,0.7c0,0.1,0,0.2,0,0.3v2.3H182V11.7z"/>
		<path class="st25" d="M187.3,9.8v0.9h1v0.5h-1v2.1c0,0.5,0.1,0.8,0.5,0.8c0.2,0,0.3,0,0.4,0l0,0.5c-0.1,0-0.4,0.1-0.6,0.1
			c-0.3,0-0.6-0.1-0.8-0.3c-0.2-0.2-0.3-0.6-0.3-1v-2.1H186v-0.5h0.6V10L187.3,9.8z"/>
		<path class="st25" d="M189.1,11.9c0-0.5,0-0.8,0-1.2h0.6l0,0.8h0c0.2-0.5,0.6-0.8,1.1-0.8c0.1,0,0.1,0,0.2,0v0.7
			c-0.1,0-0.1,0-0.2,0c-0.5,0-0.8,0.4-0.9,0.9c0,0.1,0,0.2,0,0.3v2.1h-0.7V11.9z"/>
		<path class="st25" d="M194.4,13.6c0,0.3,0,0.7,0.1,0.9h-0.6l-0.1-0.5h0c-0.2,0.3-0.6,0.6-1.2,0.6c-0.8,0-1.2-0.6-1.2-1.1
			c0-0.9,0.8-1.4,2.3-1.4V12c0-0.3-0.1-0.9-0.9-0.9c-0.4,0-0.7,0.1-1,0.3l-0.2-0.5c0.3-0.2,0.8-0.3,1.3-0.3c1.2,0,1.5,0.8,1.5,1.6
			V13.6z M193.7,12.6c-0.8,0-1.6,0.1-1.6,0.9c0,0.5,0.3,0.7,0.7,0.7c0.5,0,0.8-0.3,1-0.6c0-0.1,0-0.2,0-0.2V12.6z"/>
		<path class="st25" d="M196.3,9.8v0.9h1v0.5h-1v2.1c0,0.5,0.1,0.8,0.5,0.8c0.2,0,0.3,0,0.4,0l0,0.5c-0.1,0-0.4,0.1-0.6,0.1
			c-0.3,0-0.6-0.1-0.8-0.3c-0.2-0.2-0.3-0.6-0.3-1v-2.1H195v-0.5h0.6V10L196.3,9.8z"/>
		<path class="st25" d="M198.9,9.6c0,0.2-0.2,0.4-0.4,0.4c-0.3,0-0.4-0.2-0.4-0.4c0-0.2,0.2-0.4,0.4-0.4
			C198.7,9.2,198.9,9.4,198.9,9.6z M198.1,14.6v-3.9h0.7v3.9H198.1z"/>
		<path class="st25" d="M203.5,12.6c0,1.4-1,2.1-1.9,2.1c-1,0-1.9-0.8-1.9-2c0-1.3,0.9-2,1.9-2C202.7,10.6,203.5,11.4,203.5,12.6z
			 M200.4,12.6c0,0.8,0.5,1.5,1.2,1.5c0.7,0,1.2-0.6,1.2-1.5c0-0.7-0.3-1.5-1.2-1.5C200.8,11.1,200.4,11.9,200.4,12.6z"/>
		<path class="st25" d="M204.4,11.7c0-0.4,0-0.7,0-1h0.6l0,0.6h0c0.2-0.4,0.6-0.7,1.3-0.7c0.5,0,1.4,0.3,1.4,1.6v2.3H207v-2.2
			c0-0.6-0.2-1.1-0.9-1.1c-0.5,0-0.8,0.3-0.9,0.7c0,0.1,0,0.2,0,0.3v2.3h-0.7V11.7z"/>
	</g>
</g>
<g>
	<rect x="224.6" y="0.4" class="st26" width="49.6" height="16.6"/>
	<g>
		<path class="st2" d="M233.9,4.2c0-0.5,0-0.8,0-1.2h0.6l0,0.8h0c0.2-0.5,0.6-0.8,1.1-0.8c0.1,0,0.1,0,0.2,0v0.7c-0.1,0-0.1,0-0.2,0
			c-0.5,0-0.8,0.4-0.9,0.9c0,0.1,0,0.2,0,0.3v2.1h-0.7V4.2z"/>
		<path class="st2" d="M236.8,5c0,1,0.6,1.3,1.3,1.3c0.5,0,0.8-0.1,1.1-0.2l0.1,0.5c-0.2,0.1-0.7,0.2-1.3,0.2c-1.2,0-1.9-0.8-1.9-2
			s0.7-2.1,1.8-2.1c1.3,0,1.6,1.1,1.6,1.8c0,0.1,0,0.2,0,0.3H236.8z M238.9,4.5c0-0.4-0.2-1.1-1-1.1c-0.7,0-1,0.6-1.1,1.1H238.9z"/>
		<path class="st2" d="M240.4,4.2c0-0.5,0-0.9,0-1.3h0.6l0,0.7h0c0.3-0.5,0.7-0.7,1.4-0.7c0.9,0,1.6,0.8,1.6,2
			c0,1.4-0.9,2.1-1.8,2.1c-0.5,0-1-0.2-1.2-0.6h0v2.1h-0.7V4.2z M241.1,5.2c0,0.1,0,0.2,0,0.3c0.1,0.5,0.6,0.8,1.1,0.8
			c0.7,0,1.2-0.6,1.2-1.5c0-0.8-0.4-1.4-1.2-1.4c-0.5,0-0.9,0.3-1.1,0.9c0,0.1,0,0.2,0,0.3V5.2z"/>
		<path class="st2" d="M245,4.2c0-0.5,0-0.8,0-1.2h0.6l0,0.8h0c0.2-0.5,0.6-0.8,1.1-0.8c0.1,0,0.1,0,0.2,0v0.7c-0.1,0-0.1,0-0.2,0
			c-0.5,0-0.8,0.4-0.9,0.9c0,0.1,0,0.2,0,0.3v2.1H245V4.2z"/>
		<path class="st2" d="M247.9,5c0,1,0.6,1.3,1.3,1.3c0.5,0,0.8-0.1,1.1-0.2l0.1,0.5c-0.2,0.1-0.7,0.2-1.3,0.2c-1.2,0-1.9-0.8-1.9-2
			s0.7-2.1,1.8-2.1c1.3,0,1.6,1.1,1.6,1.8c0,0.1,0,0.2,0,0.3H247.9z M250,4.5c0-0.4-0.2-1.1-1-1.1c-0.7,0-1,0.6-1.1,1.1H250z"/>
		<path class="st2" d="M251.4,6.1c0.2,0.1,0.6,0.3,0.9,0.3c0.5,0,0.7-0.2,0.7-0.6c0-0.3-0.2-0.5-0.7-0.7c-0.7-0.3-1-0.6-1-1.1
			c0-0.6,0.5-1.1,1.3-1.1c0.4,0,0.7,0.1,0.9,0.2l-0.2,0.5c-0.2-0.1-0.4-0.2-0.8-0.2c-0.4,0-0.6,0.2-0.6,0.5c0,0.3,0.2,0.5,0.7,0.7
			c0.7,0.2,1,0.6,1,1.2c0,0.7-0.5,1.2-1.4,1.2c-0.4,0-0.8-0.1-1.1-0.3L251.4,6.1z"/>
		<path class="st2" d="M254.6,6.1c0.2,0.1,0.6,0.3,0.9,0.3c0.5,0,0.7-0.2,0.7-0.6c0-0.3-0.2-0.5-0.7-0.7c-0.7-0.3-1-0.6-1-1.1
			c0-0.6,0.5-1.1,1.3-1.1c0.4,0,0.7,0.1,0.9,0.2l-0.2,0.5c-0.2-0.1-0.4-0.2-0.8-0.2c-0.4,0-0.6,0.2-0.6,0.5c0,0.3,0.2,0.5,0.7,0.7
			c0.7,0.2,1,0.6,1,1.2c0,0.7-0.5,1.2-1.4,1.2c-0.4,0-0.8-0.1-1.1-0.3L254.6,6.1z"/>
		<path class="st2" d="M261.4,4.9c0,1.4-1,2.1-1.9,2.1c-1,0-1.9-0.8-1.9-2c0-1.3,0.9-2,1.9-2C260.6,2.9,261.4,3.7,261.4,4.9z
			 M258.3,4.9c0,0.8,0.5,1.5,1.2,1.5c0.7,0,1.2-0.6,1.2-1.5c0-0.7-0.3-1.5-1.2-1.5C258.6,3.4,258.3,4.2,258.3,4.9z"/>
		<path class="st2" d="M262.2,4.2c0-0.5,0-0.8,0-1.2h0.6l0,0.8h0c0.2-0.5,0.6-0.8,1.1-0.8c0.1,0,0.1,0,0.2,0v0.7c-0.1,0-0.1,0-0.2,0
			c-0.5,0-0.8,0.4-0.9,0.9c0,0.1,0,0.2,0,0.3v2.1h-0.7V4.2z"/>
		<path class="st2" d="M230.7,13.7c-0.2,0.1-0.6,0.2-1.1,0.2c-1.2,0-1.9-0.8-1.9-2c0-1.2,0.8-2.1,2.1-2.1c0.4,0,0.8,0.1,1,0.2
			l-0.2,0.5c-0.2-0.1-0.4-0.2-0.8-0.2c-0.9,0-1.4,0.7-1.4,1.5c0,0.9,0.6,1.4,1.3,1.4c0.4,0,0.7-0.1,0.9-0.2L230.7,13.7z"/>
		<path class="st2" d="M235,11.9c0,1.4-1,2.1-1.9,2.1c-1,0-1.9-0.8-1.9-2c0-1.3,0.9-2,1.9-2C234.2,9.9,235,10.7,235,11.9z
			 M231.9,11.9c0,0.8,0.5,1.5,1.2,1.5c0.7,0,1.2-0.6,1.2-1.5c0-0.7-0.3-1.5-1.2-1.5C232.3,10.4,231.9,11.2,231.9,11.9z"/>
		<path class="st2" d="M235.8,11.2c0-0.5,0-0.9,0-1.3h0.6l0,0.7h0c0.3-0.5,0.7-0.7,1.4-0.7c0.9,0,1.6,0.8,1.6,2
			c0,1.4-0.9,2.1-1.8,2.1c-0.5,0-1-0.2-1.2-0.6h0v2.1h-0.7V11.2z M236.5,12.2c0,0.1,0,0.2,0,0.3c0.1,0.5,0.6,0.8,1.1,0.8
			c0.7,0,1.2-0.6,1.2-1.5c0-0.8-0.4-1.4-1.2-1.4c-0.5,0-0.9,0.3-1.1,0.9c0,0.1,0,0.2,0,0.3V12.2z"/>
		<path class="st2" d="M240.6,10l0.8,2.3c0.1,0.3,0.2,0.6,0.3,0.8h0c0.1-0.2,0.2-0.5,0.2-0.8l0.8-2.3h0.7l-1.1,2.8
			c-0.5,1.3-0.8,2-1.3,2.4c-0.4,0.3-0.7,0.4-0.9,0.4L240,15c0.2-0.1,0.4-0.2,0.6-0.3c0.2-0.2,0.4-0.4,0.6-0.8c0-0.1,0.1-0.1,0.1-0.2
			s0-0.1-0.1-0.2l-1.4-3.6H240.6z"/>
		<path class="st2" d="M245.8,11c0-0.4,0-0.7,0-1h0.6l0,0.6h0c0.2-0.4,0.6-0.7,1.3-0.7c0.5,0,1.4,0.3,1.4,1.6v2.3h-0.7v-2.2
			c0-0.6-0.2-1.1-0.9-1.1c-0.5,0-0.8,0.3-0.9,0.7c0,0.1,0,0.2,0,0.3v2.3h-0.7V11z"/>
		<path class="st2" d="M253.5,12.8c0,0.4,0,0.8,0,1.1h-0.6l0-0.6h0c-0.2,0.3-0.6,0.7-1.3,0.7c-0.6,0-1.3-0.3-1.3-1.7V10h0.7v2.1
			c0,0.7,0.2,1.2,0.9,1.2c0.5,0,0.8-0.3,0.9-0.6c0-0.1,0.1-0.2,0.1-0.4V10h0.7V12.8z"/>
		<path class="st2" d="M254.7,11c0-0.4,0-0.7,0-1h0.6l0,0.6h0c0.2-0.4,0.6-0.7,1.2-0.7c0.5,0,0.9,0.3,1.1,0.8h0
			c0.1-0.2,0.3-0.4,0.4-0.5c0.2-0.2,0.5-0.3,0.8-0.3c0.5,0,1.3,0.3,1.3,1.7v2.3h-0.7v-2.2c0-0.8-0.3-1.2-0.8-1.2
			c-0.4,0-0.7,0.3-0.8,0.6c0,0.1-0.1,0.2-0.1,0.4v2.4h-0.7v-2.3c0-0.6-0.3-1.1-0.8-1.1c-0.4,0-0.8,0.4-0.9,0.7
			c0,0.1-0.1,0.2-0.1,0.3v2.3h-0.7V11z"/>
		<path class="st2" d="M261.3,8.1h0.7v2.4h0c0.2-0.4,0.7-0.7,1.3-0.7c1,0,1.6,0.8,1.6,2c0,1.4-0.9,2.1-1.7,2.1c-0.6,0-1-0.2-1.3-0.7
			h0l0,0.6h-0.6c0-0.3,0-0.7,0-1V8.1z M262,12.3c0,0.1,0,0.2,0,0.3c0.1,0.5,0.5,0.8,1.1,0.8c0.7,0,1.2-0.6,1.2-1.5
			c0-0.8-0.4-1.4-1.2-1.4c-0.5,0-0.9,0.3-1.1,0.9c0,0.1,0,0.2,0,0.3V12.3z"/>
		<path class="st2" d="M266.3,12c0,1,0.6,1.3,1.3,1.3c0.5,0,0.8-0.1,1.1-0.2l0.1,0.5c-0.2,0.1-0.7,0.2-1.3,0.2c-1.2,0-1.9-0.8-1.9-2
			s0.7-2.1,1.8-2.1c1.3,0,1.6,1.1,1.6,1.8c0,0.1,0,0.2,0,0.3H266.3z M268.3,11.5c0-0.4-0.2-1.1-1-1.1c-0.7,0-1,0.6-1.1,1.1H268.3z"
			/>
		<path class="st2" d="M269.9,11.2c0-0.5,0-0.8,0-1.2h0.6l0,0.8h0c0.2-0.5,0.6-0.8,1.1-0.8c0.1,0,0.1,0,0.2,0v0.7
			c-0.1,0-0.1,0-0.2,0c-0.5,0-0.8,0.4-0.9,0.9c0,0.1,0,0.2,0,0.3v2.1h-0.7V11.2z"/>
	</g>
</g>
<g>
	
		<rect x="307.3" y="0.2" transform="matrix(1 -5.008356e-03 5.008356e-03 1 -4.115058e-02 1.6633)" class="st27" width="49.6" height="17.6"/>
	<g>
		<path class="st28" d="M311.2,2.7c0.4-0.1,0.9-0.1,1.5-0.1c1,0,1.7,0.2,2.2,0.7c0.5,0.4,0.8,1.1,0.8,1.9c0,0.9-0.3,1.6-0.8,2.1
			c-0.5,0.5-1.3,0.8-2.4,0.8c-0.5,0-0.9,0-1.3-0.1L311.2,2.7z M311.9,7.5c0.2,0,0.4,0,0.7,0c1.5,0,2.3-0.8,2.3-2.3
			c0-1.3-0.7-2.1-2.2-2.1c-0.4,0-0.6,0-0.8,0.1L311.9,7.5z"/>
		<path class="st28" d="M316.5,8l0-5.4l0.8,0l1.7,2.7c0.4,0.6,0.7,1.2,1,1.7l0,0c-0.1-0.7-0.1-1.4-0.1-2.2l0-2.3l0.7,0l0,5.4l-0.7,0
			l-1.7-2.7c-0.4-0.6-0.7-1.2-1-1.8l0,0c0,0.7,0.1,1.3,0.1,2.2l0,2.3L316.5,8z"/>
		<path class="st28" d="M322.7,6.3L322.1,8l-0.7,0l1.8-5.4l0.8,0l1.9,5.4l-0.7,0l-0.6-1.7L322.7,6.3z M324.4,5.7l-0.5-1.5
			c-0.1-0.4-0.2-0.7-0.3-1h0c-0.1,0.3-0.2,0.6-0.3,1l-0.5,1.6L324.4,5.7z"/>
		<path class="st28" d="M328.3,2.2l0.7,0l0,2.4h0c0.2-0.4,0.7-0.7,1.3-0.7c1,0,1.6,0.8,1.6,2c0,1.4-0.9,2.1-1.7,2.1
			c-0.6,0-1-0.2-1.3-0.7h0l0,0.6l-0.6,0c0-0.3,0-0.7,0-1L328.3,2.2z M329,6.4c0,0.1,0,0.2,0,0.3c0.1,0.5,0.5,0.8,1.1,0.8
			c0.7,0,1.2-0.6,1.2-1.5c0-0.8-0.4-1.4-1.2-1.4c-0.5,0-0.9,0.3-1.1,0.9c0,0.1,0,0.2,0,0.3L329,6.4z"/>
		<path class="st28" d="M333.7,2.9c0,0.2-0.2,0.4-0.4,0.4c-0.3,0-0.4-0.2-0.4-0.4c0-0.2,0.2-0.4,0.4-0.4
			C333.5,2.5,333.7,2.7,333.7,2.9z M332.9,7.9l0-3.9l0.7,0l0,3.9L332.9,7.9z"/>
		<path class="st28" d="M334.8,5.1c0-0.4,0-0.7,0-1l0.6,0l0,0.6h0c0.2-0.4,0.6-0.7,1.3-0.7c0.5,0,1.4,0.3,1.4,1.6l0,2.3l-0.7,0
			l0-2.2c0-0.6-0.2-1.1-0.9-1.1c-0.5,0-0.8,0.3-0.9,0.7c0,0.1,0,0.2,0,0.3l0,2.3l-0.7,0L334.8,5.1z"/>
		<path class="st28" d="M342.5,2.2l0,4.7c0,0.3,0,0.7,0,1l-0.6,0l0-0.7h0c-0.2,0.4-0.7,0.8-1.3,0.8c-0.9,0-1.7-0.8-1.7-2
			c0-1.3,0.8-2.1,1.7-2.1c0.6,0,1,0.3,1.2,0.6h0l0-2.3L342.5,2.2z M341.8,5.6c0-0.1,0-0.2,0-0.3c-0.1-0.4-0.5-0.8-1-0.8
			c-0.7,0-1.2,0.6-1.2,1.5c0,0.8,0.4,1.4,1.2,1.4c0.5,0,0.9-0.3,1-0.8c0-0.1,0-0.2,0-0.3L341.8,5.6z"/>
		<path class="st28" d="M344.5,2.9c0,0.2-0.2,0.4-0.4,0.4c-0.3,0-0.4-0.2-0.4-0.4c0-0.2,0.2-0.4,0.4-0.4
			C344.3,2.4,344.5,2.6,344.5,2.9z M343.7,7.8l0-3.9l0.7,0l0,3.9L343.7,7.8z"/>
		<path class="st28" d="M345.6,5c0-0.4,0-0.7,0-1l0.6,0l0,0.6h0c0.2-0.4,0.6-0.7,1.3-0.7c0.5,0,1.4,0.3,1.4,1.6l0,2.3l-0.7,0l0-2.2
			c0-0.6-0.2-1.1-0.9-1.1c-0.5,0-0.8,0.3-0.9,0.7c0,0.1,0,0.2,0,0.3l0,2.3l-0.7,0L345.6,5z"/>
		<path class="st28" d="M353.4,7.2c0,0.9-0.2,1.4-0.5,1.8c-0.4,0.3-0.9,0.5-1.4,0.5c-0.5,0-1-0.1-1.3-0.3l0.2-0.5
			c0.3,0.2,0.7,0.3,1.1,0.3c0.7,0,1.2-0.4,1.2-1.4l0-0.4h0c-0.2,0.4-0.6,0.7-1.2,0.7c-1,0-1.7-0.8-1.7-1.9c0-1.3,0.8-2.1,1.7-2.1
			c0.7,0,1,0.3,1.2,0.7h0l0-0.6l0.6,0c0,0.3,0,0.6,0,1.1L353.4,7.2z M352.6,5.5c0-0.1,0-0.2,0-0.3c-0.1-0.4-0.5-0.7-1-0.7
			c-0.7,0-1.1,0.6-1.1,1.5c0,0.8,0.4,1.4,1.2,1.4c0.4,0,0.8-0.3,1-0.7c0-0.1,0.1-0.3,0.1-0.4L352.6,5.5z"/>
		<path class="st28" d="M321.6,13.2c0,1,0.6,1.3,1.3,1.3c0.5,0,0.8-0.1,1.1-0.2l0.1,0.5c-0.2,0.1-0.7,0.3-1.3,0.3
			c-1.2,0-1.9-0.8-1.9-1.9c0-1.2,0.7-2.1,1.8-2.1c1.3,0,1.6,1.1,1.6,1.8c0,0.1,0,0.2,0,0.3L321.6,13.2z M323.7,12.6
			c0-0.4-0.2-1.1-1-1.1c-0.7,0-1,0.7-1.1,1.1L323.7,12.6z"/>
		<path class="st28" d="M325.3,12.1c0-0.4,0-0.7,0-1l0.6,0l0,0.6h0c0.2-0.4,0.6-0.7,1.3-0.7c0.5,0,1.4,0.3,1.4,1.6l0,2.3l-0.7,0
			l0-2.2c0-0.6-0.2-1.1-0.9-1.1c-0.5,0-0.8,0.3-0.9,0.7c0,0.1,0,0.2,0,0.3l0,2.3l-0.7,0L325.3,12.1z"/>
		<path class="st28" d="M330.1,13.1c0,1,0.6,1.3,1.3,1.3c0.5,0,0.8-0.1,1.1-0.2l0.1,0.5c-0.2,0.1-0.7,0.3-1.3,0.3
			c-1.2,0-1.9-0.8-1.9-1.9c0-1.2,0.7-2.1,1.8-2.1c1.3,0,1.6,1.1,1.6,1.8c0,0.1,0,0.2,0,0.3L330.1,13.1z M332.1,12.6
			c0-0.4-0.2-1.1-1-1.1c-0.7,0-1,0.7-1.1,1.1L332.1,12.6z"/>
		<path class="st28" d="M333.7,12.2c0-0.5,0-0.8,0-1.2l0.6,0l0,0.8h0c0.2-0.5,0.6-0.9,1.1-0.9c0.1,0,0.1,0,0.2,0l0,0.7
			c-0.1,0-0.1,0-0.2,0c-0.5,0-0.8,0.4-0.9,0.9c0,0.1,0,0.2,0,0.3l0,2.1l-0.7,0L333.7,12.2z"/>
		<path class="st28" d="M339.6,14.3c0,0.9-0.2,1.4-0.5,1.8c-0.4,0.3-0.9,0.5-1.4,0.5c-0.5,0-1-0.1-1.3-0.3l0.2-0.5
			c0.3,0.2,0.7,0.3,1.1,0.3c0.7,0,1.2-0.4,1.2-1.4l0-0.4h0c-0.2,0.4-0.6,0.7-1.2,0.7c-1,0-1.7-0.8-1.7-1.9c0-1.3,0.8-2,1.7-2.1
			c0.7,0,1,0.3,1.2,0.7h0l0-0.6l0.6,0c0,0.3,0,0.6,0,1.1L339.6,14.3z M338.9,12.5c0-0.1,0-0.2,0-0.3c-0.1-0.4-0.5-0.7-1-0.7
			c-0.7,0-1.1,0.6-1.1,1.5c0,0.8,0.4,1.4,1.2,1.4c0.4,0,0.8-0.3,1-0.7c0-0.1,0.1-0.3,0.1-0.4L338.9,12.5z"/>
		<path class="st28" d="M341,11l0.9,2.3c0.1,0.3,0.2,0.6,0.3,0.8h0c0.1-0.2,0.1-0.5,0.2-0.8l0.8-2.3l0.7,0l-1,2.8
			c-0.5,1.3-0.8,2-1.3,2.4c-0.4,0.3-0.7,0.4-0.9,0.5l-0.2-0.6c0.2-0.1,0.4-0.2,0.6-0.3c0.2-0.2,0.4-0.4,0.6-0.8
			c0-0.1,0.1-0.1,0.1-0.2s0-0.1-0.1-0.2l-1.4-3.6L341,11z"/>
	</g>
</g>
<path class="st29" d="M177.5,62.6h-9c-5.8,0-10.5-4.7-10.5-10.5V30.7c0-5.8,4.7-10.5,10.5-10.5h33c5.8,0,10.5,4.7,10.5,10.5v21.4
	c0,3-1.2,5.7-3.2,7.6c-0.8,0.8-2.4,9.5-2.4,9.5s-3.3-6.5-4.9-6.5h-18.1H177.5z"/>
<path class="st30" d="M242.3,59.6h-8.6c-5.6,0-10.1-4.6-10.1-10.1V28.9c0-5.6,4.6-10.1,10.1-10.1h31.8c5.6,0,10.1,4.6,10.1,10.1
	v20.6c0,1.7,5,7.9,5,7.9s-7.7-1-8.7-0.2c-1.8,1.5-4,2.4-6.5,2.4H248H242.3z"/>
<path class="st31" d="M336.9,60.4l10.2-0.1c2.8,0,11.3,1.2,11.3,1.2s-1.2-8.5-1.2-11.3l-0.1-20.6c0-5.6-4.6-10.1-10.2-10.1
	l-17.4,0.1l-5.7,0l-8.6,0c-5.6,0-10.1,4.6-10.1,10.2l0.1,20.6c0,5.6,4.6,10.1,10.2,10.1l9.6,0L336.9,60.4z"/>
<g>
</g>
<g>
</g>
<g>
</g>
<g>
</g>
<g>
</g>
<g>
</g>
</svg>
