<svg id="Layer_1" data-name="Layer 1" xmlns="http://www.w3.org/2000/svg" viewBox="0 0 364.95 266.87"><defs><style>.cls-1,.cls-11,.cls-15,.cls-17,.cls-2,.cls-23,.cls-25,.cls-26,.cls-27,.cls-28,.cls-29,.cls-3,.cls-33,.cls-36,.cls-37,.cls-39,.cls-40,.cls-41,.cls-42,.cls-43,.cls-44,.cls-45,.cls-46,.cls-48,.cls-5,.cls-50,.cls-6,.cls-7,.cls-8,.cls-9{fill:none;}.cls-1,.cls-11{stroke:#d56c55;}.cls-1,.cls-10,.cls-11,.cls-12,.cls-13,.cls-14,.cls-15,.cls-17,.cls-2,.cls-23,.cls-25,.cls-26,.cls-27,.cls-28,.cls-29,.cls-3,.cls-30,.cls-33,.cls-34,.cls-35,.cls-36,.cls-37,.cls-39,.cls-4,.cls-40,.cls-41,.cls-42,.cls-43,.cls-44,.cls-45,.cls-46,.cls-48,.cls-5,.cls-50,.cls-6,.cls-7,.cls-8,.cls-9{stroke-miterlimit:10;}.cls-1,.cls-2,.cls-25,.cls-26,.cls-27,.cls-3{stroke-width:0.77px;}.cls-2{stroke:#7aa974;}.cls-15,.cls-3{stroke:#ab85ac;}.cls-4,.cls-47{fill:#c9d7ee;}.cls-14,.cls-4{stroke:#738fc1;}.cls-4{stroke-width:1.95px;}.cls-10,.cls-12,.cls-13,.cls-30,.cls-34,.cls-35,.cls-42,.cls-46,.cls-48,.cls-5,.cls-50,.cls-8,.cls-9{stroke:#231f20;}.cls-5{stroke-width:16.06px;}.cls-43,.cls-6{stroke:#f1d4c9;}.cls-6,.cls-7{stroke-width:14.07px;}.cls-44,.cls-7{stroke:#e8b19d;}.cls-8{stroke-width:0.7px;}.cls-9{stroke-width:0.7px;}.cls-10,.cls-14,.cls-30,.cls-34,.cls-35,.cls-49{fill:#cdd6d1;}.cls-10,.cls-11,.cls-15{stroke-width:0.95px;}.cls-12,.cls-13,.cls-22{fill:#738fc1;}.cls-12,.cls-23{stroke-width:0.95px;}.cls-13{stroke-width:0.31px;}.cls-14,.cls-23,.cls-37,.cls-41{stroke-linecap:round;}.cls-14{stroke-width:1.61px;}.cls-16{fill:#eac264;}.cls-17{stroke:#000;stroke-width:0.42px;}.cls-18{fill:#d56c55;}.cls-19{fill:#7aa974;}.cls-20{fill:#ab85ac;}.cls-21{fill:#905426;}.cls-23,.cls-28,.cls-33,.cls-36,.cls-37,.cls-39{stroke:#7e9d90;}.cls-24{fill:#7e9d90;}.cls-25{stroke:#bfd598;}.cls-26{stroke:#905426;}.cls-27{stroke:#eac264;}.cls-28{stroke-width:2.06px;}.cls-29,.cls-40{stroke:#fff;}.cls-29{stroke-width:0.49px;}.cls-30{stroke-width:0.15px;}.cls-31{fill:#e3dcd1;}.cls-32{fill:#231f20;}.cls-33{stroke-width:0.78px;}.cls-34,.cls-50{stroke-linecap:square;}.cls-34{stroke-width:0.39px;}.cls-35{stroke-width:0.4px;}.cls-36{stroke-width:0.65px;}.cls-37{stroke-width:0.95px;}.cls-38{fill:#dceccb;}.cls-39,.cls-41{stroke-width:1.19px;}.cls-40{stroke-width:0.28px;}.cls-41{stroke:#58595b;}.cls-42{stroke-width:3.04px;}.cls-43,.cls-44,.cls-45{stroke-width:2.77px;}.cls-45{stroke:#c9d7ee;}.cls-46{stroke-width:0.14px;}.cls-48{stroke-width:0.08px;}.cls-50{stroke-width:0.13px;}</style></defs><title>fc_labeled</title><path class="cls-1" d="M163.51,174.4V206A15.58,15.58,0,0,1,148,221.51H99.22A15.58,15.58,0,0,1,83.69,206V174.4a15.58,15.58,0,0,1,15.53-15.54h36.33L141,146.42l5.54,12.44H148A15.58,15.58,0,0,1,163.51,174.4Z"/><path class="cls-2" d="M253.59,175.59v31.58a15.57,15.57,0,0,1-15.54,15.53H189.3a15.57,15.57,0,0,1-15.53-15.53V175.59a15.58,15.58,0,0,1,15.53-15.53h6.11l4.46-13.64,5.53,13.64h32.65A15.58,15.58,0,0,1,253.59,175.59Z"/><path class="cls-3" d="M336.1,175.59v31.58a15.57,15.57,0,0,1-15.53,15.53H271.82a15.57,15.57,0,0,1-15.54-15.53V175.59a15.43,15.43,0,0,1,1.52-6.67c-2.74-7.16-8-23.11-8-23.11s12.35,10.15,17.52,14.9a15.67,15.67,0,0,1,4.46-.65h48.75A15.58,15.58,0,0,1,336.1,175.59Z"/><path class="cls-4" d="M284.15,82.67V51.09a15.58,15.58,0,0,1,15.53-15.54h48.76A15.58,15.58,0,0,1,364,51.09V82.67A15.58,15.58,0,0,1,348.44,98.2H321.66l-3.86,15.13L313,98.2H299.68A15.58,15.58,0,0,1,284.15,82.67Z"/><line class="cls-5" x1="337.48" y1="86.56" x2="347.61" y2="86.56"/><line class="cls-6" x1="337.48" y1="86.56" x2="347.61" y2="86.56"/><line class="cls-5" x1="311.9" y1="86.56" x2="337.48" y2="86.56"/><line class="cls-7" x1="311.9" y1="86.56" x2="337.48" y2="86.56"/><line class="cls-5" x1="302.72" y1="86.56" x2="311.9" y2="86.56"/><line class="cls-6" x1="302.72" y1="86.56" x2="311.9" y2="86.56"/><line class="cls-8" x1="311.9" y1="78.88" x2="311.9" y2="94.14"/><line class="cls-9" x1="337.22" y1="94.14" x2="337.22" y2="78.88"/><path class="cls-10" d="M137.54,182.6c-3.3,2.94-6.78,3.6-7.79,1.46-.9-1.91.5-5.39,3.15-8.22H117.7c2.66,2.83,4,6.31,3.15,8.22s-3.92,1.55-6.95-.8v21c0,2.35,1.37,4.25,3.08,4.25h17.48c1.7,0,3.08-1.9,3.08-4.25V182.59Z"/><path class="cls-11" d="M113.9,185.78v-2.52c3,2.35,6,2.76,6.95.8s-.49-5.39-3.15-8.22h15.2c-2.65,2.83-4.05,6.31-3.15,8.22,1,2.14,4.49,1.48,7.79-1.46h0v3.19"/><path class="cls-12" d="M105,176.56a5.24,5.24,0,1,1-5.24-5.23A5.25,5.25,0,0,1,105,176.56Z"/><path class="cls-13" d="M127.61,61a1.69,1.69,0,1,1-1.68-1.68A1.69,1.69,0,0,1,127.61,61Z"/><path class="cls-13" d="M127.61,75.8a1.69,1.69,0,0,1-3.37,0,1.69,1.69,0,1,1,3.37,0Z"/><path class="cls-13" d="M142.58,67.34a1.69,1.69,0,1,1-1.69-1.69A1.68,1.68,0,0,1,142.58,67.34Z"/><path class="cls-13" d="M152.68,74.32a1.69,1.69,0,0,1-3.37,0,1.69,1.69,0,1,1,3.37,0Z"/><path class="cls-13" d="M161.92,63.51a1.69,1.69,0,1,1-1.68-1.68A1.69,1.69,0,0,1,161.92,63.51Z"/><path class="cls-13" d="M163.53,71.55a1.69,1.69,0,1,1-1.68-1.69A1.68,1.68,0,0,1,163.53,71.55Z"/><path class="cls-13" d="M173.17,74.76a1.69,1.69,0,1,1-1.69-1.69A1.69,1.69,0,0,1,173.17,74.76Z"/><path class="cls-13" d="M163.53,79.58a1.69,1.69,0,1,1-1.68-1.69A1.68,1.68,0,0,1,163.53,79.58Z"/><path class="cls-13" d="M142.65,79.58A1.69,1.69,0,1,1,141,77.89,1.69,1.69,0,0,1,142.65,79.58Z"/><path class="cls-13" d="M150.68,81.18A1.69,1.69,0,1,1,149,79.5,1.69,1.69,0,0,1,150.68,81.18Z"/><path class="cls-13" d="M134.62,68.33a1.69,1.69,0,1,1-3.37,0,1.69,1.69,0,0,1,3.37,0Z"/><path class="cls-13" d="M118.55,68.33a1.69,1.69,0,1,1-1.68-1.68A1.69,1.69,0,0,1,118.55,68.33Z"/><path class="cls-13" d="M147.47,58.69A1.69,1.69,0,1,1,145.78,57,1.69,1.69,0,0,1,147.47,58.69Z"/><path class="cls-13" d="M147.47,44.24a1.69,1.69,0,1,1-1.69-1.69A1.69,1.69,0,0,1,147.47,44.24Z"/><path class="cls-13" d="M113.73,47.45a1.69,1.69,0,1,1-1.68-1.68A1.69,1.69,0,0,1,113.73,47.45Z"/><path class="cls-13" d="M115.34,90.82a1.69,1.69,0,1,1-1.68-1.68A1.69,1.69,0,0,1,115.34,90.82Z"/><path class="cls-13" d="M152.29,92.43a1.69,1.69,0,1,1-1.69-1.69A1.69,1.69,0,0,1,152.29,92.43Z"/><path class="cls-13" d="M179.59,90.82a1.69,1.69,0,1,1-1.68-1.68A1.69,1.69,0,0,1,179.59,90.82Z"/><path class="cls-13" d="M171.56,61.91a1.69,1.69,0,0,1-3.37,0,1.69,1.69,0,1,1,3.37,0Z"/><path class="cls-13" d="M160.32,57.09a1.69,1.69,0,1,1-1.69-1.69A1.69,1.69,0,0,1,160.32,57.09Z"/><path class="cls-13" d="M153.89,65.12a1.69,1.69,0,1,1-1.68-1.68A1.69,1.69,0,0,1,153.89,65.12Z"/><path class="cls-13" d="M137.83,57.09a1.69,1.69,0,1,1-1.69-1.69A1.69,1.69,0,0,1,137.83,57.09Z"/><path class="cls-13" d="M134.62,81.18a1.69,1.69,0,1,1-3.37,0,1.69,1.69,0,0,1,3.37,0Z"/><path class="cls-12" d="M277.09,177.39a5.24,5.24,0,1,1-5.23-5.24A5.23,5.23,0,0,1,277.09,177.39Z"/><path class="cls-10" d="M336.51,66.24V44.62h0c-3.29,3-6.77,3.61-7.78,1.47-.9-1.91.5-5.4,3.15-8.22h-15.2c2.65,2.82,4.05,6.31,3.15,8.22s-3.92,1.55-6.95-.8V66.24"/><path class="cls-14" d="M312.87,66.24c0,2.35,1.37,4.26,3.08,4.26h17.47c1.71,0,3.09-1.91,3.09-4.26"/><path class="cls-10" d="M299.13,174h3a7.63,7.63,0,0,0,7.25,13.15v17.3l-.11.23c-2,4.22-7.28,8.22-12.33,8.22a13.71,13.71,0,0,1-12.36-8.25,1.19,1.19,0,0,1-.08-.2v-17.1a7.54,7.54,0,0,0,1.66.19A7.67,7.67,0,0,0,291.13,174h3.29"/><line class="cls-10" x1="294.42" y1="173.99" x2="299.13" y2="173.99"/><path class="cls-15" d="M309.4,189.18V187.1a7.6,7.6,0,0,1-2.3.39,7.66,7.66,0,0,1-5-13.54h-3l-4.71,0h-3.29a7.67,7.67,0,0,1-4.95,13.54,7.54,7.54,0,0,1-1.66-.19v1.87"/><path d="M2.22,122.07v4.83h-1v-4.83H.41v-.76H1.2v-.67c0-1.33.61-2,1.83-2a4.71,4.71,0,0,1,1.15.17v.8a3.92,3.92,0,0,0-1.09-.21.8.8,0,0,0-.68.24,1.48,1.48,0,0,0-.19.89v.78h1.4v.76Z"/><path d="M6.76,127a2.42,2.42,0,0,1-1.91-.79,3.05,3.05,0,0,1-.72-2.13A3,3,0,0,1,4.85,122a2.53,2.53,0,0,1,2-.79,2.51,2.51,0,0,1,1.94.79,3,3,0,0,1,.72,2.12,3.05,3.05,0,0,1-.72,2.15A2.56,2.56,0,0,1,6.76,127Zm0-.76c1.08,0,1.62-.72,1.62-2.17S7.86,122,6.8,122s-1.59.71-1.59,2.15S5.73,126.26,6.77,126.26Z"/><path d="M11.05,126.9v-8.13h1v8.13Z"/><path d="M17.68,126.9v-1.05A2,2,0,0,1,15.82,127a1.89,1.89,0,0,1-1.59-.73,3.14,3.14,0,0,1-.58-2,3.58,3.58,0,0,1,.66-2.25,2.16,2.16,0,0,1,3.37-.08v-3.18h1v8.13Zm0-4.26a2.34,2.34,0,0,0-1.49-.69c-1,0-1.46.74-1.46,2.22,0,1.31.43,2,1.3,2a2.24,2.24,0,0,0,1.65-.92Z"/><path d="M20.47,124.23v-.76H25v.76Z"/><path d="M29,127a2.41,2.41,0,0,1-1.88-.83,3.07,3.07,0,0,1-.75-2.12,2.91,2.91,0,0,1,.74-2.12,2.73,2.73,0,0,1,2.06-.77,6.75,6.75,0,0,1,1.46.18v.85a5.53,5.53,0,0,0-1.4-.25,1.54,1.54,0,0,0-1.25.59,2.39,2.39,0,0,0-.47,1.55,2.24,2.24,0,0,0,.49,1.52,1.56,1.56,0,0,0,1.26.59,3.22,3.22,0,0,0,1.43-.36v.88A5.86,5.86,0,0,1,29,127Z"/><path d="M32.22,126.9v-8.13h1v3.59a2.37,2.37,0,0,1,2-1.18,1.55,1.55,0,0,1,1.16.46,1.73,1.73,0,0,1,.43,1.24v4h-1v-3.69a1.57,1.57,0,0,0-.19-.89.69.69,0,0,0-.6-.26,2.26,2.26,0,0,0-1.76,1.22v3.62Z"/><path d="M41.64,126.19a2.67,2.67,0,0,1-1.75.83,1.59,1.59,0,0,1-1.15-.43,1.44,1.44,0,0,1-.46-1.1,1.57,1.57,0,0,1,.77-1.41,4.15,4.15,0,0,1,2.2-.49h.24v-.67a.86.86,0,0,0-1-1,3.72,3.72,0,0,0-1.74.49v-.84a5.06,5.06,0,0,1,1.92-.42,1.89,1.89,0,0,1,1.38.43,1.7,1.7,0,0,1,.45,1.31v2.53c0,.58.18.87.53.87l.2,0,.07.56a1.73,1.73,0,0,1-.76.16C42.08,127,41.77,126.74,41.64,126.19Zm-.15-.55v-1.45h-.34a2.44,2.44,0,0,0-1.34.32.93.93,0,0,0-.52.83.82.82,0,0,0,.26.61.86.86,0,0,0,.63.26A2.11,2.11,0,0,0,41.49,125.64Z"/><path d="M44.58,126.9v-5.59h1v1a2.34,2.34,0,0,1,2-1.18,1.55,1.55,0,0,1,1.16.46,1.73,1.73,0,0,1,.43,1.24v4h-1v-3.69a1.57,1.57,0,0,0-.19-.89.69.69,0,0,0-.6-.26,2.23,2.23,0,0,0-1.75,1.22v3.62Z"/><path d="M51.14,128.75l.12-.88a4,4,0,0,0,1.73.42c1.15,0,1.72-.61,1.72-1.82v-.88a1.91,1.91,0,0,1-1.84,1.18,2,2,0,0,1-1.6-.73,3.57,3.57,0,0,1,.08-4.05,2.17,2.17,0,0,1,1.75-.81,2.09,2.09,0,0,1,1.61.77v-.64h1v4.06a10.17,10.17,0,0,1-.14,1.95,2.13,2.13,0,0,1-.51,1,2.7,2.7,0,0,1-2.06.7A5.88,5.88,0,0,1,51.14,128.75ZM54.71,125v-2.32a2,2,0,0,0-1.46-.69,1.25,1.25,0,0,0-1.09.56,2.56,2.56,0,0,0-.4,1.54q0,1.83,1.29,1.83A2.17,2.17,0,0,0,54.71,125Z"/><path d="M61.79,126.72A6.34,6.34,0,0,1,60,127a2.64,2.64,0,0,1-2-.82,2.93,2.93,0,0,1-.78-2.12,3.12,3.12,0,0,1,.69-2.09,2.19,2.19,0,0,1,1.75-.81,1.86,1.86,0,0,1,1.57.72,3.29,3.29,0,0,1,.55,2v.31H58.28c.15,1.33.8,2,1.95,2a4.59,4.59,0,0,0,1.56-.34Zm-3.46-3.22H60.8q0-1.56-1.17-1.56C58.85,121.94,58.42,122.46,58.33,123.5Z"/><path d="M73.6,123.28v-.76h6.09v.76Zm0,1.9v-.76h6.09v.76Z"/><path d="M94.39,126.9v-.77h1.52v-6l-1.52.38v-.78l2.54-.63v7h1.52v.77Z"/><path d="M105.61,126.9v-2.67h-2.67v-.76h2.67V120.8h.76v2.67H109v.76h-2.66v2.67Z"/><path d="M168.6,122.28a4.51,4.51,0,0,1-.34-.37s-.39-.44-.67-.85a13.74,13.74,0,0,1-2.11-7.77,15.79,15.79,0,0,1,.7-4.84A10.09,10.09,0,0,1,169,103.9a.3.3,0,0,1,.26-.08c.12,0,.2,0,.2.1a.13.13,0,0,1,0,.09c-1.85,1.86-3.18,4.61-3.18,9.29a15,15,0,0,0,1.56,7.16,9.08,9.08,0,0,0,1.61,2.12.15.15,0,0,1,0,.09.11.11,0,0,1-.12.11h-.23l-.13-.12Z"/><path d="M171.47,115.94v-.77H173v-6l-1.52.38v-.78l2.54-.63v7h1.52v.77Z"/><path d="M182.68,115.94v-2.67H180v-.76h2.66v-2.67h.76v2.67h2.67v.76h-2.67v2.67Z"/><path class="cls-16" d="M196.18,111.88a1.68,1.68,0,0,1-1.31-.59,2.14,2.14,0,0,1-.52-1.48,2.07,2.07,0,0,1,.51-1.49,2,2,0,0,1,1.45-.53,5,5,0,0,1,1,.12v.6a3.6,3.6,0,0,0-1-.18,1.06,1.06,0,0,0-.87.41,1.69,1.69,0,0,0-.33,1.09,1.67,1.67,0,0,0,.33,1.07,1.1,1.1,0,0,0,.89.4,2.24,2.24,0,0,0,1-.25v.62A4.15,4.15,0,0,1,196.18,111.88Z"/><line class="cls-17" x1="189.29" y1="113.3" x2="202.36" y2="113.3"/><path class="cls-18" d="M190,119.57v-5.33h.71v2.62l2.16-2.62h.76l-2.09,2.54,2.46,2.79h-1l-2.33-2.7v2.7Z"/><path class="cls-18" d="M199.37,120.63l-.42-1h-1.61l-.42,1h-.5l1.51-3.81h.54l1.48,3.81Zm-.57-1.46-.65-1.64-.65,1.64Z"/><path d="M207.32,118.14a10.09,10.09,0,0,1-2.86,4.55.27.27,0,0,1-.25.09c-.11,0-.2,0-.2-.11a.12.12,0,0,1,0-.08c1.9-1.93,3.16-4.72,3.16-9.3a14.89,14.89,0,0,0-1.56-7.16,9,9,0,0,0-1.58-2.1.2.2,0,0,1-.06-.11c0-.1.09-.1.2-.1s.15,0,.23.06c.25.22.64.63.79.8a12.93,12.93,0,0,1,2.78,8.61A16.34,16.34,0,0,1,207.32,118.14Z"/><path d="M210.63,106.42v-3.91h.71v.73a1.66,1.66,0,0,1,1.38-.82,1,1,0,0,1,.81.33,1.2,1.2,0,0,1,.3.86v2.81h-.71v-2.58a1.1,1.1,0,0,0-.13-.62.47.47,0,0,0-.42-.18,1.58,1.58,0,0,0-1.23.85v2.53Z"/><line class="cls-17" x1="112.22" y1="124.26" x2="267.02" y2="124.26"/><path d="M117.24,144.77a2.52,2.52,0,0,1-.34-.37s-.39-.44-.68-.85a13.71,13.71,0,0,1-2.1-7.77,16.16,16.16,0,0,1,.69-4.84,10.15,10.15,0,0,1,2.86-4.55c.09-.08.11-.08.25-.08s.2,0,.2.1a.12.12,0,0,1,0,.09c-1.84,1.86-3.17,4.61-3.17,9.29a14.86,14.86,0,0,0,1.56,7.16,8.84,8.84,0,0,0,1.6,2.12.15.15,0,0,1,0,.09.1.1,0,0,1-.11.11h-.24s-.1-.11-.12-.12Z"/><path d="M120.1,138.43v-.76h1.52v-6l-1.52.38v-.79l2.54-.63v7h1.53v.76Z"/><path d="M131.32,138.43v-2.67h-2.67V135h2.67v-2.66h.76V135h2.66v.76h-2.66v2.67Z"/><path class="cls-16" d="M144.82,134.37a1.7,1.7,0,0,1-1.32-.59,2.14,2.14,0,0,1-.52-1.48,2,2,0,0,1,.52-1.49,1.88,1.88,0,0,1,1.44-.53,4.85,4.85,0,0,1,1,.12v.6a3.54,3.54,0,0,0-1-.18,1.07,1.07,0,0,0-.87.41,1.69,1.69,0,0,0-.33,1.09,1.62,1.62,0,0,0,.34,1.07,1.08,1.08,0,0,0,.88.4,2.28,2.28,0,0,0,1-.25v.62A4.21,4.21,0,0,1,144.82,134.37Z"/><line class="cls-17" x1="137.93" y1="135.79" x2="151" y2="135.79"/><path class="cls-18" d="M138.62,142.06v-5.33h.71v2.62l2.15-2.62h.76l-2.09,2.54,2.46,2.79h-1l-2.33-2.7v2.7Z"/><path class="cls-18" d="M148,143.12l-.41-1.05H146l-.42,1.05h-.5l1.51-3.81h.54l1.49,3.81Zm-.57-1.45-.65-1.65-.65,1.65Z"/><path d="M156,140.63a10,10,0,0,1-2.86,4.55c-.09.09-.11.09-.25.09s-.2,0-.2-.11a.12.12,0,0,1,0-.08c1.9-1.93,3.16-4.72,3.16-9.3a14.82,14.82,0,0,0-1.56-7.15,9.14,9.14,0,0,0-1.58-2.11.2.2,0,0,1-.06-.11c0-.1.09-.1.2-.1s.16,0,.23.06c.25.22.64.63.79.8a12.93,12.93,0,0,1,2.78,8.61A16.34,16.34,0,0,1,156,140.63Z"/><path d="M159.27,128.91V125H160v.74a1.63,1.63,0,0,1,1.37-.83,1,1,0,0,1,.81.33,1.2,1.2,0,0,1,.3.86v2.81h-.71v-2.58a1.21,1.21,0,0,0-.12-.62.5.5,0,0,0-.43-.18,1.55,1.55,0,0,0-1.22.85v2.53Z"/><path d="M170.44,138.43v-2.67h-2.66V135h2.66v-2.66h.76V135h2.67v.76H171.2v2.67Z"/><path d="M182.28,138.25a6.4,6.4,0,0,1-1.74.31,2.68,2.68,0,0,1-2-.82,3,3,0,0,1-.78-2.13,3.13,3.13,0,0,1,.69-2.09,2.2,2.2,0,0,1,1.76-.81,1.84,1.84,0,0,1,1.56.72,3.29,3.29,0,0,1,.56,2v.31h-3.52c.15,1.33.8,2,1.95,2a4.79,4.79,0,0,0,1.55-.34ZM178.82,135h2.47c0-1-.39-1.56-1.16-1.56S178.91,134,178.82,135Z"/><path d="M182.88,133.52V133h4.27v.54Z"/><path d="M189.38,136.81v-5.22a2.27,2.27,0,0,1,.42-1.46,1.41,1.41,0,0,1,1.17-.52,1.45,1.45,0,0,1,1,.32,1.06,1.06,0,0,1,.39.85,1.4,1.4,0,0,1-.25.79,2.35,2.35,0,0,1-.73.65,2.11,2.11,0,0,1,1,.63,1.57,1.57,0,0,1-.13,2.16,1.77,1.77,0,0,1-1.27.46,2.74,2.74,0,0,1-.9-.15v1.49Zm1-4.72h.13a1.06,1.06,0,0,0,.81-.37,1.23,1.23,0,0,0,.35-.88.72.72,0,0,0-.18-.53.77.77,0,0,0-.53-.17.7.7,0,0,0-.64.33,2.05,2.05,0,0,0-.2,1v3.24a2.3,2.3,0,0,0,.91.23,1,1,0,0,0,.74-.32,1.05,1.05,0,0,0,.3-.75,1.08,1.08,0,0,0-.42-.9,1.73,1.73,0,0,0-1.13-.34h-.14Z"/><path class="cls-19" d="M194,135.38v-.66l2-4.67h.75l2,4.67v.66Zm.65-.66H198l-1.67-3.84Z"/><path class="cls-19" d="M203.85,134.69v.57a3.19,3.19,0,0,1-1.1.21,1.8,1.8,0,0,1-1.12-.33,1,1,0,0,1-.44-.85,1.16,1.16,0,0,1,.89-1.08c-.5-.18-.76-.47-.76-.88,0-.63.47-1,1.41-1a3.71,3.71,0,0,1,1,.13V132a3.46,3.46,0,0,0-.89-.12c-.55,0-.82.15-.82.47s.44.63,1.3.63h.15v.55H203a1.26,1.26,0,0,0-.73.2.6.6,0,0,0-.27.51.56.56,0,0,0,.25.48,1.12,1.12,0,0,0,.66.18A2.37,2.37,0,0,0,203.85,134.69Z"/><path class="cls-19" d="M207.72,136.44l-.41-1.05h-1.62l-.41,1.05h-.51l1.51-3.81h.54l1.49,3.81Zm-.57-1.45-.65-1.64-.65,1.64Z"/><path class="cls-19" d="M208.85,136.44v-3.81h.55v3.81Z"/><path d="M221.72,144.77a4.51,4.51,0,0,1-.34-.37s-.39-.44-.67-.85a13.72,13.72,0,0,1-2.11-7.77,15.84,15.84,0,0,1,.7-4.84,10.15,10.15,0,0,1,2.85-4.55.3.3,0,0,1,.26-.08c.12,0,.2,0,.2.1a.12.12,0,0,1,0,.09c-1.85,1.86-3.18,4.61-3.18,9.29A14.86,14.86,0,0,0,221,143a9.08,9.08,0,0,0,1.61,2.12.15.15,0,0,1,0,.09.11.11,0,0,1-.12.11h-.23l-.13-.12Z"/><path d="M224.59,138.43v-.76h1.52v-6l-1.52.38v-.79l2.54-.63v7h1.52v.76Z"/><path d="M235.8,138.43v-2.67h-2.66V135h2.66v-2.66h.76V135h2.67v.76h-2.67v2.67Z"/><path class="cls-16" d="M248.43,134.37a1.7,1.7,0,0,1-1.32-.59,2.14,2.14,0,0,1-.52-1.48,2,2,0,0,1,.52-1.49,1.88,1.88,0,0,1,1.44-.53,4.85,4.85,0,0,1,1,.12v.6a3.54,3.54,0,0,0-1-.18,1.07,1.07,0,0,0-.87.41,1.69,1.69,0,0,0-.33,1.09,1.62,1.62,0,0,0,.34,1.07,1.09,1.09,0,0,0,.89.4,2.27,2.27,0,0,0,1-.25v.62A4.21,4.21,0,0,1,248.43,134.37Z"/><line class="cls-17" x1="242.41" y1="135.79" x2="253.73" y2="135.79"/><path class="cls-20" d="M243.1,142.06v-5.33h.71v2.62l2.16-2.62h.76l-2.09,2.54,2.46,2.79h-1l-2.33-2.7v2.7Z"/><path class="cls-20" d="M250,143.12v-3.81h.54v3.81Z"/><path d="M258.68,140.63a10,10,0,0,1-2.85,4.55.28.28,0,0,1-.26.09c-.1,0-.2,0-.2-.11a.1.1,0,0,1,0-.08c1.89-1.93,3.16-4.72,3.16-9.3a14.82,14.82,0,0,0-1.56-7.15,9.44,9.44,0,0,0-1.58-2.11s-.07-.07-.07-.11.1-.1.2-.1.16,0,.24.06c.25.22.64.63.79.8a13,13,0,0,1,2.78,8.61A16,16,0,0,1,258.68,140.63Z"/><path d="M262,128.91V125h.71v.74a1.63,1.63,0,0,1,1.38-.83,1.07,1.07,0,0,1,.81.33,1.2,1.2,0,0,1,.3.86v2.81h-.71v-2.58a1.1,1.1,0,0,0-.13-.62.47.47,0,0,0-.42-.18,1.55,1.55,0,0,0-1.23.85v2.53Z"/><path class="cls-21" d="M277.52,119.77v-7.62h2.3a2.59,2.59,0,0,1,1.68.48,1.75,1.75,0,0,1,.59,1.41,2.21,2.21,0,0,1-1.54,2.16l2.54,3.57h-1.33l-2.17-3.22h-1v3.22Zm1.07-4h.35c1.35,0,2-.54,2-1.6,0-.79-.57-1.18-1.7-1.18h-.68Z"/><line class="cls-17" x1="269.55" y1="124.26" x2="291.59" y2="124.26"/><path d="M270.54,134.12v-7.61h1.06l3.83,5.88v-5.88h.93v7.61H275.3l-3.84-5.88v5.88Z"/><path d="M278.71,135.71v-5.33h.74l2.68,4.11v-4.11h.65v5.33H282l-2.68-4.12v4.12Z"/><path d="M286,135.84a5.62,5.62,0,0,1-1.37-.23v-.75a3.69,3.69,0,0,0,1.48.42,1,1,0,0,0,.72-.24.76.76,0,0,0,.27-.61.84.84,0,0,0-.18-.54,2.63,2.63,0,0,0-.65-.49l-.37-.21a3.28,3.28,0,0,1-1-.73,1.22,1.22,0,0,1-.28-.8,1.3,1.3,0,0,1,.45-1,1.64,1.64,0,0,1,1.13-.4,4.35,4.35,0,0,1,1.3.21v.69a3.89,3.89,0,0,0-1.25-.33,1,1,0,0,0-.65.21.65.65,0,0,0-.26.52.73.73,0,0,0,.19.48,3.34,3.34,0,0,0,.68.49l.39.21a3.28,3.28,0,0,1,1,.74,1.44,1.44,0,0,1-.24,2A2.07,2.07,0,0,1,286,135.84Z"/><path d="M298,126.72a6.34,6.34,0,0,1-1.74.3,2.65,2.65,0,0,1-2-.82,2.93,2.93,0,0,1-.78-2.12,3.12,3.12,0,0,1,.69-2.09,2.2,2.2,0,0,1,1.76-.81,1.86,1.86,0,0,1,1.56.72,3.29,3.29,0,0,1,.56,2v.31h-3.52c.14,1.33.79,2,1.95,2a4.54,4.54,0,0,0,1.55-.34Zm-3.46-3.22H297q0-1.56-1.17-1.56C295,121.94,294.6,122.46,294.51,123.5Z"/><path d="M298.56,120.68v-.53h4.27v.53Z"/><path d="M305.06,124v-5.22a2.27,2.27,0,0,1,.42-1.46,1.44,1.44,0,0,1,1.18-.52,1.52,1.52,0,0,1,1,.32,1.06,1.06,0,0,1,.38.86,1.38,1.38,0,0,1-.24.78,2.47,2.47,0,0,1-.73.65,2.17,2.17,0,0,1,1,.64,1.47,1.47,0,0,1,.36,1,1.54,1.54,0,0,1-.49,1.18,1.83,1.83,0,0,1-1.27.46,2.86,2.86,0,0,1-.91-.16V124Zm1-4.71h.13a1.07,1.07,0,0,0,.81-.38,1.26,1.26,0,0,0,.35-.88.68.68,0,0,0-.18-.52.73.73,0,0,0-.54-.18.69.69,0,0,0-.63.34,1.89,1.89,0,0,0-.21,1v3.23a2.38,2.38,0,0,0,.91.23,1,1,0,0,0,.74-.31,1,1,0,0,0,.31-.76,1.08,1.08,0,0,0-.42-.9,1.73,1.73,0,0,0-1.13-.34H306Z"/><path class="cls-22" d="M309.69,122.55v-.67l2-4.67h.75l2,4.67v.67Zm.65-.67h3.34L312,118.05Z"/><path class="cls-22" d="M319.54,121.85v.57a3.26,3.26,0,0,1-1.1.22,1.85,1.85,0,0,1-1.13-.34,1,1,0,0,1-.43-.85c0-.49.29-.85.89-1.08-.51-.17-.76-.46-.76-.88,0-.63.47-.94,1.41-.94a3.78,3.78,0,0,1,1,.12v.54a3.09,3.09,0,0,0-.89-.13c-.55,0-.82.16-.82.47s.43.63,1.3.63h.14v.55h-.5a1.26,1.26,0,0,0-.73.2.63.63,0,0,0-.28.52.56.56,0,0,0,.26.47,1.07,1.07,0,0,0,.65.18A2.41,2.41,0,0,0,319.54,121.85Z"/><path class="cls-22" d="M320.91,123.6v-3.8h1.15a1.28,1.28,0,0,1,.84.24.83.83,0,0,1,.29.7,1.09,1.09,0,0,1-.77,1.08l1.27,1.78H323L322,122h-.51v1.61Zm.53-2h.18c.68,0,1-.27,1-.8s-.29-.59-.86-.59h-.34Z"/><path class="cls-22" d="M326.76,123.6l-.42-1h-1.61l-.42,1h-.5l1.51-3.8h.53l1.49,3.8Zm-.57-1.45-.65-1.64-.65,1.64Z"/><path d="M331.14,107.2v-.54h4.27v.54Z"/><path d="M338,109.06v-.53h1.06v-4.21l-1.06.27V104l1.78-.44v4.93h1.06v.53Z"/><path d="M86.85,124.38q0,.77,0,1.53c.22,6.23,1.85,12.39,5.87,17.13a20.47,20.47,0,0,0,1.7,1.71.48.48,0,0,0,.48.21c.21,0,.36,0,.36-.18s-.07-.13-.1-.17a19.5,19.5,0,0,1-2.9-3.62c-2.76-4.42-4-10-4-16.6,0-4.61.61-10.56,3.44-15.67a19.7,19.7,0,0,1,3.5-4.58.26.26,0,0,0,.07-.15c0-.17-.15-.17-.36-.17s-.28,0-.53.25c-5.75,5.23-7.55,13.09-7.55,20.31"/><path d="M332.5,124.39q0-.77,0-1.53c-.22-6.23-1.85-12.39-5.87-17.12a20.37,20.37,0,0,0-1.7-1.72.49.49,0,0,0-.48-.2c-.21,0-.36,0-.36.17s.07.13.1.17a19.86,19.86,0,0,1,2.9,3.62c2.76,4.42,4,10,4,16.6,0,4.61-.61,10.56-3.44,15.67a19.7,19.7,0,0,1-3.5,4.58.26.26,0,0,0-.07.15c0,.18.15.18.36.18s.27,0,.53-.26c5.75-5.23,7.55-13.09,7.55-20.31"/><path class="cls-23" d="M289.38,183.28s-1.47-9.06-8.75-7.7"/><path class="cls-24" d="M278.37,176.27a11.31,11.31,0,0,0,2.7-2.69l-.13,2,1.15,1.6A12.12,12.12,0,0,0,278.37,176.27Z"/><path class="cls-12" d="M316.55,177.57a5.24,5.24,0,1,0,5.24-5.23A5.24,5.24,0,0,0,316.55,177.57Z"/><path class="cls-23" d="M304.27,183.46s1.46-9.06,8.75-7.7"/><path class="cls-24" d="M315.27,176.46a11.71,11.71,0,0,0-3.71.87l1.15-1.6-.14-2A11.73,11.73,0,0,0,315.27,176.46Z"/><path class="cls-23" d="M117.44,182.32s-1.47-9.06-8.75-7.7"/><path class="cls-24" d="M106.44,175.32a12.09,12.09,0,0,0,2.7-2.69l-.14,2,1.15,1.6A11.71,11.71,0,0,0,106.44,175.32Z"/><path class="cls-12" d="M146.29,175.84a5.24,5.24,0,1,0,5.23-5.23A5.24,5.24,0,0,0,146.29,175.84Z"/><path class="cls-23" d="M134,182.06s1.47-9.06,8.75-7.7"/><path class="cls-24" d="M145,175.05a12,12,0,0,0-3.71.88l1.15-1.6-.14-2A11.69,11.69,0,0,0,145,175.05Z"/><path class="cls-25" d="M6.07,83V51.4A15.57,15.57,0,0,1,21.6,35.87H70.35A15.57,15.57,0,0,1,85.88,51.4V83A15.57,15.57,0,0,1,70.35,98.52H43.57l-3.85,15.13L34.87,98.52H21.6A15.57,15.57,0,0,1,6.07,83Z"/><path class="cls-26" d="M277.15,85.28a15.42,15.42,0,0,1-3.9,10.24l.95,10.89-8.4-6.18a14.86,14.86,0,0,1-4.18.58H212.87a15.58,15.58,0,0,1-15.54-15.53V53.7a15.58,15.58,0,0,1,15.54-15.54h48.75A15.58,15.58,0,0,1,277.15,53.7Z"/><path class="cls-27" d="M173.56,100.23a14.81,14.81,0,0,1-4.18.58H120.63A15.58,15.58,0,0,1,105.1,85.28V53.7a15.58,15.58,0,0,1,15.53-15.54h48.75A15.58,15.58,0,0,1,184.92,53.7V85.28A15.38,15.38,0,0,1,181,95.52l10.3,10.9-17.75-6.19"/><rect class="cls-28" x="203.26" y="50.99" width="69" height="36.44" rx="18.22" ry="18.22"/><rect class="cls-29" x="203.26" y="50.99" width="69" height="36.44" rx="18.22" ry="18.22"/><rect class="cls-28" x="110.51" y="50.8" width="69" height="36.44" rx="18.22" ry="18.22"/><rect class="cls-29" x="110.51" y="50.8" width="69" height="36.44" rx="18.22" ry="18.22"/><path class="cls-30" d="M224.51,69.19c.67-.16,1.19,0,1.18.36s-.46.71-1,.91l2.09,1.09a1.4,1.4,0,0,1,.16-1.36c.26-.2.65.07.89.61l1.51-2.87c.17-.33.12-.69-.12-.81l-2.4-1.26c-.23-.12-.56,0-.73.37l-1.55,3Z"/><path class="cls-30" d="M235.19,66.72c.13.67-.06,1.19-.42,1.15s-.68-.49-.85-1.06l-1.2,2a1.4,1.4,0,0,1,1.35.23c.19.28-.11.65-.66.87l2.8,1.65a.59.59,0,0,0,.81-.08l1.38-2.33a.6.6,0,0,0-.33-.75l-2.88-1.7Z"/><path class="cls-30" d="M241.8,61c.14.67-.05,1.18-.41,1.15s-.68-.49-.85-1.07l-1.2,2a1.4,1.4,0,0,1,1.35.23c.19.28-.11.64-.66.86l2.8,1.65a.58.58,0,0,0,.81-.07L245,63.48a.6.6,0,0,0-.33-.75L241.8,61Z"/><path class="cls-30" d="M255.93,60c-.59-.35-.85-.84-.58-1.09s.82-.17,1.36.09l-.7-2.25c-.29.52-.75.89-1.07.85s-.41-.51-.2-1.07l-3.1,1c-.35.11-.57.4-.49.66L252,60.7a.59.59,0,0,0,.77.26l3.2-1Z"/><path class="cls-30" d="M233.79,58.08c-.59-.35-.85-.84-.58-1.09s.82-.17,1.36.09l-.71-2.25c-.29.53-.74.89-1.06.85s-.42-.51-.21-1.07l-3.1,1c-.35.11-.56.41-.48.66l.81,2.58c.07.25.42.37.77.26l3.2-1Z"/><path class="cls-30" d="M238.56,75.11c.58.36.83.85.56,1.09a1.38,1.38,0,0,1-1.36-.11l.66,2.26c.31-.52.76-.88,1.09-.83s.4.52.18,1.07l3.12-.92c.35-.1.57-.39.5-.64l-.77-2.6c-.07-.25-.42-.37-.77-.27l-3.21,1Z"/><path class="cls-30" d="M221.75,59.2c.46.51.56,1,.23,1.2s-.83-.07-1.27-.48v2.35c.44-.41,1-.63,1.27-.49s.24.61-.12,1.08h3.25c.36,0,.66-.21.66-.47V59.67c0-.27-.29-.48-.66-.48Z"/><path class="cls-30" d="M215.79,63.47c.11.68-.11,1.18-.47,1.13s-.65-.52-.8-1.11l-1.29,2c.59-.1,1.16,0,1.33.29s-.13.64-.69.84l2.71,1.78a.6.6,0,0,0,.82,0l1.48-2.26c.15-.22,0-.56-.29-.76l-2.8-1.84Z"/><path class="cls-30" d="M249.79,74.32c.11.67-.09,1.18-.46,1.14s-.66-.52-.81-1.1l-1.27,2a1.39,1.39,0,0,1,1.34.28c.18.28-.13.64-.69.84l2.74,1.75a.58.58,0,0,0,.81,0l1.46-2.28a.58.58,0,0,0-.3-.75l-2.82-1.81Z"/><path class="cls-30" d="M260.3,65.25c-.54.41-1.09.47-1.22.12s.15-.82.6-1.22l-2.35-.21c.37.48.54,1,.38,1.32s-.63.18-1.07-.22l-.27,3.23c0,.37.15.68.41.7l2.7.24c.27,0,.5-.26.54-.62l.28-3.34Z"/><path class="cls-30" d="M220.71,75c-.64.25-1.18.16-1.21-.21s.36-.75.9-1L218.2,73a1.41,1.41,0,0,1,0,1.37c-.24.23-.66,0-1-.5l-1.14,3a.6.6,0,0,0,.21.79l2.54,1c.25.09.55-.11.68-.45L220.71,75Z"/><path class="cls-30" d="M231.77,83.4c-.51-.45-.68-1-.37-1.17s.84,0,1.32.33l-.29-2.34c-.38.46-.89.75-1.2.65s-.32-.58,0-1.09l-3.22.4c-.36,0-.63.3-.59.56l.33,2.69a.6.6,0,0,0,.72.39l3.32-.42Z"/><rect class="cls-31" x="106.57" width="75.06" height="29.77"/><path class="cls-32" d="M124.49,4.3v-1h1v1Zm0,6.53V5.3h1v5.53Z"/><path class="cls-32" d="M127.5,10.83V5.3h1v1a2.29,2.29,0,0,1,1.94-1.16,1.52,1.52,0,0,1,1.15.45A1.75,1.75,0,0,1,132,6.86v4h-1V7.18a1.63,1.63,0,0,0-.18-.88.69.69,0,0,0-.6-.26,2.2,2.2,0,0,0-1.73,1.21v3.58Z"/><path class="cls-32" d="M137.53,10.83v-1A2,2,0,0,1,135.68,11a1.89,1.89,0,0,1-1.57-.72,3.16,3.16,0,0,1-.57-2A3.55,3.55,0,0,1,134.18,6a2.16,2.16,0,0,1,3.35-.09V2.79h1v8Zm0-4.21a2.34,2.34,0,0,0-1.48-.69,1.2,1.2,0,0,0-1.07.58,2.94,2.94,0,0,0-.38,1.62c0,1.3.43,1.94,1.29,1.94a2.24,2.24,0,0,0,1.64-.91Z"/><path class="cls-32" d="M144,10.83v-1A2.32,2.32,0,0,1,142.05,11a1.51,1.51,0,0,1-1.15-.45,1.72,1.72,0,0,1-.43-1.23v-4h1V8.94a1.55,1.55,0,0,0,.19.89.69.69,0,0,0,.6.26A2.2,2.2,0,0,0,144,8.88V5.3h1v5.53Z"/><path class="cls-32" d="M150.84,10.66a6.16,6.16,0,0,1-1.68.29,2.36,2.36,0,0,1-1.86-.83A3,3,0,0,1,146.56,8a2.91,2.91,0,0,1,.73-2.1,2.73,2.73,0,0,1,2-.75,7.27,7.27,0,0,1,1.45.17v.84A5.38,5.38,0,0,0,149.4,6a1.51,1.51,0,0,0-1.24.57,2.39,2.39,0,0,0-.46,1.54,2.28,2.28,0,0,0,.48,1.51,1.53,1.53,0,0,0,1.25.57,3.18,3.18,0,0,0,1.41-.35Z"/><path class="cls-32" d="M156.39,10.65a6.22,6.22,0,0,1-1.72.3,2.63,2.63,0,0,1-2-.81A2.94,2.94,0,0,1,151.9,8,3.1,3.1,0,0,1,152.58,6a2.15,2.15,0,0,1,1.74-.8,1.86,1.86,0,0,1,1.55.71,3.31,3.31,0,0,1,.55,2v.31h-3.48c.14,1.31.78,2,1.92,2a4.49,4.49,0,0,0,1.54-.34ZM153,7.47h2.44c0-1-.38-1.54-1.15-1.54S153.06,6.44,153,7.47Z"/><path class="cls-32" d="M158.15,10.83V5.3h1v1a1.86,1.86,0,0,1,1.73-1.16l.32,0v.94a1.65,1.65,0,0,0-.46-.08,1.85,1.85,0,0,0-1.59,1.13v3.64Z"/><path class="cls-32" d="M114.18,23.17a6.16,6.16,0,0,1-1.68.29,2.39,2.39,0,0,1-1.86-.83,3,3,0,0,1-.74-2.09,2.87,2.87,0,0,1,.73-2.1,2.73,2.73,0,0,1,2-.76,6.58,6.58,0,0,1,1.44.18v.84a5.33,5.33,0,0,0-1.38-.25,1.52,1.52,0,0,0-1.23.58,2.39,2.39,0,0,0-.46,1.54,2.29,2.29,0,0,0,.47,1.51,1.56,1.56,0,0,0,1.25.57,3.33,3.33,0,0,0,1.42-.35Z"/><path class="cls-32" d="M117.88,23.46a2.47,2.47,0,0,1-1.93-.78,3,3,0,0,1-.71-2.11,3,3,0,0,1,.71-2.11,2.77,2.77,0,0,1,3.85,0,3,3,0,0,1,.71,2.11,3,3,0,0,1-.71,2.11A2.46,2.46,0,0,1,117.88,23.46Zm0-.75a1.36,1.36,0,0,0,1.16-.56,2.6,2.6,0,0,0,.41-1.58A2.6,2.6,0,0,0,119,19a1.49,1.49,0,0,0-2.31,0,2.6,2.6,0,0,0-.41,1.58,2.6,2.6,0,0,0,.41,1.58A1.35,1.35,0,0,0,117.87,22.71Z"/><path class="cls-32" d="M122.08,23.33V17.81h1v1a2.33,2.33,0,0,1,2-1.16,1.49,1.49,0,0,1,1.14.46,1.68,1.68,0,0,1,.43,1.22v4h-1V19.69a1.63,1.63,0,0,0-.18-.88.7.7,0,0,0-.6-.26,2.2,2.2,0,0,0-1.74,1.21v3.57Z"/><path class="cls-32" d="M132.38,23.17a6,6,0,0,1-1.67.29,2.39,2.39,0,0,1-1.86-.83,3,3,0,0,1-.74-2.09,2.87,2.87,0,0,1,.73-2.1,2.73,2.73,0,0,1,2-.76,6.58,6.58,0,0,1,1.44.18v.84a5.33,5.33,0,0,0-1.38-.25,1.52,1.52,0,0,0-1.23.58,2.4,2.4,0,0,0-.47,1.54,2.3,2.3,0,0,0,.48,1.51,1.56,1.56,0,0,0,1.25.57,3.26,3.26,0,0,0,1.41-.35Z"/><path class="cls-32" d="M137.94,23.16a6.22,6.22,0,0,1-1.73.3,2.61,2.61,0,0,1-2-.81,2.94,2.94,0,0,1-.77-2.1,3.08,3.08,0,0,1,.68-2.06,2.16,2.16,0,0,1,1.74-.81,1.85,1.85,0,0,1,1.55.72,3.31,3.31,0,0,1,.54,2v.3h-3.49c.15,1.31.79,2,1.93,2a4.74,4.74,0,0,0,1.54-.34ZM134.52,20H137c0-1-.39-1.54-1.15-1.54S134.61,19,134.52,20Z"/><path class="cls-32" d="M139.69,23.33V17.81h1v1a2.31,2.31,0,0,1,1.94-1.16,1.53,1.53,0,0,1,1.15.46,1.72,1.72,0,0,1,.42,1.22v4h-1V19.69a1.63,1.63,0,0,0-.18-.88.69.69,0,0,0-.6-.26,2.2,2.2,0,0,0-1.73,1.21v3.57Z"/><path class="cls-32" d="M148.62,23.33a2.82,2.82,0,0,1-.8.13,1.6,1.6,0,0,1-1.19-.44,1.67,1.67,0,0,1-.43-1.21V18.56h-.69v-.75h.69v-1l1-.09v1.1h1.44v.75h-1.44v3.06c0,.73.31,1.09.93,1.09a1.85,1.85,0,0,0,.48-.07Z"/><path class="cls-32" d="M150.06,23.33V17.81h1v1a1.89,1.89,0,0,1,1.73-1.16,1.73,1.73,0,0,1,.32,0v.94a1.38,1.38,0,0,0-.45-.09,1.87,1.87,0,0,0-1.6,1.13v3.64Z"/><path class="cls-32" d="M157.17,22.63a2.63,2.63,0,0,1-1.73.83A1.57,1.57,0,0,1,154.3,23a1.45,1.45,0,0,1-.45-1.09,1.56,1.56,0,0,1,.76-1.39,4.07,4.07,0,0,1,2.18-.48H157V19.4c0-.64-.34-1-1-1a3.67,3.67,0,0,0-1.7.49V18.1a5,5,0,0,1,1.91-.42,1.89,1.89,0,0,1,1.36.42,1.75,1.75,0,0,1,.44,1.3v2.5c0,.58.18.86.53.86a.76.76,0,0,0,.19,0l.07.56a1.65,1.65,0,0,1-.75.16C157.6,23.46,157.3,23.18,157.17,22.63Zm-.14-.54V20.66h-.32a2.55,2.55,0,0,0-1.35.31.92.92,0,0,0-.51.82.81.81,0,0,0,.25.61.84.84,0,0,0,.62.25A2.09,2.09,0,0,0,157,22.09Z"/><path class="cls-32" d="M162.54,23.33a2.82,2.82,0,0,1-.8.13,1.58,1.58,0,0,1-1.19-.44,1.63,1.63,0,0,1-.43-1.21V18.56h-.69v-.75h.69v-1l1-.09v1.1h1.45v.75h-1.45v3.06c0,.73.32,1.09.94,1.09a1.91,1.91,0,0,0,.48-.07Z"/><path class="cls-32" d="M164,16.8v-1h1v1Zm0,6.53V17.81h1v5.52Z"/><path class="cls-32" d="M169.19,23.46a2.49,2.49,0,0,1-1.93-.78,3,3,0,0,1-.71-2.11,3,3,0,0,1,.71-2.11,2.78,2.78,0,0,1,3.86,0,3,3,0,0,1,.71,2.11,3,3,0,0,1-.71,2.11A2.49,2.49,0,0,1,169.19,23.46Zm0-.75a1.37,1.37,0,0,0,1.16-.56,2.67,2.67,0,0,0,.41-1.58,2.67,2.67,0,0,0-.41-1.58A1.5,1.5,0,0,0,168,19a2.67,2.67,0,0,0-.41,1.58,2.67,2.67,0,0,0,.41,1.58A1.37,1.37,0,0,0,169.19,22.71Z"/><path class="cls-32" d="M173.39,23.33V17.81h1v1a2.31,2.31,0,0,1,1.94-1.16,1.51,1.51,0,0,1,1.15.46,1.72,1.72,0,0,1,.42,1.22v4h-1V19.69a1.63,1.63,0,0,0-.18-.88.69.69,0,0,0-.6-.26,2.2,2.2,0,0,0-1.73,1.21v3.57Z"/><rect class="cls-31" x="3.6" y="1.3" width="88.76" height="29.77"/><path class="cls-32" d="M11.7,12.13V7.35h-.79V6.6h.79V5.94c0-1.32.6-2,1.8-2a4.58,4.58,0,0,1,1.14.16v.8a3.86,3.86,0,0,0-1.08-.21.84.84,0,0,0-.68.23,1.56,1.56,0,0,0-.18.88V6.6h1.38v.75H12.7v4.78Z"/><path class="cls-32" d="M17.54,12.26a2.49,2.49,0,0,1-1.93-.78,3.05,3.05,0,0,1-.71-2.12,3,3,0,0,1,.71-2.1,2.49,2.49,0,0,1,1.93-.78,2.46,2.46,0,0,1,1.92.78,3,3,0,0,1,.71,2.1,3,3,0,0,1-.71,2.12A2.46,2.46,0,0,1,17.54,12.26Zm0-.76a1.33,1.33,0,0,0,1.15-.56,2.58,2.58,0,0,0,.42-1.58,2.57,2.57,0,0,0-.42-1.57,1.47,1.47,0,0,0-2.31,0A2.64,2.64,0,0,0,16,9.36a2.65,2.65,0,0,0,.41,1.58A1.33,1.33,0,0,0,17.54,11.5Z"/><path class="cls-32" d="M21.74,12.13v-8h1v8Z"/><path class="cls-32" d="M28.31,12.13v-1a2,2,0,0,1-1.85,1.17,1.91,1.91,0,0,1-1.57-.73,3.16,3.16,0,0,1-.57-2A3.49,3.49,0,0,1,25,7.32a2.15,2.15,0,0,1,3.34-.09V4.09h1v8Zm0-4.21a2.32,2.32,0,0,0-1.48-.69,1.21,1.21,0,0,0-1.07.58,3,3,0,0,0-.37,1.63c0,1.29.42,1.93,1.28,1.93a2.24,2.24,0,0,0,1.64-.91Z"/><path class="cls-32" d="M31.07,9.36V8.74h4.52v.62Z"/><path class="cls-32" d="M41.18,12a5.74,5.74,0,0,1-1.68.3,2.38,2.38,0,0,1-1.85-.83,3,3,0,0,1-.74-2.1,2.89,2.89,0,0,1,.73-2.1,2.73,2.73,0,0,1,2-.75,6.58,6.58,0,0,1,1.44.18V7.5a4.93,4.93,0,0,0-1.38-.25,1.48,1.48,0,0,0-1.23.58A2.35,2.35,0,0,0,38,9.36a2.26,2.26,0,0,0,.48,1.51,1.57,1.57,0,0,0,1.25.58,3.26,3.26,0,0,0,1.41-.35Z"/><path class="cls-32" d="M42.69,12.13v-8h1V7.64a2.32,2.32,0,0,1,1.94-1.16,1.51,1.51,0,0,1,1.15.45,1.77,1.77,0,0,1,.42,1.23v4h-1V8.48A1.57,1.57,0,0,0,46,7.61a.67.67,0,0,0-.6-.27,2.23,2.23,0,0,0-1.73,1.21v3.58Z"/><path class="cls-32" d="M52,11.43a2.65,2.65,0,0,1-1.73.83,1.61,1.61,0,0,1-1.14-.43,1.45,1.45,0,0,1-.45-1.09,1.55,1.55,0,0,1,.76-1.39,4,4,0,0,1,2.18-.49h.24V8.19c0-.64-.34-1-1-1a3.76,3.76,0,0,0-1.7.49V6.89a5.18,5.18,0,0,1,1.91-.41,1.89,1.89,0,0,1,1.36.42,1.72,1.72,0,0,1,.44,1.29V10.7c0,.57.17.86.53.86l.19,0,.07.55a1.69,1.69,0,0,1-.75.17C52.43,12.26,52.13,12,52,11.43Zm-.14-.55V9.45h-.32a2.55,2.55,0,0,0-1.35.31.94.94,0,0,0-.51.83.82.82,0,0,0,.25.61.89.89,0,0,0,.62.25A2.13,2.13,0,0,0,51.86,10.88Z"/><path class="cls-32" d="M54.91,12.13V6.6h1v1a2.33,2.33,0,0,1,2-1.16A1.48,1.48,0,0,1,59,6.93a1.72,1.72,0,0,1,.43,1.23v4h-1V8.48a1.57,1.57,0,0,0-.18-.87.67.67,0,0,0-.6-.27,2.24,2.24,0,0,0-1.74,1.21v3.58Z"/><path class="cls-32" d="M61.4,14l.12-.87a4,4,0,0,0,1.72.41c1.13,0,1.69-.6,1.69-1.8v-.87a2,2,0,0,1-.74.86,2,2,0,0,1-1.07.3,1.94,1.94,0,0,1-1.59-.72,3,3,0,0,1-.59-1.95,3.08,3.08,0,0,1,.67-2.06,2.14,2.14,0,0,1,1.73-.79,2.06,2.06,0,0,1,1.59.75V6.6h1v4a9.92,9.92,0,0,1-.13,1.92,2.06,2.06,0,0,1-.51,1,2.68,2.68,0,0,1-2.05.7A6,6,0,0,1,61.4,14Zm3.53-3.76V7.92a2,2,0,0,0-1.44-.69,1.27,1.27,0,0,0-1.09.56A2.62,2.62,0,0,0,62,9.32c0,1.2.43,1.8,1.28,1.8A2.16,2.16,0,0,0,64.93,10.21Z"/><path class="cls-32" d="M71.93,12a6.28,6.28,0,0,1-1.73.31,2.59,2.59,0,0,1-2-.82,2.94,2.94,0,0,1-.77-2.1,3.1,3.1,0,0,1,.68-2.06,2.18,2.18,0,0,1,1.74-.8,1.86,1.86,0,0,1,1.55.71,3.33,3.33,0,0,1,.54,2v.31H68.46c.15,1.31.79,2,1.93,2a4.49,4.49,0,0,0,1.54-.34ZM68.51,8.77H71c0-1-.39-1.54-1.15-1.54S68.6,7.75,68.51,8.77Z"/><path class="cls-32" d="M77,5.6v-1h1v1Zm0,6.53V6.6h1v5.53Z"/><path class="cls-32" d="M80,12.13V6.6h1v1a2.31,2.31,0,0,1,1.94-1.16,1.51,1.51,0,0,1,1.15.45,1.77,1.77,0,0,1,.42,1.23v4h-1V8.48a1.57,1.57,0,0,0-.18-.87.67.67,0,0,0-.6-.27A2.23,2.23,0,0,0,81,8.55v3.58Z"/><path class="cls-32" d="M7.4,26.47l.11-.86A4.09,4.09,0,0,0,9.24,26c1.12,0,1.69-.6,1.69-1.8v-.87a2,2,0,0,1-.74.85,1.94,1.94,0,0,1-1.08.31,1.94,1.94,0,0,1-1.59-.72,3,3,0,0,1-.58-1.95,3.11,3.11,0,0,1,.66-2.06A2.17,2.17,0,0,1,9.33,19a2.08,2.08,0,0,1,1.6.75v-.63h1v4a10.06,10.06,0,0,1-.13,1.92,2.06,2.06,0,0,1-.51,1,2.68,2.68,0,0,1-2,.7A5.68,5.68,0,0,1,7.4,26.47Zm3.53-3.75V20.43a2,2,0,0,0-1.45-.69,1.24,1.24,0,0,0-1.08.55A2.64,2.64,0,0,0,8,21.83c0,1.2.42,1.8,1.28,1.8A2.2,2.2,0,0,0,10.93,22.72Z"/><path class="cls-32" d="M17.93,24.46a6.28,6.28,0,0,1-1.73.3,2.61,2.61,0,0,1-2-.81,2.89,2.89,0,0,1-.77-2.1,3,3,0,0,1,.68-2.06,2.15,2.15,0,0,1,1.73-.8,1.82,1.82,0,0,1,1.55.71,3.25,3.25,0,0,1,.55,2V22H14.46c.15,1.3.79,2,1.93,2a4.49,4.49,0,0,0,1.54-.34Zm-3.42-3.18h2.43c0-1-.38-1.54-1.15-1.54S14.59,20.25,14.51,21.28Z"/><path class="cls-32" d="M19.68,24.64V19.11h1v1A2.3,2.3,0,0,1,22.63,19a1.52,1.52,0,0,1,1.15.45,1.75,1.75,0,0,1,.42,1.23v4h-1V21a1.63,1.63,0,0,0-.18-.88.69.69,0,0,0-.6-.26,2.23,2.23,0,0,0-1.74,1.21v3.58Z"/><path class="cls-32" d="M30.2,24.46a6.22,6.22,0,0,1-1.72.3,2.63,2.63,0,0,1-2-.81,2.94,2.94,0,0,1-.77-2.1,3.1,3.1,0,0,1,.68-2.06,2.15,2.15,0,0,1,1.74-.8,1.83,1.83,0,0,1,1.55.71,3.31,3.31,0,0,1,.55,2V22H26.73c.15,1.3.79,2,1.93,2a4.49,4.49,0,0,0,1.54-.34Zm-3.42-3.18h2.44c0-1-.39-1.54-1.15-1.54S26.87,20.25,26.78,21.28Z"/><path class="cls-32" d="M39.31,24.46a6.28,6.28,0,0,1-1.73.3,2.61,2.61,0,0,1-2-.81,2.89,2.89,0,0,1-.77-2.1,3,3,0,0,1,.68-2.06,2.15,2.15,0,0,1,1.73-.8,1.82,1.82,0,0,1,1.55.71,3.25,3.25,0,0,1,.55,2V22H35.84c.15,1.3.79,2,1.93,2a4.49,4.49,0,0,0,1.54-.34Zm-3.42-3.18h2.43c0-1-.38-1.54-1.15-1.54S36,20.25,35.89,21.28Z"/><path class="cls-32" d="M40.51,24.64l2.1-2.86-2-2.67h1.19l1.61,2.13,1.46-2.13h1l-1.91,2.8L46,24.64H44.79l-1.67-2.19-1.61,2.19Z"/><path class="cls-32" d="M47.45,26.65V19.11h1v1A2,2,0,0,1,50.3,19a1.89,1.89,0,0,1,1.57.72,3.16,3.16,0,0,1,.58,2,3.55,3.55,0,0,1-.65,2.22,2.15,2.15,0,0,1-3.34.09v2.64Zm1-3.33a2.25,2.25,0,0,0,1.47.69A1.2,1.2,0,0,0,51,23.43a2.94,2.94,0,0,0,.38-1.62c0-1.3-.43-1.94-1.29-1.94a2.2,2.2,0,0,0-1.63.91Z"/><path class="cls-32" d="M54,24.64V19.11h1v1A1.85,1.85,0,0,1,56.75,19a1.77,1.77,0,0,1,.32,0V20a1.78,1.78,0,0,0-.46-.08A1.83,1.83,0,0,0,55,21v3.64Z"/><path class="cls-32" d="M62.33,24.46a6.22,6.22,0,0,1-1.73.3,2.62,2.62,0,0,1-2-.81,2.94,2.94,0,0,1-.77-2.1,3.1,3.1,0,0,1,.68-2.06,2.15,2.15,0,0,1,1.74-.8,1.83,1.83,0,0,1,1.55.71,3.31,3.31,0,0,1,.54,2V22H58.86c.15,1.3.79,2,1.93,2a4.49,4.49,0,0,0,1.54-.34Zm-3.42-3.18h2.44c0-1-.39-1.54-1.15-1.54S59,20.25,58.91,21.28Z"/><path class="cls-32" d="M63.88,24.44v-.92a3.94,3.94,0,0,0,1.71.49,1.13,1.13,0,0,0,.72-.23.74.74,0,0,0,.28-.59c0-.34-.26-.63-.8-.85l-.58-.25c-.87-.36-1.3-.88-1.3-1.55a1.4,1.4,0,0,1,.51-1.14A2.15,2.15,0,0,1,65.83,19a6.8,6.8,0,0,1,1.14.12l.21,0V20a4.88,4.88,0,0,0-1.34-.25,1.16,1.16,0,0,0-.7.19.62.62,0,0,0-.26.51c0,.3.24.56.73.77l.49.2a3.26,3.26,0,0,1,1.16.73,1.44,1.44,0,0,1,.34,1A1.48,1.48,0,0,1,67,24.29a2.2,2.2,0,0,1-1.47.47A5.38,5.38,0,0,1,63.88,24.44Z"/><path class="cls-32" d="M69.19,24.44v-.92a3.94,3.94,0,0,0,1.72.49,1.12,1.12,0,0,0,.71-.23.75.75,0,0,0,.29-.59c0-.34-.27-.63-.8-.85l-.59-.25c-.86-.36-1.29-.88-1.29-1.55a1.4,1.4,0,0,1,.51-1.14,2.14,2.14,0,0,1,1.4-.41,6.7,6.7,0,0,1,1.14.12l.21,0V20a4.82,4.82,0,0,0-1.34-.25,1.16,1.16,0,0,0-.7.19.62.62,0,0,0-.26.51c0,.3.25.56.74.77l.48.2a3.17,3.17,0,0,1,1.16.73,1.39,1.39,0,0,1,.34,1,1.45,1.45,0,0,1-.58,1.19,2.2,2.2,0,0,1-1.47.47A5.43,5.43,0,0,1,69.19,24.44Z"/><path class="cls-32" d="M74.71,18.11v-1h1v1Zm0,6.53V19.11h1v5.53Z"/><path class="cls-32" d="M79.92,24.76A2.46,2.46,0,0,1,78,24a3,3,0,0,1-.71-2.11A3,3,0,0,1,78,19.76a2.79,2.79,0,0,1,3.85,0,3,3,0,0,1,.71,2.11A3,3,0,0,1,81.85,24,2.48,2.48,0,0,1,79.92,24.76Zm0-.75a1.37,1.37,0,0,0,1.16-.56,2.65,2.65,0,0,0,.41-1.58,2.62,2.62,0,0,0-.41-1.57,1.48,1.48,0,0,0-2.32,0,2.62,2.62,0,0,0-.4,1.57,2.66,2.66,0,0,0,.4,1.58A1.37,1.37,0,0,0,79.92,24Z"/><path class="cls-32" d="M84.13,24.64V19.11h1v1A2.3,2.3,0,0,1,87.07,19a1.49,1.49,0,0,1,1.15.45,1.75,1.75,0,0,1,.43,1.23v4h-1V21a1.63,1.63,0,0,0-.18-.88.68.68,0,0,0-.59-.26,2.2,2.2,0,0,0-1.74,1.21v3.58Z"/><rect class="cls-31" x="198.16" width="80.58" height="29.77"/><path class="cls-32" d="M201.93,10.83V5.3h1v1a1.87,1.87,0,0,1,1.73-1.16l.32,0v.94a1.65,1.65,0,0,0-.45-.08,1.85,1.85,0,0,0-1.6,1.13v3.64Z"/><path class="cls-32" d="M210.25,10.65a6.28,6.28,0,0,1-1.73.3,2.61,2.61,0,0,1-2-.81,2.89,2.89,0,0,1-.77-2.1A3,3,0,0,1,206.44,6a2.15,2.15,0,0,1,1.73-.8,1.84,1.84,0,0,1,1.55.71,3.25,3.25,0,0,1,.55,2v.31h-3.49c.15,1.31.79,2,1.93,2a4.49,4.49,0,0,0,1.54-.34Zm-3.42-3.18h2.43c0-1-.38-1.54-1.15-1.54S206.91,6.44,206.83,7.47Z"/><path class="cls-32" d="M212,12.84V5.3h1v1a2,2,0,0,1,1.85-1.16,1.89,1.89,0,0,1,1.57.72,3.16,3.16,0,0,1,.57,2,3.55,3.55,0,0,1-.64,2.22,2.16,2.16,0,0,1-3.35.09v2.64Zm1-3.33a2.29,2.29,0,0,0,1.48.69,1.2,1.2,0,0,0,1.07-.58A2.94,2.94,0,0,0,215.93,8c0-1.3-.43-1.94-1.29-1.94A2.24,2.24,0,0,0,213,7Z"/><path class="cls-32" d="M218.56,10.83V5.3h1v1a1.87,1.87,0,0,1,1.73-1.16l.33,0v.94a1.78,1.78,0,0,0-.46-.08,1.85,1.85,0,0,0-1.6,1.13v3.64Z"/><path class="cls-32" d="M226.88,10.65a6.22,6.22,0,0,1-1.73.3,2.61,2.61,0,0,1-2-.81,2.94,2.94,0,0,1-.77-2.1A3.1,3.1,0,0,1,223.07,6a2.15,2.15,0,0,1,1.74-.8,1.86,1.86,0,0,1,1.55.71,3.31,3.31,0,0,1,.54,2v.31h-3.49c.15,1.31.79,2,1.93,2a4.49,4.49,0,0,0,1.54-.34Zm-3.42-3.18h2.44c0-1-.39-1.54-1.15-1.54S223.55,6.44,223.46,7.47Z"/><path class="cls-32" d="M228.43,10.63V9.71a3.91,3.91,0,0,0,1.71.49,1.13,1.13,0,0,0,.72-.23.74.74,0,0,0,.28-.59c0-.34-.26-.63-.8-.85l-.58-.25c-.87-.36-1.3-.88-1.3-1.55A1.4,1.4,0,0,1,229,5.59a2.2,2.2,0,0,1,1.4-.41,6.9,6.9,0,0,1,1.15.12l.21,0v.83a4.88,4.88,0,0,0-1.34-.25,1.14,1.14,0,0,0-.7.19.62.62,0,0,0-.26.51c0,.3.24.56.73.77l.48.2a3.09,3.09,0,0,1,1.16.73,1.4,1.4,0,0,1,.35,1,1.52,1.52,0,0,1-.58,1.2,2.25,2.25,0,0,1-1.47.46A5.33,5.33,0,0,1,228.43,10.63Z"/><path class="cls-32" d="M233.74,10.63V9.71a3.94,3.94,0,0,0,1.71.49,1.13,1.13,0,0,0,.72-.23.75.75,0,0,0,.29-.59c0-.34-.27-.63-.8-.85l-.59-.25c-.86-.36-1.3-.88-1.3-1.55a1.38,1.38,0,0,1,.52-1.14,2.18,2.18,0,0,1,1.4-.41,6.7,6.7,0,0,1,1.14.12l.21,0v.83a4.82,4.82,0,0,0-1.34-.25,1.16,1.16,0,0,0-.7.19.62.62,0,0,0-.26.51c0,.3.25.56.73.77l.49.2a3.26,3.26,0,0,1,1.16.73,1.39,1.39,0,0,1,.34,1,1.49,1.49,0,0,1-.58,1.2,2.25,2.25,0,0,1-1.47.46A5.43,5.43,0,0,1,233.74,10.63Z"/><path class="cls-32" d="M241.46,11a2.49,2.49,0,0,1-1.93-.78,3,3,0,0,1-.71-2.11A3,3,0,0,1,239.53,6a2.8,2.8,0,0,1,3.86,0,3,3,0,0,1,.71,2.11,3,3,0,0,1-.71,2.11A2.49,2.49,0,0,1,241.46,11Zm0-.75a1.35,1.35,0,0,0,1.15-.56A2.58,2.58,0,0,0,243,8.06a2.55,2.55,0,0,0-.42-1.57,1.47,1.47,0,0,0-2.31,0,2.62,2.62,0,0,0-.41,1.57,2.65,2.65,0,0,0,.41,1.58A1.36,1.36,0,0,0,241.46,10.2Z"/><path class="cls-32" d="M245.66,10.83V5.3h1v1a1.85,1.85,0,0,1,1.73-1.16l.32,0v.94a1.78,1.78,0,0,0-.46-.08,1.82,1.82,0,0,0-1.59,1.13v3.64Z"/><path class="cls-32" d="M257.06,10.66a6.1,6.1,0,0,1-1.68.29,2.35,2.35,0,0,1-1.85-.83A3,3,0,0,1,252.79,8a2.87,2.87,0,0,1,.73-2.1,2.71,2.71,0,0,1,2-.75,7.18,7.18,0,0,1,1.44.17v.84A5.25,5.25,0,0,0,255.62,6a1.48,1.48,0,0,0-1.23.57,2.4,2.4,0,0,0-.47,1.54,2.28,2.28,0,0,0,.48,1.51,1.56,1.56,0,0,0,1.25.57,3.12,3.12,0,0,0,1.41-.35Z"/><path class="cls-32" d="M260.76,11a2.46,2.46,0,0,1-1.92-.78,3,3,0,0,1-.71-2.11A3,3,0,0,1,258.84,6a2.79,2.79,0,0,1,3.85,0,3,3,0,0,1,.71,2.11,3,3,0,0,1-.71,2.11A2.48,2.48,0,0,1,260.76,11Zm0-.75a1.37,1.37,0,0,0,1.16-.56,2.65,2.65,0,0,0,.41-1.58,2.62,2.62,0,0,0-.41-1.57,1.48,1.48,0,0,0-2.32,0,2.62,2.62,0,0,0-.4,1.57,2.66,2.66,0,0,0,.4,1.58A1.37,1.37,0,0,0,260.76,10.2Z"/><path class="cls-32" d="M265,12.84V5.3h1v1a2,2,0,0,1,1.85-1.16,1.91,1.91,0,0,1,1.57.72,3.16,3.16,0,0,1,.57,2,3.55,3.55,0,0,1-.65,2.22,2.15,2.15,0,0,1-3.34.09v2.64Zm1-3.33a2.27,2.27,0,0,0,1.48.69,1.18,1.18,0,0,0,1.06-.58A2.94,2.94,0,0,0,268.89,8c0-1.3-.43-1.94-1.28-1.94A2.22,2.22,0,0,0,266,7Z"/><path class="cls-32" d="M271.84,12.84l.9-2L270.6,5.3h1.09l1.58,4.16L275,5.3h1l-3,7.54Z"/><path class="cls-32" d="M219.8,23.33V17.81h1v1a2.33,2.33,0,0,1,1.95-1.16,1.53,1.53,0,0,1,1.15.46,1.72,1.72,0,0,1,.42,1.22v4h-1V19.69a1.63,1.63,0,0,0-.18-.88.69.69,0,0,0-.6-.26,2.23,2.23,0,0,0-1.74,1.21v3.57Z"/><path class="cls-32" d="M229.73,23.33v-1a2.34,2.34,0,0,1-1.94,1.16,1.51,1.51,0,0,1-1.15-.45,1.72,1.72,0,0,1-.43-1.23v-4h1v3.64a1.61,1.61,0,0,0,.18.88.67.67,0,0,0,.61.27,2.24,2.24,0,0,0,1.73-1.21V17.81h1v5.52Z"/><path class="cls-32" d="M232.74,23.33V17.81h1v1a2.18,2.18,0,0,1,1.88-1.16,1.51,1.51,0,0,1,1.51,1.16A2.13,2.13,0,0,1,239,17.68a1.51,1.51,0,0,1,1.14.43,1.7,1.7,0,0,1,.4,1.21v4h-1V19.47c0-.63-.25-.94-.75-.94a2.3,2.3,0,0,0-1.64,1.1v3.7h-1V19.47c0-.63-.26-.95-.77-.95s-1,.37-1.62,1.11v3.7Z"/><path class="cls-32" d="M242.47,23.39V15.3h1v3.54a2,2,0,0,1,1.85-1.16,1.91,1.91,0,0,1,1.57.73,3.16,3.16,0,0,1,.57,2,3.49,3.49,0,0,1-.65,2.22,2,2,0,0,1-1.7.84,2.09,2.09,0,0,1-1.64-.75l-.12.68Zm1-1.37a2.29,2.29,0,0,0,1.48.69,1.2,1.2,0,0,0,1.07-.58,3,3,0,0,0,.37-1.62c0-1.3-.42-2-1.28-2a2.25,2.25,0,0,0-1.64.91Z"/><path class="cls-32" d="M253.08,23.16a6.22,6.22,0,0,1-1.72.3,2.63,2.63,0,0,1-2-.81,2.94,2.94,0,0,1-.77-2.1,3.08,3.08,0,0,1,.68-2.06,2.16,2.16,0,0,1,1.74-.81,1.84,1.84,0,0,1,1.55.72,3.31,3.31,0,0,1,.55,2v.3h-3.49c.15,1.31.79,2,1.93,2a4.74,4.74,0,0,0,1.54-.34ZM249.66,20h2.44c0-1-.39-1.54-1.15-1.54S249.75,19,249.66,20Z"/><path class="cls-32" d="M254.84,23.33V17.81h1v1a1.88,1.88,0,0,1,1.73-1.16l.32,0v.94a1.43,1.43,0,0,0-.46-.09,1.86,1.86,0,0,0-1.59,1.13v3.64Z"/><rect class="cls-31" x="289.63" width="70.12" height="29.77"/><path class="cls-32" d="M293.37,10.83V3.29h2.51a5.63,5.63,0,0,1,1.81.25,2.82,2.82,0,0,1,1.19.85,3.74,3.74,0,0,1,.8,2.49,4.13,4.13,0,0,1-.94,2.83,3,3,0,0,1-1.18.86,4.68,4.68,0,0,1-1.67.26Zm1.07-.8h1.37a2.5,2.5,0,0,0,2.08-.79A3.61,3.61,0,0,0,298.54,7a3.1,3.1,0,0,0-.64-2.08,2.06,2.06,0,0,0-.94-.64,6,6,0,0,0-1.64-.17h-.88Z"/><path class="cls-32" d="M301.18,10.83V3.29h1.05L306,9.11V3.29h.92v7.54h-1.05L302.1,5v5.82Z"/><path class="cls-32" d="M308,10.83l3-7.54H312L315,10.83h-1.15L313,8.74h-3.19L309,10.83ZM310.12,8h2.58l-1.29-3.26Z"/><path class="cls-32" d="M319.4,10.89V2.79h1V6.34a2,2,0,0,1,1.85-1.16,1.9,1.9,0,0,1,1.57.72,3.16,3.16,0,0,1,.57,2,3.49,3.49,0,0,1-.65,2.22A2,2,0,0,1,322,11a2.09,2.09,0,0,1-1.64-.75l-.12.69Zm1-1.38a2.29,2.29,0,0,0,1.48.69A1.2,1.2,0,0,0,323,9.62,2.94,2.94,0,0,0,323.32,8c0-1.3-.42-1.94-1.28-1.94A2.24,2.24,0,0,0,320.4,7Z"/><path class="cls-32" d="M326,4.3v-1h1v1Zm0,6.53V5.3h1v5.53Z"/><path class="cls-32" d="M329,10.83V5.3h1v1a2.28,2.28,0,0,1,1.94-1.16,1.52,1.52,0,0,1,1.15.45,1.75,1.75,0,0,1,.42,1.23v4h-1V7.18a1.63,1.63,0,0,0-.18-.88.69.69,0,0,0-.6-.26A2.2,2.2,0,0,0,330,7.25v3.58Z"/><path class="cls-32" d="M339,10.83v-1A2,2,0,0,1,337.15,11a1.89,1.89,0,0,1-1.57-.72,3.1,3.1,0,0,1-.58-2A3.55,3.55,0,0,1,335.65,6a2.08,2.08,0,0,1,1.71-.84,2.05,2.05,0,0,1,1.63.75V2.79h1v8Zm0-4.21a2.29,2.29,0,0,0-1.47-.69,1.2,1.2,0,0,0-1.07.58,2.94,2.94,0,0,0-.38,1.62c0,1.3.43,1.94,1.29,1.94A2.22,2.22,0,0,0,339,9.16Z"/><path class="cls-32" d="M342,4.3v-1h1v1Zm0,6.53V5.3h1v5.53Z"/><path class="cls-32" d="M345,10.83V5.3h1v1A2.29,2.29,0,0,1,348,5.18a1.52,1.52,0,0,1,1.15.45,1.75,1.75,0,0,1,.42,1.23v4h-1V7.18a1.63,1.63,0,0,0-.18-.88.69.69,0,0,0-.6-.26A2.2,2.2,0,0,0,346,7.25v3.58Z"/><path class="cls-32" d="M351.5,12.66l.12-.86a4,4,0,0,0,1.72.41c1.13,0,1.69-.6,1.69-1.8V9.54a2,2,0,0,1-.74.85,1.91,1.91,0,0,1-1.07.31,1.94,1.94,0,0,1-1.59-.72A3,3,0,0,1,351,8,3.13,3.13,0,0,1,351.71,6a2.15,2.15,0,0,1,1.73-.79,2,2,0,0,1,1.59.75V5.3h1v4a9.81,9.81,0,0,1-.14,1.92,2.13,2.13,0,0,1-.5,1,2.69,2.69,0,0,1-2,.7A5.74,5.74,0,0,1,351.5,12.66ZM355,8.91V6.62a2,2,0,0,0-1.44-.69,1.24,1.24,0,0,0-1.08.55,2.58,2.58,0,0,0-.4,1.54c0,1.2.43,1.8,1.28,1.8A2.16,2.16,0,0,0,355,8.91Z"/><path class="cls-32" d="M312.6,23.16a6.22,6.22,0,0,1-1.73.3,2.62,2.62,0,0,1-2-.81,2.94,2.94,0,0,1-.77-2.1,3.08,3.08,0,0,1,.68-2.06,2.16,2.16,0,0,1,1.74-.81,1.85,1.85,0,0,1,1.55.72,3.31,3.31,0,0,1,.54,2v.3h-3.49c.15,1.31.79,2,1.93,2a4.74,4.74,0,0,0,1.54-.34ZM309.18,20h2.44c0-1-.39-1.54-1.15-1.54S309.27,19,309.18,20Z"/><path class="cls-32" d="M314.35,23.33V17.81h1v1a2.31,2.31,0,0,1,1.94-1.16,1.53,1.53,0,0,1,1.15.46,1.72,1.72,0,0,1,.42,1.22v4h-1V19.69a1.63,1.63,0,0,0-.18-.88.69.69,0,0,0-.6-.26,2.2,2.2,0,0,0-1.73,1.21v3.57Z"/><path class="cls-32" d="M324.87,23.16a6.16,6.16,0,0,1-1.72.3,2.64,2.64,0,0,1-2-.81,2.94,2.94,0,0,1-.77-2.1,3.08,3.08,0,0,1,.68-2.06,2.19,2.19,0,0,1,1.74-.81,1.82,1.82,0,0,1,1.55.72,3.25,3.25,0,0,1,.55,2v.3h-3.48c.14,1.31.79,2,1.93,2a4.69,4.69,0,0,0,1.53-.34ZM321.45,20h2.44c0-1-.38-1.54-1.15-1.54S321.54,19,321.45,20Z"/><path class="cls-32" d="M326.63,23.33V17.81h1v1a1.88,1.88,0,0,1,1.73-1.16l.32,0v.94a1.38,1.38,0,0,0-.45-.09,1.87,1.87,0,0,0-1.6,1.13v3.64Z"/><path class="cls-32" d="M330.91,25.17l.12-.86a4.07,4.07,0,0,0,1.72.4c1.13,0,1.7-.6,1.7-1.79v-.87a2,2,0,0,1-.75.85,2,2,0,0,1-1.07.31,1.94,1.94,0,0,1-1.59-.72,3,3,0,0,1-.58-2,3.1,3.1,0,0,1,.66-2.05,2.16,2.16,0,0,1,1.73-.8,2.09,2.09,0,0,1,1.6.76v-.63h1v4a9.88,9.88,0,0,1-.14,1.92,2.13,2.13,0,0,1-.5,1,2.72,2.72,0,0,1-2.05.7A5.74,5.74,0,0,1,330.91,25.17Zm3.54-3.75v-2.3a2,2,0,0,0-1.45-.68,1.24,1.24,0,0,0-1.08.55,2.64,2.64,0,0,0-.4,1.54c0,1.2.43,1.8,1.28,1.8A2.21,2.21,0,0,0,334.45,21.42Z"/><path class="cls-32" d="M337.71,25.34l.9-2-2.14-5.52h1.09L339.14,22l1.69-4.16h.95l-3,7.53Z"/><rect class="cls-31" x="71.13" y="224.6" width="107.25" height="42.27"/><path class="cls-32" d="M88.35,234.72a2.65,2.65,0,0,1-1.73.83,1.57,1.57,0,0,1-1.14-.43A1.42,1.42,0,0,1,85,234a1.57,1.57,0,0,1,.76-1.39,4.13,4.13,0,0,1,2.19-.49h.23v-.66c0-.64-.33-1-1-1a3.74,3.74,0,0,0-1.7.48v-.83a5.18,5.18,0,0,1,1.91-.41,1.91,1.91,0,0,1,1.36.42,1.73,1.73,0,0,1,.44,1.3V234c0,.58.17.86.53.86l.19,0,.07.56a1.87,1.87,0,0,1-.75.16C88.78,235.55,88.48,235.27,88.35,234.72Zm-.15-.55v-1.43h-.32a2.63,2.63,0,0,0-1.34.31,1,1,0,0,0-.51.83.82.82,0,0,0,.25.61.84.84,0,0,0,.62.25A2.08,2.08,0,0,0,88.2,234.17Z"/><path class="cls-32" d="M95.1,235.25a5.86,5.86,0,0,1-1.68.3,2.39,2.39,0,0,1-1.86-.83,3,3,0,0,1-.74-2.09,2.87,2.87,0,0,1,.73-2.1,2.69,2.69,0,0,1,2-.76A6.58,6.58,0,0,1,95,230v.84a4.93,4.93,0,0,0-1.38-.25,1.49,1.49,0,0,0-1.23.58,2.38,2.38,0,0,0-.46,1.54,2.25,2.25,0,0,0,.47,1.5,1.54,1.54,0,0,0,1.25.58,3.33,3.33,0,0,0,1.42-.35Z"/><path class="cls-32" d="M99.06,235.42a2.93,2.93,0,0,1-.8.13,1.62,1.62,0,0,1-1.2-.44,1.68,1.68,0,0,1-.42-1.21v-3.25H96v-.76h.69v-1l1-.09v1.09h1.45v.76H97.64v3.06c0,.72.31,1.09.94,1.09a2.52,2.52,0,0,0,.48-.07Z"/><path class="cls-32" d="M100.5,228.89v-1h1v1Zm0,6.53v-5.53h1v5.53Z"/><path class="cls-32" d="M104.65,235.42l-2.05-5.53h1l1.61,4.3,1.69-4.3h.94l-2.18,5.53Z"/><path class="cls-32" d="M113,235.24a5.86,5.86,0,0,1-1.72.31,2.64,2.64,0,0,1-2-.81,2.94,2.94,0,0,1-.77-2.1,3.08,3.08,0,0,1,.68-2.06,2.19,2.19,0,0,1,1.74-.81,1.82,1.82,0,0,1,1.55.72,3.23,3.23,0,0,1,.55,2v.3h-3.48c.14,1.31.79,2,1.93,2a4.49,4.49,0,0,0,1.53-.35Zm-3.42-3.17H112c0-1-.38-1.54-1.15-1.54S109.62,231,109.53,232.07Z"/><path class="cls-32" d="M118,235.42v-5.53h1v1a1.88,1.88,0,0,1,1.73-1.16l.32,0v.94a1.38,1.38,0,0,0-.46-.09,1.86,1.86,0,0,0-1.59,1.13v3.64Z"/><path class="cls-32" d="M126.32,235.24a5.86,5.86,0,0,1-1.72.31,2.64,2.64,0,0,1-2-.81,2.94,2.94,0,0,1-.77-2.1,3.08,3.08,0,0,1,.68-2.06,2.19,2.19,0,0,1,1.74-.81,1.82,1.82,0,0,1,1.55.72,3.23,3.23,0,0,1,.55,2v.3h-3.48c.14,1.31.79,2,1.93,2a4.49,4.49,0,0,0,1.53-.35Zm-3.42-3.17h2.44c0-1-.38-1.54-1.15-1.54S123,231,122.9,232.07Z"/><path class="cls-32" d="M128.08,237.43v-7.54h1v1a2,2,0,0,1,1.85-1.16,1.91,1.91,0,0,1,1.57.73,3.16,3.16,0,0,1,.57,2,3.49,3.49,0,0,1-.65,2.22,2,2,0,0,1-1.7.84,2.09,2.09,0,0,1-1.64-.75v2.63Zm1-3.33a2.26,2.26,0,0,0,1.48.7,1.22,1.22,0,0,0,1.07-.58,3,3,0,0,0,.37-1.63c0-1.29-.42-1.94-1.28-1.94a2.25,2.25,0,0,0-1.64.91Z"/><path class="cls-32" d="M134.64,235.42v-5.53h1v1a1.89,1.89,0,0,1,1.73-1.16l.32,0v.94a1.38,1.38,0,0,0-.46-.09,1.86,1.86,0,0,0-1.59,1.13v3.64Z"/><path class="cls-32" d="M143,235.24a6,6,0,0,1-1.73.31,2.61,2.61,0,0,1-2-.81,2.89,2.89,0,0,1-.77-2.1,3,3,0,0,1,.68-2.06,2.16,2.16,0,0,1,1.73-.81,1.82,1.82,0,0,1,1.55.72,3.23,3.23,0,0,1,.55,2v.3h-3.49c.15,1.31.79,2,1.93,2a4.54,4.54,0,0,0,1.54-.35Zm-3.42-3.17H142c0-1-.38-1.54-1.15-1.54S139.62,231,139.54,232.07Z"/><path class="cls-32" d="M144.51,235.23v-.92a4,4,0,0,0,1.71.49,1.08,1.08,0,0,0,.72-.24.74.74,0,0,0,.28-.58c0-.35-.27-.63-.8-.85l-.58-.25c-.87-.36-1.3-.88-1.3-1.55a1.37,1.37,0,0,1,.51-1.14,2.14,2.14,0,0,1,1.4-.42,7.06,7.06,0,0,1,1.15.13l.21,0v.84a4.88,4.88,0,0,0-1.34-.25,1.14,1.14,0,0,0-.7.19.58.58,0,0,0-.27.51c0,.3.25.56.74.76l.48.21a3.17,3.17,0,0,1,1.16.73,1.35,1.35,0,0,1,.34.95,1.48,1.48,0,0,1-.57,1.2,2.29,2.29,0,0,1-1.47.47A5.63,5.63,0,0,1,144.51,235.23Z"/><path class="cls-32" d="M149.82,235.23v-.92a4.09,4.09,0,0,0,1.71.49,1.08,1.08,0,0,0,.72-.24.71.71,0,0,0,.28-.58c0-.35-.26-.63-.8-.85l-.58-.25c-.87-.36-1.3-.88-1.3-1.55a1.37,1.37,0,0,1,.51-1.14,2.16,2.16,0,0,1,1.41-.42,7,7,0,0,1,1.14.13l.21,0v.84a4.88,4.88,0,0,0-1.34-.25,1.16,1.16,0,0,0-.7.19.59.59,0,0,0-.26.51c0,.3.24.56.73.76l.48.21a3.23,3.23,0,0,1,1.17.73,1.4,1.4,0,0,1,.34.95,1.49,1.49,0,0,1-.58,1.2,2.25,2.25,0,0,1-1.47.47A5.69,5.69,0,0,1,149.82,235.23Z"/><path class="cls-32" d="M157.54,235.55a2.48,2.48,0,0,1-1.93-.78,3.49,3.49,0,0,1,0-4.22,2.77,2.77,0,0,1,3.85,0,3.49,3.49,0,0,1,0,4.22A2.46,2.46,0,0,1,157.54,235.55Zm0-.75a1.36,1.36,0,0,0,1.16-.56,3.25,3.25,0,0,0,0-3.16,1.49,1.49,0,0,0-2.31,0,3.25,3.25,0,0,0,0,3.16A1.35,1.35,0,0,0,157.53,234.8Z"/><path class="cls-32" d="M161.74,235.42v-5.53h1v1a1.89,1.89,0,0,1,1.73-1.16l.32,0v.94a1.38,1.38,0,0,0-.45-.09,1.87,1.87,0,0,0-1.6,1.13v3.64Z"/><path class="cls-32" d="M74.9,241.4v-1h1v1Zm0,6.53V242.4h1v5.53Z"/><path class="cls-32" d="M77.91,247.93V242.4h1v1a2.33,2.33,0,0,1,2-1.16,1.49,1.49,0,0,1,1.15.46,1.72,1.72,0,0,1,.42,1.22v4h-1v-3.64a1.58,1.58,0,0,0-.18-.88.66.66,0,0,0-.6-.26,2.24,2.24,0,0,0-1.74,1.2v3.58Z"/><path class="cls-32" d="M87.93,247.93v-1a2,2,0,0,1-1.84,1.17,1.9,1.9,0,0,1-1.57-.73,3.1,3.1,0,0,1-.58-2,3.55,3.55,0,0,1,.65-2.22,2.08,2.08,0,0,1,1.71-.84,2.05,2.05,0,0,1,1.63.75v-3.14h1v8Zm0-4.21a2.29,2.29,0,0,0-1.48-.69,1.21,1.21,0,0,0-1.06.58,3,3,0,0,0-.38,1.63c0,1.29.43,1.94,1.29,1.94a2.25,2.25,0,0,0,1.63-.91Z"/><path class="cls-32" d="M94.4,247.93v-1a2.33,2.33,0,0,1-1.94,1.17,1.48,1.48,0,0,1-1.15-.46,1.69,1.69,0,0,1-.43-1.23v-4h1v3.65a1.63,1.63,0,0,0,.18.88.69.69,0,0,0,.61.26A2.23,2.23,0,0,0,94.4,246V242.4h1v5.53Z"/><path class="cls-32" d="M101.25,247.76a5.86,5.86,0,0,1-1.68.3,2.39,2.39,0,0,1-1.86-.83,3.05,3.05,0,0,1-.74-2.09A2.91,2.91,0,0,1,97.7,243a2.73,2.73,0,0,1,2-.75,6.74,6.74,0,0,1,1.45.18v.84a5.05,5.05,0,0,0-1.39-.25,1.49,1.49,0,0,0-1.23.58,2.38,2.38,0,0,0-.46,1.54,2.3,2.3,0,0,0,.47,1.5,1.54,1.54,0,0,0,1.25.58,3.33,3.33,0,0,0,1.42-.35Z"/><path class="cls-32" d="M106.8,247.75a6.28,6.28,0,0,1-1.73.31,2.62,2.62,0,0,1-2-.81,3,3,0,0,1-.77-2.11,3.12,3.12,0,0,1,.68-2.06,2.18,2.18,0,0,1,1.74-.8,1.86,1.86,0,0,1,1.55.71,3.33,3.33,0,0,1,.54,2v.31h-3.49c.15,1.31.79,2,1.93,2a4.49,4.49,0,0,0,1.54-.34Zm-3.42-3.17h2.44c0-1-.39-1.55-1.15-1.55S103.47,243.55,103.38,244.58Z"/><path class="cls-32" d="M108.55,247.93V242.4h1v1a1.87,1.87,0,0,1,1.73-1.16l.32,0v.94a1.43,1.43,0,0,0-.46-.09,1.85,1.85,0,0,0-1.59,1.13v3.64Z"/><path class="cls-32" d="M119.67,247.93v-1a2,2,0,0,1-1.85,1.17,1.91,1.91,0,0,1-1.57-.73,3.16,3.16,0,0,1-.57-2,3.55,3.55,0,0,1,.65-2.22,2.15,2.15,0,0,1,3.34-.09v-3.14h1v8Zm0-4.21a2.29,2.29,0,0,0-1.48-.69,1.23,1.23,0,0,0-1.07.58,3,3,0,0,0-.37,1.63c0,1.29.43,1.94,1.28,1.94a2.25,2.25,0,0,0,1.64-.91Z"/><path class="cls-32" d="M122.68,241.4v-1h1v1Zm0,6.53V242.4h1v5.53Z"/><path class="cls-32" d="M125.49,247.74v-.92a4,4,0,0,0,1.71.48,1.06,1.06,0,0,0,.71-.23.74.74,0,0,0,.29-.59c0-.34-.27-.62-.8-.85l-.59-.25c-.86-.35-1.29-.87-1.29-1.55a1.37,1.37,0,0,1,.51-1.13,2.14,2.14,0,0,1,1.4-.42,6.1,6.1,0,0,1,1.15.13l.2,0v.83a5.24,5.24,0,0,0-1.33-.25,1.19,1.19,0,0,0-.7.19.61.61,0,0,0-.27.52c0,.3.25.55.74.76l.48.2a3.31,3.31,0,0,1,1.16.73,1.39,1.39,0,0,1,.34,1,1.48,1.48,0,0,1-.57,1.2,2.29,2.29,0,0,1-1.47.47A5.63,5.63,0,0,1,125.49,247.74Z"/><path class="cls-32" d="M130.8,247.74v-.92a4,4,0,0,0,1.71.48,1.07,1.07,0,0,0,.72-.23.73.73,0,0,0,.28-.59c0-.34-.26-.62-.8-.85l-.58-.25c-.87-.35-1.3-.87-1.3-1.55a1.37,1.37,0,0,1,.51-1.13,2.14,2.14,0,0,1,1.4-.42,6.1,6.1,0,0,1,1.15.13l.21,0v.83a5.3,5.3,0,0,0-1.34-.25,1.21,1.21,0,0,0-.7.19.6.6,0,0,0-.26.52c0,.3.24.55.73.76l.48.2a3.22,3.22,0,0,1,1.16.73,1.39,1.39,0,0,1,.34,1,1.48,1.48,0,0,1-.57,1.2,2.25,2.25,0,0,1-1.47.47A5.63,5.63,0,0,1,130.8,247.74Z"/><path class="cls-32" d="M138.52,248.06a2.47,2.47,0,0,1-1.93-.78,3,3,0,0,1-.71-2.11,3,3,0,0,1,.71-2.11,2.77,2.77,0,0,1,3.85,0,3,3,0,0,1,.71,2.11,3,3,0,0,1-.71,2.11A2.46,2.46,0,0,1,138.52,248.06Zm0-.76a1.33,1.33,0,0,0,1.16-.56,3.23,3.23,0,0,0,0-3.15,1.36,1.36,0,0,0-1.16-.56,1.34,1.34,0,0,0-1.15.56,3.23,3.23,0,0,0,0,3.15A1.32,1.32,0,0,0,138.51,247.3Z"/><path class="cls-32" d="M146.56,247.76a5.86,5.86,0,0,1-1.68.3,2.39,2.39,0,0,1-1.86-.83,3.05,3.05,0,0,1-.74-2.09A2.91,2.91,0,0,1,143,243a2.73,2.73,0,0,1,2-.75,6.74,6.74,0,0,1,1.45.18v.84a5.05,5.05,0,0,0-1.39-.25,1.49,1.49,0,0,0-1.23.58,2.38,2.38,0,0,0-.46,1.54,2.3,2.3,0,0,0,.47,1.5,1.54,1.54,0,0,0,1.25.58,3.33,3.33,0,0,0,1.42-.35Z"/><path class="cls-32" d="M148.06,241.4v-1h1v1Zm0,6.53V242.4h1v5.53Z"/><path class="cls-32" d="M153.92,247.23a2.65,2.65,0,0,1-1.73.83,1.65,1.65,0,0,1-1.15-.43,1.45,1.45,0,0,1-.45-1.09,1.57,1.57,0,0,1,.76-1.39,4,4,0,0,1,2.19-.49h.23V244c0-.65-.33-1-1-1a3.73,3.73,0,0,0-1.7.49v-.83a5.18,5.18,0,0,1,1.91-.41,1.91,1.91,0,0,1,1.36.42,1.73,1.73,0,0,1,.44,1.3v2.5c0,.57.17.86.52.86l.2,0,.07.55a1.72,1.72,0,0,1-.75.17C154.35,248.06,154.05,247.78,153.92,247.23Zm-.15-.55v-1.43h-.32a2.63,2.63,0,0,0-1.34.31,1,1,0,0,0-.52.83.83.83,0,0,0,.26.61.89.89,0,0,0,.62.25A2.08,2.08,0,0,0,153.77,246.68Z"/><path class="cls-32" d="M159.29,247.93a3.38,3.38,0,0,1-.8.13,1.62,1.62,0,0,1-1.2-.44,1.69,1.69,0,0,1-.42-1.22v-3.24h-.7v-.76h.7v-1l1-.1v1.1h1.44v.76h-1.44v3.06c0,.72.31,1.08.94,1.08a2.4,2.4,0,0,0,.48-.06Z"/><path class="cls-32" d="M160.72,241.4v-1h1v1Zm0,6.53V242.4h1v5.53Z"/><path class="cls-32" d="M165.94,248.06a2.47,2.47,0,0,1-1.93-.78,3,3,0,0,1-.71-2.11,3,3,0,0,1,.71-2.11,2.77,2.77,0,0,1,3.85,0,3,3,0,0,1,.71,2.11,3,3,0,0,1-.71,2.11A2.46,2.46,0,0,1,165.94,248.06Zm0-.76a1.33,1.33,0,0,0,1.16-.56,3.23,3.23,0,0,0,0-3.15,1.47,1.47,0,0,0-2.31,0,3.23,3.23,0,0,0,0,3.15A1.33,1.33,0,0,0,165.93,247.3Z"/><path class="cls-32" d="M170.14,247.93V242.4h1v1a2.33,2.33,0,0,1,2-1.16,1.46,1.46,0,0,1,1.14.46,1.68,1.68,0,0,1,.43,1.22v4h-1v-3.64a1.58,1.58,0,0,0-.18-.88.66.66,0,0,0-.6-.26,2.23,2.23,0,0,0-1.74,1.2v3.58Z"/><path class="cls-32" d="M107.82,260.27a6.16,6.16,0,0,1-1.68.29,2.36,2.36,0,0,1-1.86-.83,3,3,0,0,1-.74-2.09,2.91,2.91,0,0,1,.73-2.1,2.73,2.73,0,0,1,2-.75,6.66,6.66,0,0,1,1.45.18v.84a5.06,5.06,0,0,0-1.38-.25,1.51,1.51,0,0,0-1.24.57,2.39,2.39,0,0,0-.46,1.54,2.28,2.28,0,0,0,.48,1.51,1.53,1.53,0,0,0,1.25.57,3.18,3.18,0,0,0,1.41-.35Z"/><path class="cls-32" d="M111.52,260.56a2.52,2.52,0,0,1-1.93-.77,3.51,3.51,0,0,1,0-4.23,2.8,2.8,0,0,1,3.86,0,3.51,3.51,0,0,1,0,4.23A2.52,2.52,0,0,1,111.52,260.56Zm0-.75a1.35,1.35,0,0,0,1.15-.56,2.58,2.58,0,0,0,.42-1.58,2.55,2.55,0,0,0-.42-1.57,1.47,1.47,0,0,0-2.31,0,2.62,2.62,0,0,0-.41,1.57,2.65,2.65,0,0,0,.41,1.58A1.36,1.36,0,0,0,111.52,259.81Z"/><path class="cls-32" d="M115.72,260.44v-5.53h1v1a2.28,2.28,0,0,1,1.94-1.16,1.52,1.52,0,0,1,1.15.45,1.75,1.75,0,0,1,.42,1.23v4h-1v-3.65a1.63,1.63,0,0,0-.18-.88.69.69,0,0,0-.6-.26,2.2,2.2,0,0,0-1.73,1.21v3.58Z"/><path class="cls-32" d="M122,260.24v-.92a3.87,3.87,0,0,0,1.71.49,1.13,1.13,0,0,0,.72-.23.76.76,0,0,0,.28-.59c0-.34-.27-.62-.8-.85l-.58-.25c-.87-.36-1.3-.88-1.3-1.55a1.4,1.4,0,0,1,.51-1.14,2.2,2.2,0,0,1,1.4-.41,6.9,6.9,0,0,1,1.15.12l.21,0v.84a4.88,4.88,0,0,0-1.34-.25,1.14,1.14,0,0,0-.7.19.6.6,0,0,0-.27.51c0,.3.25.56.74.77l.48.2a3.17,3.17,0,0,1,1.16.73,1.39,1.39,0,0,1,.34,1,1.51,1.51,0,0,1-.57,1.2,2.29,2.29,0,0,1-1.47.46A5.33,5.33,0,0,1,122,260.24Z"/><path class="cls-32" d="M130,260.44a3.31,3.31,0,0,1-.81.12,1.6,1.6,0,0,1-1.19-.43,1.71,1.71,0,0,1-.42-1.22v-3.25h-.7v-.75h.7v-1l1-.1v1.1H130v.75h-1.44v3.07q0,1.08.93,1.08a1.92,1.92,0,0,0,.49-.07Z"/><path class="cls-32" d="M134.25,259.73a2.6,2.6,0,0,1-1.73.83,1.57,1.57,0,0,1-1.14-.43,1.43,1.43,0,0,1-.46-1.08,1.54,1.54,0,0,1,.77-1.39,4,4,0,0,1,2.18-.49h.24v-.67c0-.64-.34-1-1-1a3.64,3.64,0,0,0-1.7.49v-.83a5,5,0,0,1,1.91-.41,1.89,1.89,0,0,1,1.36.42,1.72,1.72,0,0,1,.44,1.29V259c0,.57.17.86.53.86l.19,0,.07.55a1.71,1.71,0,0,1-.75.16C134.68,260.56,134.38,260.29,134.25,259.73Zm-.14-.54v-1.43h-.33a2.53,2.53,0,0,0-1.34.31.93.93,0,0,0-.51.82.81.81,0,0,0,.25.61.84.84,0,0,0,.62.25A2.11,2.11,0,0,0,134.11,259.19Z"/><path class="cls-32" d="M137.16,260.44v-5.53h1v1a2.3,2.3,0,0,1,2-1.16,1.48,1.48,0,0,1,1.14.45,1.71,1.71,0,0,1,.43,1.23v4h-1v-3.65a1.63,1.63,0,0,0-.18-.88.7.7,0,0,0-.6-.26,2.2,2.2,0,0,0-1.74,1.21v3.58Z"/><path class="cls-32" d="M146.09,260.44a3.3,3.3,0,0,1-.8.12,1.58,1.58,0,0,1-1.19-.43,1.67,1.67,0,0,1-.43-1.22v-3.25H143v-.75h.69v-1l1-.1v1.1h1.45v.75h-1.45v3.07c0,.72.31,1.08.94,1.08a1.91,1.91,0,0,0,.48-.07Z"/><rect class="cls-31" x="249.47" y="223.77" width="107.25" height="42.27"/><path class="cls-32" d="M259.11,228.07v-1h1v1Zm0,6.53v-5.53h1v5.53Z"/><path class="cls-32" d="M262.12,234.6v-5.53h1v1a2.33,2.33,0,0,1,1.95-1.16,1.46,1.46,0,0,1,1.14.46,1.68,1.68,0,0,1,.43,1.22v4h-1V231a1.57,1.57,0,0,0-.18-.87.67.67,0,0,0-.6-.27,2.23,2.23,0,0,0-1.74,1.21v3.58Z"/><path class="cls-32" d="M271.44,233.9a2.65,2.65,0,0,1-1.74.83,1.61,1.61,0,0,1-1.14-.43,1.45,1.45,0,0,1-.45-1.09,1.55,1.55,0,0,1,.76-1.39,4,4,0,0,1,2.19-.49h.23v-.67c0-.64-.33-1-1-1a3.73,3.73,0,0,0-1.7.49v-.83a5.14,5.14,0,0,1,1.91-.41,1.88,1.88,0,0,1,1.35.42,1.68,1.68,0,0,1,.44,1.29v2.51c0,.57.18.86.53.86l.2,0,.07.55a1.73,1.73,0,0,1-.76.17C271.87,234.73,271.57,234.45,271.44,233.9Zm-.15-.55v-1.43H271a2.55,2.55,0,0,0-1.35.31.94.94,0,0,0-.51.83.83.83,0,0,0,.26.61.87.87,0,0,0,.62.25A2.1,2.1,0,0,0,271.29,233.35Z"/><path class="cls-32" d="M278.18,234.43a5.86,5.86,0,0,1-1.68.3,2.42,2.42,0,0,1-1.86-.83,3.05,3.05,0,0,1-.73-2.1,2.89,2.89,0,0,1,.73-2.1,2.7,2.7,0,0,1,2-.75,6.58,6.58,0,0,1,1.44.18V230a5.06,5.06,0,0,0-1.38-.25,1.5,1.5,0,0,0-1.24.58,2.35,2.35,0,0,0-.46,1.53,2.26,2.26,0,0,0,.48,1.51,1.56,1.56,0,0,0,1.25.58,3.26,3.26,0,0,0,1.41-.35Z"/><path class="cls-32" d="M282.15,234.6a3.37,3.37,0,0,1-.81.13,1.6,1.6,0,0,1-1.19-.44,1.69,1.69,0,0,1-.43-1.22v-3.24H279v-.76h.69v-1l1-.1v1.1h1.44v.76h-1.44v3.06q0,1.08.93,1.08a2.49,2.49,0,0,0,.49-.06Z"/><path class="cls-32" d="M283.58,228.07v-1h1v1Zm0,6.53v-5.53h1v5.53Z"/><path class="cls-32" d="M287.74,234.6l-2.06-5.53h1l1.6,4.3,1.7-4.3h.94l-2.19,5.53Z"/><path class="cls-32" d="M296,234.42a6.28,6.28,0,0,1-1.73.31,2.59,2.59,0,0,1-2-.82,2.94,2.94,0,0,1-.77-2.1,3.1,3.1,0,0,1,.68-2.06A2.18,2.18,0,0,1,294,229a1.86,1.86,0,0,1,1.55.71,3.33,3.33,0,0,1,.54,2V232h-3.49c.15,1.31.79,2,1.93,2a4.49,4.49,0,0,0,1.54-.34Zm-3.42-3.18h2.44c0-1-.39-1.54-1.15-1.54S292.71,230.22,292.62,231.24Z"/><path class="cls-32" d="M301.09,234.6v-5.53h1v1a1.87,1.87,0,0,1,1.73-1.16l.32,0v.95a1.48,1.48,0,0,0-.46-.09A1.84,1.84,0,0,0,302.1,231v3.64Z"/><path class="cls-32" d="M309.41,234.42a6.28,6.28,0,0,1-1.73.31,2.59,2.59,0,0,1-2-.82,2.94,2.94,0,0,1-.77-2.1,3.1,3.1,0,0,1,.68-2.06,2.18,2.18,0,0,1,1.74-.8,1.86,1.86,0,0,1,1.55.71,3.33,3.33,0,0,1,.55,2V232h-3.49c.15,1.31.79,2,1.93,2a4.49,4.49,0,0,0,1.54-.34ZM306,231.24h2.44c0-1-.39-1.54-1.15-1.54S306.08,230.22,306,231.24Z"/><path class="cls-32" d="M311.17,236.61v-7.54h1v1A2,2,0,0,1,314,229a1.89,1.89,0,0,1,1.57.73,3.14,3.14,0,0,1,.57,2,3.54,3.54,0,0,1-.65,2.21,2,2,0,0,1-1.71.85,2.08,2.08,0,0,1-1.63-.76v2.64Zm1-3.33a2.27,2.27,0,0,0,1.47.69,1.21,1.21,0,0,0,1.07-.57,3,3,0,0,0,.38-1.63c0-1.29-.43-1.94-1.28-1.94a2.22,2.22,0,0,0-1.64.91Z"/><path class="cls-32" d="M317.73,234.6v-5.53h1v1a1.88,1.88,0,0,1,1.73-1.16l.32,0v.95a1.43,1.43,0,0,0-.46-.09,1.86,1.86,0,0,0-1.59,1.13v3.64Z"/><path class="cls-32" d="M326,234.42a6.28,6.28,0,0,1-1.72.31,2.6,2.6,0,0,1-2-.82,2.94,2.94,0,0,1-.77-2.1,3.1,3.1,0,0,1,.68-2.06A2.2,2.2,0,0,1,324,229a1.86,1.86,0,0,1,1.55.71,3.33,3.33,0,0,1,.55,2V232h-3.48c.14,1.31.78,2,1.92,2a4.49,4.49,0,0,0,1.54-.34Zm-3.42-3.18h2.44c0-1-.38-1.54-1.15-1.54S322.71,230.22,322.62,231.24Z"/><path class="cls-32" d="M327.59,234.41v-.93a3.94,3.94,0,0,0,1.71.49,1.13,1.13,0,0,0,.72-.23.74.74,0,0,0,.29-.59c0-.34-.27-.62-.8-.85l-.59-.25c-.86-.36-1.3-.87-1.3-1.55a1.38,1.38,0,0,1,.52-1.14,2.18,2.18,0,0,1,1.4-.41,5.92,5.92,0,0,1,1.14.13l.21,0V230a5.22,5.22,0,0,0-1.34-.25,1.23,1.23,0,0,0-.7.19.62.62,0,0,0-.26.52c0,.3.25.55.73.76l.49.2a3.41,3.41,0,0,1,1.16.73,1.44,1.44,0,0,1,.34,1,1.46,1.46,0,0,1-.58,1.2,2.25,2.25,0,0,1-1.47.47A5.74,5.74,0,0,1,327.59,234.41Z"/><path class="cls-32" d="M332.91,234.41v-.93a3.87,3.87,0,0,0,1.71.49,1.1,1.1,0,0,0,.71-.23.74.74,0,0,0,.29-.59c0-.34-.27-.62-.8-.85l-.59-.25c-.86-.36-1.29-.87-1.29-1.55a1.4,1.4,0,0,1,.51-1.14,2.2,2.2,0,0,1,1.4-.41,6.1,6.1,0,0,1,1.15.13l.2,0V230a5.16,5.16,0,0,0-1.33-.25,1.19,1.19,0,0,0-.7.19.61.61,0,0,0-.27.52c0,.3.25.55.74.76l.48.2a3.31,3.31,0,0,1,1.16.73,1.39,1.39,0,0,1,.34,1,1.48,1.48,0,0,1-.57,1.2,2.29,2.29,0,0,1-1.47.47A5.63,5.63,0,0,1,332.91,234.41Z"/><path class="cls-32" d="M340.62,234.73a2.49,2.49,0,0,1-1.93-.78,3.05,3.05,0,0,1-.71-2.12,3,3,0,0,1,.71-2.1,2.78,2.78,0,0,1,3.86,0,3,3,0,0,1,.71,2.1,3.05,3.05,0,0,1-.71,2.12A2.49,2.49,0,0,1,340.62,234.73Zm0-.76a1.34,1.34,0,0,0,1.16-.56,3.23,3.23,0,0,0,0-3.15,1.48,1.48,0,0,0-2.32,0,3.23,3.23,0,0,0,0,3.15A1.34,1.34,0,0,0,340.62,234Z"/><path class="cls-32" d="M344.83,234.6v-5.53h1v1a1.88,1.88,0,0,1,1.73-1.16l.32,0v.95a1.43,1.43,0,0,0-.46-.09,1.86,1.86,0,0,0-1.59,1.13v3.64Z"/><path class="cls-32" d="M253.24,240.58v-1h1v1Zm0,6.53v-5.53h1v5.53Z"/><path class="cls-32" d="M256.26,247.11v-5.53h1v1a2.3,2.3,0,0,1,1.94-1.16,1.49,1.49,0,0,1,1.15.45,1.75,1.75,0,0,1,.43,1.23v4h-1v-3.65a1.63,1.63,0,0,0-.18-.88.69.69,0,0,0-.6-.26,2.2,2.2,0,0,0-1.73,1.21v3.58Z"/><path class="cls-32" d="M266.28,247.11v-1a2,2,0,0,1-1.85,1.16,1.9,1.9,0,0,1-1.57-.72,3.16,3.16,0,0,1-.57-2,3.49,3.49,0,0,1,.65-2.22,2.15,2.15,0,0,1,3.34-.09v-3.14h1v8Zm0-4.21a2.29,2.29,0,0,0-1.48-.69,1.2,1.2,0,0,0-1.07.58,2.94,2.94,0,0,0-.37,1.62c0,1.3.42,1.94,1.28,1.94a2.24,2.24,0,0,0,1.64-.91Z"/><path class="cls-32" d="M272.74,247.11v-1a2.3,2.3,0,0,1-1.94,1.16,1.52,1.52,0,0,1-1.15-.45,1.77,1.77,0,0,1-.43-1.23v-4h1v3.64a1.65,1.65,0,0,0,.18.89.69.69,0,0,0,.6.26,2.2,2.2,0,0,0,1.73-1.21v-3.58h1v5.53Z"/><path class="cls-32" d="M279.59,246.94a6.16,6.16,0,0,1-1.68.29,2.38,2.38,0,0,1-1.86-.83,3,3,0,0,1-.73-2.09,2.87,2.87,0,0,1,.73-2.1,2.7,2.7,0,0,1,2-.75,6.58,6.58,0,0,1,1.44.18v.84a5.06,5.06,0,0,0-1.38-.25,1.51,1.51,0,0,0-1.24.57,2.39,2.39,0,0,0-.46,1.54,2.28,2.28,0,0,0,.48,1.51,1.55,1.55,0,0,0,1.25.57,3.12,3.12,0,0,0,1.41-.35Z"/><path class="cls-32" d="M285.14,246.93a6.16,6.16,0,0,1-1.72.3,2.64,2.64,0,0,1-2-.81,2.94,2.94,0,0,1-.77-2.1,3.1,3.1,0,0,1,.68-2.06,2.21,2.21,0,0,1,1.74-.8,1.84,1.84,0,0,1,1.55.71,3.27,3.27,0,0,1,.55,2v.31h-3.48c.14,1.31.79,2,1.93,2a4.45,4.45,0,0,0,1.53-.34Zm-3.42-3.18h2.44c0-1-.38-1.54-1.15-1.54S281.81,242.72,281.72,243.75Z"/><path class="cls-32" d="M286.9,247.11v-5.53h1v1a1.87,1.87,0,0,1,1.73-1.16l.32,0v.94a1.65,1.65,0,0,0-.45-.08,1.85,1.85,0,0,0-1.6,1.13v3.64Z"/><path class="cls-32" d="M298,247.11v-1a2,2,0,0,1-1.84,1.16,1.89,1.89,0,0,1-1.57-.72,3.16,3.16,0,0,1-.58-2,3.55,3.55,0,0,1,.65-2.22,2.08,2.08,0,0,1,1.71-.84,2.05,2.05,0,0,1,1.63.75v-3.14h1v8Zm0-4.21a2.29,2.29,0,0,0-1.47-.69,1.2,1.2,0,0,0-1.07.58,2.94,2.94,0,0,0-.38,1.62c0,1.3.43,1.94,1.29,1.94a2.2,2.2,0,0,0,1.63-.91Z"/><path class="cls-32" d="M301,240.58v-1h1v1Zm0,6.53v-5.53h1v5.53Z"/><path class="cls-32" d="M303.83,246.91V246a3.94,3.94,0,0,0,1.71.49,1.13,1.13,0,0,0,.72-.23.73.73,0,0,0,.28-.59c0-.34-.26-.62-.79-.85l-.59-.25c-.87-.36-1.3-.88-1.3-1.55a1.4,1.4,0,0,1,.51-1.14,2.21,2.21,0,0,1,1.41-.41,6.8,6.8,0,0,1,1.14.12l.21,0v.84a4.88,4.88,0,0,0-1.34-.25,1.16,1.16,0,0,0-.7.19.62.62,0,0,0-.26.51c0,.3.24.56.73.77l.49.2a3.26,3.26,0,0,1,1.16.73,1.44,1.44,0,0,1,.34,1,1.52,1.52,0,0,1-.58,1.2,2.25,2.25,0,0,1-1.47.46A5.38,5.38,0,0,1,303.83,246.91Z"/><path class="cls-32" d="M309.15,246.91V246a3.87,3.87,0,0,0,1.7.49,1.13,1.13,0,0,0,.72-.23.74.74,0,0,0,.29-.59c0-.34-.27-.62-.8-.85l-.59-.25c-.86-.36-1.29-.88-1.29-1.55a1.4,1.4,0,0,1,.51-1.14,2.2,2.2,0,0,1,1.4-.41,6.7,6.7,0,0,1,1.14.12l.21,0v.84a4.82,4.82,0,0,0-1.34-.25,1.16,1.16,0,0,0-.7.19.62.62,0,0,0-.26.51c0,.3.25.56.74.77l.48.2a3.17,3.17,0,0,1,1.16.73,1.39,1.39,0,0,1,.34,1,1.51,1.51,0,0,1-.57,1.2,2.3,2.3,0,0,1-1.48.46A5.32,5.32,0,0,1,309.15,246.91Z"/><path class="cls-32" d="M316.86,247.23a2.49,2.49,0,0,1-1.93-.78,3.49,3.49,0,0,1,0-4.22,2.8,2.8,0,0,1,3.86,0,3.49,3.49,0,0,1,0,4.22A2.49,2.49,0,0,1,316.86,247.23Zm0-.75a1.38,1.38,0,0,0,1.16-.56,2.65,2.65,0,0,0,.41-1.58,2.62,2.62,0,0,0-.41-1.57,1.38,1.38,0,0,0-1.16-.56,1.36,1.36,0,0,0-1.16.56,2.62,2.62,0,0,0-.41,1.57,2.65,2.65,0,0,0,.41,1.58A1.36,1.36,0,0,0,316.86,246.48Z"/><path class="cls-32" d="M324.9,246.94a6.16,6.16,0,0,1-1.68.29,2.38,2.38,0,0,1-1.86-.83,3,3,0,0,1-.73-2.09,2.87,2.87,0,0,1,.73-2.1,2.7,2.7,0,0,1,2-.75,6.58,6.58,0,0,1,1.44.18v.84a5.06,5.06,0,0,0-1.38-.25,1.51,1.51,0,0,0-1.24.57,2.39,2.39,0,0,0-.46,1.54,2.28,2.28,0,0,0,.48,1.51,1.55,1.55,0,0,0,1.25.57,3.12,3.12,0,0,0,1.41-.35Z"/><path class="cls-32" d="M326.4,240.58v-1h1v1Zm0,6.53v-5.53h1v5.53Z"/><path class="cls-32" d="M332.27,246.4a2.62,2.62,0,0,1-1.74.83,1.57,1.57,0,0,1-1.14-.43,1.43,1.43,0,0,1-.45-1.08,1.54,1.54,0,0,1,.76-1.39,4,4,0,0,1,2.18-.49h.24v-.67c0-.64-.34-1-1-1a3.6,3.6,0,0,0-1.69.49v-.83a4.94,4.94,0,0,1,1.9-.41,1.89,1.89,0,0,1,1.36.42,1.72,1.72,0,0,1,.44,1.29v2.51c0,.57.18.86.53.86l.19,0,.07.55a1.65,1.65,0,0,1-.75.16C332.69,247.23,332.39,247,332.27,246.4Zm-.15-.54v-1.43h-.32a2.55,2.55,0,0,0-1.35.31.93.93,0,0,0-.51.82.81.81,0,0,0,.25.61.84.84,0,0,0,.62.25A2.09,2.09,0,0,0,332.12,245.86Z"/><path class="cls-32" d="M337.63,247.11a3.17,3.17,0,0,1-.8.12,1.58,1.58,0,0,1-1.19-.43,1.67,1.67,0,0,1-.43-1.22v-3.25h-.69v-.75h.69v-1l1-.1v1.1h1.45v.75h-1.45v3.07c0,.72.32,1.08.94,1.08a1.91,1.91,0,0,0,.48-.07Z"/><path class="cls-32" d="M339.07,240.58v-1h1v1Zm0,6.53v-5.53h1v5.53Z"/><path class="cls-32" d="M344.28,247.23a2.49,2.49,0,0,1-1.93-.78,3.53,3.53,0,0,1,0-4.22,2.8,2.8,0,0,1,3.86,0,3.49,3.49,0,0,1,0,4.22A2.49,2.49,0,0,1,344.28,247.23Zm0-.75a1.37,1.37,0,0,0,1.16-.56,2.65,2.65,0,0,0,.41-1.58,2.62,2.62,0,0,0-.41-1.57,1.48,1.48,0,0,0-2.32,0,2.62,2.62,0,0,0-.41,1.57,2.65,2.65,0,0,0,.41,1.58A1.37,1.37,0,0,0,344.28,246.48Z"/><path class="cls-32" d="M348.49,247.11v-5.53h1v1a2.3,2.3,0,0,1,1.94-1.16,1.51,1.51,0,0,1,1.15.45,1.75,1.75,0,0,1,.42,1.23v4h-1v-3.65a1.63,1.63,0,0,0-.18-.88.69.69,0,0,0-.6-.26,2.2,2.2,0,0,0-1.73,1.21v3.58Z"/><path class="cls-32" d="M286.16,259.45a6,6,0,0,1-1.68.29,2.38,2.38,0,0,1-1.85-.83,3,3,0,0,1-.74-2.09,2.87,2.87,0,0,1,.73-2.1,2.69,2.69,0,0,1,2-.76,6.58,6.58,0,0,1,1.44.18V255a5.33,5.33,0,0,0-1.38-.25,1.48,1.48,0,0,0-1.23.58,2.4,2.4,0,0,0-.47,1.54,2.3,2.3,0,0,0,.48,1.51,1.56,1.56,0,0,0,1.25.57,3.26,3.26,0,0,0,1.41-.35Z"/><path class="cls-32" d="M289.86,259.74a2.46,2.46,0,0,1-1.92-.78,3.49,3.49,0,0,1,0-4.22,2.77,2.77,0,0,1,3.85,0,3.49,3.49,0,0,1,0,4.22A2.48,2.48,0,0,1,289.86,259.74Zm0-.75a1.36,1.36,0,0,0,1.16-.56,3.25,3.25,0,0,0,0-3.16,1.35,1.35,0,0,0-1.16-.55,1.33,1.33,0,0,0-1.15.55,3.25,3.25,0,0,0,0,3.16A1.34,1.34,0,0,0,289.86,259Z"/><path class="cls-32" d="M294.07,259.61v-5.52h1v1A2.32,2.32,0,0,1,297,254a1.5,1.5,0,0,1,1.15.46,1.73,1.73,0,0,1,.43,1.22v4h-1V256a1.63,1.63,0,0,0-.18-.88.68.68,0,0,0-.59-.26,2.2,2.2,0,0,0-1.74,1.21v3.57Z"/><path class="cls-32" d="M300.33,259.42v-.92A4.09,4.09,0,0,0,302,259a1.08,1.08,0,0,0,.72-.24.72.72,0,0,0,.29-.58c0-.34-.27-.63-.8-.85l-.59-.25c-.86-.36-1.3-.88-1.3-1.55a1.39,1.39,0,0,1,.51-1.14,2.17,2.17,0,0,1,1.41-.42,6.84,6.84,0,0,1,1.14.13l.21,0V255a4.88,4.88,0,0,0-1.34-.25,1.16,1.16,0,0,0-.7.19.62.62,0,0,0-.26.51c0,.3.24.56.73.76l.49.21a3.26,3.26,0,0,1,1.16.73,1.41,1.41,0,0,1,.34,1,1.45,1.45,0,0,1-.58,1.19,2.25,2.25,0,0,1-1.47.47A5.69,5.69,0,0,1,300.33,259.42Z"/><path class="cls-32" d="M308.31,259.61a2.93,2.93,0,0,1-.8.13,1.58,1.58,0,0,1-1.19-.44,1.63,1.63,0,0,1-.43-1.21v-3.25h-.69v-.75h.69v-1l1-.09v1.1h1.45v.75h-1.45v3.06c0,.73.31,1.09.94,1.09a2.52,2.52,0,0,0,.48-.07Z"/><path class="cls-32" d="M312.6,258.91a2.65,2.65,0,0,1-1.74.83,1.57,1.57,0,0,1-1.14-.43,1.45,1.45,0,0,1-.45-1.09,1.56,1.56,0,0,1,.76-1.39,4.14,4.14,0,0,1,2.19-.48h.23v-.67c0-.64-.33-1-1-1a3.61,3.61,0,0,0-1.7.49v-.83a5,5,0,0,1,1.91-.42,1.88,1.88,0,0,1,1.35.42,1.71,1.71,0,0,1,.44,1.3v2.5c0,.58.18.86.53.86a.83.83,0,0,0,.2,0l.07.56a1.73,1.73,0,0,1-.76.16C313,259.74,312.73,259.46,312.6,258.91Zm-.15-.54v-1.43h-.32a2.55,2.55,0,0,0-1.35.31.92.92,0,0,0-.51.82.82.82,0,0,0,.26.61.83.83,0,0,0,.62.25A2.09,2.09,0,0,0,312.45,258.37Z"/><path class="cls-32" d="M315.5,259.61v-5.52h1v1a2.3,2.3,0,0,1,1.94-1.16,1.53,1.53,0,0,1,1.15.46,1.72,1.72,0,0,1,.42,1.22v4h-1V256a1.63,1.63,0,0,0-.18-.88.69.69,0,0,0-.6-.26,2.2,2.2,0,0,0-1.73,1.21v3.57Z"/><path class="cls-32" d="M324.44,259.61a2.94,2.94,0,0,1-.81.13,1.6,1.6,0,0,1-1.19-.44,1.63,1.63,0,0,1-.43-1.21v-3.25h-.69v-.75H322v-1l1-.09v1.1h1.44v.75H323v3.06c0,.73.31,1.09.93,1.09a2.72,2.72,0,0,0,.49-.07Z"/><rect class="cls-31" x="187.95" y="223.77" width="56.27" height="42.27"/><path class="cls-32" d="M195.38,233.9a2.65,2.65,0,0,1-1.73.83,1.61,1.61,0,0,1-1.14-.43,1.42,1.42,0,0,1-.46-1.09,1.57,1.57,0,0,1,.76-1.39,4,4,0,0,1,2.19-.49h.23v-.67c0-.64-.33-1-1-1a3.76,3.76,0,0,0-1.7.49v-.83a5.18,5.18,0,0,1,1.91-.41,1.91,1.91,0,0,1,1.36.42,1.72,1.72,0,0,1,.44,1.29v2.51c0,.57.17.86.53.86l.19,0,.07.55a1.72,1.72,0,0,1-.75.17C195.81,234.73,195.51,234.45,195.38,233.9Zm-.15-.55v-1.43h-.32a2.53,2.53,0,0,0-1.34.31.94.94,0,0,0-.51.83.82.82,0,0,0,.25.61.89.89,0,0,0,.62.25A2.08,2.08,0,0,0,195.23,233.35Z"/><path class="cls-32" d="M198.29,234.6v-8h1v8Z"/><path class="cls-32" d="M201.3,234.6v-8h1v8Z"/><path class="cls-32" d="M206.51,234.73a2.46,2.46,0,0,1-1.92-.78,3,3,0,0,1-.71-2.12,3,3,0,0,1,.71-2.1,2.46,2.46,0,0,1,1.92-.78,2.49,2.49,0,0,1,1.93.78,3,3,0,0,1,.71,2.1,3.05,3.05,0,0,1-.71,2.12A2.49,2.49,0,0,1,206.51,234.73Zm0-.76a1.34,1.34,0,0,0,1.16-.56,3.23,3.23,0,0,0,0-3.15,1.48,1.48,0,0,0-2.32,0,3.23,3.23,0,0,0,0,3.15A1.34,1.34,0,0,0,206.51,234Z"/><path class="cls-32" d="M210.51,234.41v-.93a3.94,3.94,0,0,0,1.71.49,1.13,1.13,0,0,0,.72-.23.73.73,0,0,0,.28-.59c0-.34-.26-.62-.79-.85l-.59-.25c-.86-.36-1.3-.87-1.3-1.55a1.4,1.4,0,0,1,.51-1.14,2.23,2.23,0,0,1,1.41-.41,6,6,0,0,1,1.14.13l.21,0V230a5.3,5.3,0,0,0-1.34-.25,1.23,1.23,0,0,0-.7.19.62.62,0,0,0-.26.52c0,.3.24.55.73.76l.49.2a3.41,3.41,0,0,1,1.16.73,1.44,1.44,0,0,1,.34,1,1.46,1.46,0,0,1-.58,1.2,2.25,2.25,0,0,1-1.47.47A5.69,5.69,0,0,1,210.51,234.41Z"/><path class="cls-32" d="M218.49,234.6a3.3,3.3,0,0,1-.8.13,1.58,1.58,0,0,1-1.19-.44,1.65,1.65,0,0,1-.43-1.22v-3.24h-.69v-.76h.69v-1l1-.1v1.1h1.45v.76h-1.45v3.06c0,.72.31,1.08.94,1.08a2.4,2.4,0,0,0,.48-.06Z"/><path class="cls-32" d="M224,234.42a6.28,6.28,0,0,1-1.73.31,2.59,2.59,0,0,1-2-.82,2.94,2.94,0,0,1-.77-2.1,3.1,3.1,0,0,1,.68-2.06,2.18,2.18,0,0,1,1.74-.8,1.86,1.86,0,0,1,1.55.71,3.33,3.33,0,0,1,.54,2V232h-3.49c.15,1.31.79,2,1.93,2a4.49,4.49,0,0,0,1.54-.34Zm-3.42-3.18H223c0-1-.39-1.54-1.15-1.54S220.65,230.22,220.56,231.24Z"/><path class="cls-32" d="M225.73,234.6v-5.53h1v1a1.87,1.87,0,0,1,1.73-1.16l.32,0v.95a1.48,1.48,0,0,0-.46-.09,1.85,1.85,0,0,0-1.59,1.13v3.64Z"/><path class="cls-32" d="M230,228.07v-1h1v1Zm0,6.53v-5.53h1v5.53Z"/><path class="cls-32" d="M236.85,234.43a5.86,5.86,0,0,1-1.68.3,2.39,2.39,0,0,1-1.86-.83,3.06,3.06,0,0,1-.74-2.1,2.93,2.93,0,0,1,.73-2.1,2.73,2.73,0,0,1,2-.75,6.66,6.66,0,0,1,1.45.18V230a5.06,5.06,0,0,0-1.38-.25,1.5,1.5,0,0,0-1.24.58,2.35,2.35,0,0,0-.46,1.53,2.26,2.26,0,0,0,.48,1.51,1.54,1.54,0,0,0,1.25.58,3.33,3.33,0,0,0,1.41-.35Z"/><path class="cls-32" d="M204,246.93a6.28,6.28,0,0,1-1.73.3,2.64,2.64,0,0,1-2-.81,2.93,2.93,0,0,1-.76-2.1,3,3,0,0,1,.68-2.06,2.18,2.18,0,0,1,1.73-.8,1.84,1.84,0,0,1,1.55.71,3.27,3.27,0,0,1,.55,2v.31h-3.49c.15,1.31.79,2,1.93,2a4.49,4.49,0,0,0,1.54-.34Zm-3.42-3.18H203c0-1-.38-1.54-1.15-1.54S200.66,242.72,200.58,243.75Z"/><path class="cls-32" d="M205.75,247.11v-5.53h1v1a2.3,2.3,0,0,1,1.95-1.16,1.52,1.52,0,0,1,1.15.45,1.75,1.75,0,0,1,.42,1.23v4h-1v-3.65a1.63,1.63,0,0,0-.18-.88.69.69,0,0,0-.6-.26,2.23,2.23,0,0,0-1.74,1.21v3.58Z"/><path class="cls-32" d="M216.27,246.93a6.22,6.22,0,0,1-1.72.3,2.63,2.63,0,0,1-2-.81,2.94,2.94,0,0,1-.77-2.1,3.1,3.1,0,0,1,.68-2.06,2.18,2.18,0,0,1,1.74-.8,1.86,1.86,0,0,1,1.55.71,3.33,3.33,0,0,1,.55,2v.31H212.8c.15,1.31.79,2,1.93,2a4.49,4.49,0,0,0,1.54-.34Zm-3.42-3.18h2.44c0-1-.39-1.54-1.15-1.54S212.94,242.72,212.85,243.75Z"/><path class="cls-32" d="M218,247.11v-5.53h1v1a1.86,1.86,0,0,1,1.73-1.16l.32,0v.94a1.71,1.71,0,0,0-.46-.08,1.85,1.85,0,0,0-1.59,1.13v3.64Z"/><path class="cls-32" d="M222.31,248.94l.12-.86a4,4,0,0,0,1.72.41c1.13,0,1.69-.6,1.69-1.8v-.87a2,2,0,0,1-3.4.44,3,3,0,0,1-.59-1.95,3.13,3.13,0,0,1,.67-2.06,2.15,2.15,0,0,1,1.73-.79,2,2,0,0,1,1.59.75v-.63h1v4a9.81,9.81,0,0,1-.14,1.92,2.13,2.13,0,0,1-.5,1,2.7,2.7,0,0,1-2.06.7A5.72,5.72,0,0,1,222.31,248.94Zm3.53-3.75V242.9a2,2,0,0,0-1.44-.69,1.3,1.3,0,0,0-1.09.55,2.66,2.66,0,0,0-.39,1.54c0,1.2.43,1.8,1.28,1.8A2.16,2.16,0,0,0,225.84,245.19Z"/><path class="cls-32" d="M229.11,249.12l.9-2-2.14-5.52H229l1.58,4.16,1.68-4.16h.95l-3,7.54Z"/><path class="cls-32" d="M195.28,259.61v-1a2,2,0,0,1-1.85,1.16,1.88,1.88,0,0,1-1.57-.73,3.14,3.14,0,0,1-.57-2,3.49,3.49,0,0,1,.65-2.22,2.14,2.14,0,0,1,3.34-.08v-3.14h1v8Zm0-4.21a2.35,2.35,0,0,0-1.48-.68,1.21,1.21,0,0,0-1.07.57,3,3,0,0,0-.37,1.63c0,1.29.42,1.94,1.28,1.94a2.24,2.24,0,0,0,1.64-.91Z"/><path class="cls-32" d="M198.28,253.08v-1h1v1Zm0,6.53v-5.52h1v5.52Z"/><path class="cls-32" d="M201.49,259.61v-4.77h-.79v-.75h.79v-.67c0-1.31.6-2,1.8-2a4.7,4.7,0,0,1,1.14.17v.8a3.6,3.6,0,0,0-1.08-.22.81.81,0,0,0-.68.24,1.54,1.54,0,0,0-.18.88v.77h1.38v.75h-1.38v4.77Z"/><path class="cls-32" d="M205.32,259.61v-4.77h-.79v-.75h.79v-.67c0-1.31.6-2,1.8-2a4.71,4.71,0,0,1,1.15.17v.8a3.71,3.71,0,0,0-1.09-.22.81.81,0,0,0-.68.24,1.54,1.54,0,0,0-.18.88v.77h1.39v.75h-1.39v4.77Z"/><path class="cls-32" d="M213,259.44a6.16,6.16,0,0,1-1.72.3,2.64,2.64,0,0,1-2-.81,2.94,2.94,0,0,1-.77-2.1,3.08,3.08,0,0,1,.68-2.06,2.19,2.19,0,0,1,1.74-.81,1.82,1.82,0,0,1,1.55.72,3.25,3.25,0,0,1,.55,2v.3h-3.48c.14,1.31.79,2,1.93,2a4.69,4.69,0,0,0,1.53-.34Zm-3.42-3.18H212c0-1-.38-1.54-1.15-1.54S209.68,255.23,209.59,256.26Z"/><path class="cls-32" d="M214.77,259.61v-5.52h1v1A1.89,1.89,0,0,1,217.5,254l.32,0v.94a1.38,1.38,0,0,0-.46-.09,1.86,1.86,0,0,0-1.59,1.13v3.64Z"/><path class="cls-32" d="M223.08,259.44a6.16,6.16,0,0,1-1.72.3,2.64,2.64,0,0,1-2-.81,2.93,2.93,0,0,1-.76-2.1,3,3,0,0,1,.68-2.06A2.16,2.16,0,0,1,221,254a1.82,1.82,0,0,1,1.55.72,3.25,3.25,0,0,1,.55,2v.3h-3.49c.15,1.31.79,2,1.93,2a4.64,4.64,0,0,0,1.53-.34Zm-3.41-3.18h2.43c0-1-.38-1.54-1.15-1.54S219.75,255.23,219.67,256.26Z"/><path class="cls-32" d="M224.84,259.61v-5.52h1v1a2.33,2.33,0,0,1,1.95-1.16,1.53,1.53,0,0,1,1.15.46,1.72,1.72,0,0,1,.42,1.22v4h-1V256a1.63,1.63,0,0,0-.18-.88.69.69,0,0,0-.6-.26,2.22,2.22,0,0,0-1.74,1.21v3.57Z"/><path class="cls-32" d="M235.15,259.45a6.16,6.16,0,0,1-1.68.29,2.39,2.39,0,0,1-1.86-.83,3,3,0,0,1-.74-2.09,2.87,2.87,0,0,1,.73-2.1,2.69,2.69,0,0,1,2-.76,6.74,6.74,0,0,1,1.45.18V255a5.46,5.46,0,0,0-1.39-.25,1.49,1.49,0,0,0-1.23.58,2.39,2.39,0,0,0-.46,1.54,2.35,2.35,0,0,0,.47,1.51,1.56,1.56,0,0,0,1.25.57,3.33,3.33,0,0,0,1.42-.35Z"/><path class="cls-32" d="M240.7,259.44a6.22,6.22,0,0,1-1.73.3,2.62,2.62,0,0,1-2-.81,2.94,2.94,0,0,1-.77-2.1,3.08,3.08,0,0,1,.68-2.06,2.16,2.16,0,0,1,1.74-.81,1.84,1.84,0,0,1,1.55.72,3.31,3.31,0,0,1,.54,2v.3h-3.49c.15,1.31.79,2,1.93,2a4.74,4.74,0,0,0,1.54-.34Zm-3.42-3.18h2.44c0-1-.39-1.54-1.15-1.54S237.37,255.23,237.28,256.26Z"/><path class="cls-33" d="M189.17,166.73s3.27,29.14,12.92,19.58,12.1-16.55,17.17-13.52S226.62,204,229.4,211s8.51,6.07,11,3.27,9.16-32.41,9.48-33.34"/><path class="cls-34" d="M235.19,205.65l4.39-.05a1.37,1.37,0,0,0,1.09-.64,2.59,2.59,0,0,0,.44-1.51l-.06-5.37-.05-5.37a5.76,5.76,0,0,1-2.37,1.15c-.74.14-1.35,0-1.59-.48a2.23,2.23,0,0,1,.34-1.9,11.23,11.23,0,0,1,1.67-2.26H231.4a11.23,11.23,0,0,1,1.67,2.26,2.23,2.23,0,0,1,.34,1.9c-.24.49-.85.62-1.59.48a5.76,5.76,0,0,1-2.37-1.15l0,5.37-.06,5.37a2.67,2.67,0,0,0,.44,1.51,1.37,1.37,0,0,0,1.09.64l4.39.05Z"/><path class="cls-35" d="M204.26,172.59l-.11,7.41a.93.93,0,0,1-.05.1,6.44,6.44,0,0,1-5.34,3.44,5.87,5.87,0,0,1-5.24-3.62l0-.08.12-7.33a2.71,2.71,0,0,0,.71.09,3.29,3.29,0,0,0,2.21-5.77l4.72.08a3.28,3.28,0,0,0,2,5.83,2.91,2.91,0,0,0,1-.15"/><line class="cls-36" x1="184.97" y1="214.48" x2="184.97" y2="167.35"/><path class="cls-24" d="M185,163.42a19.47,19.47,0,0,0,3.1,5.56l-3.1-1.12-3.1,1.12A19.71,19.71,0,0,0,185,163.42Z"/><path class="cls-32" d="M182.24,212.15h-3.58v.59h-.56v-.59h-.5c-1,0-1.48-.45-1.48-1.35a3.54,3.54,0,0,1,.12-.86h.6a3.15,3.15,0,0,0-.16.81.6.6,0,0,0,.18.51,1.15,1.15,0,0,0,.66.14h.58v-1h.56v1h3.58Z"/><path class="cls-32" d="M182.24,209.41H178.1v-.75h.77a1.39,1.39,0,0,1-.87-1.29,2.29,2.29,0,0,1,0-.25h.71a1.27,1.27,0,0,0-.07.35,1.4,1.4,0,0,0,.85,1.19h2.73Z"/><path class="cls-32" d="M182.11,203.18a4.63,4.63,0,0,1,.23,1.29,2,2,0,0,1-.61,1.5,2.22,2.22,0,0,1-1.58.57,2.29,2.29,0,0,1-1.54-.51,1.61,1.61,0,0,1-.61-1.3,1.37,1.37,0,0,1,.54-1.16,2.41,2.41,0,0,1,1.52-.41h.23v2.62c1-.11,1.47-.59,1.47-1.45a3.37,3.37,0,0,0-.25-1.15Zm-2.38,2.56v-1.83c-.78,0-1.16.29-1.16.87S179,205.68,179.73,205.74Z"/><path class="cls-32" d="M182.11,198.82a4.76,4.76,0,0,1,.23,1.3,2,2,0,0,1-.61,1.49,2.18,2.18,0,0,1-1.58.58,2.29,2.29,0,0,1-1.54-.51,1.61,1.61,0,0,1-.61-1.3,1.39,1.39,0,0,1,.54-1.17,2.48,2.48,0,0,1,1.52-.41h.23v2.61q1.47-.16,1.47-1.44a3.42,3.42,0,0,0-.25-1.16Zm-2.38,2.57v-1.83c-.78,0-1.16.29-1.16.86S179,201.32,179.73,201.39Z"/><path class="cls-32" d="M182.11,192a4.76,4.76,0,0,1,.23,1.3,2,2,0,0,1-.61,1.49,2.18,2.18,0,0,1-1.58.58,2.29,2.29,0,0,1-1.54-.51,1.61,1.61,0,0,1-.61-1.3,1.4,1.4,0,0,1,.54-1.17,2.48,2.48,0,0,1,1.52-.41h.23v2.61q1.47-.17,1.47-1.44a3.42,3.42,0,0,0-.25-1.16Zm-2.38,2.57v-1.83c-.78,0-1.16.29-1.16.86S179,194.49,179.73,194.56Z"/><path class="cls-32" d="M182.24,190.68H178.1v-.75h.77a1.75,1.75,0,0,1-.87-1.46,1.11,1.11,0,0,1,.35-.86,1.23,1.23,0,0,1,.91-.32h3V188h-2.73a1.12,1.12,0,0,0-.66.14.5.5,0,0,0-.2.44,1.67,1.67,0,0,0,.91,1.31h2.68Z"/><path class="cls-32" d="M182.11,182.79a4.63,4.63,0,0,1,.23,1.29,2,2,0,0,1-.61,1.5,2.22,2.22,0,0,1-1.58.57,2.29,2.29,0,0,1-1.54-.51,1.61,1.61,0,0,1-.61-1.3,1.37,1.37,0,0,1,.54-1.16,2.48,2.48,0,0,1,1.52-.41h.23v2.62c1-.11,1.47-.59,1.47-1.45a3.37,3.37,0,0,0-.25-1.15Zm-2.38,2.56v-1.83c-.78,0-1.16.29-1.16.87S179,185.29,179.73,185.35Z"/><path class="cls-32" d="M182.24,181.47H178.1v-.75h.77a1.41,1.41,0,0,1-.87-1.3,1.94,1.94,0,0,1,0-.24h.71a1.21,1.21,0,0,0-.07.34,1.4,1.4,0,0,0,.85,1.2h2.73Z"/><path class="cls-32" d="M183.62,178.26l-.65-.09a3.1,3.1,0,0,0,.3-1.29c0-.85-.44-1.27-1.34-1.27h-.66a1.45,1.45,0,0,1,.88,1.36,1.43,1.43,0,0,1-.55,1.19,2.23,2.23,0,0,1-1.46.44,2.34,2.34,0,0,1-1.54-.5,1.61,1.61,0,0,1-.6-1.3,1.53,1.53,0,0,1,.57-1.19h-.47v-.75h3a7.23,7.23,0,0,1,1.44.1,1.52,1.52,0,0,1,.77.38,2,2,0,0,1,.52,1.53A4.35,4.35,0,0,1,183.62,178.26Zm-2.82-2.65h-1.72a1.49,1.49,0,0,0-.51,1.08.94.94,0,0,0,.41.81,2,2,0,0,0,1.16.3c.9,0,1.34-.32,1.34-1A1.6,1.6,0,0,0,180.8,175.61Z"/><path class="cls-32" d="M183.75,173.16l-1.51-.67-4.14,1.6v-.82l3.11-1.18-3.11-1.27v-.71l5.65,2.26Z"/><line class="cls-36" x1="215.54" y1="187.28" x2="215.54" y2="207.59"/><path class="cls-24" d="M215.54,183.34a19.77,19.77,0,0,1-3.1,5.57l3.1-1.12,3.09,1.12A19.5,19.5,0,0,1,215.54,183.34Z"/><path class="cls-24" d="M215.54,211.52a19.77,19.77,0,0,0-3.1-5.57l3.1,1.12,3.09-1.12A19.5,19.5,0,0,0,215.54,211.52Z"/><line class="cls-37" x1="316.87" y1="72.15" x2="316.87" y2="76.01"/><path class="cls-24" d="M316.87,77.9a9.33,9.33,0,0,0-1.49-2.68l1.49.54,1.49-.54A9.58,9.58,0,0,0,316.87,77.9Z"/><line class="cls-37" x1="322.08" y1="72.15" x2="322.08" y2="76.01"/><path class="cls-24" d="M322.08,77.9a9.33,9.33,0,0,0-1.49-2.68l1.49.54,1.5-.54A9.36,9.36,0,0,0,322.08,77.9Z"/><line class="cls-37" x1="327.29" y1="72.15" x2="327.29" y2="76.01"/><path class="cls-24" d="M327.29,77.9a9.33,9.33,0,0,0-1.49-2.68l1.49.54,1.5-.54A9.6,9.6,0,0,0,327.29,77.9Z"/><line class="cls-37" x1="332.51" y1="72.15" x2="332.51" y2="76.01"/><path class="cls-24" d="M332.51,77.9a9.36,9.36,0,0,0-1.5-2.68l1.5.54,1.49-.54A9.33,9.33,0,0,0,332.51,77.9Z"/><path class="cls-24" d="M208.19,199.82v-.67l2-4.66H211l2,4.66v.67Zm.65-.67h3.34l-1.66-3.83Z"/><path class="cls-38" d="M55.35,62.11H36.61a10.48,10.48,0,1,1,0-21H55.35a10.48,10.48,0,0,1,0,21"/><path class="cls-39" d="M55.35,62.11H36.61a10.48,10.48,0,1,1,0-21H55.35a10.48,10.48,0,0,1,0,21Z"/><path class="cls-40" d="M55.35,62.11H36.61a10.48,10.48,0,1,1,0-21H55.35a10.48,10.48,0,0,1,0,21Z"/><path class="cls-19" d="M54.74,89.43H36a10.49,10.49,0,0,1,0-21H54.74a10.49,10.49,0,1,1,0,21"/><path class="cls-39" d="M54.74,89.43H36a10.49,10.49,0,0,1,0-21H54.74a10.49,10.49,0,1,1,0,21Z"/><path class="cls-40" d="M54.74,89.43H36a10.49,10.49,0,0,1,0-21H54.74a10.49,10.49,0,1,1,0,21Z"/><line class="cls-41" x1="22.66" y1="64.77" x2="68.1" y2="64.77"/><line class="cls-42" x1="51.14" y1="54.06" x2="58.74" y2="54.06"/><line class="cls-43" x1="51.14" y1="54.06" x2="58.74" y2="54.06"/><line class="cls-42" x1="46.1" y1="54.06" x2="51.14" y2="54.06"/><line class="cls-44" x1="46.1" y1="54.06" x2="51.14" y2="54.06"/><line class="cls-42" x1="38.06" y1="54.06" x2="46.1" y2="54.06"/><line class="cls-45" x1="38.06" y1="54.06" x2="46.1" y2="54.06"/><line class="cls-42" x1="33.34" y1="54.06" x2="38.06" y2="54.06"/><line class="cls-43" x1="33.34" y1="54.06" x2="38.06" y2="54.06"/><line class="cls-46" x1="38.06" y1="52.55" x2="38.06" y2="55.56"/><line class="cls-46" x1="46.1" y1="52.55" x2="46.1" y2="55.56"/><polyline class="cls-46" points="51.09 55.56 51.09 52.55 51.09 49.49 53.66 49.49"/><polygon class="cls-32" points="53.39 49.89 54.89 49.49 53.39 49.09 53.39 49.89"/><line class="cls-42" x1="51.14" y1="80.86" x2="58.74" y2="80.86"/><line class="cls-43" x1="51.14" y1="80.86" x2="58.74" y2="80.86"/><line class="cls-42" x1="46.1" y1="80.86" x2="51.14" y2="80.86"/><line class="cls-44" x1="46.1" y1="80.86" x2="51.14" y2="80.86"/><line class="cls-42" x1="38.06" y1="80.86" x2="46.1" y2="80.86"/><line class="cls-45" x1="38.06" y1="80.86" x2="46.1" y2="80.86"/><line class="cls-42" x1="33.34" y1="80.86" x2="38.06" y2="80.86"/><line class="cls-43" x1="33.34" y1="80.86" x2="38.06" y2="80.86"/><line class="cls-46" x1="38.06" y1="79.35" x2="38.06" y2="82.36"/><line class="cls-46" x1="46.1" y1="79.35" x2="46.1" y2="82.36"/><polyline class="cls-46" points="51.09 82.36 51.09 79.35 51.09 76.29 53.66 76.29"/><polygon class="cls-32" points="53.39 76.69 54.89 76.29 53.39 75.89 53.39 76.69"/><path class="cls-47" d="M39.58,77.9a2.73,2.73,0,0,1,.43-.58,2.13,2.13,0,0,1,.58-.3c.32-.07,3.6.18,3.66.2a4,4,0,0,1,.78.28,2,2,0,0,1,.44.52,5,5,0,0,1,.25,1.26c-.06.07-.45-.12-.54-.13s-.4,0-.52-.1-.14-.74-.27-.81a.76.76,0,0,0-.42,0,.82.82,0,0,0-.37.24c-.08.11.35.74.28.78a.26.26,0,0,1-.26,0,4.93,4.93,0,0,0-.69-.34,5.81,5.81,0,0,0-1.39-.09,8.21,8.21,0,0,0-2,.43c-.11,0-.12-.35-.14-.47a4.79,4.79,0,0,1,.18-1"/><path class="cls-48" d="M39.58,77.9a2.73,2.73,0,0,1,.43-.58,2.13,2.13,0,0,1,.58-.3c.32-.07,3.6.18,3.66.2a4,4,0,0,1,.78.28,2,2,0,0,1,.44.52,5.49,5.49,0,0,1,.25,1.26c-.06.07-.45-.12-.54-.13s-.4,0-.52-.1-.14-.74-.27-.81a.76.76,0,0,0-.42,0,.91.91,0,0,0-.37.24c-.08.11.35.74.28.78a.26.26,0,0,1-.26,0,4.93,4.93,0,0,0-.69-.34,5.81,5.81,0,0,0-1.39-.09,8.21,8.21,0,0,0-2,.43c-.11,0-.12-.35-.14-.47A4.79,4.79,0,0,1,39.58,77.9Z"/><path class="cls-47" d="M39.22,79.11a2.75,2.75,0,0,1,.39-.21,2.71,2.71,0,0,1,.65.06c.07.05,0,.41.08.49a1.54,1.54,0,0,0,.25.32c.07.06,2.42.32,2.5.3a1.1,1.1,0,0,0,.32-.29.67.67,0,0,0,.11-.18c0-.09,0-.28,0-.36a.51.51,0,0,1,.15-.23,1.46,1.46,0,0,1,.59-.09c.07,0,.81,0,.88,0a.86.86,0,0,1,.28.11,1.18,1.18,0,0,1,.25.19,3.36,3.36,0,0,1,.3.6c0,.1.09.3.13.4a2.7,2.7,0,0,1,.17.54c-.05.09-.28.16-.38.19a5.9,5.9,0,0,1-.6.17,14.37,14.37,0,0,1-4.1.55,3.73,3.73,0,0,1-1.06-.7c-.05,0-.87-.89-.9-1a2.77,2.77,0,0,1,0-.86"/><path class="cls-48" d="M39.22,79.11a2.75,2.75,0,0,1,.39-.21,2.71,2.71,0,0,1,.65.06c.07.05,0,.41.08.49a1.54,1.54,0,0,0,.25.32c.07.06,2.42.32,2.5.3a1.1,1.1,0,0,0,.32-.29.67.67,0,0,0,.11-.18c0-.09,0-.28,0-.36a.51.51,0,0,1,.15-.23,1.46,1.46,0,0,1,.59-.09c.07,0,.81,0,.88,0a.86.86,0,0,1,.28.11,1.18,1.18,0,0,1,.25.19,3.36,3.36,0,0,1,.3.6c0,.1.09.3.13.4a2.7,2.7,0,0,1,.17.54c-.05.09-.28.16-.38.19a5.9,5.9,0,0,1-.6.17,14.37,14.37,0,0,1-4.1.55,3.73,3.73,0,0,1-1.06-.7c-.05,0-.87-.89-.9-1A2.77,2.77,0,0,1,39.22,79.11Z"/><path class="cls-47" d="M31.49,47.74a2.13,2.13,0,0,1,.18-.7,2,2,0,0,1,.41-.5c.27-.19,3.4-1.23,3.46-1.23a3.91,3.91,0,0,1,.82,0,1.85,1.85,0,0,1,.61.31,5.1,5.1,0,0,1,.72,1.06c0,.09-.46.06-.56.09s-.36.15-.5.11-.43-.63-.58-.65a.81.81,0,0,0-.36.2,1,1,0,0,0-.26.37c0,.13.62.55.57.61a.27.27,0,0,1-.22.15,5.51,5.51,0,0,0-.77-.05,6.64,6.64,0,0,0-1.32.45A7.51,7.51,0,0,0,32,49.1c-.12,0-.25-.28-.31-.39a4.75,4.75,0,0,1-.21-1"/><path class="cls-48" d="M31.49,47.74a2.13,2.13,0,0,1,.18-.7,2,2,0,0,1,.41-.5c.27-.19,3.4-1.23,3.46-1.23a3.91,3.91,0,0,1,.82,0,1.85,1.85,0,0,1,.61.31,5.1,5.1,0,0,1,.72,1.06c0,.09-.46.06-.56.09s-.36.15-.5.11-.43-.63-.58-.65a.81.81,0,0,0-.36.2,1,1,0,0,0-.26.37c0,.13.62.55.57.61a.27.27,0,0,1-.22.15,5.51,5.51,0,0,0-.77-.05,6.64,6.64,0,0,0-1.32.45A7.51,7.51,0,0,0,32,49.1c-.12,0-.25-.28-.31-.39A4.75,4.75,0,0,1,31.49,47.74Z"/><path class="cls-47" d="M31.62,49a3.55,3.55,0,0,1,.28-.34,2.56,2.56,0,0,1,.63-.2c.08,0,.19.36.26.42a1.55,1.55,0,0,0,.35.21,22.33,22.33,0,0,0,2.42-.7,1,1,0,0,0,.19-.38.78.78,0,0,0,0-.22c0-.09-.13-.24-.14-.33a.5.5,0,0,1,0-.27,1.55,1.55,0,0,1,.51-.31c.06,0,.73-.34.81-.36h.3a1,1,0,0,1,.3.08,2.64,2.64,0,0,1,.51.44c.07.07.2.24.27.31a2.21,2.21,0,0,1,.37.44c0,.1-.2.25-.27.32s-.37.29-.49.39a14.74,14.74,0,0,1-3.58,2.09,3.58,3.58,0,0,1-1.24-.24c-.07,0-1.15-.48-1.22-.55a3.3,3.3,0,0,1-.34-.8"/><path class="cls-48" d="M31.62,49a3.55,3.55,0,0,1,.28-.34,2.56,2.56,0,0,1,.63-.2c.08,0,.19.36.26.42a1.55,1.55,0,0,0,.35.21,22.33,22.33,0,0,0,2.42-.7,1,1,0,0,0,.19-.38.78.78,0,0,0,0-.22c0-.09-.13-.24-.14-.33a.5.5,0,0,1,0-.27,1.55,1.55,0,0,1,.51-.31c.06,0,.73-.34.81-.36h.3a1,1,0,0,1,.3.08,2.64,2.64,0,0,1,.51.44c.07.07.2.24.27.31a2.21,2.21,0,0,1,.37.44c0,.1-.2.25-.27.32s-.37.29-.49.39a14.74,14.74,0,0,1-3.58,2.09,3.58,3.58,0,0,1-1.24-.24c-.07,0-1.15-.48-1.22-.55A3.3,3.3,0,0,1,31.62,49Z"/><path class="cls-49" d="M48.61,52.28l1.49,0a.48.48,0,0,0,.37-.21.88.88,0,0,0,.14-.52V49.71l0-1.82a2,2,0,0,1-.81.39c-.25,0-.46,0-.54-.16a.82.82,0,0,1,.12-.65,3.55,3.55,0,0,1,.57-.77h-2.6a3.92,3.92,0,0,1,.57.77.77.77,0,0,1,.11.65c-.08.16-.29.21-.54.16a2,2,0,0,1-.8-.39l0,1.82,0,1.82a1,1,0,0,0,.15.52.48.48,0,0,0,.37.21l1.49,0Z"/><path class="cls-50" d="M48.61,52.28l1.49,0a.48.48,0,0,0,.37-.21.88.88,0,0,0,.14-.52V49.71l0-1.82a2,2,0,0,1-.81.39c-.25,0-.46,0-.54-.16a.82.82,0,0,1,.12-.65,3.55,3.55,0,0,1,.57-.77h-2.6a3.92,3.92,0,0,1,.57.77.77.77,0,0,1,.11.65c-.08.16-.29.21-.54.16a2,2,0,0,1-.8-.39l0,1.82,0,1.82a1,1,0,0,0,.15.52.48.48,0,0,0,.37.21l1.49,0Z"/></svg>