<?xml version="1.0" encoding="utf-8"?>
<!-- Generator: Adobe Illustrator 23.0.4, SVG Export Plug-In . SVG Version: 6.00 Build 0)  -->
<svg version="1.1" id="Layer_1" xmlns="http://www.w3.org/2000/svg" xmlns:xlink="http://www.w3.org/1999/xlink" x="0px" y="0px"
	 viewBox="0 0 468 288" style="enable-background:new 0 0 468 288;" xml:space="preserve">
<style type="text/css">
	.st0{fill:#D1D3D4;stroke:#D37F7D;stroke-width:3.577;stroke-linecap:round;stroke-miterlimit:10;}
	.st1{fill:#85A5D2;stroke:#55535A;stroke-width:0.4471;stroke-miterlimit:10;}
	.st2{fill:none;stroke:#AE4A3D;stroke-width:5.3495;stroke-linecap:round;stroke-linejoin:round;stroke-miterlimit:10;}
	.st3{fill:none;stroke:#EAADAD;stroke-width:4.2796;stroke-linecap:round;stroke-linejoin:round;stroke-miterlimit:10;}
	.st4{fill:#FFFFFF;}
	.st5{fill:#D37F7D;}
	.st6{fill:none;stroke:#55535A;stroke-width:5.3495;stroke-linecap:round;stroke-linejoin:round;stroke-miterlimit:10;}
	.st7{fill:#F1F2F2;stroke:#55535A;stroke-width:0.4471;stroke-miterlimit:10;}
	.st8{fill:#6D6E71;}
	.st9{opacity:0;fill:none;stroke:#010101;stroke-width:1.082297e-06;stroke-miterlimit:10;}
	.st10{fill:none;stroke:#55535A;stroke-width:3.577;stroke-linecap:round;stroke-miterlimit:10;}
	.st11{fill:none;stroke:#C5AED4;stroke-width:2.0418;stroke-linecap:round;stroke-miterlimit:10;}
	.st12{fill:none;stroke:#55535A;stroke-width:33.0872;stroke-linecap:round;stroke-miterlimit:10;}
	.st13{fill:none;stroke:#DCCAE3;stroke-width:30.6269;stroke-linecap:round;stroke-miterlimit:10;}
	.st14{fill:none;stroke:#55535A;stroke-width:3.577;stroke-miterlimit:10;}
	.st15{fill:none;stroke:#C5AED4;stroke-width:2.0425;stroke-linecap:square;stroke-miterlimit:10;}
	.st16{fill:#FFFFFF;stroke:#55535A;stroke-width:0.8942;stroke-miterlimit:10;}
	.st17{fill:none;}
	.st18{fill:none;stroke:#AE4A3D;stroke-width:3.8377;stroke-linecap:round;stroke-miterlimit:10;}
	.st19{fill:none;stroke:#D37F7D;stroke-width:1.9188;stroke-linecap:round;stroke-miterlimit:10;}
	.st20{fill:#AE4A3D;}
	.st21{fill:#B193C4;}
	.st22{fill:none;stroke:#55535A;stroke-width:0.4471;stroke-miterlimit:10;}
	.st23{fill:#DCCAE3;fill-opacity:0.41;stroke:#77BBE7;stroke-width:0.6396;stroke-linecap:round;stroke-miterlimit:10;}
	.st24{fill:#F2C691;stroke:#55535A;stroke-width:0.5672;stroke-miterlimit:10;}
	.st25{fill:#EAA954;}
	.st26{fill:#BFD598;stroke:#55535A;stroke-width:0.4471;stroke-miterlimit:10;}
	.st27{fill:#7A993D;stroke:#55535A;stroke-width:0.4471;stroke-miterlimit:10;}
	.st28{fill:#7A993D;}
	.st29{fill:#F1F2F2;}
	.st30{fill:none;stroke:#FFFFFF;stroke-width:1.7885;stroke-linecap:round;stroke-miterlimit:10;}
	.st31{fill:#D37F7D;stroke:#AE4A3D;stroke-width:0.2377;stroke-linecap:round;stroke-miterlimit:10;}
	.st32{fill:none;stroke:#FFFFFF;stroke-width:1.7885;stroke-miterlimit:10;}
	.st33{fill:none;stroke:#F89532;stroke-width:0.8942;stroke-miterlimit:10;}
	.st34{fill:#F89532;}
	.st35{fill:#B193C4;stroke:#55535A;stroke-width:0.4471;stroke-miterlimit:10;}
	.st36{fill:#9270B1;}
	.st37{fill:#C2D2EA;stroke:#4F76BA;stroke-width:0.4471;stroke-miterlimit:10;}
	.st38{fill:#7D98CE;}
	.st39{fill:#DCCAE3;stroke:#77BBE7;stroke-width:0.6396;stroke-linecap:round;stroke-miterlimit:10;}
	.st40{fill:none;stroke:#7A993D;stroke-width:0.8942;stroke-miterlimit:10;}
	.st41{fill:none;stroke:#7D98CE;stroke-width:0.8942;stroke-linecap:round;stroke-miterlimit:10;}
	.st42{fill:none;stroke:#9270B1;stroke-width:0.8942;stroke-linecap:round;stroke-miterlimit:10;}
	.st43{fill:none;stroke:#D37F7D;stroke-width:0.8942;stroke-linecap:round;stroke-miterlimit:10;}
	.st44{fill:none;stroke:#6D6E71;stroke-width:1.3414;stroke-miterlimit:10;}
	.st45{fill:#C2D2EA;stroke:#55535A;stroke-width:0.4471;stroke-miterlimit:10;}
	.st46{fill:#85A5D2;}
</style>
<path class="st0" d="M229.4,52.1"/>
<path class="st1" d="M401.7,41.7c-1.1,0-2.1,0.6-3.2,0.5c-0.5,0-1-0.2-1.5-0.3c-1.2-0.1-2.4,0.7-2.8,1.9c-0.2,0.6-0.2,1.4-0.5,2
	c-0.5,0.9-1.6,1.3-2.3,2.2c-0.8,1-0.7,2.6,0,3.6c0.8,1.1,2.1,1.6,3.4,1.7c1.9,0.2,3.8-0.7,5.4-1.9s2.7-2.8,3.7-4.4
	c0.8-1.2,1.4-2,0.7-3.3C404,42.5,402.9,41.7,401.7,41.7z"/>
<path class="st1" d="M434.7,53.3c-1,0.3-1.9,1.1-3,1.3c-0.5,0.1-1,0-1.6,0.1c-1.2,0.2-2.2,1.3-2.2,2.5c0,0.7,0.2,1.4,0,2
	c-0.2,1-1.2,1.7-1.7,2.7c-0.5,1.2-0.1,2.7,0.9,3.5c1,0.8,2.4,1.1,3.7,0.9c1.9-0.3,3.6-1.6,4.7-3.1c1.2-1.6,1.9-3.4,2.5-5.2
	c0.4-1.4,0.9-2.3-0.1-3.4C437.3,53.5,436,52.9,434.7,53.3z"/>
<path class="st1" d="M367.3,64.9c1.1,0.2,2.2-0.2,3.2,0c0.5,0.1,1,0.4,1.5,0.5c1.2,0.3,2.5-0.3,3.1-1.4c0.3-0.6,0.4-1.3,0.8-1.9
	c0.6-0.9,1.8-1.1,2.6-1.8c1-0.9,1.1-2.4,0.6-3.6c-0.6-1.2-1.8-2-3-2.3c-1.9-0.5-3.9,0-5.6,1c-1.7,1-3.1,2.3-4.4,3.8
	c-0.9,1.1-1.7,1.7-1.3,3.2C365.1,63.7,366,64.7,367.3,64.9z"/>
<g>
	<g>
		<polyline class="st2" points="367.9,66.6 371.7,57.7 380.8,61.7 385.1,51.8 393.7,55.5 397.9,45.8 406.5,49.5 		"/>
		<polyline class="st3" points="367.9,66.6 371.7,57.7 380.8,61.7 385.1,51.8 393.7,55.5 397.9,45.8 406.5,49.5 		"/>
	</g>
	<g>
		<path class="st4" d="M399.5,61.4l2.8-5.4l-2,5.8c-0.1,0.2-0.3,0.4-0.6,0.3C399.6,62,399.4,61.7,399.5,61.4
			C399.5,61.5,399.5,61.4,399.5,61.4z"/>
	</g>
	<path class="st5" d="M381.6,63.7l0.2-0.1l0.4-0.3l0.4-0.5l0.4-0.7l0.6-1.4l1-2.3l1-2.4l0.6-1.5c0,0-0.3-0.6-0.5-0.3
		c-0.2,0.3-0.2,0.3-0.2,0.3L381.6,63.7z"/>
	<path class="st5" d="M368.6,68.6l0.2-0.1l0.4-0.3l0.4-0.5L370,67l0.6-1.4l1-2.3l1-2.4l0.2-0.4c0,0-0.1-0.5-0.3-0.2
		s-0.5,0.9-0.5,0.9L368.6,68.6z"/>
	<path class="st5" d="M394.5,57.5l0.2-0.1l0.4-0.3l0.4-0.5l0.4-0.7l0.6-1.4l1-2.3l1-2.4l0.5-1.1c0,0-0.1-0.8-0.3-0.5
		c-0.2,0.3-0.3,0.5-0.3,0.5L394.5,57.5z"/>
	<path class="st4" d="M384.2,49.8c0,0-0.3,0.1-0.4,0.2c-0.2,0.1-0.4,0.4-0.5,0.6c-0.1,0.1-0.2,0.4-0.3,0.6c-0.8,1.9-3.3,7.6-3.3,7.6
		s-0.1-0.1,0,0C379.8,58.9,384.2,49.8,384.2,49.8z"/>
	<path class="st4" d="M397.2,43.8c0,0-0.4,0.2-0.5,0.2c-0.2,0.1-0.4,0.5-0.5,0.6c-0.1,0.1-0.3,0.5-0.4,0.7c-0.8,1.9-3.2,7.4-3.2,7.4
		s-0.1-0.1,0,0C392.8,52.8,397.2,43.8,397.2,43.8z"/>
	<path class="st4" d="M366.2,68l-0.3-0.5l-0.1-0.2l-0.1-0.4l0-0.5l0.1-0.5l0.1-0.3l4-9.1l0.5-0.5l0.4-0.2c0,0,1.6-0.3,1.2-0.2
		c-1.2,0.2-1.8,1.7-1.8,1.7c-0.1,0.2-0.2,0.4-0.3,0.6l-3.2,6.8c-0.3,0.7-0.5,1.1-0.6,1.9C366.1,66.5,366,66.8,366.2,68z"/>
</g>
<g>
	<g>
		<polyline class="st6" points="413.3,55.2 413.7,64.6 403.2,65.1 403.7,74.5 		"/>
		<polyline class="st3" points="413.3,55.2 413.7,64.6 403.2,65.1 403.7,74.5 		"/>
	</g>
	<g>
		<path class="st4" d="M417.3,73l-6.1-0.2l6.1-0.7c0.2,0,0.5,0.1,0.5,0.4S417.6,73,417.3,73C417.3,73,417.3,73,417.3,73z"/>
	</g>
	<path class="st5" d="M415.4,66l-0.2,0.2l-0.4,0.3l-0.6,0.2l-0.8,0.1l-1.5,0.1l-2.5,0.2l-2.6,0.1l-1.2,0c0,0-0.7-0.4-0.3-0.4
		s0.5-0.1,0.5-0.1L415.4,66z"/>
	<path class="st4" d="M401.6,63.7c0,0,0.3-0.4,0.4-0.4c0.2-0.1,0.6-0.2,0.8-0.3c0.2,0,0.6-0.1,0.8-0.1c2.1-0.1,8-0.4,8-0.4
		s0-0.2,0,0C411.6,62.7,401.6,63.7,401.6,63.7z"/>
	<g>
		<g>
			<polyline class="st6" points="444.5,50.6 434.8,51 435.2,61 424.5,61.5 			"/>
			<polyline class="st3" points="444.5,50.6 434.8,51 435.2,61 424.5,61.5 			"/>
		</g>
		<path class="st5" d="M436.9,62.4l-0.2,0.2l-0.4,0.3l-0.6,0.2l-0.8,0.1l-1.5,0.1l-2.5,0.2l-2.6,0.1l-1.6,0c0,0-0.5-0.5-0.1-0.5
			s0.4-0.1,0.4-0.1L436.9,62.4z"/>
		<path class="st5" d="M446.1,52l-0.2,0.2l-0.4,0.3l-0.6,0.2l-0.8,0.1l-1.5,0.1l-2.5,0.2l-2.6,0.1l-0.4,0c0,0-0.5-0.3-0.1-0.3
			c0.4-0.1,1-0.1,1-0.1L446.1,52z"/>
		<path class="st4" d="M423,59.9c0,0,0.2-0.3,0.3-0.3c0.2-0.1,0.5-0.2,0.7-0.2c0.2,0,0.5,0,0.7,0c2.1-0.1,8.3-0.4,8.3-0.4s0-0.2,0,0
			C433,59.1,423,59.9,423,59.9z"/>
		<path class="st4" d="M446.3,49.5l-0.3-0.4l-0.2-0.2l-0.3-0.2l-0.5-0.2l-0.5-0.1l-0.3,0l-10,0.5l-0.7,0.3l-0.3,0.3
			c0,0-0.9,1.4-0.7,1.1c0.6-1.1,2.2-1.1,2.2-1.1c0.2,0,0.5-0.1,0.7-0.1l7.5-0.6c0.8,0,1.2-0.1,1.9,0.1
			C445,48.9,445.3,48.9,446.3,49.5z"/>
	</g>
</g>
<g>
	<g>
		<path class="st4" d="M401.2,95.4l4.6-4l-4,4.6c-0.2,0.2-0.4,0.2-0.6,0C401,95.9,401,95.6,401.2,95.4
			C401.2,95.4,401.2,95.4,401.2,95.4z"/>
	</g>
	<g>
		<g>
			<line class="st4" x1="383" y1="95.7" x2="386.1" y2="85.4"/>
			<line class="st6" x1="383" y1="95.7" x2="386.1" y2="85.4"/>
			<line class="st3" x1="383" y1="95.7" x2="386.1" y2="85.4"/>
		</g>
		<path class="st5" d="M384,97.7l0.2-0.1l0.4-0.3l0.3-0.5l0.3-0.8l0.4-1.5l0.7-2.4l0.7-2.5l0.4-1.5c0,0-0.3-0.6-0.5-0.2
			c-0.2,0.4-0.2,0.4-0.2,0.4L384,97.7z"/>
		<path class="st4" d="M384.9,83.6c0,0-0.3,0.2-0.4,0.3c-0.1,0.1-0.3,0.5-0.4,0.7c-0.1,0.1-0.2,0.5-0.2,0.6c-0.6,2-2.3,8-2.3,8
			s-0.1-0.1,0,0S384.9,83.6,384.9,83.6z"/>
	</g>
	<g>
		<g>
			<line class="st4" x1="396.8" y1="84.3" x2="392.7" y2="74.6"/>
			<line class="st6" x1="396.8" y1="84.3" x2="392.7" y2="74.6"/>
			<line class="st3" x1="396.8" y1="84.3" x2="392.7" y2="74.6"/>
		</g>
		<path class="st5" d="M398.8,85.1l0.1-0.2l0.1-0.5l-0.1-0.6l-0.3-0.8l-0.6-1.4l-0.9-2.3l-1-2.4l-0.5-1.1c0,0-0.7-0.5-0.5-0.1
			c0.1,0.4,0.2,0.5,0.2,0.5L398.8,85.1z"/>
		<path class="st4" d="M390.7,73.7c0,0-0.2,0.4-0.2,0.5c0,0.2,0.1,0.6,0.1,0.8c0,0.2,0.2,0.6,0.2,0.7c0.8,1.9,3.1,7.4,3.1,7.4
			s-0.2,0,0,0S390.7,73.7,390.7,73.7z"/>
	</g>
	<g>
		<g>
			<line class="st4" x1="415.8" y1="86.2" x2="405.9" y2="82.7"/>
			<line class="st6" x1="415.8" y1="86.2" x2="405.9" y2="82.7"/>
			<line class="st3" x1="415.8" y1="86.2" x2="405.9" y2="82.7"/>
		</g>
		<path class="st5" d="M417.8,85.3l-0.1-0.2l-0.3-0.4l-0.5-0.4L416,84l-1.5-0.5l-2.3-0.9l-2.5-0.9l-1.2-0.4c0,0-0.8,0.2-0.5,0.3
			s0.5,0.2,0.5,0.2L417.8,85.3z"/>
		<path class="st4" d="M403.9,83.6c0,0,0.2,0.4,0.3,0.5c0.1,0.1,0.5,0.4,0.7,0.5c0.1,0.1,0.5,0.3,0.7,0.3c1.9,0.7,7.6,2.6,7.6,2.6
			s-0.1,0.1,0,0C413.2,87.4,403.9,83.6,403.9,83.6z"/>
	</g>
	<g>
		<g>
			<line class="st4" x1="366.3" y1="85.8" x2="373.1" y2="79"/>
			<line class="st6" x1="366.3" y1="85.8" x2="373.1" y2="79"/>
			<line class="st3" x1="366.3" y1="85.8" x2="373.1" y2="79"/>
		</g>
		<path class="st5" d="M366.2,88l0.2,0l0.5-0.1l0.6-0.3l0.6-0.6l1.1-1.1l1.8-1.7l1.9-1.8l0.3-0.3c0,0,0.1-0.5-0.2-0.3
			c-0.3,0.2-0.8,0.7-0.8,0.7L366.2,88z"/>
		<path class="st4" d="M364.2,86.5l-0.1-0.5v-0.2l0-0.4l0.2-0.5l0.3-0.4l0.2-0.2l7.1-7l0.6-0.3l0.4,0c0,0,1.6,0.3,1.2,0.2
			c-1.2-0.3-2.3,0.9-2.3,0.9c-0.2,0.1-0.4,0.3-0.5,0.5l-5.5,5.1c-0.6,0.6-0.8,0.8-1.2,1.5C364.7,85.1,364.4,85.3,364.2,86.5z"/>
	</g>
</g>
<g>
	<rect x="148.4" y="13.1" class="st7" width="169.8" height="20.5"/>
	<g>
		<path class="st8" d="M168.3,26.6c0.6,0.4,1.4,0.7,2.3,0.7c1.3,0,2.1-0.7,2.1-1.7c0-0.9-0.5-1.5-1.9-2c-1.7-0.6-2.7-1.5-2.7-2.9
			c0-1.6,1.3-2.8,3.3-2.8c1,0,1.8,0.2,2.2,0.5l-0.4,1.1c-0.3-0.2-1-0.5-1.9-0.5c-1.4,0-1.9,0.8-1.9,1.5c0,0.9,0.6,1.4,2,2
			c1.7,0.7,2.6,1.5,2.6,3c0,1.6-1.1,2.9-3.5,2.9c-1,0-2-0.3-2.6-0.7L168.3,26.6z"/>
		<path class="st8" d="M177.2,18v10.1h-1.3V18H177.2z"/>
		<path class="st8" d="M187.2,27.7c-0.6,0.2-1.8,0.6-3.1,0.6c-1.5,0-2.8-0.4-3.8-1.3c-0.9-0.8-1.4-2.2-1.4-3.8c0-3,2.1-5.2,5.5-5.2
			c1.2,0,2.1,0.3,2.5,0.5l-0.3,1.1c-0.5-0.3-1.2-0.4-2.2-0.4c-2.5,0-4.1,1.5-4.1,4.1c0,2.6,1.5,4.1,3.9,4.1c0.9,0,1.4-0.1,1.7-0.3
			v-3h-2v-1.1h3.3V27.7z"/>
		<path class="st8" d="M189.1,28.2V18h1.4l3.2,5.1c0.7,1.2,1.3,2.3,1.8,3.3l0,0c-0.1-1.4-0.1-2.6-0.1-4.2V18h1.2v10.1h-1.3l-3.2-5.1
			c-0.7-1.1-1.4-2.3-1.9-3.4l0,0c0.1,1.3,0.1,2.5,0.1,4.2v4.3H189.1z"/>
		<path class="st8" d="M200.7,25l-1.1,3.2h-1.4l3.5-10.1h1.6l3.5,10.1h-1.4l-1.1-3.2H200.7z M204,24l-1-2.9
			c-0.2-0.7-0.4-1.3-0.5-1.8h0c-0.2,0.6-0.3,1.2-0.5,1.8l-1,2.9H204z"/>
		<path class="st8" d="M208.2,18h1.3v9h4.3v1.1h-5.7V18z"/>
		<path class="st8" d="M219.9,18.2c0.6-0.1,1.5-0.2,2.5-0.2c1.3,0,2.2,0.3,2.8,0.8c0.5,0.5,0.9,1.2,0.9,2.1c0,0.9-0.3,1.6-0.8,2.2
			c-0.7,0.7-1.8,1.1-3.1,1.1c-0.4,0-0.8,0-1.1-0.1v4.1h-1.3V18.2z M221.2,23.1c0.3,0.1,0.6,0.1,1.1,0.1c1.6,0,2.5-0.8,2.5-2.1
			c0-1.4-1-2-2.4-2c-0.6,0-1,0-1.2,0.1V23.1z"/>
		<path class="st8" d="M227.9,18.2c0.7-0.1,1.6-0.2,2.5-0.2c1.4,0,2.3,0.3,2.9,0.8c0.5,0.5,0.8,1.1,0.8,1.9c0,1.3-0.8,2.2-1.9,2.6v0
			c0.8,0.3,1.2,1,1.5,2c0.3,1.4,0.6,2.4,0.8,2.8h-1.4c-0.2-0.3-0.4-1.2-0.7-2.4c-0.3-1.4-0.9-1.9-2-2h-1.2v4.4h-1.3V18.2z
			 M229.2,22.8h1.3c1.4,0,2.3-0.8,2.3-1.9c0-1.3-0.9-1.9-2.3-1.9c-0.6,0-1.1,0-1.3,0.1V22.8z"/>
		<path class="st8" d="M244.6,23c0,3.5-2.1,5.3-4.7,5.3c-2.7,0-4.6-2.1-4.6-5.2c0-3.2,2-5.3,4.7-5.3C242.8,17.9,244.6,20,244.6,23z
			 M236.8,23.2c0,2.2,1.2,4.1,3.2,4.1s3.2-1.9,3.2-4.2c0-2-1.1-4.1-3.2-4.1C237.8,18.9,236.8,20.9,236.8,23.2z"/>
		<path class="st8" d="M253.4,27.9c-0.5,0.2-1.4,0.5-2.7,0.5c-2.9,0-5-1.8-5-5.1c0-3.2,2.1-5.3,5.3-5.3c1.2,0,2.1,0.3,2.4,0.5
			l-0.3,1.1c-0.5-0.2-1.2-0.4-2-0.4c-2.4,0-4,1.5-4,4.2c0,2.5,1.4,4.1,3.9,4.1c0.8,0,1.6-0.2,2.1-0.4L253.4,27.9z"/>
		<path class="st8" d="M260.3,23.4h-3.9v3.7h4.4v1.1H255V18h5.5v1.1h-4.2v3.2h3.9V23.4z"/>
		<path class="st8" d="M262.3,26.6c0.6,0.4,1.4,0.7,2.3,0.7c1.3,0,2.1-0.7,2.1-1.7c0-0.9-0.5-1.5-1.9-2c-1.7-0.6-2.7-1.5-2.7-2.9
			c0-1.6,1.3-2.8,3.3-2.8c1,0,1.8,0.2,2.2,0.5l-0.4,1.1c-0.3-0.2-1-0.5-1.9-0.5c-1.4,0-1.9,0.8-1.9,1.5c0,0.9,0.6,1.4,2,2
			c1.7,0.7,2.6,1.5,2.6,3c0,1.6-1.1,2.9-3.5,2.9c-1,0-2-0.3-2.6-0.7L262.3,26.6z"/>
		<path class="st8" d="M269.7,26.6c0.6,0.4,1.4,0.7,2.3,0.7c1.3,0,2.1-0.7,2.1-1.7c0-0.9-0.5-1.5-1.9-2c-1.7-0.6-2.7-1.5-2.7-2.9
			c0-1.6,1.3-2.8,3.3-2.8c1,0,1.8,0.2,2.2,0.5l-0.4,1.1c-0.3-0.2-1-0.5-1.9-0.5c-1.4,0-1.9,0.8-1.9,1.5c0,0.9,0.6,1.4,2,2
			c1.7,0.7,2.6,1.5,2.6,3c0,1.6-1.1,2.9-3.5,2.9c-1,0-2-0.3-2.6-0.7L269.7,26.6z"/>
		<path class="st8" d="M278.6,18v10.1h-1.3V18H278.6z"/>
		<path class="st8" d="M280.8,28.2V18h1.4l3.2,5.1c0.7,1.2,1.3,2.3,1.8,3.3l0,0c-0.1-1.4-0.2-2.6-0.2-4.2V18h1.2v10.1h-1.3l-3.2-5.1
			c-0.7-1.1-1.4-2.3-1.9-3.4l0,0c0.1,1.3,0.1,2.5,0.1,4.2v4.3H280.8z"/>
		<path class="st8" d="M298.4,27.7c-0.6,0.2-1.8,0.6-3.1,0.6c-1.5,0-2.8-0.4-3.8-1.3c-0.9-0.8-1.4-2.2-1.4-3.8c0-3,2.1-5.2,5.5-5.2
			c1.2,0,2.1,0.3,2.5,0.5l-0.3,1.1c-0.5-0.3-1.2-0.4-2.2-0.4c-2.5,0-4.1,1.5-4.1,4.1c0,2.6,1.5,4.1,3.9,4.1c0.9,0,1.4-0.1,1.7-0.3
			v-3h-2v-1.1h3.3V27.7z"/>
	</g>
</g>
<g>
	<rect x="3.9" y="13.1" class="st7" width="124.5" height="20.5"/>
	<g>
		<path class="st8" d="M46.4,18v10.1h-1.3V18H46.4z"/>
		<path class="st8" d="M48.7,28.2V18h1.4l3.2,5.1c0.7,1.2,1.3,2.3,1.8,3.3l0,0c-0.1-1.4-0.1-2.6-0.1-4.2V18h1.2v10.1H55L51.8,23
			c-0.7-1.1-1.4-2.3-1.9-3.4l0,0c0.1,1.3,0.1,2.5,0.1,4.2v4.3H48.7z"/>
		<path class="st8" d="M58.6,18.2c0.6-0.1,1.5-0.2,2.5-0.2c1.3,0,2.2,0.3,2.8,0.8c0.5,0.5,0.9,1.2,0.9,2.1c0,0.9-0.3,1.6-0.8,2.2
			c-0.7,0.7-1.8,1.1-3.1,1.1c-0.4,0-0.8,0-1.1-0.1v4.1h-1.3V18.2z M59.9,23.1c0.3,0.1,0.6,0.1,1.1,0.1c1.6,0,2.5-0.8,2.5-2.1
			c0-1.4-1-2-2.4-2c-0.6,0-1,0-1.2,0.1V23.1z"/>
		<path class="st8" d="M67.9,18v6c0,2.3,1,3.2,2.4,3.2c1.5,0,2.5-1,2.5-3.2v-6H74V24c0,3.1-1.6,4.4-3.8,4.4c-2.1,0-3.6-1.2-3.6-4.3
			v-6H67.9z"/>
		<path class="st8" d="M78.2,19.2h-3.1V18h7.5v1.1h-3.1v9h-1.3V19.2z"/>
	</g>
</g>
<g>
	<rect x="337.6" y="13.1" class="st7" width="124.5" height="20.5"/>
	<g>
		<path class="st8" d="M383.8,23c0,3.5-2.1,5.3-4.7,5.3c-2.7,0-4.6-2.1-4.6-5.2c0-3.2,2-5.3,4.7-5.3C382,17.9,383.8,20,383.8,23z
			 M375.9,23.2c0,2.2,1.2,4.1,3.2,4.1s3.2-1.9,3.2-4.2c0-2-1.1-4.1-3.2-4.1C377,18.9,375.9,20.9,375.9,23.2z"/>
		<path class="st8" d="M386.8,18v6c0,2.3,1,3.2,2.4,3.2c1.5,0,2.5-1,2.5-3.2v-6h1.3V24c0,3.1-1.6,4.4-3.8,4.4
			c-2.1,0-3.6-1.2-3.6-4.3v-6H386.8z"/>
		<path class="st8" d="M397.2,19.2h-3.1V18h7.5v1.1h-3.1v9h-1.3V19.2z"/>
		<path class="st8" d="M402.7,18.2c0.6-0.1,1.5-0.2,2.5-0.2c1.3,0,2.2,0.3,2.8,0.8c0.5,0.5,0.9,1.2,0.9,2.1c0,0.9-0.3,1.6-0.8,2.2
			c-0.7,0.7-1.8,1.1-3.1,1.1c-0.4,0-0.8,0-1.1-0.1v4.1h-1.3V18.2z M404,23.1c0.3,0.1,0.6,0.1,1.1,0.1c1.6,0,2.5-0.8,2.5-2.1
			c0-1.4-1-2-2.4-2c-0.6,0-1,0-1.2,0.1V23.1z"/>
		<path class="st8" d="M412,18v6c0,2.3,1,3.2,2.4,3.2c1.5,0,2.5-1,2.5-3.2v-6h1.3V24c0,3.1-1.6,4.4-3.8,4.4c-2.1,0-3.6-1.2-3.6-4.3
			v-6H412z"/>
		<path class="st8" d="M422.3,19.2h-3.1V18h7.5v1.1h-3.1v9h-1.3V19.2z"/>
	</g>
</g>
<polygon class="st9" points="95.5,-34.8 95.5,-34.8 95.5,-34.8 95.5,-34.8 95.5,-34.8 95.5,-34.8 95.5,-34.8 95.5,-34.8 95.5,-34.8 
	95.5,-34.8 95.5,-34.8 95.5,-34.8 95.5,-34.8 95.5,-34.8 95.5,-34.8 95.5,-34.8 95.5,-34.8 95.5,-34.8 95.5,-34.8 95.5,-34.8 
	95.5,-34.8 95.5,-34.8 95.5,-34.8 95.5,-34.8 95.5,-34.8 95.5,-34.8 95.5,-34.8 95.5,-34.8 95.5,-34.8 95.5,-34.8 95.5,-34.8 
	95.5,-34.8 95.5,-34.8 95.5,-34.8 95.5,-34.8 95.5,-34.8 95.5,-34.8 95.5,-34.8 95.5,-34.8 95.5,-34.8 95.5,-34.8 95.5,-34.8 
	95.5,-34.8 95.5,-34.8 95.5,-34.8 95.5,-34.8 95.5,-34.8 95.5,-34.8 95.5,-34.8 95.5,-34.8 95.5,-34.8 95.5,-34.8 95.5,-34.8 
	95.5,-34.8 95.5,-34.8 95.5,-34.8 95.5,-34.8 95.5,-34.8 95.5,-34.8 95.5,-34.8 95.5,-34.8 95.5,-34.8 95.5,-34.8 95.5,-34.8 
	95.5,-34.8 95.5,-34.8 95.5,-34.8 95.5,-34.8 95.5,-34.8 95.5,-34.8 95.5,-34.8 95.5,-34.8 95.5,-34.8 95.5,-34.8 95.5,-34.8 
	95.5,-34.8 95.5,-34.8 95.5,-34.8 95.5,-34.8 95.5,-34.8 95.5,-34.8 95.5,-34.8 95.5,-34.8 95.5,-34.8 95.5,-34.8 95.5,-34.8 
	95.5,-34.8 95.5,-34.8 95.5,-34.8 95.5,-34.8 95.5,-34.8 95.5,-34.8 95.5,-34.8 95.5,-34.8 95.5,-34.8 95.5,-34.8 95.5,-34.8 
	95.5,-34.8 95.5,-34.8 95.5,-34.8 95.5,-34.8 95.5,-34.8 95.5,-34.8 95.5,-34.8 95.5,-34.8 95.5,-34.8 95.5,-34.8 95.5,-34.8 
	95.5,-34.8 95.5,-34.8 95.5,-34.8 95.5,-34.8 95.5,-34.8 95.5,-34.8 "/>
<g>
	<g>
		<g>
			<g>
				<g>
					<path class="st10" d="M234.7,116.7c-1.1,1.1-2.2,2.2-3.3,3.3"/>
					<path class="st11" d="M234.7,116.7c-1.1,1.1-2.2,2.2-3.3,3.3"/>
				</g>
				<g>
					<path class="st10" d="M229.2,122.2c-6.4,6.6-13.2,12.9-20.2,18.8c-3.9,3.3-8,6.5-13,7.4c-5,0.9-10.9-1.6-12.2-6.4"/>
					<path class="st11" d="M229.2,122.2c-6.4,6.6-13.2,12.9-20.2,18.8c-3.9,3.3-8,6.5-13,7.4c-5,0.9-10.9-1.6-12.2-6.4"/>
				</g>
				<g>
					<path class="st10" d="M250.2,158.2c-3.2,5.4,1.5,12.8,7.6,14.2s12.4-1.4,17.3-5.3c2.7-2.1,5.3-4.6,6.6-7.8
						c1.9-4.7,0.9-10.1-0.2-15c-0.6-2.7-8-9.8-10.4-10.7c-9.1-3.4-15-13.8-13.3-23.3c0.3-2,1-4,1.2-6.1c0.8-6.8-3.5-14-10-16.4
						c-6.5-2.4-14.4,0.3-18,6.2"/>
					<path class="st11" d="M250.2,158.2c-3.2,5.4,1.5,12.8,7.6,14.2s12.4-1.4,17.3-5.3c2.7-2.1,5.3-4.6,6.6-7.8
						c1.9-4.7,0.9-10.1-0.2-15c-0.6-2.7-8-9.8-10.4-10.7c-9.1-3.4-15-13.8-13.3-23.3c0.3-2,1-4,1.2-6.1c0.8-6.8-3.5-14-10-16.4
						c-6.5-2.4-14.4,0.3-18,6.2"/>
				</g>
				<g>
					<line class="st12" x1="251.1" y1="151.4" x2="208.9" y2="125.7"/>
					<line class="st13" x1="251.1" y1="151.4" x2="208.9" y2="125.7"/>
				</g>
				<g>
					<path class="st10" d="M258.9,152.6c1.3-1.1,2.9-1.4,4.5-1.3"/>
					<path class="st11" d="M258.9,152.6c1.3-1.1,2.9-1.4,4.5-1.3"/>
				</g>
				<g>
					<path class="st14" d="M263.4,151.3c2.7,0.2,5.6,1.9,7.7,3.8c3.3,3.1,6.3,7.2,10.7,8.2c6.1,1.4,12.4-4.7,12.1-11
						s-5.8-11.6-11.9-12.8c-4-0.8-8.5-0.2-12.1-2.2c-9.1-5-5.8-21-14.5-26.6c-3.9-2.5-9.2-1.9-13.4,0.3c-2.8,1.4-5.1,3.5-7.4,5.6"/>
					<path class="st15" d="M263.4,151.3c2.7,0.2,5.6,1.9,7.7,3.8c3.3,3.1,6.3,7.2,10.7,8.2c6.1,1.4,12.4-4.7,12.1-11
						s-5.8-11.6-11.9-12.8c-4-0.8-8.5-0.2-12.1-2.2c-9.1-5-5.8-21-14.5-26.6c-3.9-2.5-9.2-1.9-13.4,0.3c-2.8,1.4-5.1,3.5-7.4,5.6"/>
				</g>
			</g>
			<g>
				<path class="st16" d="M176.6,95.7c0.8,3.2,4,5.2,7.3,4.4c3.2-0.8,5.2-4,4.4-7.3c-0.8-3.2-4-5.2-7.3-4.4
					C177.8,89.2,175.8,92.4,176.6,95.7z"/>
				<path class="st16" d="M187.7,106.5c0.6,2.4,3,3.9,5.4,3.3c2.4-0.6,3.9-3,3.3-5.4c-0.6-2.4-3-3.9-5.4-3.3
					C188.6,101.6,187.1,104.1,187.7,106.5z"/>
				<path class="st16" d="M163.2,64.8c1.9,7.5,9,12.4,16.5,11.7l0,0.2c2.1,8.3,10.5,13.4,18.8,11.3c5.1-1.3,9-4.9,10.7-9.5
					c2.8,0.9,5.8,1.1,8.9,0.3c8.6-2.1,13.9-10.9,11.7-19.5c-2-8-9.7-13.2-17.8-12c-4-6.9-12.3-10.7-20.4-8.6
					c-4.4,1.1-8.1,3.7-10.5,7.2c-2.1-0.4-4.4-0.4-6.7,0.2C166.2,48.1,161.1,56.5,163.2,64.8z"/>
			</g>
		</g>
		<g>
			<path class="st4" d="M254.1,138.7l-13.5-7.9l-13.5-7.9l-13.6-7.7c-0.6-0.3-1.1-0.6-1.7-0.9c-0.5-0.2-1.1-0.4-1.7-0.6
				c-1.2-0.3-2.4-0.3-3.6-0.1c-2.4,0.4-4.7,1.7-6.5,3.5l-0.2-0.1c0.7-1.1,1.6-2.1,2.7-3c1.1-0.8,2.3-1.5,3.7-1.9
				c1.4-0.4,2.8-0.4,4.2-0.3c0.7,0.1,1.4,0.3,2.1,0.6c0.6,0.3,1.2,0.6,1.8,0.8c4.7,2.4,9.1,5.3,13.5,8.1l13.2,8.4l13.1,8.6
				L254.1,138.7z"/>
		</g>
		<g>
			<path class="st17" d="M259.6,156.4"/>
		</g>
		<g>
			<path class="st17" d="M247.9,160.3"/>
		</g>
		<g>
			<path class="st17" d="M205.4,135"/>
		</g>
		<g>
			<g>
				<line class="st5" x1="188.4" y1="64.3" x2="184.2" y2="51.7"/>
				<line class="st18" x1="188.4" y1="64.3" x2="184.2" y2="51.7"/>
				<line class="st19" x1="188.4" y1="64.3" x2="184.2" y2="51.7"/>
			</g>
			<g>
				<circle class="st20" cx="190.2" cy="69.1" r="2.5"/>
				<circle class="st5" cx="190.2" cy="69.1" r="1.9"/>
			</g>
		</g>
		<g>
			<g>
				<line class="st5" x1="196" y1="63.3" x2="195.7" y2="50"/>
				<line class="st18" x1="196" y1="63.3" x2="195.7" y2="50"/>
				<line class="st19" x1="196" y1="63.3" x2="195.7" y2="50"/>
			</g>
			<g>
				<circle class="st20" cx="196.4" cy="68.3" r="2.5"/>
				<circle class="st5" cx="196.4" cy="68.3" r="1.9"/>
			</g>
		</g>
		<g>
			<g>
				<line class="st5" x1="203.5" y1="64.8" x2="207.5" y2="52.1"/>
				<line class="st18" x1="203.5" y1="64.8" x2="207.5" y2="52.1"/>
				<line class="st19" x1="203.5" y1="64.8" x2="207.5" y2="52.1"/>
			</g>
			<g>
				<circle class="st20" cx="202.2" cy="69.7" r="2.5"/>
				<circle class="st5" cx="202.2" cy="69.7" r="1.9"/>
			</g>
		</g>
		<path class="st21" d="M264.7,158.1c0,0-9.4,12.8-55.2-14.4c-12.6-7.5,23.1,15.4,34.6,21.4c5.5,2.9,11.4,1.6,16.6-1.4
			C263.8,162,264.7,158.1,264.7,158.1z"/>
	</g>
	<g>
		<circle class="st22" cx="217.3" cy="132.5" r="8.5"/>
		<line class="st22" x1="209.3" y1="129.7" x2="174.7" y2="200.9"/>
		<line class="st22" x1="225.4" y1="130.3" x2="254.6" y2="201.7"/>
	</g>
	<circle class="st23" cx="214.4" cy="218.8" r="43.6"/>
	<g>
		<circle class="st24" cx="199.3" cy="194.9" r="5.8"/>
		<g>
			<path class="st25" d="M203.8,191.7c1,1.2,1.3,2.9,0.9,4.5c-0.2,0.8-0.6,1.6-1.1,2.2c-0.5,0.7-1.2,1.2-2,1.5
				c-0.8,0.3-1.6,0.5-2.5,0.5c-0.8,0-1.7-0.2-2.4-0.6c-1.5-0.7-2.6-2.1-2.8-3.6c1,1.2,2.1,2,3.3,2.3c1.2,0.4,2.5,0.3,3.6-0.2
				c1.1-0.5,2-1.4,2.6-2.6C203.9,194.6,204.1,193.2,203.8,191.7z"/>
		</g>
		<g>
			<path class="st4" d="M198.3,190.8c-0.5,0.1-1,0.4-1.4,0.6c-0.5,0.3-0.9,0.6-1.2,1c-0.4,0.4-0.6,0.9-0.8,1.4
				c-0.2,0.5-0.2,1.1-0.2,1.6c-0.1-0.5-0.2-1.1,0-1.7c0.1-0.6,0.3-1.1,0.7-1.6c0.3-0.5,0.7-0.9,1.2-1.3c0.5-0.4,0.9-0.7,1.5-0.9
				c0.2-0.1,0.5,0,0.6,0.2C198.7,190.4,198.6,190.7,198.3,190.8C198.4,190.8,198.4,190.8,198.3,190.8L198.3,190.8z"/>
		</g>
	</g>
	<g>
		<g>
			<path class="st26" d="M237.5,224.3c0,1.7-1.4,3-3,3c-1.2,0-2.3-0.8-2.8-1.8c0,0-0.1,0-0.1,0h-2.9c-2.1,0-3.8-1.5-4.3-3.4
				c-0.1-0.3-0.1-0.6-0.1-1v-2.9c0-0.1,0-0.3,0-0.4c-1-0.5-1.7-1.5-1.7-2.7c0-1.7,1.3-3,3-3c1.2,0,2.3,0.7,2.7,1.8
				c0.1,0,0.2,0,0.3,0h2.9c2.1,0,3.8,1.4,4.3,3.4c0.1,0.3,0.1,0.7,0.1,1v2.9c0,0.2,0,0.4,0,0.6C236.9,222.2,237.5,223.2,237.5,224.3
				z"/>
			<path class="st27" d="M237.3,214.6c0,1.1-0.5,2-1.4,2.5c-0.5-1.9-2.2-3.4-4.3-3.4h-0.3c0.4-1.3,1.5-2.2,2.9-2.2
				C235.9,211.6,237.3,213,237.3,214.6z"/>
			<path class="st27" d="M229,225.5c-0.4,1.2-1.5,2.1-2.9,2.1c-1.7,0-3-1.4-3-3c0-1,0.5-2,1.3-2.5c0.4,2,2.2,3.4,4.3,3.4H229z"/>
		</g>
		<g>
			<path class="st28" d="M236.8,223c0.5,0.5,0.6,1.4,0.4,2.1c-0.2,0.8-0.8,1.4-1.5,1.8c-0.7,0.3-1.6,0.4-2.3,0
				c-0.7-0.3-1.3-1-1.4-1.7c0.9,1.1,2.3,1.4,3.3,0.8C236.4,225.6,237.1,224.4,236.8,223z"/>
		</g>
		<g>
			<path class="st29" d="M224.2,216.8c-0.5-0.3-0.9-1-0.9-1.7c0-0.7,0.3-1.4,0.8-1.8c0.5-0.5,1.3-0.7,1.9-0.6
				c0.7,0.1,1.3,0.5,1.6,1.1c-1-0.7-2.2-0.6-3,0.1C223.9,214.6,223.7,215.7,224.2,216.8z"/>
		</g>
		<path class="st17" d="M224.2,216.6c0,0-0.4-3.3,3.1-2.7"/>
	</g>
	<path class="st30" d="M214.7,203.2"/>
	<path class="st31" d="M215,199.2"/>
	<path class="st32" d="M212.8,202"/>
	<path class="st4" d="M212.6,201.9"/>
	<g>
		<g>
			<path class="st33" d="M206.1,192.6c0,0,18.8-7.4,21.6,14.4"/>
			<g>
				<path class="st34" d="M228,210.5c-0.8-1.6-2-3.5-3.2-4.7l2.8,0.7l2.7-1.3C229.3,206.7,228.4,208.8,228,210.5z"/>
			</g>
		</g>
	</g>
	<path class="st35" d="M226.8,241.3h-5c-0.6,0-1.2,0.3-1.5,0.9l-2.5,4.4c-0.3,0.5-0.3,1.2,0,1.8l2.5,4.4c0.3,0.5,0.9,0.9,1.5,0.9h5
		c0.6,0,1.2-0.3,1.5-0.9l2.5-4.4c0.3-0.5,0.3-1.2,0-1.8l-2.5-4.4C228,241.6,227.4,241.3,226.8,241.3z"/>
	<g>
		<path class="st4" d="M221.8,251.6c-1-1.3-1.8-2.6-2.7-3.9l-0.1-0.2l0.1-0.2c0.7-1.4,1.5-2.7,2.3-4l0.1-0.2l0.2,0
			c1.4,0.1,2.8,0.2,4.3,0.4c-1.4,0.2-2.8,0.3-4.3,0.4l0.3-0.2c-0.7,1.4-1.5,2.7-2.3,4l0-0.4C220.5,248.7,221.2,250.1,221.8,251.6z"
			/>
	</g>
	<path class="st36" d="M224.4,252.9c0,0,1.9,0.1,2.5,0c0.1,0,0.4-0.1,0.5-0.2c0.3-0.3,0.9-1.5,0.9-1.5l1.5-2.5c0,0,0.5-0.8,0.6-1.1
		c0-0.1,0-0.5,0-0.5l-1.4-2.5c0,0,1.1,2.4,0.5,3.3c0,0-1.4,3-2.1,3.8C226.4,252.7,224.4,252.9,224.4,252.9z"/>
	<g>
		<path class="st37" d="M192.7,219.2l8.6,3.9c2,0.9,2.9,3.2,2,5.2l-0.9,1.9c-0.8,1.8-2.9,2.7-4.8,2.1l-0.8,2l-5.9,0.8l-3.6-4.8
			l0.9-2.2c-1.7-1-2.4-3.2-1.6-5l0.9-1.9C188.4,219.2,190.7,218.3,192.7,219.2z"/>
		<g>
			<path class="st4" d="M188.2,222.5c0.2-1.1,0.9-2.2,2.1-2.5c0.6-0.1,1.2-0.2,1.7,0c0.3,0.1,0.5,0.2,0.8,0.3
				c0.2,0.1,0.5,0.3,0.7,0.4c-0.5-0.1-1.1-0.3-1.6-0.3c-0.5-0.1-1,0-1.5,0.1c-0.5,0.1-0.9,0.4-1.3,0.8
				C188.8,221.6,188.5,222,188.2,222.5z"/>
		</g>
		<polygon class="st38" points="191.1,234.6 197.1,232.4 196.5,233.9 		"/>
		<g>
			<path class="st4" d="M189.2,229c-0.2,0.3-0.3,0.6-0.5,0.9c-0.1,0.2-0.1,0.3-0.1,0.4c0,0.1,0.1,0.3,0.2,0.4
				c0.3,0.6,0.8,1.1,1.3,1.7c-0.5-0.5-1-1-1.5-1.5c-0.1-0.1-0.2-0.3-0.3-0.5c-0.1-0.2,0-0.4,0-0.6c0.1-0.4,0.2-0.7,0.4-1
				c0.1-0.1,0.2-0.2,0.3-0.1C189.2,228.7,189.3,228.9,189.2,229C189.2,229,189.2,229,189.2,229z"/>
		</g>
	</g>
	<path class="st39" d="M180.5,194.6"/>
	<g>
		<g>
			<path class="st40" d="M221.5,212.4c0,0-16.3-11.6-23.2,6.1"/>
			<g>
				
					<rect x="197.8" y="215.7" transform="matrix(0.38 -0.925 0.925 0.38 -79.2747 318.9126)" class="st28" width="0.9" height="5.8"/>
			</g>
		</g>
	</g>
	<g>
		<g>
			<path class="st41" d="M186.8,218c0,0-10.5-11.8,1.5-21"/>
			<g>
				<path class="st38" d="M191.2,195c-1,1.4-2.2,3.4-2.6,5.1l-0.7-2.9l-2.4-1.7C187.2,195.7,189.5,195.4,191.2,195z"/>
			</g>
		</g>
	</g>
	<g>
		<g>
			<path class="st41" d="M206.9,226.6c0,0,12.4,0.6,15.2,8.6"/>
			<g>
				<path class="st38" d="M222.7,238.7c-0.9-1.5-2.3-3.3-3.6-4.4l2.9,0.5l2.5-1.5C223.7,234.7,223,236.9,222.7,238.7z"/>
			</g>
		</g>
	</g>
	<g>
		<g>
			<path class="st42" d="M216.3,250.3c0,0-16.7-0.5-21.2-9.6"/>
			<g>
				<polygon class="st36" points="194.1,236.7 197.9,241.6 195.3,241 193.4,243 				"/>
			</g>
		</g>
	</g>
	<path class="st42" d="M257.6,245.7"/>
	<path class="st42" d="M251.9,240.7"/>
	<path class="st42" d="M231.8,242.7c3-1.9,11.9-6.5,19.9-2.2"/>
	<g>
		<path class="st17" d="M201.8,171.2"/>
	</g>
	<g>
		<g>
			<path class="st43" d="M203.8,188.1c1.1-1.4,5.2-6.9,3-12"/>
			<g>
				
					<rect x="203.4" y="185.2" transform="matrix(0.6246 -0.7809 0.7809 0.6246 -70.4003 229.7776)" class="st5" width="0.9" height="5.8"/>
			</g>
		</g>
	</g>
	<circle class="st22" cx="214.3" cy="218.9" r="43.6"/>
</g>
<g>
	<g>
		<path class="st44" d="M94.9,100.9c0,0,20.2,43.2,67.1,44.1"/>
		<g>
			<polygon class="st8" points="157.4,150.3 156.5,149.2 161.5,144.9 156.8,140.2 157.7,139.3 163.4,145 			"/>
		</g>
	</g>
</g>
<g>
	<g>
		<path class="st44" d="M297.2,139.6c0,0,46.4,4.6,65.5-38.2"/>
		<g>
			<polygon class="st8" points="365.8,107.8 364.5,108.2 362.5,101.9 356.3,104.4 355.8,103.1 363.3,100.1 			"/>
		</g>
	</g>
</g>
<g>
	<g>
		<polyline class="st4" points="35.6,85.7 42.4,78.8 49.4,85.9 57.1,78.2 63.7,84.9 71.2,77.4 77.8,84.1 		"/>
		<polyline class="st6" points="35.6,85.7 42.4,78.8 49.4,85.9 57.1,78.2 63.7,84.9 71.2,77.4 77.8,84.1 		"/>
		<polyline class="st3" points="35.6,85.7 42.4,78.8 49.4,85.9 57.1,78.2 63.7,84.9 71.2,77.4 77.8,84.1 		"/>
	</g>
	<g>
		<path class="st4" d="M66.9,92.5l4.6-4l-4,4.6c-0.2,0.2-0.4,0.2-0.6,0C66.7,93.1,66.7,92.8,66.9,92.5
			C66.9,92.6,66.9,92.5,66.9,92.5z"/>
	</g>
	<path class="st5" d="M49.4,88l0.2,0l0.5-0.1l0.6-0.3l0.6-0.6l1.1-1.1l1.8-1.7l1.9-1.8l1.1-1.2c0,0,0-0.7-0.3-0.4
		c-0.3,0.2-0.3,0.2-0.3,0.2L49.4,88z"/>
	<path class="st5" d="M35.5,87.8l0.2,0l0.5-0.1l0.6-0.3l0.6-0.6l1.1-1.1l1.8-1.7l1.9-1.8l0.3-0.3c0,0,0.1-0.5-0.2-0.3
		c-0.3,0.2-0.8,0.7-0.8,0.7L35.5,87.8z"/>
	<path class="st5" d="M63.7,87l0.2,0l0.5-0.1l0.6-0.3l0.6-0.6l1.1-1.1l1.8-1.7l1.9-1.8l0.9-0.9c0,0,0.2-0.8-0.1-0.5
		c-0.3,0.2-0.4,0.3-0.4,0.3L63.7,87z"/>
	<path class="st4" d="M56.9,76.1c0,0-0.4,0-0.5,0c-0.2,0.1-0.5,0.3-0.7,0.4c-0.1,0.1-0.4,0.3-0.5,0.5c-1.5,1.4-5.9,5.9-5.9,5.9
		s-0.1-0.1,0,0C49.5,82.9,56.9,76.1,56.9,76.1z"/>
	<path class="st4" d="M71.2,75.3c0,0-0.5,0-0.6,0c-0.2,0.1-0.6,0.3-0.7,0.4c-0.1,0.1-0.5,0.4-0.6,0.5c-1.5,1.4-5.7,5.7-5.7,5.7
		s-0.1-0.1,0,0C63.8,82,71.2,75.3,71.2,75.3z"/>
	<path class="st4" d="M33.5,86.3l-0.1-0.5v-0.2l0-0.4l0.2-0.5l0.3-0.4l0.2-0.2l7.1-7l0.6-0.3l0.4,0c0,0,1.6,0.3,1.2,0.2
		c-1.2-0.3-2.3,0.9-2.3,0.9c-0.2,0.1-0.4,0.3-0.5,0.5l-5.5,5.1c-0.6,0.6-0.8,0.8-1.2,1.5C34,84.9,33.7,85.2,33.5,86.3z"/>
</g>
<g>
	<g>
		<polyline class="st4" points="33.7,65.5 36.2,56.2 45.8,58.7 48.6,48.3 57.7,50.7 60.4,40.6 69.5,43 		"/>
		<polyline class="st6" points="33.7,65.5 36.2,56.2 45.8,58.7 48.6,48.3 57.7,50.7 60.4,40.6 69.5,43 		"/>
		<polyline class="st3" points="33.7,65.5 36.2,56.2 45.8,58.7 48.6,48.3 57.7,50.7 60.4,40.6 69.5,43 		"/>
	</g>
	<g>
		<path class="st4" d="M64.3,55.8l2-5.8l-1.1,6c0,0.2-0.3,0.4-0.5,0.4C64.4,56.3,64.2,56.1,64.3,55.8C64.3,55.8,64.3,55.8,64.3,55.8
			z"/>
	</g>
	<path class="st5" d="M46.9,60.7l0.2-0.1l0.3-0.3l0.3-0.5l0.3-0.8l0.4-1.5l0.7-2.4l0.7-2.5l0.4-1.6c0,0-0.3-0.6-0.5-0.2
		s-0.1,0.4-0.1,0.4L46.9,60.7z"/>
	<path class="st5" d="M34.7,67.4l0.2-0.1l0.3-0.3l0.3-0.5l0.3-0.8l0.4-1.5l0.7-2.4l0.7-2.5l0.1-0.4c0,0-0.2-0.5-0.3-0.1
		s-0.3,1-0.3,1L34.7,67.4z"/>
	<path class="st5" d="M58.8,52.6l0.2-0.1l0.3-0.3l0.3-0.5l0.3-0.8l0.4-1.5L61,47l0.7-2.5l0.3-1.2c0,0-0.2-0.8-0.4-0.4
		s-0.2,0.5-0.2,0.5L58.8,52.6z"/>
	<path class="st4" d="M47.4,46.5c0,0-0.3,0.2-0.4,0.3c-0.1,0.1-0.3,0.5-0.4,0.7c-0.1,0.2-0.1,0.5-0.2,0.6c-0.6,2-2.1,8-2.1,8
		s-0.2-0.1,0,0S47.4,46.5,47.4,46.5z"/>
	<path class="st4" d="M59.4,38.7c0,0-0.4,0.2-0.5,0.3c-0.1,0.1-0.3,0.5-0.4,0.7c-0.1,0.2-0.2,0.6-0.3,0.7c-0.6,2-2.1,7.8-2.1,7.8
		s-0.2-0.1,0,0S59.4,38.7,59.4,38.7z"/>
	<path class="st4" d="M32.2,67.2l-0.4-0.4l-0.1-0.2l-0.2-0.4l-0.1-0.5l0-0.5l0.1-0.3l2.6-9.6l0.4-0.6l0.3-0.2c0,0,1.6-0.5,1.2-0.4
		c-1.2,0.4-1.5,1.9-1.5,1.9c-0.1,0.2-0.2,0.5-0.2,0.7l-2.2,7.2c-0.2,0.8-0.3,1.1-0.3,1.9C31.9,65.7,31.9,66,32.2,67.2z"/>
</g>
<g>
	<g>
		<polyline class="st4" points="77.9,49.4 75.5,58.8 85.2,61.1 82.6,71.6 91.8,73.9 89.3,84.1 98.4,86.3 		"/>
		<polyline class="st6" points="77.9,49.4 75.5,58.8 85.2,61.1 82.6,71.6 91.8,73.9 89.3,84.1 98.4,86.3 		"/>
		<polyline class="st3" points="77.9,49.4 75.5,58.8 85.2,61.1 82.6,71.6 91.8,73.9 89.3,84.1 98.4,86.3 		"/>
	</g>
	<g>
		<path class="st4" d="M100.9,72.8L99,78.7l1-6c0-0.2,0.3-0.4,0.5-0.4S100.9,72.5,100.9,72.8C100.9,72.8,100.9,72.8,100.9,72.8z"/>
	</g>
	<path class="st5" d="M87.1,60l0.1,0.2l0.1,0.5l0,0.6l-0.2,0.8l-0.4,1.5L86.3,66l-0.6,2.5l-0.4,1.5c0,0-0.6,0.4-0.5,0s0-0.4,0-0.4
		L87.1,60z"/>
	<path class="st5" d="M79.7,48.2l0.1,0.2l0.1,0.5l0,0.6l-0.2,0.8l-0.4,1.5l-0.5,2.4l-0.6,2.5l-0.1,0.4c0,0-0.4,0.4-0.3,0
		c0-0.4,0.2-1,0.2-1L79.7,48.2z"/>
	<path class="st5" d="M93.6,72.7l0.1,0.2l0.1,0.5l0,0.6l-0.2,0.8l-0.4,1.5l-0.5,2.4l-0.6,2.5l-0.3,1.2c0,0-0.6,0.6-0.5,0.2
		c0-0.4,0.1-0.5,0.1-0.5L93.6,72.7z"/>
	<path class="st4" d="M80.7,72.6c0,0-0.2-0.3-0.2-0.4c-0.1-0.2,0-0.6,0-0.8c0-0.2,0.1-0.5,0.1-0.6c0.5-2,2-8,2-8s-0.2,0,0,0
		C82.8,62.7,80.7,72.6,80.7,72.6z"/>
	<path class="st4" d="M87.5,85.3c0,0-0.3-0.4-0.3-0.5c-0.1-0.2,0-0.6,0-0.8c0-0.2,0.1-0.6,0.1-0.8c0.5-2,1.9-7.8,1.9-7.8s-0.2,0,0,0
		C89.4,75.4,87.5,85.3,87.5,85.3z"/>
	<path class="st4" d="M77.3,47.3l-0.5,0.2l-0.2,0.1l-0.3,0.2L76,48.2l-0.2,0.5L75.7,49l-2.3,9.7l0.1,0.7l0.2,0.4
		c0,0,1.1,1.2,0.8,0.9c-0.9-0.9-0.4-2.4-0.4-2.4c0-0.2,0.1-0.5,0.1-0.7l1.6-7.3c0.2-0.8,0.3-1.1,0.6-1.8
		C76.4,48.4,76.5,48.1,77.3,47.3z"/>
</g>
<path class="st45" d="M363.5,59.6c0.3-1,1.5-1.6,1.9-2.6c0.3-0.7,0.2-1.5,0.4-2.2c0.3-1.1,1.3-1.9,2.2-2.7c0.8-0.6,1.7-1.3,2.7-1.1
	c1.2,0.2,2.1,1.6,3.3,1.5c0.5,0,0.9-0.3,1.4-0.4c0.9-0.2,1.9,0.4,2.4,1.1c0.5,0.8,0.7,1.8,0.6,2.7c-0.2,1.9-1.3,3.7-2.9,4.7
	c-0.3,0.2-0.6,0.3-0.9,0.3c-0.5,0-1-0.5-1.5-0.5c-0.5,0-0.9,0.4-1.1,0.8c-0.2,0.4-0.4,0.9-0.6,1.3c-0.5,0.8-1.6,1.2-2.5,1.2
	C366.9,63.9,362.6,62.3,363.5,59.6z"/>
<path class="st46" d="M374.3,60.8c0,0,0.2,0.1,0.2,0.1c0.1,0,0.3,0,0.4,0c0.2-0.1,0.6-0.3,0.8-0.4c0.3-0.2,0.8-0.7,1-0.9
	c0.3-0.3,0.8-1.1,1-1.5c0.1-0.2,0.2-0.6,0.3-0.9c0.1-0.3,0.2-0.8,0.2-1c0-0.2,0-0.6,0-0.8c0-0.2-0.1-0.6-0.1-0.8
	c-0.1-0.2-0.2-0.7-0.3-0.9c-0.1-0.2-0.6-0.8-1-1c-0.6-0.3-1.3-0.2-1.3-0.2C377.3,52.5,379,59,374.3,60.8z"/>
<g>
	<path class="st4" d="M364.7,59c0.2-0.2,0.4-0.5,0.5-0.7c0.2-0.2,0.4-0.4,0.5-0.7c0.1-0.2,0.2-0.5,0.3-0.8c0-0.3,0.1-0.6,0.1-0.9
		c0-0.3,0.1-0.6,0.2-0.9c0.1-0.3,0.1-0.6,0.3-0.9c0.1-0.3,0.3-0.5,0.5-0.8c0.2-0.2,0.5-0.3,0.8-0.4c-0.5,0.3-0.9,0.7-1,1.3
		c-0.1,0.3-0.1,0.6-0.2,0.8c-0.1,0.3-0.1,0.6-0.1,0.9c0,0.3-0.1,0.6-0.1,0.9c-0.1,0.3-0.2,0.6-0.4,0.8
		C365.6,58.3,365.2,58.6,364.7,59z"/>
</g>
<path class="st45" d="M440.3,56.6c0.1,1.1-0.7,2.1-0.7,3.1c0,0.7,0.4,1.4,0.5,2.1c0.2,1.2-0.4,2.3-1,3.3c-0.5,0.9-1.1,1.9-2.1,2.1
	c-1.2,0.3-2.5-0.6-3.6,0c-0.4,0.2-0.7,0.6-1.1,0.9c-0.8,0.5-1.9,0.4-2.7-0.1s-1.3-1.4-1.6-2.3c-0.6-1.8-0.3-3.9,0.8-5.5
	c0.2-0.3,0.4-0.5,0.7-0.6c0.5-0.2,1.1,0,1.6-0.2c0.5-0.2,0.7-0.7,0.7-1.2c0-0.5,0-1,0-1.5c0.2-1,0.9-1.7,1.8-2.1
	C435.5,54,440,53.8,440.3,56.6z"/>
<path class="st46" d="M430,59.8c0,0-0.2,0-0.2,0c-0.1,0-0.3,0.1-0.4,0.2c-0.2,0.1-0.5,0.5-0.6,0.7c-0.2,0.3-0.5,0.9-0.6,1.3
	c-0.1,0.4-0.3,1.3-0.3,1.8c0,0.2,0.1,0.7,0.1,0.9c0,0.3,0.1,0.8,0.2,1c0.1,0.2,0.2,0.6,0.3,0.8c0.1,0.2,0.3,0.5,0.4,0.7
	c0.1,0.2,0.5,0.5,0.6,0.7c0.2,0.1,0.9,0.5,1.3,0.5c0.6,0,1.2-0.3,1.2-0.3C430.5,68.6,426.3,63.4,430,59.8z"/>
<g>
	<path class="st4" d="M439.5,57.6c-0.1,0.3-0.2,0.6-0.2,0.9c-0.1,0.3-0.2,0.6-0.2,0.8c0,0.3,0,0.6,0,0.8c0.1,0.3,0.2,0.6,0.3,0.8
		c0.1,0.3,0.2,0.6,0.2,0.9c0,0.3,0.1,0.6,0.1,0.9c0,0.3-0.1,0.6-0.2,0.9c-0.1,0.3-0.4,0.5-0.6,0.7c0.3-0.5,0.5-1,0.4-1.6
		c0-0.3-0.1-0.6-0.2-0.8c0-0.3-0.1-0.6-0.2-0.8c-0.1-0.3-0.2-0.6-0.2-0.9c0-0.3,0-0.6,0-0.9C438.9,58.6,439.2,58.1,439.5,57.6z"/>
</g>
<g>
	<path class="st1" d="M401.1,107.6c1-0.3,1.9-1.1,2.9-1.3c0.5-0.1,1,0,1.6-0.1c1.2-0.2,2.1-1.3,2.2-2.5c0-0.7-0.2-1.4-0.1-2
		c0.2-1,1.2-1.7,1.6-2.7c0.5-1.2,0-2.7-1-3.5c-1-0.8-2.4-1-3.7-0.8c-1.9,0.4-3.5,1.6-4.7,3.2c-1.1,1.6-1.8,3.4-2.4,5.3
		c-0.4,1.4-0.8,2.3,0.2,3.4C398.6,107.5,399.8,108,401.1,107.6z"/>
	<path class="st45" d="M395.4,104.4c-0.1-1.1,0.7-2.1,0.7-3.1c0-0.7-0.4-1.4-0.6-2.1c-0.2-1.2,0.4-2.3,0.9-3.3
		c0.5-0.9,1.1-1.9,2-2.1c1.2-0.3,2.5,0.6,3.6,0c0.4-0.2,0.7-0.7,1.1-0.9c0.8-0.5,1.9-0.5,2.7,0s1.3,1.4,1.6,2.3
		c0.6,1.8,0.4,3.9-0.7,5.5c-0.2,0.3-0.4,0.5-0.7,0.7c-0.5,0.2-1.1,0-1.6,0.2c-0.5,0.2-0.7,0.7-0.7,1.2c0,0.5,0.1,1,0,1.5
		c-0.1,1-0.9,1.8-1.8,2.1C400.3,107,395.8,107.2,395.4,104.4z"/>
	<path class="st46" d="M405.7,101c0,0,0.2,0,0.2,0c0.1,0,0.3-0.1,0.4-0.2c0.2-0.1,0.5-0.5,0.6-0.7c0.2-0.3,0.5-0.9,0.6-1.3
		c0.1-0.4,0.3-1.3,0.3-1.8c0-0.2-0.1-0.7-0.1-0.9c0-0.3-0.1-0.8-0.2-1c-0.1-0.2-0.2-0.6-0.3-0.8c-0.1-0.2-0.3-0.5-0.4-0.7
		c-0.1-0.2-0.5-0.5-0.7-0.7c-0.2-0.1-0.9-0.5-1.3-0.5c-0.6,0-1.2,0.4-1.2,0.4C405.1,92.2,409.3,97.4,405.7,101z"/>
	<g>
		<path class="st4" d="M396.3,103.4c0.1-0.3,0.2-0.6,0.2-0.9c0.1-0.3,0.2-0.6,0.2-0.8c0-0.3,0-0.6-0.1-0.8c-0.1-0.3-0.2-0.5-0.3-0.8
			c-0.1-0.3-0.2-0.6-0.2-0.9c0-0.3-0.1-0.6-0.1-0.9c0-0.3,0.1-0.6,0.2-0.9c0.1-0.3,0.3-0.5,0.6-0.7c-0.3,0.5-0.5,1-0.4,1.6
			c0,0.3,0.1,0.6,0.2,0.8c0.1,0.3,0.1,0.6,0.2,0.8c0.1,0.3,0.2,0.6,0.2,0.9c0,0.3,0.1,0.6,0,0.9
			C396.8,102.3,396.5,102.8,396.3,103.4z"/>
	</g>
</g>
<path class="st45" d="M406.8,46c-0.2,1.1-1.2,1.8-1.5,2.9c-0.2,0.7,0.1,1.5,0,2.2c-0.1,1.2-1,2.1-1.8,3c-0.7,0.7-1.5,1.5-2.5,1.5
	c-1.2,0-2.3-1.2-3.5-0.9c-0.5,0.1-0.9,0.4-1.3,0.6c-0.9,0.3-1.9,0-2.6-0.7c-0.6-0.7-0.9-1.7-1-2.6c-0.1-1.9,0.7-3.9,2.1-5.1
	c0.2-0.2,0.5-0.4,0.8-0.5c0.5-0.1,1,0.3,1.6,0.2c0.5-0.1,0.8-0.5,1-1c0.2-0.5,0.2-1,0.4-1.4c0.4-0.9,1.3-1.5,2.3-1.6
	C402.7,42.3,407.2,43.2,406.8,46z"/>
<path class="st46" d="M395.9,46.6c0,0-0.2,0-0.2,0c-0.1,0-0.3,0-0.4,0.1c-0.2,0.1-0.6,0.4-0.7,0.5c-0.3,0.2-0.7,0.8-0.9,1.1
	c-0.2,0.4-0.6,1.2-0.7,1.6c-0.1,0.2-0.1,0.7-0.1,0.9c0,0.3-0.1,0.8-0.1,1.1c0,0.2,0.1,0.6,0.1,0.8c0,0.2,0.2,0.6,0.3,0.8
	c0.1,0.2,0.3,0.6,0.5,0.8c0.1,0.2,0.8,0.7,1.2,0.8c0.6,0.2,1.3,0,1.3,0C394.3,55.2,391.5,49.1,395.9,46.6z"/>
<g>
	<path class="st4" d="M405.7,46.8c-0.1,0.3-0.3,0.5-0.4,0.8c-0.1,0.3-0.3,0.5-0.4,0.8c-0.1,0.3-0.1,0.5-0.2,0.8c0,0.3,0,0.6,0,0.9
		c0,0.3,0,0.6,0,0.9c0,0.3,0,0.6-0.1,0.9c-0.1,0.3-0.2,0.6-0.4,0.8c-0.2,0.2-0.5,0.4-0.7,0.5c0.5-0.4,0.8-0.9,0.8-1.4
		c0-0.3,0-0.6,0.1-0.8c0-0.3,0-0.6,0-0.9c0-0.3,0-0.6,0-0.9c0-0.3,0.1-0.6,0.3-0.9C404.9,47.6,405.3,47.2,405.7,46.8z"/>
</g>
<g>
</g>
<g>
</g>
<g>
</g>
<g>
</g>
<g>
</g>
<g>
</g>
<g>
</g>
<g>
</g>
<g>
</g>
<g>
</g>
</svg>
